<svg width="27" height="24" viewBox="0 0 27 24" fill="none" xmlns="http://www.w3.org/2000/svg">
<path d="M5.01531 5.59619H24.383C24.5131 5.59619 24.6417 5.62409 24.7595 5.67793C24.8774 5.73176 24.9817 5.81021 25.065 5.90773C25.1484 6.00525 25.2088 6.11946 25.242 6.24229C25.2752 6.36511 25.2803 6.49355 25.2571 6.61853L23.32 17.0259C23.2828 17.2258 23.1749 17.4066 23.0152 17.5367C22.8554 17.6669 22.654 17.7382 22.4459 17.7382H8.02666C7.8187 17.7382 7.61732 17.6669 7.45763 17.5369C7.29793 17.4068 7.19003 17.2262 7.15272 17.0265L4.34066 1.97146C4.30335 1.77173 4.19545 1.5911 4.03575 1.46105C3.87605 1.331 3.67468 1.25977 3.46672 1.25977H1.46191" stroke="white" stroke-width="2" stroke-linecap="round" stroke-linejoin="round"/>
<path d="M8.56869 23.809C9.54994 23.809 10.3454 23.0324 10.3454 22.0744C10.3454 21.1164 9.54994 20.3398 8.56869 20.3398C7.58745 20.3398 6.79199 21.1164 6.79199 22.0744C6.79199 23.0324 7.58745 23.809 8.56869 23.809Z" fill="#FE5335"/>
<path d="M21.8939 23.809C22.8751 23.809 23.6706 23.0324 23.6706 22.0744C23.6706 21.1164 22.8751 20.3398 21.8939 20.3398C20.9126 20.3398 20.1172 21.1164 20.1172 22.0744C20.1172 23.0324 20.9126 23.809 21.8939 23.809Z" fill="#FE5335"/>
</svg>
