<svg width="43" height="42" viewBox="0 0 43 42" fill="none" xmlns="http://www.w3.org/2000/svg">
<circle cx="21.7197" cy="21" r="21" fill="#212121"/>
<path fill-rule="evenodd" clip-rule="evenodd" d="M24.8554 12.0802L22.904 12.0773C20.7113 12.0773 19.2947 13.6474 19.2947 16.0784V17.9231H17.3316C17.1621 17.9231 17.0255 18.0715 17.0255 18.2542V20.9268C17.0255 21.1107 17.1621 21.2587 17.3316 21.2587H19.2947V28.003C19.2947 28.1861 19.4313 28.3345 19.6009 28.3345H22.1618C22.3313 28.3345 22.468 28.1861 22.468 28.003V21.2587H24.7624C24.932 21.2587 25.0696 21.1107 25.0696 20.9268L25.0705 18.2542C25.0705 18.1664 25.0385 18.0826 24.9804 18.0204C24.9232 17.9575 24.8448 17.9231 24.7634 17.9231H22.4689V16.3588C22.4689 15.6071 22.6346 15.2257 23.5406 15.2257H24.8554C25.025 15.2257 25.1626 15.0773 25.1626 14.8942V12.4129C25.1626 12.2294 25.025 12.081 24.8554 12.0802Z" fill="white"/>
</svg>
