<svg width="43" height="42" viewBox="0 0 43 42" fill="none" xmlns="http://www.w3.org/2000/svg">
<circle cx="21.7197" cy="21" r="21" fill="#212121"/>
<path fill-rule="evenodd" clip-rule="evenodd" d="M18.8056 12.6553H24.908C27.7169 12.6553 29.9939 14.9325 29.9939 17.7408V23.8437C29.9939 26.6527 27.7169 28.9296 24.908 28.9296H18.8056C15.9967 28.9296 13.7188 26.6527 13.7188 23.8437V17.7408C13.7188 14.9325 15.9967 12.6553 18.8056 12.6553ZM24.908 27.4045C26.871 27.4045 28.4688 25.8066 28.4688 23.8437V17.7408C28.4688 15.7774 26.871 14.1808 24.908 14.1808H18.8056C16.8416 14.1808 15.2448 15.7774 15.2448 17.7408V23.8437C15.2448 25.8066 16.8416 27.4045 18.8056 27.4045H24.908ZM17.7883 20.7922C17.7883 18.5452 19.6098 16.7233 21.8568 16.7233C24.1038 16.7233 25.9254 18.5452 25.9254 20.7922C25.9254 23.0392 24.1038 24.8611 21.8568 24.8611C19.6098 24.8611 17.7883 23.0392 17.7883 20.7922ZM19.3134 20.7922C19.3134 22.1943 20.4548 23.3352 21.8568 23.3352C23.2579 23.3352 24.3993 22.1943 24.3993 20.7922C24.3993 19.3897 23.2579 18.2489 21.8568 18.2489C20.4548 18.2489 19.3134 19.3897 19.3134 20.7922ZM26.7722 16.4184C26.7722 16.1192 26.53 15.8764 26.2306 15.8764C25.9312 15.8764 25.688 16.1192 25.688 16.4184C25.688 16.7172 25.9312 16.9604 26.2306 16.9604C26.53 16.9604 26.7722 16.7172 26.7722 16.4184Z" fill="white"/>
</svg>
