<svg width="112" height="98" viewBox="0 0 112 98" fill="none" xmlns="http://www.w3.org/2000/svg">
<path d="M46.9821 74.5972H48.0539V84.7962H48.1053L48.7484 83.907C50.5363 82.0279 53.1859 81.0883 56.6886 81.0883C59.6212 81.0883 61.9021 81.773 63.5313 83.1482C65.1605 84.5206 65.9708 86.293 65.9708 88.4716V97.0404H64.8989V88.5101C64.8989 86.5064 64.1829 84.8881 62.7553 83.6521C61.3233 82.4161 59.2696 81.7967 56.5857 81.7967C54.725 81.7967 53.1258 82.1257 51.7839 82.7807C50.442 83.4358 49.4945 84.1649 48.9414 84.9681C48.3883 85.7714 48.0925 86.5568 48.0582 87.3245V97.0434H46.9863V74.5972H46.9821Z" fill="black"/>
<path d="M88.7751 97.037H87.9691L87.8105 93.7352H87.7033C86.953 94.7251 85.7182 95.5847 83.999 96.3138C82.284 97.043 80.3505 97.4075 78.2025 97.4075C75.45 97.4075 73.3578 96.9629 71.9258 96.0708C70.4938 95.1816 69.7778 94.0553 69.7778 92.6948C69.7778 91.3343 70.5667 90.1962 72.1402 89.2833C73.7136 88.3674 76.1831 87.9109 79.5444 87.9109C82.7642 87.9109 85.4824 88.3318 87.699 89.1736V87.8754C87.699 83.8206 84.8565 81.7933 79.1671 81.7933C78.061 81.7933 76.9163 81.903 75.733 82.1282C74.5539 82.3505 73.6579 82.5728 73.0491 82.7951L72.0844 83.13L71.6 82.4631C73.8894 81.5473 76.4833 81.0908 79.3815 81.0908C82.5284 81.0908 84.8822 81.7103 86.4385 82.9463C87.9948 84.1823 88.7708 85.8391 88.7708 87.9169V97.037H88.7751ZM84.775 95.1075C86.58 94.0434 87.5575 93.0564 87.699 92.1405V89.9531C85.4438 89.0639 82.7642 88.6164 79.6516 88.6164C76.6119 88.6164 74.3867 88.9987 72.9719 89.7664C71.5614 90.5311 70.854 91.5092 70.854 92.6948C70.854 93.833 71.4885 94.7844 72.7575 95.5521C74.0266 96.3168 75.8959 96.7021 78.3654 96.7021C80.8349 96.7021 82.97 96.1716 84.775 95.1075Z" fill="black"/>
<path d="M94.5371 76.0436C94.3056 75.8954 94.1855 75.6968 94.1855 75.4508C94.1855 75.2047 94.3013 75.0002 94.5371 74.8402C94.7686 74.6801 95.0645 74.6001 95.4203 74.6001C95.7762 74.6001 96.072 74.6801 96.3035 74.8402C96.5351 75.0002 96.6508 75.2047 96.6508 75.4508C96.6508 75.6968 96.5351 75.8954 96.3035 76.0436C96.072 76.1918 95.7762 76.2659 95.4203 76.2659C95.0645 76.2659 94.7686 76.1918 94.5371 76.0436ZM94.8887 81.4587H95.9605V97.0374H94.8887V81.4587Z" fill="black"/>
<path d="M111.301 82.1605H110.551C108.369 82.1605 106.662 82.6852 105.428 83.7374C104.193 84.7896 103.541 86.0671 103.468 87.5757V97.0338H102.396V81.4551H103.202L103.472 84.7185H103.524L103.631 84.5703C103.67 84.4724 103.764 84.3242 103.927 84.1257C104.09 83.9271 104.283 83.7107 104.519 83.4765C104.75 83.2424 105.063 83.0053 105.458 82.7711C105.852 82.537 106.272 82.3206 106.718 82.122C107.164 81.9234 107.73 81.7634 108.407 81.6389C109.089 81.5144 109.801 81.4521 110.551 81.4521H111.301V82.1605Z" fill="black"/>
<path d="M9.40318 73.8891H0.0653076V55.059H5.70748L7.19947 57.6139H7.65393C9.55752 55.6103 12.4086 54.6114 16.2115 54.6114C20.4903 54.6114 23.6501 55.6577 25.6823 57.7502H26.0038C27.9503 55.628 30.7585 54.564 34.4371 54.564C37.8927 54.564 40.628 55.305 42.6388 56.784C44.6496 58.266 45.6528 60.2726 45.6528 62.8127V73.8891H36.3149V63.3077C36.3149 62.4422 35.9334 61.716 35.1788 61.1321C34.4242 60.5512 33.3781 60.2607 32.0361 60.2607C30.7414 60.2607 29.691 60.5127 28.8892 61.0225C28.0875 61.5323 27.6459 62.1873 27.5602 62.9965V73.892H18.2223V63.3107C18.2223 62.4452 17.8321 61.719 17.0518 61.1351C16.2758 60.5542 15.2168 60.2637 13.8749 60.2637C12.4944 60.2637 11.4011 60.5393 10.5993 61.0936C9.79761 61.6449 9.39889 62.3859 9.39889 63.3107V73.8891H9.40318Z" fill="black"/>
<path d="M66.8621 55.0586H76.2V73.8887H69.8461L68.2898 71.3782H67.8997C65.9575 73.3522 63.3379 74.3363 60.0538 74.3363C56.5982 74.3363 53.85 73.6042 51.8178 72.14C49.7856 70.6758 48.7695 68.6721 48.7695 66.132V55.0586H58.1074V65.6844C58.1074 66.6388 58.4718 67.4184 59.2092 68.0141C59.9466 68.6128 60.9842 68.9122 62.3218 68.9122C63.7066 68.9122 64.8085 68.6069 65.6317 67.9934C66.4548 67.3798 66.8664 66.6566 66.8664 65.8178V55.0586H66.8621Z" fill="black"/>
<path d="M79.9603 46.7651H89.2981V66.1406L79.9603 73.8914V46.7651Z" fill="black"/>
<path d="M95.2662 55.0591V49.3208H104.604V55.0591H110.701V60.0356H104.604V67.1639C104.604 68.2725 105.427 68.8238 107.069 68.8238C107.459 68.8238 107.858 68.7793 108.27 68.6904C108.681 68.6015 108.994 68.5096 109.209 68.4207L109.47 68.2873L112 72.6799C109.925 73.7855 107.417 74.3397 104.475 74.3397C101.32 74.3397 98.9962 73.7203 97.5042 72.4784C96.0122 71.2365 95.2662 69.5707 95.2662 67.4781V60.0356H90.7902V55.0591H95.2662Z" fill="black"/>
<path d="M0.000244141 41.9351C22.0201 41.9351 35.7054 17.3578 46.5867 17.3578C46.5867 17.3578 49.0948 17.3074 49.6393 19.5481C49.7593 20.0402 49.8837 20.5826 49.9994 21.1279C50.4239 23.0812 50.8912 26.4927 51.4614 27.9807C52.0016 29.3856 52.9706 30.8794 54.7027 31.3803C54.7027 31.3803 55.7316 31.7775 57.3608 31.7775C63.8433 31.7775 70.3258 26.2645 79.0506 26.2645C93.5247 26.2645 91.0509 42.0773 110.708 42.0773V46.3455C91.0509 46.3455 93.5247 30.5326 79.0506 30.5326C70.3258 30.5326 63.8433 36.0456 57.3608 36.0456C55.7316 36.0456 54.7027 35.6485 54.7027 35.6485C52.9663 35.1476 51.9973 33.6537 51.4614 32.2488C50.8912 30.7609 50.4239 27.3493 49.9994 25.3961C49.8794 24.8477 49.7551 24.3053 49.6393 23.8163C49.0948 21.5755 46.5867 21.6259 46.5867 21.6259C35.7054 21.6259 22.0201 46.2032 0.000244141 46.2032V41.9351Z" fill="black"/>
<path d="M0.000244141 33.2561C22.0201 33.2561 35.7054 8.6788 46.5867 8.6788C46.5867 8.6788 49.0948 8.62842 49.6393 10.8692C49.7593 11.3612 49.8837 11.9036 49.9994 12.449C50.4239 14.4022 50.8912 17.8138 51.4614 19.3017C52.0016 20.7066 52.9706 22.2005 54.7027 22.7014C54.7027 22.7014 55.7316 23.0985 57.3608 23.0985C63.8433 23.0985 70.3258 17.5855 79.0506 17.5855C93.5247 17.5855 91.0509 33.3983 110.708 33.3983V37.6665C91.0509 37.6665 93.5247 21.8537 79.0506 21.8537C70.3258 21.8537 63.8433 27.3667 57.3608 27.3667C55.7316 27.3667 54.7027 26.9695 54.7027 26.9695C52.9663 26.4686 51.9973 24.9747 51.4614 23.5698C50.8912 22.0819 50.4239 18.6704 49.9994 16.7171C49.8794 16.1688 49.7551 15.6264 49.6393 15.1373C49.0948 12.8965 46.5867 12.9469 46.5867 12.9469C35.7054 12.9469 22.0201 37.5242 0.000244141 37.5242V33.2561Z" fill="black"/>
<path d="M0 24.5774C22.0199 24.5774 35.7051 9.33322e-05 46.5864 9.33322e-05C46.5864 9.33322e-05 49.0945 -0.0502945 49.639 2.19047C49.7591 2.68249 49.8834 3.2249 49.9992 3.77027C50.4236 5.72354 50.8909 9.13507 51.4612 10.623C52.0014 12.0279 52.9703 13.5218 54.7024 14.0227C54.7024 14.0227 55.7314 14.4198 57.3606 14.4198C63.843 14.4198 70.3255 8.90685 79.0503 8.90685C93.5244 8.90685 91.0506 24.7197 110.708 24.7197V28.9878C91.0506 28.9878 93.5244 13.175 79.0503 13.175C70.3255 13.175 63.843 18.688 57.3606 18.688C55.7314 18.688 54.7024 18.2908 54.7024 18.2908C52.966 17.7899 51.9971 16.296 51.4612 14.8911C50.8909 13.4032 50.4236 9.99166 49.9992 8.0384C49.8791 7.49006 49.7548 6.94766 49.639 6.4586C49.0945 4.21784 46.5864 4.26822 46.5864 4.26822C35.7051 4.26822 22.0199 28.8455 0 28.8455V24.5774Z" fill="black"/>
</svg>
