<svg width="65" height="60" viewBox="0 0 65 60" fill="none" xmlns="http://www.w3.org/2000/svg">
<path d="M27.1562 45.9492H27.7758V52.2315H27.8055L28.1772 51.6838C29.2106 50.5263 30.7421 49.9475 32.7667 49.9475C34.4617 49.9475 35.7801 50.3693 36.7217 51.2164C37.6634 52.0617 38.1318 53.1535 38.1318 54.4954V59.7735H37.5122V54.5191C37.5122 53.2849 37.0984 52.2881 36.2732 51.5268C35.4455 50.7654 34.2585 50.3839 32.7072 50.3839C31.6317 50.3839 30.7074 50.5865 29.9317 50.99C29.1561 51.3935 28.6084 51.8426 28.2887 52.3374C27.9691 52.8321 27.7981 53.316 27.7783 53.7888V59.7753H27.1587V45.9492H27.1562Z" fill="#FF7A00"/>
<path d="M51.3125 59.7715H50.8466L50.7549 57.7377H50.693C50.2593 58.3475 49.5456 58.877 48.5519 59.3261C47.5606 59.7752 46.443 59.9998 45.2015 59.9998C43.6106 59.9998 42.4012 59.7259 41.5736 59.1764C40.7459 58.6287 40.332 57.9349 40.332 57.0969C40.332 56.2589 40.788 55.5578 41.6975 54.9955C42.6069 54.4313 44.0343 54.1502 45.9771 54.1502C47.8382 54.1502 49.4093 54.4094 50.6905 54.9279V54.1283C50.6905 51.6307 49.0475 50.3819 45.7591 50.3819C45.1197 50.3819 44.4581 50.4495 43.7741 50.5882C43.0926 50.7251 42.5747 50.8621 42.2228 50.999L41.6652 51.2053L41.3852 50.7945C42.7085 50.2304 44.2078 49.9492 45.883 49.9492C47.7019 49.9492 49.0624 50.3308 49.9619 51.0921C50.8615 51.8534 51.31 52.874 51.31 54.1538V59.7715H51.3125ZM49.0004 58.583C50.0437 57.9276 50.6087 57.3196 50.6905 56.7555V55.4081C49.387 54.8604 47.8382 54.5847 46.0391 54.5847C44.2821 54.5847 42.996 54.8202 42.1782 55.2931C41.3629 55.7641 40.954 56.3666 40.954 57.0969C40.954 57.798 41.3208 58.384 42.0543 58.8569C42.7878 59.3279 43.8683 59.5652 45.2957 59.5652C46.7231 59.5652 47.9571 59.2384 49.0004 58.583Z" fill="#FF7A00"/>
<path d="M54.6436 46.8403C54.5098 46.749 54.4404 46.6267 54.4404 46.4751C54.4404 46.3236 54.5073 46.1976 54.6436 46.0991C54.7775 46.0005 54.9484 45.9512 55.1541 45.9512C55.3598 45.9512 55.5308 46.0005 55.6646 46.0991C55.7984 46.1976 55.8654 46.3236 55.8654 46.4751C55.8654 46.6267 55.7984 46.749 55.6646 46.8403C55.5308 46.9316 55.3598 46.9772 55.1541 46.9772C54.9484 46.9772 54.7775 46.9316 54.6436 46.8403ZM54.8468 50.1759H55.4664V59.7718H54.8468V50.1759Z" fill="#FF7A00"/>
<path d="M64.3326 50.6082H63.8989C62.6376 50.6082 61.6513 50.9314 60.9376 51.5795C60.2239 52.2276 59.8472 53.0145 59.8051 53.9438V59.7696H59.1855V50.1737H59.6514L59.8076 52.1838H59.8373L59.8992 52.0925C59.9215 52.0323 59.9761 51.941 60.0702 51.8187C60.1644 51.6963 60.2759 51.5631 60.4122 51.4188C60.546 51.2746 60.7269 51.1286 60.9549 50.9843C61.1829 50.8401 61.4258 50.7068 61.6835 50.5845C61.9412 50.4622 62.2683 50.3636 62.6599 50.2869C63.0539 50.2102 63.4652 50.1719 63.8989 50.1719H64.3326V50.6082Z" fill="#FF7A00"/>
<path d="M5.4354 45.513H0.0380859V33.9143H3.29927L4.16165 35.488H4.42432C5.5246 34.2539 7.17255 33.6386 9.37062 33.6386C11.8438 33.6386 13.6701 34.2831 14.8448 35.572H15.0306C16.1557 34.2648 17.7788 33.6094 19.905 33.6094C21.9024 33.6094 23.4834 34.0658 24.6457 34.9768C25.8079 35.8897 26.3878 37.1257 26.3878 38.6903V45.513H20.9904V38.9952C20.9904 38.4621 20.7699 38.0148 20.3338 37.6552C19.8976 37.2973 19.2929 37.1184 18.5173 37.1184C17.7689 37.1184 17.1618 37.2736 16.6984 37.5876C16.235 37.9016 15.9797 38.3051 15.9302 38.8035V45.5148H10.5329V38.9971C10.5329 38.4639 10.3073 38.0166 9.85633 37.657C9.40779 37.2991 8.7957 37.1202 8.02006 37.1202C7.22211 37.1202 6.59019 37.29 6.12678 37.6314C5.66337 37.971 5.43291 38.4274 5.43291 38.9971V45.513H5.4354Z" fill="#FF7A00"/>
<path d="M38.647 33.9141H44.0443V45.5128H40.3718L39.4722 43.9664H39.2467C38.1241 45.1824 36.61 45.7885 34.7118 45.7885C32.7145 45.7885 31.126 45.3375 29.9514 44.4356C28.7768 43.5337 28.1895 42.2996 28.1895 40.7349V33.9141H33.5867V40.4592C33.5867 41.0471 33.7974 41.5273 34.2236 41.8942C34.6498 42.263 35.2495 42.4474 36.0227 42.4474C36.8231 42.4474 37.46 42.2594 37.9358 41.8815C38.4116 41.5035 38.6495 41.0581 38.6495 40.5414V33.9141H38.647Z" fill="#FF7A00"/>
<path d="M46.2178 28.8057H51.6151V40.7403L46.2178 45.5146V28.8057Z" fill="#FF7A00"/>
<path d="M55.0647 33.9145V30.3799H60.462V33.9145H63.9859V36.9798H60.462V41.3707C60.462 42.0535 60.9378 42.3931 61.8869 42.3931C62.1124 42.3931 62.3429 42.3657 62.5808 42.3109C62.8187 42.2561 62.9996 42.1995 63.1235 42.1448L63.2747 42.0626L64.7368 44.7683C63.5373 45.4493 62.0877 45.7907 60.3877 45.7907C58.5638 45.7907 57.2206 45.4091 56.3583 44.6442C55.4959 43.8792 55.0647 42.8531 55.0647 41.5642V36.9798H52.4775V33.9145H55.0647Z" fill="#FF7A00"/>
<path d="M0 25.8303C12.7275 25.8303 20.6376 10.6915 26.9271 10.6915C26.9271 10.6915 28.3768 10.6604 28.6915 12.0407C28.7609 12.3437 28.8327 12.6778 28.8996 13.0138C29.145 14.2169 29.4151 16.3183 29.7447 17.2348C30.0569 18.1002 30.617 19.0204 31.6181 19.3289C31.6181 19.3289 32.2129 19.5736 33.1545 19.5736C36.9014 19.5736 40.6483 16.1777 45.6913 16.1777C54.0573 16.1777 52.6275 25.9179 63.9896 25.9179V28.5469C52.6275 28.5469 54.0573 18.8068 45.6913 18.8068C40.6483 18.8068 36.9014 22.2026 33.1545 22.2026C32.2129 22.2026 31.6181 21.9579 31.6181 21.9579C30.6145 21.6494 30.0544 20.7292 29.7447 19.8638C29.4151 18.9473 29.145 16.8459 28.8996 15.6428C28.8302 15.305 28.7584 14.9709 28.6915 14.6697C28.3768 13.2895 26.9271 13.3205 26.9271 13.3205C20.6376 13.3205 12.7275 28.4593 0 28.4593V25.8303Z" fill="#FF7A00"/>
<path d="M0 20.4846C12.7275 20.4846 20.6376 5.34576 26.9271 5.34576C26.9271 5.34576 28.3768 5.31472 28.6915 6.69496C28.7609 6.99803 28.8327 7.33213 28.8996 7.66807C29.145 8.87121 29.4151 10.9726 29.7447 11.8891C30.0569 12.7545 30.617 13.6747 31.6181 13.9832C31.6181 13.9832 32.2129 14.2278 33.1545 14.2278C36.9014 14.2278 40.6483 10.832 45.6913 10.832C54.0573 10.832 52.6275 20.5722 63.9896 20.5722V23.2012C52.6275 23.2012 54.0573 13.461 45.6913 13.461C40.6483 13.461 36.9014 16.8569 33.1545 16.8569C32.2129 16.8569 31.6181 16.6122 31.6181 16.6122C30.6145 16.3037 30.0544 15.3835 29.7447 14.5181C29.4151 13.6016 29.145 11.5002 28.8996 10.2971C28.8302 9.95933 28.7584 9.62523 28.6915 9.32399C28.3768 7.94375 26.9271 7.97479 26.9271 7.97479C20.6376 7.97479 12.7275 23.1136 0 23.1136V20.4846Z" fill="#FF7A00"/>
<path d="M0 15.1389C12.7275 15.1389 20.6376 5.74896e-05 26.9271 5.74896e-05C26.9271 5.74896e-05 28.3768 -0.0309798 28.6915 1.34926C28.7609 1.65233 28.8327 1.98643 28.8996 2.32236C29.145 3.52551 29.4151 5.6269 29.7447 6.54341C30.0569 7.4088 30.617 8.32896 31.6181 8.6375C31.6181 8.6375 32.2129 8.88215 33.1545 8.88215C36.9014 8.88215 40.6483 5.48632 45.6913 5.48632C54.0573 5.48632 52.6275 15.2265 63.9896 15.2265V17.8555C52.6275 17.8555 54.0573 8.11535 45.6913 8.11535C40.6483 8.11535 36.9014 11.5112 33.1545 11.5112C32.2129 11.5112 31.6181 11.2665 31.6181 11.2665C30.6145 10.958 30.0544 10.0378 29.7447 9.17244C29.4151 8.25593 29.145 6.15453 28.8996 4.95139C28.8302 4.61363 28.7584 4.27953 28.6915 3.97829C28.3768 2.59805 26.9271 2.62909 26.9271 2.62909C20.6376 2.62909 12.7275 17.7679 0 17.7679V15.1389Z" fill="#FF7A00"/>
</svg>
