<svg width="193" height="25" viewBox="0 0 193 25" fill="none" xmlns="http://www.w3.org/2000/svg">
<path d="M0.182935 2.13576C0.116979 2.21385 0.067119 2.30422 0.0362302 2.40165C0.00534142 2.49908 -0.00596263 2.60167 0.00295781 2.70349C0.0118783 2.80531 0.0408501 2.90436 0.0882102 2.99494C0.13557 3.08552 0.200377 3.16584 0.278905 3.23126C10.5025 11.6052 23.0428 16.6518 36.2169 17.6939C50.5459 18.7906 64.792 15.036 78.5686 11.4037C92.5931 7.70686 106.79 3.82192 121.214 5.22585C121.414 5.24639 121.614 5.18713 121.77 5.06096C121.927 4.93478 122.323 4.81732 122.345 4.61758C122.356 4.51616 122.347 4.41356 122.319 4.31567C122.29 4.21778 122.242 4.12652 122.178 4.04714C122.114 3.96775 122.035 3.90179 121.945 3.85306C121.855 3.80432 121.757 3.77377 121.656 3.76314C106.957 2.33145 92.3314 6.18917 78.1761 9.92047C64.5214 13.5137 50.4053 17.2357 36.3354 16.1551C23.4744 15.1374 11.2325 10.2099 1.25279 2.03398C1.09902 1.90585 0.900808 1.84374 0.701413 1.8612C0.502017 1.87867 0.317615 1.97428 0.188459 2.1272L0.182935 2.13576Z" fill="#282828"/>
<path d="M172.943 13.0353C172.745 13.036 172.554 12.9615 172.409 12.8269C172.264 12.6923 172.176 12.5076 172.162 12.3103C171.844 9.84698 170.832 7.52497 169.243 5.61583C164.408 -0.580621 161.016 -0.227585 159.787 0.213183C158.962 0.555321 158.269 1.15455 157.812 1.92182C157.354 2.68909 157.157 3.58345 157.248 4.47199C157.321 7.4843 159.626 11.6975 165.91 13.6263C167.141 14.0053 168.402 14.2755 169.68 14.4338C169.794 14.4465 169.904 14.4843 170.001 14.5445C170.098 14.6046 170.181 14.6857 170.244 14.7818C170.306 14.8778 170.346 14.9865 170.361 15.1C170.377 15.2135 170.367 15.329 170.332 15.4381C169.845 16.9059 168.982 18.2207 167.83 19.2518C162.539 24.1884 151.78 24.8718 144.201 18.0468C132.929 7.89323 125.727 3.8038 121.727 3.8038C121.627 3.76933 121.521 3.75601 121.415 3.7647C121.31 3.77339 121.208 3.8039 121.115 3.85427C121.022 3.90465 120.941 3.9738 120.876 4.05732C120.811 4.14085 120.764 4.23693 120.739 4.33946L120.738 4.34837C120.688 4.53273 120.71 4.72905 120.798 4.89817C120.887 5.0673 121.036 5.19681 121.216 5.26089C125.227 6.3662 132.159 9.26917 143.168 19.1918C151.387 26.5787 163.094 25.7751 168.869 20.3858C170.409 19.0186 171.495 17.2145 171.983 15.2142C172.019 15.0443 172.112 14.8918 172.246 14.7815C172.381 14.6712 172.548 14.6096 172.722 14.6069C182.284 14.4847 190.192 8.5264 192.414 6.68285C192.494 6.61681 192.559 6.53523 192.607 6.44306C192.654 6.35089 192.682 6.25006 192.689 6.14668C192.697 6.04329 192.683 5.93951 192.649 5.84164C192.615 5.74377 192.561 5.65386 192.491 5.57734L192.481 5.56584C192.35 5.41987 192.169 5.32981 191.974 5.3144C191.778 5.299 191.585 5.35943 191.433 5.48313C189.384 7.15602 181.846 12.7825 172.943 13.0353ZM166.369 12.1553C161.216 10.5745 158.848 7.13991 158.785 4.43865C158.785 4.2088 158.798 3.97913 158.826 3.75096C158.85 3.29806 159.002 2.86128 159.264 2.49122C159.526 2.12117 159.888 1.83299 160.307 1.66007C161.776 1.13233 164.58 2.14937 168.026 6.55657C169.325 8.11783 170.202 9.98595 170.573 11.9826C170.593 12.1001 170.585 12.2206 170.55 12.3345C170.515 12.4485 170.455 12.5529 170.373 12.6396C170.291 12.7263 170.191 12.7929 170.079 12.8344C169.967 12.8758 169.848 12.8909 169.729 12.8785C168.591 12.7334 167.467 12.4928 166.369 12.1592L166.369 12.1553Z" fill="#282828"/>
<path d="M118.727 3.86124C120.727 3.46124 124.227 3.86144 125.727 4.86145L124.227 5.36147C121.394 4.86146 116.727 4.26124 118.727 3.86124Z" fill="#282828"/>
</svg>
