<svg width="152" height="25" viewBox="0 0 152 25" fill="none" xmlns="http://www.w3.org/2000/svg">
<path d="M12 0.188477L14.6942 8.48027H23.4127L16.3593 13.6049L19.0534 21.8967L12 16.7721L4.94658 21.8967L7.64074 13.6049L0.587322 8.48027H9.30583L12 0.188477Z" fill="#FFD809"/>
<path d="M44 0.188477L46.6942 8.48027H55.4127L48.3593 13.6049L51.0534 21.8967L44 16.7721L36.9466 21.8967L39.6407 13.6049L32.5873 8.48027H41.3058L44 0.188477Z" fill="#FFD809"/>
<path d="M76 0.188477L78.6942 8.48027H87.4127L80.3593 13.6049L83.0534 21.8967L76 16.7721L68.9466 21.8967L71.6407 13.6049L64.5873 8.48027H73.3058L76 0.188477Z" fill="#FFD809"/>
<path d="M108 0.188477L110.694 8.48027H119.413L112.359 13.6049L115.053 21.8967L108 16.7721L100.947 21.8967L103.641 13.6049L96.5873 8.48027H105.306L108 0.188477Z" fill="#FFD809"/>
<path d="M140 0.188477L142.694 8.48027H151.413L144.359 13.6049L147.053 21.8967L140 16.7721L132.947 21.8967L135.641 13.6049L128.587 8.48027H137.306L140 0.188477Z" fill="#FFD809"/>
</svg>
