<svg width="558" height="255" viewBox="0 0 558 255" fill="none" xmlns="http://www.w3.org/2000/svg">
<mask id="mask0" mask-type="alpha" maskUnits="userSpaceOnUse" x="0" y="0" width="558" height="255">
<rect width="558" height="255" fill="#C4C4C4"/>
</mask>
<g mask="url(#mask0)">
<path d="M2179.22 35.313C2162.87 31.6967 2146.28 29.264 2129.59 28.0339C2125.81 27.7469 2122.03 27.5333 2118.24 27.3602C2103.11 26.6723 2087.95 26.8227 2072.83 27.8109C2069.91 27.9869 2066.98 28.2442 2064.06 28.495C2032.09 31.3238 2000.46 37.1739 1969.6 45.9667C1913.67 62.1946 1856.96 75.6115 1799.68 86.1673C1791.35 87.6343 1783.02 89.0056 1774.67 90.2808C1768.5 91.2204 1762.33 92.1848 1756.14 93.0105C1696.91 101.225 1636.62 97.0786 1579.07 80.8338C1561.32 75.8632 1543.86 69.9106 1526.77 63.0033C1519.22 59.9562 1511.8 56.6992 1504.44 53.326C1472.19 38.17 1441.07 20.6865 1411.35 1.0142C1408.24 -1.00212 1405.13 -3.03124 1402.04 -5.0731C1391.75 -11.8811 1381.52 -18.8589 1371.37 -25.8881C1369.02 -27.5126 1366.69 -29.1296 1364.33 -30.7676C1357.15 -35.7645 1349.98 -40.783 1342.83 -45.8234L1331.98 -53.4491L1331.56 -53.7459C1316.87 -64.0612 1302.07 -74.1108 1287.03 -83.6606C1286.63 -83.9088 1286.24 -84.151 1285.84 -84.4039C1284.23 -85.4284 1282.6 -86.4261 1280.98 -87.4378C1252.64 -105.449 1222.77 -120.926 1191.72 -133.689C1189 -134.779 1186.25 -135.786 1183.51 -136.85C1169.63 -142.127 1155.46 -146.63 1141.08 -150.339C1138.12 -151.098 1135.16 -151.769 1132.2 -152.459C1129.03 -153.192 1125.87 -153.875 1122.7 -154.529C1089.24 -161.31 1055.11 -164.2 1020.99 -163.141C1013.13 -162.924 1005.27 -162.526 997.418 -161.946C977.225 -160.429 957.131 -157.802 937.227 -154.078C853.124 -138.4 778.817 -104.538 702.451 -67.131C664.79 -48.6895 630.396 -22.819 595.343 0.0871485C573.665 14.2337 551.577 27.7149 529.922 41.904C517.768 49.8732 505.754 58.0667 494.061 66.752C486.248 72.5605 478.309 78.2901 470.244 83.9409C403.293 130.77 327.631 169.219 243.806 161.245C201.593 157.229 160.495 145.564 118.372 139.332C83.1827 134.12 45.6088 127.475 12.718 144.618C11.6288 145.186 12.5339 146.715 13.618 146.253C48.6132 131.401 88.7383 140.997 124.697 147.045C141.894 149.942 159.037 152.353 176.036 156.353C191.061 159.887 205.232 166.769 220.732 167.519C252.405 169.04 282.591 172.925 314.458 168.899C346.874 164.306 378.003 153.115 405.924 136.017C433.132 118.601 462.248 104.455 488.761 85.5092C516.185 65.903 544.568 48.2602 572.302 29.1882C630.042 -9.83563 689.979 -45.5068 751.815 -77.6485C882.98 -147.295 1047.09 -175.322 1188.13 -120.729C1259.54 -93.0967 1320.73 -43.1433 1382.95 0.206462C1440.93 41.408 1504.88 73.4965 1572.57 95.3585C1731.45 144.949 1887.41 73.0139 2042.94 47.1763C2087.26 39.6682 2132.64 41.0117 2176.44 51.1291C2220.25 61.2465 2261.62 79.9377 2298.16 106.124C2315.3 118.954 2331.51 132.978 2346.67 148.093C2358.64 159.511 2366.88 172.725 2377.6 184.644C2407.17 217.605 2420.33 258.871 2441.35 296.831C2444.97 303.367 2454.55 297.94 2451.42 291.295C2436.84 260.36 2426.63 229.228 2408.43 199.972C2392.65 174.839 2373.73 151.83 2352.1 131.51C2319.27 99.5614 2281.07 73.6452 2239.24 54.9494C2235.66 53.3989 2232.04 51.8962 2228.4 50.4567C2212.42 44.137 2195.98 39.0737 2179.22 35.313Z" fill="black" fill-opacity="0.12"/>
</g>
</svg>
