<svg width="288" height="262" viewBox="0 0 288 262" fill="none" xmlns="http://www.w3.org/2000/svg">
<path d="M164.096 345.132C164.063 343.58 164.015 342.082 163.854 340.54C163.66 338.695 163.943 337.01 163.192 335.233C162.731 333.881 162.471 332.469 162.42 331.042C162.223 329.188 161.633 327.447 161.355 325.614C161.156 324.301 160.258 322.954 160.29 321.642C160.327 320.16 159.37 318.612 158.988 317.187C158.593 315.713 158.237 314.224 157.775 312.769C157.482 312.061 157.231 311.336 157.025 310.598C156.908 309.696 156.724 308.804 156.474 307.93C155.857 306.176 155.231 304.425 154.55 302.695C153.869 300.966 152.954 299.337 152.338 297.589C151.845 295.991 151.183 294.449 150.362 292.991C149.245 291.174 148.01 289.431 146.667 287.774C145.656 286.527 144.81 285.1 143.857 283.801C142.656 282.174 141.43 280.567 140.179 278.98C138.026 276.24 136.035 273.466 133.322 271.236C131.944 270.105 130.721 268.805 129.41 267.596C128.042 266.331 126.618 265.121 125.225 263.882C122.316 261.362 119.162 259.14 115.81 257.248C113.09 255.666 110.672 253.657 107.799 252.309C104.926 250.962 102.076 249.62 99.1378 248.428C92.5816 245.769 85.8973 243.638 79.1315 241.578C66.5441 237.753 52.8063 236.901 41.3132 230.009C41.3063 230.005 41.3012 229.999 41.2991 229.991C41.2971 229.983 41.2982 229.975 41.3021 229.968C41.3061 229.961 41.3127 229.956 41.3204 229.954C41.3281 229.952 41.3363 229.953 41.3432 229.957C47.8537 233.492 55.0183 235.435 62.2004 237.064C69.4292 238.706 76.5967 240.31 83.6962 242.462C90.6447 244.569 97.4625 247.085 104.114 249.997C107.142 251.267 110.053 252.803 112.811 254.586C114.291 255.581 115.711 256.575 117.251 257.486C118.964 258.482 120.617 259.577 122.202 260.767C124.959 262.857 127.58 265.164 130.124 267.505C131.435 268.71 132.666 269.981 134.044 271.112C135.4 272.245 136.636 273.514 137.732 274.9C139.905 277.599 142.011 280.371 144.08 283.154C146.315 286.155 148.613 289.162 150.627 292.317C151.109 292.918 151.508 293.581 151.813 294.288C152.017 295.091 152.279 295.877 152.595 296.643C153.304 298.306 154.055 299.959 154.753 301.629C155.415 303.213 156.002 304.829 156.58 306.444C156.902 307.249 157.163 308.077 157.36 308.922C157.488 309.913 157.725 310.888 158.068 311.827C158.57 313.175 158.977 314.557 159.286 315.962L159.842 318.035C160.049 318.808 160.468 319.484 160.674 320.26C160.844 320.901 160.79 321.61 160.978 322.236C161.194 322.961 161.52 323.655 161.766 324.37C161.932 325.075 162.055 325.79 162.134 326.511C162.334 327.451 162.631 328.365 162.8 329.315C163.074 330.808 163.122 332.333 163.396 333.829C163.651 335.207 164.308 336.389 164.425 337.821C164.489 338.606 164.401 339.397 164.427 340.182C164.451 340.905 164.628 341.642 164.668 342.367C164.75 343.925 164.66 345.484 164.814 347.04C164.836 347.252 164.838 347.463 164.849 347.674C164.665 349.007 164.47 350.344 164.265 351.686C164.223 349.503 164.143 347.317 164.096 345.132Z" fill="#F2A663"/>
<path d="M165.353 343.696C165.3 342.538 165.196 341.379 165.107 340.221C164.816 336.477 164.307 332.754 163.581 329.071C162.213 322.124 160.323 315.248 158.301 308.469C157.168 305.017 155.838 301.632 154.316 298.333C153.611 296.695 152.775 295.112 152.039 293.486C151.272 291.695 150.353 289.973 149.291 288.34C147.179 285.225 145.062 282.119 142.776 279.13C140.464 276.106 137.914 273.258 135.38 270.421C133.946 268.809 132.355 267.345 130.784 265.872C129.382 264.56 128.24 262.936 126.687 261.785C126.648 261.756 126.684 261.689 126.725 261.718C127.873 262.552 128.929 263.505 129.875 264.563C131.225 265.933 132.681 267.19 134.066 268.528C136.805 271.224 139.378 274.083 141.77 277.092C143.961 279.799 145.958 282.616 147.947 285.471C149.044 286.904 150.053 288.403 150.967 289.959C151.87 291.674 152.629 293.462 153.456 295.214C154.937 298.354 156.387 301.496 157.657 304.732C158.961 308.05 159.76 311.519 160.871 314.899C161.953 318.193 162.555 321.676 163.379 325.042C164.24 328.561 164.664 332.084 165.258 335.641C165.497 337.074 165.633 338.521 165.745 339.97C165.661 340.844 165.572 341.72 165.479 342.598C165.44 342.965 165.394 343.332 165.353 343.696Z" fill="#8E3F32"/>
<path d="M97.3165 241.754C97.3863 242.001 97.4618 242.249 97.5298 242.497C97.5539 242.582 97.5871 242.658 97.6154 242.737C97.6021 243.453 97.709 244.166 97.9317 244.847C97.9804 245.021 98.0545 245.187 98.1514 245.339C72.6523 233.12 43.881 226.246 23.6242 205.295C10.0174 191.226 8.98821 169.446 9.01721 150.998C9.38385 146.72 9.66693 142.445 10.269 138.188C10.5267 136.385 10.7973 134.582 11.0622 132.78C11.3872 131.156 11.7354 129.538 12.0934 127.921C12.3513 127.069 12.6192 126.223 12.8439 125.396C13.132 124.315 13.3407 123.074 13.7184 122.034C13.946 121.411 14.1889 120.895 14.3981 120.354C14.189 121.769 13.7638 123.122 13.5944 124.548C13.5714 124.758 13.8941 124.779 13.9535 124.593C14.2358 123.702 14.4775 122.801 14.7386 121.903C14.9006 121.099 15.0215 120.287 15.1009 119.47C15.4017 117.866 15.8123 116.299 16.0262 114.675C16.4589 111.525 16.6272 108.345 16.5295 105.168C16.5094 104.672 16.4587 104.178 16.4176 103.683C16.5217 102.039 16.5674 100.395 16.5544 98.7485C16.6001 99.7532 16.5954 100.763 16.5786 101.717C16.5512 103.281 16.9677 104.806 16.9822 106.367C16.9825 106.421 17.0041 106.472 17.0423 106.51C17.0805 106.548 17.1322 106.569 17.1859 106.569C17.2397 106.569 17.2911 106.547 17.3289 106.509C17.3667 106.47 17.3878 106.419 17.3875 106.365C17.5269 104.282 17.0897 102.174 17.1303 100.079C17.1887 98.0455 16.9894 96.0124 16.5372 94.0286C16.4304 93.564 16.3096 93.1025 16.1959 92.6384C15.9202 90.0876 15.4816 87.5572 14.8826 85.0625C9.83431 64.1271 -14.0645 56.9665 -22.3371 38.4654L-20.2676 34.8809C-15.6578 45.6069 -5.63236 52.8849 3.06747 60.7239C12.1015 68.8136 18.006 79.8203 19.7492 91.821C21.7609 104.901 17.8522 117.869 15.0843 130.542C14.2492 134.385 13.6164 138.268 13.1885 142.177L13.1832 142.187C12.6759 143.939 12.3181 145.731 12.1138 147.544C11.9879 148.466 11.8081 149.381 11.5751 150.282C11.4323 151.244 11.2181 152.193 10.9343 153.123C10.8681 153.271 11.084 153.399 11.1542 153.25C11.3291 152.877 11.4504 152.481 11.5145 152.074C11.8603 150.117 12.3479 148.195 12.6409 146.222C12.7285 145.63 12.8345 145.059 12.9494 144.497C12.8121 146.027 12.7018 147.56 12.6184 149.093C12.5788 149.282 12.5257 149.465 12.5002 149.659C12.3211 150.957 12.2169 152.265 12.1882 153.576C12.1662 155.165 12.3087 156.749 12.252 158.338C12.1919 160.055 12.0544 161.782 12.1495 163.503C12.1626 163.735 12.1827 163.964 12.1998 164.192C12.1097 165.563 12.0468 166.936 12.0517 168.31C12.1808 170.993 12.4498 173.668 12.8575 176.323C12.8575 176.356 12.8706 176.387 12.8938 176.411C12.9171 176.434 12.9487 176.447 12.9816 176.447C13.0145 176.447 13.0461 176.434 13.0695 176.411C13.0928 176.388 13.1059 176.356 13.1059 176.323C13.0664 174.844 12.9177 173.369 12.6611 171.911C12.507 170.432 12.451 168.943 12.4933 167.456C12.4994 167.174 12.5224 166.892 12.5327 166.612C12.6162 167.03 12.711 167.447 12.826 167.869C13.2086 169.273 12.9814 170.771 13.3725 172.199C13.3766 172.219 13.3849 172.238 13.3967 172.254C13.4086 172.27 13.4237 172.284 13.4413 172.294C13.4588 172.304 13.4783 172.311 13.4984 172.313C13.5185 172.315 13.5388 172.313 13.5581 172.306C13.6006 172.64 13.6388 172.973 13.6839 173.306C13.9981 175.614 14.4318 177.904 14.9832 180.167C15.2405 182.856 15.8154 185.504 16.6958 188.058C17.7983 191.159 19.2079 194.144 20.9035 196.965C22.8273 199.948 24.3902 203.219 26.9069 205.779C27.0309 205.906 27.1995 205.725 27.0971 205.592C25.8987 204.076 24.7947 202.488 23.7914 200.837C22.8442 199.232 21.8439 197.628 20.9579 195.993C20.1877 194.572 19.575 193.08 18.8682 191.629C18.0014 189.934 17.2849 188.166 16.7268 186.346C16.6282 185.999 16.5468 185.648 16.4689 185.296C18.9577 192.716 23.111 199.468 28.6109 205.036C30.0071 206.86 31.5399 208.574 33.1962 210.165C34.5885 211.489 36.1077 212.66 37.5019 213.981C38.727 215.201 40.0551 216.314 41.4714 217.307C43.1044 218.391 44.8601 219.305 46.5679 220.263C47.8764 221.066 49.2725 221.717 50.7288 222.203C50.9593 222.269 51.0454 221.92 50.8232 221.845C49.3031 221.256 47.849 220.51 46.4846 219.618C45.1733 218.84 43.8184 218.115 42.5369 217.289C39.9647 215.437 37.5308 213.399 35.2547 211.192C34.4912 210.528 33.7642 209.825 33.0532 209.11C33.1976 209.23 33.333 209.354 33.4816 209.469C39.209 214.246 45.5379 218.251 52.3066 221.383C59.8695 224.815 66.9596 228.767 74.7955 231.645C81.648 234.161 88.3924 236.936 95.0286 239.969C95.697 240.466 96.3345 241.002 96.9864 241.515C97.0932 241.604 97.2071 241.674 97.3165 241.754Z" fill="#8E3F32"/>
<path d="M15.5358 113.595C15.5725 113.504 15.4121 113.435 15.3731 113.527C14.8874 114.702 15.1375 116.149 14.868 117.397C14.7411 118.494 14.4564 119.567 14.0228 120.583C13.8629 120.86 13.6967 121.161 13.5559 121.473L13.9711 119.635C14.8063 115.909 15.4892 112.279 15.9434 108.686C15.8902 110.736 15.7157 112.782 15.4206 114.812C15.3537 114.403 15.3933 113.984 15.5358 113.595Z" fill="#8E3F32"/>
<path d="M12.6904 163.09C12.7315 163.794 12.7769 164.501 12.8306 165.204C12.7484 164.506 12.7054 163.803 12.6907 163.093L12.6904 163.09Z" fill="#8E3F32"/>
<path d="M161.579 374.79C161.783 367.097 163.108 359.346 164.267 351.689C164.47 350.349 164.665 349.012 164.852 347.677C165.039 346.343 165.206 345.016 165.352 343.697C165.394 343.333 165.44 342.964 165.479 342.602C165.572 341.723 165.66 340.847 165.745 339.974C165.916 338.211 166.061 336.456 166.182 334.71C166.247 333.755 166.301 332.802 166.344 331.851C166.372 331.27 166.397 330.691 166.415 330.113C166.435 329.453 166.447 328.789 166.455 328.129C166.562 319.58 165.561 311.199 162.097 302.867C156.474 289.341 147.459 279.417 136.816 269.707C133.975 267.113 131.474 264.249 128.371 261.942C125.461 259.781 121.98 258.172 118.844 256.362C112.559 252.733 106.22 249.285 99.7053 246.095C99.9668 246.092 100.224 246.029 100.458 245.911C100.691 245.793 100.894 245.624 101.052 245.415C101.21 245.206 101.317 244.964 101.367 244.707C101.416 244.45 101.406 244.185 101.338 243.933C101.251 243.594 101.214 243.245 101.226 242.896C105.127 244.792 108.986 246.775 112.803 248.843C121.944 253.817 130.684 258.679 138.093 266.035C144.912 272.808 151.815 278.619 157.323 286.634C167.253 301.084 172.155 318.791 169.763 336.288C167.927 349.743 165.338 363.447 165.461 377.027L161.579 374.79Z" fill="#8E3F32"/>
<path d="M97.8334 241.326L97.8127 241.432C97.7825 241.414 97.7578 241.391 97.7341 241.374C97.7197 241.318 97.7043 241.263 97.6885 241.207C97.7418 241.231 97.7938 241.255 97.8457 241.28C97.8371 241.293 97.8357 241.309 97.8334 241.326Z" fill="#8E3F32"/>
<path d="M99.7042 246.099C99.4004 246.131 99.0936 246.077 98.8192 245.943C98.5447 245.808 98.3137 245.599 98.1525 245.34C98.0556 245.187 97.9815 245.022 97.9328 244.848C97.7101 244.167 97.6032 243.454 97.6164 242.738C97.7887 243.19 98.047 243.574 98.1978 244.057C98.2737 244.429 98.4586 244.769 98.7288 245.036C98.9383 245.221 99.2464 244.915 99.0391 244.729C98.5439 244.29 98.6681 243.588 98.3568 243.065C98.1977 242.789 98.068 242.498 97.9699 242.195C98.6101 242.584 99.3041 242.876 100.029 243.062C100.082 243.244 100.148 243.416 100.198 243.6C100.211 243.651 100.244 243.694 100.289 243.72C100.335 243.746 100.388 243.753 100.439 243.739C100.489 243.726 100.532 243.693 100.558 243.648C100.584 243.603 100.591 243.549 100.578 243.498C100.549 243.39 100.521 243.282 100.493 243.174C100.547 243.184 100.596 243.202 100.65 243.211C100.924 243.257 101.04 242.841 100.76 242.787C100.626 242.761 100.497 242.727 100.367 242.693C100.193 242.025 100.019 241.356 99.8187 240.697C99.2276 238.863 98.4377 237.098 97.4628 235.435C96.9888 234.155 96.4039 232.918 95.7147 231.74C92.7515 226.459 88.4271 222.317 86.5489 216.428C84.8985 211.248 85.5622 205.495 86.3509 200.234C87.4209 192.829 89.194 185.544 91.6462 178.476C93.7379 172.527 96.8153 167.063 99.3239 161.3C102.29 154.506 107.356 148.714 110.158 141.83C112.823 135.275 116.461 129.403 118.741 122.659C121.304 115.079 122.851 108.257 121.235 100.268C120.069 94.5024 118.569 88.444 115.761 83.2599C112.103 76.5053 106.659 70.5962 101.094 65.3765C89.5845 54.582 75.3547 47.6727 60.6498 42.3851C47.0634 37.4982 32.9803 33.8613 20.1189 27.17C12.8248 23.3752 5.65748 18.5118 0.520219 12.067C-0.322477 10.3433 -1.10072 8.59971 -1.81451 6.83623C-2.12687 6.05893 -2.42748 5.27423 -2.71636 4.48213L-1.30258 2.03338C1.638 9.72387 8.48081 15.7038 15.9298 20.469C28.8183 28.7128 43.8246 32.6409 58.1648 37.5231C71.9762 42.2276 85.1104 48.0433 96.827 56.8629C106.429 64.0946 116.899 74.3212 121.17 85.849C125.259 96.875 127.477 108.63 123.631 119.989C121.638 126.329 119.001 132.448 115.759 138.25C113.997 141.302 113.146 144.771 111.374 147.841L105.869 157.375C104.191 160.281 102.158 163.103 101.682 166.487C101.254 169.554 97.6424 173.049 96.5423 175.988C93.8805 183.166 91.8624 190.567 90.5116 198.103C89.2284 205.04 88.3146 212.363 91.5519 218.916C94.2746 224.426 98.7249 228.713 101.067 234.492C101.781 236.079 102.051 237.83 101.846 239.559C101.714 240.756 101.254 241.791 101.226 242.895C101.214 243.244 101.252 243.593 101.338 243.932C101.408 244.185 101.418 244.45 101.369 244.708C101.32 244.965 101.212 245.208 101.054 245.417C100.897 245.627 100.693 245.797 100.459 245.915C100.225 246.034 99.9665 246.096 99.7042 246.099Z" fill="#8E3F32"/>
<path d="M97.8378 241.281C98.0856 240.167 98.1476 239.021 98.0215 237.888C98.7534 239.389 99.3678 240.945 99.8593 242.541C99.1288 242.269 98.4394 241.897 97.8106 241.436L97.8313 241.331C97.8361 241.309 97.8375 241.293 97.8378 241.281Z" fill="#8E3F32"/>
<path d="M79.2886 210.566C76.6825 204.545 76.31 197.951 77.1177 191.492C77.4775 188.06 78.4693 184.724 80.043 181.652C80.8824 180.084 81.4289 178.416 82.1536 176.799C82.9753 175.163 83.8797 173.57 84.8634 172.026L96.2013 152.388C98.1322 149.043 99.917 145.718 101.535 142.211C103.027 138.978 105.145 136.067 106.315 132.684C106.843 131.385 107.495 130.14 108.26 128.966C109.157 127.413 109.125 125.511 109.681 123.838C110.793 120.519 111.353 117.04 111.341 113.539C111.328 112.045 111.704 110.472 111.783 108.966C111.875 107.16 111.84 105.35 111.678 103.548C111.286 99.9728 110.329 96.4822 108.84 93.2075C105.809 86.4123 101.881 80.0535 97.1622 74.3005C94.7449 71.3927 92.0428 68.7339 89.0962 66.3641C86.2142 63.9636 82.8795 62.2813 79.9384 59.9833C76.9497 57.8258 73.811 55.8843 70.5461 54.1734C67.3028 52.366 63.967 50.7297 60.5526 49.2711C53.653 46.2278 46.6404 43.417 39.7081 40.4477C32.9955 37.5729 26.0948 35.2196 19.8049 31.4459C16.3739 29.4014 13.1022 27.1009 10.0175 24.564C8.80169 23.374 7.62111 22.1619 6.48329 20.9028C6.23204 20.6245 5.99046 20.3372 5.74212 20.0539C9.78818 24.0457 14.289 27.5486 19.1522 30.4904C25.3059 34.3041 32.0576 36.7526 38.7194 39.5042C45.6867 42.3817 52.6569 45.3125 59.5781 48.301C63.0002 49.7776 66.3887 51.3376 69.6694 53.1075C72.893 54.7322 76.0044 56.5705 78.9829 58.61C80.308 59.5777 81.5431 60.6411 82.9577 61.4847C84.6794 62.5014 86.345 63.6102 87.9472 64.8064C90.8902 67.0415 93.6235 69.5401 96.1132 72.2711C100.901 77.6725 104.913 83.7148 108.032 90.2237C109.534 93.1777 110.709 96.2863 111.537 99.4945C112.266 102.733 112.519 106.06 112.287 109.371C112.207 110.892 111.861 112.437 111.871 113.952C111.865 115.644 111.714 117.333 111.419 119C111.154 120.563 110.783 122.107 110.31 123.62C110.063 124.424 109.962 125.262 109.741 126.075C109.627 126.943 109.407 127.793 109.085 128.607C108.191 129.929 107.437 131.34 106.834 132.818C106.326 134.283 105.686 135.697 104.921 137.045C104.088 138.59 103.168 140.081 102.391 141.657C101.521 143.429 100.774 145.26 99.8826 147.022C98.1626 150.425 96.0802 153.681 94.1735 156.984L88.4408 166.913L83.029 176.287C82.1411 177.825 81.7109 179.58 80.9309 181.171C80.0158 182.893 79.2511 184.691 78.6454 186.545C77.6817 190.161 77.2426 193.897 77.3416 197.638C77.2848 201.097 77.7888 204.542 78.8339 207.839C80.8559 213.974 84.763 219.035 88.8204 223.941C89.2404 224.765 89.6562 225.58 90.1423 226.359C86.01 221.427 81.8716 216.53 79.2886 210.566Z" fill="#F2A663"/>
<path d="M100.575 243.496C100.588 243.547 100.581 243.601 100.555 243.646C100.529 243.691 100.486 243.724 100.436 243.737C100.385 243.751 100.332 243.744 100.286 243.718C100.241 243.692 100.208 243.649 100.195 243.598C100.145 243.414 100.079 243.242 100.026 243.06C100.179 243.1 100.331 243.142 100.49 243.172C100.52 243.277 100.546 243.388 100.575 243.496Z" fill="#F2A663"/>
<path d="M98.0236 237.884C96.117 234.148 93.7743 230.65 91.0447 227.466C91.066 227.459 91.0857 227.448 91.1021 227.433C91.1185 227.418 91.1313 227.4 91.1393 227.379C91.1474 227.358 91.1506 227.336 91.1487 227.313C91.1468 227.291 91.1398 227.27 91.1283 227.251C90.749 226.705 90.4151 226.129 90.1299 225.529C90.3119 225.748 90.4949 225.965 90.6787 226.182C90.8532 226.415 91.021 226.652 91.1978 226.882C91.2099 226.899 91.2262 226.913 91.245 226.922C91.2637 226.931 91.2846 226.935 91.3054 226.934C93.5975 229.585 95.6572 232.428 97.4616 235.432C98.4364 237.094 99.2264 238.859 99.8175 240.694C100.022 241.352 100.194 242.02 100.366 242.689C100.195 242.644 100.027 242.592 99.863 242.534C99.3709 240.939 98.7559 239.384 98.0236 237.884Z" fill="#F2A663"/>
<path d="M96.0492 237.615C96.0156 237.516 95.9878 237.415 95.9529 237.317C95.8919 237.139 95.8159 236.972 95.7503 236.799C95.8934 236.854 96.0383 236.907 96.1817 236.963C96.2146 236.975 96.2503 236.976 96.2841 236.967C96.3178 236.958 96.3479 236.939 96.3702 236.912C96.5253 237.337 96.6578 237.771 96.7985 238.206C96.5465 238.012 96.2965 237.815 96.0492 237.615Z" fill="#F2A663"/>
<path d="M97.6846 241.198C97.7003 241.255 97.7157 241.309 97.7301 241.366C97.5053 241.205 97.2838 241.038 97.0642 240.869C96.8114 239.998 96.5439 239.132 96.2617 238.271C96.4961 238.447 96.7436 238.614 96.99 238.778C97.235 239.582 97.4666 240.388 97.6846 241.198Z" fill="#F2A663"/>
<path d="M97.3164 241.754C97.5303 241.909 97.7458 242.059 97.9662 242.193C98.0643 242.495 98.194 242.787 98.3531 243.062C98.6643 243.585 98.54 244.289 99.0354 244.726C99.2452 244.914 98.9346 245.219 98.7251 245.033C98.4548 244.767 98.2699 244.426 98.1941 244.055C98.0466 243.574 97.7883 243.189 97.6127 242.735C97.5836 242.656 97.5504 242.58 97.5272 242.496C97.4617 242.249 97.3862 242.001 97.3164 241.754Z" fill="#F2A663"/>
<path d="M6.48219 20.903C7.62001 22.1621 8.80479 23.3767 10.0164 24.5643C11.0929 25.6212 12.1894 26.6573 13.2967 27.6804C14.4269 28.7259 15.5685 29.7554 16.7158 30.7849C18.1166 31.9985 19.6436 33.0584 21.2705 33.9463C21.8546 34.1757 22.396 34.5014 22.8721 34.9101C23.4297 35.6271 24.1095 36.2402 24.8801 36.7209C26.3387 37.7074 27.9301 38.5221 29.4539 39.3996C30.5513 39.9754 31.5263 40.7592 32.3245 41.7073C32.8835 42.3793 34.17 42.5433 34.973 42.7887C35.7826 43.0728 36.5559 43.4513 37.277 43.9163C40.4284 45.7358 43.5796 47.9491 46.9726 49.2802C50.0274 50.5867 52.9791 52.1221 55.8026 53.8733C57.1659 54.6604 58.7347 54.9752 60.1447 55.6583C61.9745 56.5446 63.7141 57.7057 65.4758 58.7217C66.9432 59.5689 68.4109 60.4162 69.8788 61.2638C71.546 62.2263 72.8712 63.6708 74.5143 64.6732C75.9064 65.5086 77.2267 66.4581 78.4618 67.5119C80.0166 68.8573 81.2099 70.5435 82.8391 71.7852C83.98 72.7956 85.0216 73.9127 85.9498 75.1214C86.5657 75.815 87.1812 76.5087 87.7961 77.2026C88.5169 77.8296 89.1521 78.5485 89.6855 79.341C90.4173 81.0183 91.2832 82.6263 92.1385 84.2428C93.054 85.9724 93.7059 87.7221 94.4497 89.5182C95.0306 90.9181 95.5922 92.328 96.0847 93.7608C96.3428 94.5098 96.5273 95.2856 96.7347 96.0489C96.9715 96.9222 97.4927 97.8107 97.669 98.6725C99.0726 104.747 99.2977 111.034 98.3322 117.194C96.7211 124.114 94.2527 130.805 90.9841 137.114C87.2459 143.833 83.7642 150.685 80.0298 157.407C78.2208 160.637 76.6321 163.985 75.2748 167.429C73.9981 170.787 73.0236 174.253 72.3627 177.784C71.7411 180.923 71.5927 184.137 71.9224 187.32C72.2112 190.309 72.9898 193.226 73.3728 196.207C73.7015 199.243 74.349 202.236 75.3049 205.136C76.3826 208.092 77.7 210.954 79.2439 213.695C80.7777 216.719 82.7144 219.521 85.0011 222.025C86.1125 223.167 87.3156 224.22 88.5084 225.273C89.6432 226.429 90.6778 227.679 91.6007 229.01C93.5172 231.256 95.0736 233.785 96.2144 236.509C95.9843 236.413 95.7515 236.32 95.522 236.221C94.0643 233.16 92.1766 230.324 89.9163 227.798C88.8617 226.511 87.7065 225.311 86.4617 224.208C85.0967 223.004 83.8349 221.687 82.6894 220.273C80.6544 217.547 78.9072 214.617 77.476 211.531C76.0286 208.712 74.8505 205.763 73.9571 202.723C73.0963 199.598 72.9085 196.397 72.3242 193.223C71.7334 190.004 71.3349 186.752 71.1307 183.486C71.0891 181.942 71.2358 180.4 71.5675 178.892C71.9044 177.043 72.196 175.157 72.7016 173.347C74.6275 166.454 77.8182 160.189 81.3146 153.982C83.1868 150.66 84.891 147.245 86.6538 143.863C88.4167 140.482 90.424 137.219 92.0615 133.778C93.6543 130.299 95.0233 126.721 96.16 123.067C97.2903 119.778 98.0175 116.365 98.3258 112.901C98.5385 109.625 98.3938 106.336 97.8945 103.092C97.3751 99.8326 96.5478 96.63 95.4238 93.527C94.2289 90.0156 92.7604 86.6033 91.0317 83.3217C90.2366 81.5254 89.2268 79.8322 88.0242 78.2789C86.7226 76.8111 85.4123 75.3506 84.1406 73.8563C83.5794 73.176 82.9464 72.5584 82.2526 72.0141C81.6437 71.5572 81.0912 71.0297 80.6067 70.4426C79.2669 68.8875 77.7449 67.4991 76.0734 66.3076C74.74 65.3486 73.3217 64.5734 72.043 63.5329C70.4759 62.3077 68.811 61.2127 67.0651 60.2593C63.7911 58.369 60.6337 56.339 57.0714 55.0491C53.8854 53.8924 51.2489 51.5106 48.0863 50.269C44.8902 48.8928 41.8025 47.2774 38.8495 45.4364C37.3379 44.445 35.7097 43.6441 34.0018 43.0518C33.3497 42.9022 32.7281 42.6417 32.1641 42.2818C31.7511 41.8802 31.3678 41.449 31.0173 40.9917C30.4566 40.54 29.8431 40.1581 29.1904 39.8541C28.4186 39.4086 27.6468 38.963 26.8751 38.5174C25.6508 37.8638 24.4856 37.105 23.3927 36.2495C23.0037 35.8077 22.577 35.4006 22.1173 35.0329C21.4021 34.62 20.6874 34.2073 19.9733 33.7951C18.6739 33.0466 17.4602 32.1582 16.354 31.1458C12.493 27.7809 8.83679 24.1879 5.40492 20.3863C5.13062 20.0723 4.86451 19.752 4.59528 19.4331C4.00849 18.4914 3.43994 17.5375 2.88965 16.5713C3.79339 17.7725 4.74637 18.9349 5.73352 20.0634C5.98935 20.3375 6.23094 20.6248 6.48219 20.903Z" fill="#F2A663"/>
<path d="M97.7277 241.371C97.7571 241.388 97.7818 241.411 97.8063 241.429C98.4351 241.889 99.1245 242.261 99.855 242.533C100.019 242.591 100.187 242.643 100.358 242.688C100.487 242.721 100.616 242.755 100.751 242.782C101.033 242.833 100.915 243.252 100.641 243.206C100.586 243.197 100.538 243.179 100.484 243.169C100.325 243.139 100.171 243.1 100.02 243.057C99.2949 242.871 98.6009 242.579 97.9608 242.19C97.7404 242.056 97.5249 241.906 97.311 241.751C97.2016 241.671 97.0877 241.601 96.979 241.516C96.3254 241.002 95.6915 240.464 95.0211 239.969C94.9951 239.954 94.9739 239.931 94.9494 239.913C94.1489 239.417 93.3136 238.979 92.4501 238.603C90.8835 237.766 89.1271 237.363 87.5609 236.513C86.7726 236.102 85.9498 235.76 85.102 235.493C84.24 235.202 83.4213 234.71 82.5574 234.452C79.2916 233.475 76.3204 231.504 73.3927 229.815C70.0723 227.898 66.7521 225.981 63.4323 224.064C62.0762 223.359 60.777 222.549 59.5462 221.643C58.0987 220.487 56.5941 219.405 55.0379 218.401C52.0774 216.373 49.3258 214.056 46.8238 211.484C44.207 209.062 41.7545 206.468 39.4828 203.719C37.6396 201.295 36.0132 198.713 34.6224 196.004C28.7396 184.451 26.3592 171.432 27.7738 158.546C28.663 151.237 30.4697 144.069 33.1514 137.212C35.8833 130.153 38.5225 123.062 40.5716 115.773C42.2893 109.651 43.7533 103.283 43.1917 96.8885C42.9116 93.6902 41.6962 90.6849 41.3025 87.5049C40.9768 85.7871 40.45 84.1137 39.7331 82.519C39.1005 80.7351 38.3434 78.9978 37.4672 77.3201C35.6307 74.1777 33.3669 71.3054 30.7404 68.7856C28.1376 66.0065 25.2957 63.4613 22.2477 61.1792C16.4703 56.9482 10.4628 53.0265 4.80501 48.6272C-0.295243 44.5983 -4.90212 39.9815 -8.92006 34.8726C-10.8677 32.4382 -12.6375 29.8667 -14.2155 27.178C-14.4901 26.7094 -14.7427 26.23 -14.9949 25.7498L-14.7041 25.2461C-11.1617 31.5595 -6.71694 37.3222 -1.51021 42.3519C3.78284 47.67 10.1275 51.6163 16.0732 56.118C18.8773 58.2405 21.9029 60.0433 24.6348 62.2597C27.5029 64.6661 30.2145 67.253 32.7531 70.0048C35.0842 72.3911 37.0437 75.114 38.5662 78.0822C39.2624 79.4633 39.8554 80.894 40.3405 82.3626C40.8765 83.9817 41.7068 85.3721 41.8828 87.0911C42.2109 90.2937 43.4197 93.322 43.79 96.521C44.0797 99.5569 43.9817 102.617 43.4983 105.628C42.3972 112.267 40.6679 118.787 38.3338 125.099C37.0701 128.78 35.691 132.423 34.2925 136.057C33.6235 137.798 32.8502 139.525 32.3407 141.32C31.8112 143.174 31.2886 145.029 30.7947 146.891C26.8849 160.251 27.2372 174.498 31.8025 187.649C32.8657 190.764 34.1856 193.785 35.7486 196.682C37.1852 199.604 39.0198 202.313 41.2 204.731C45.5192 209.105 49.5904 213.746 54.6385 217.32C55.7671 218.119 57.0166 218.746 58.11 219.588C59.2396 220.565 60.4326 221.466 61.6812 222.285C64.4157 223.864 67.1501 225.443 69.8846 227.022C74.997 229.973 80.0191 233.083 85.6284 234.992C86.8443 235.406 87.9122 236.028 89.0747 236.551C90.5493 237.213 92.0684 237.763 93.5421 238.433C94.8101 239.103 95.9935 239.922 97.0671 240.873C97.2814 241.043 97.5029 241.21 97.7277 241.371Z" fill="#8E3F32"/>
<path d="M46.3483 126.067C46.6522 125.282 46.9461 124.493 47.2299 123.7C47.3368 123.49 47.4375 123.281 47.522 123.074C47.8578 122.254 48.1677 121.419 48.5345 120.611C48.9599 119.68 49.4464 118.797 49.8398 117.863C49.2043 119.546 48.7573 121.305 48.1658 123.006C46.3173 128.319 44.0183 133.454 42.0381 138.72C42.3845 137.5 42.7296 136.28 43.1138 135.073C44.0911 132.01 45.5773 129.188 46.3483 126.067Z" fill="#8E3F32"/>
<path d="M82.8863 231.169C82.6122 230.954 82.3362 230.74 82.0485 230.54C80.5724 229.512 78.9842 228.659 77.4419 227.736C74.3724 225.905 71.9201 223.082 69.2646 220.727C66.6092 218.373 63.8989 216.062 61.2467 213.69C58.0517 210.888 55.0531 207.87 52.272 204.656C51.9796 204.283 51.6803 203.915 51.392 203.538C47.7178 198.87 44.639 193.763 42.2266 188.334C42.2699 188.443 42.3207 188.55 42.3786 188.652C43.3443 190.217 43.7291 191.873 44.9667 193.293C47.2827 195.949 48.7869 199.158 50.9111 201.963C56.6429 209.536 64.3073 215.372 71.314 221.683C73.2117 223.574 75.2421 225.327 77.3896 226.929C79.3258 228.228 81.4209 229.233 83.2923 230.635C83.8114 231.023 84.2924 231.454 84.7808 231.876C84.2167 231.651 83.649 231.436 83.0798 231.237C83.0151 231.216 82.9509 231.193 82.8863 231.169Z" fill="#8E3F32"/>
<path d="M36.627 165.626L36.6279 165.574L36.6301 165.675C36.6307 165.658 36.6263 165.645 36.627 165.626Z" fill="#8E3F32"/>
<path d="M39.4261 179.993C39.3216 178.63 39.1325 177.274 38.8598 175.934C38.5278 174.454 38.121 172.991 37.7312 171.526C37.4856 169.669 37.3171 167.817 37.255 165.98C37.2178 162.527 37.4155 159.075 37.8468 155.649C38.0097 152.417 38.6014 149.22 39.6064 146.144C39.0287 148.242 38.5771 150.374 38.254 152.526C38.0077 154.213 37.9768 155.914 37.7513 157.602C37.5002 159.523 37.3483 161.456 37.2965 163.394C37.2122 165.292 37.3721 167.194 37.7724 169.052C38.1831 170.884 38.7159 172.687 39.1805 174.506C39.6257 176.016 39.8979 177.572 39.9917 179.144C39.988 180.941 40.3134 182.725 40.9518 184.406C41.2089 185.034 41.4253 185.677 41.6343 186.325C41.7947 186.823 41.8936 187.388 42.0601 187.914C41.8083 187.306 41.5591 186.696 41.3305 186.076C40.6105 184.101 39.978 182.064 39.4261 179.993Z" fill="#8E3F32"/>
<path d="M51.1995 113.047C51.5175 112.25 51.83 111.449 52.1237 110.638C53.1873 107.347 53.6855 103.9 53.5972 100.443C53.71 97.1549 53.5116 93.8635 53.0047 90.6127C52.4038 87.3478 51.3785 84.1756 49.9548 81.1767C49.3466 79.8942 48.671 78.6448 47.9307 77.4337C47.0432 75.5515 46.0186 73.737 44.8652 72.0049C47.9841 75.8505 50.4391 80.1899 52.1289 84.844C54.2623 90.8888 54.511 97.3307 54.1191 103.678C53.9127 106.855 53.1716 109.974 51.9269 112.904C51.2559 114.531 50.5134 116.127 49.8863 117.77C50.009 117.47 50.1228 117.166 50.2211 116.853C50.5987 115.598 50.9113 114.325 51.1995 113.047Z" fill="#8E3F32"/>
<path d="M44.1657 72.1118C42.1626 69.6644 39.9781 67.3713 37.6307 65.2518C32.0887 60.3321 26.2222 55.7907 20.0708 51.6583C16.949 49.5045 13.8187 47.348 10.8221 45.018C9.23549 43.7841 7.75793 42.3535 6.12555 41.1871C4.70024 40.174 3.30845 39.1163 1.95015 38.0142C-1.95091 34.8509 -5.42181 31.1914 -8.37431 27.1285C-9.76195 24.9347 -10.8968 22.591 -11.7571 20.1419L-11.5303 19.749C-10.6442 21.7951 -9.65806 23.8151 -8.64598 25.7437C-7.65034 27.4368 -6.46949 29.0139 -5.1252 30.446C-3.88666 31.8774 -2.57559 33.2444 -1.19713 34.5417C0.0398853 35.7181 1.34335 36.8221 2.67089 37.8942C4.13719 39.0709 5.76933 40.0748 7.18368 41.3066C13.2181 46.558 20.0561 50.788 26.5392 55.4466C31.2724 58.7636 35.7347 62.4511 39.8842 66.4745C39.9938 66.6027 40.1089 66.7251 40.2235 66.8562C41.6403 68.5286 42.9567 70.2836 44.1657 72.1118Z" fill="#8E3F32"/>
<path d="M86.9727 233.496C87.7494 234.004 88.5408 234.487 89.3468 234.946C91.5234 236.183 93.7949 237.243 95.9549 238.511C96.0099 238.543 96.0501 238.595 96.0665 238.657C96.0829 238.718 96.0743 238.783 96.0426 238.838C96.0108 238.893 95.9585 238.934 95.8972 238.95C95.8359 238.966 95.7705 238.958 95.7155 238.926C92.4184 237.103 88.9515 235.621 85.8269 233.491C85.4431 233.229 85.0762 232.946 84.7149 232.657C85.1142 232.805 85.5138 232.953 85.9138 233.1C86.2675 233.232 86.6205 233.364 86.9727 233.496Z" fill="#8E3F32"/>
<path d="M38.9019 146.252C39.4777 144.105 40.1629 141.986 40.912 139.895C41.1572 139.211 41.4125 138.532 41.6699 137.854C41.0232 140.119 40.3875 142.39 39.5441 144.589C39.3243 145.162 39.1078 145.709 38.9019 146.252Z" fill="#8E3F32"/>
<path d="M39.6797 183.14C39.6313 183.029 39.5987 182.911 39.583 182.79C39.6185 182.922 39.6564 183.051 39.6992 183.184C39.6927 183.17 39.6871 183.155 39.6797 183.14Z" fill="#8E3F32"/>
<path d="M92.4646 235.553C90.6357 234.862 88.8042 234.178 86.9699 233.5C86.6158 233.37 86.2631 233.238 85.9118 233.105C85.5099 232.957 85.1102 232.809 84.7129 232.661C82.1597 231.866 79.7763 230.604 77.6838 228.939C74.846 226.446 71.4249 224.836 68.3112 222.744C66.9677 221.773 65.73 220.664 64.6187 219.434C63.3676 218.152 62.0845 216.897 60.862 215.586C52.1685 206.304 43.6653 196.021 39.8396 183.679C39.789 183.517 39.7451 183.35 39.695 183.187C39.6595 183.055 39.624 182.922 39.5788 182.793C37.8707 177.236 36.8803 171.484 36.6316 165.676L36.6294 165.576C36.6097 165.028 36.5896 164.481 36.5914 163.937C36.5929 160.468 37.1216 157.028 37.4214 153.582C37.5428 152.16 37.7747 150.763 38.0061 149.355C38.2003 148.294 38.5021 147.256 38.9068 146.257C39.1103 145.711 39.3302 145.165 39.5491 144.594C40.3924 142.395 41.0281 140.125 41.6748 137.859C42.0803 136.435 42.4892 135.014 42.9598 133.613C43.4899 132.038 44.253 130.598 44.8438 129.053C45.1306 128.306 45.3552 127.537 45.5669 126.767C45.6909 126.006 45.9035 125.261 46.2003 124.549C46.9422 123.208 47.4128 121.72 48.023 120.316C48.7882 118.78 49.4415 117.19 49.9779 115.56C50.8788 112.301 51.4689 108.982 52.0662 105.658C52.3793 103.983 52.5326 102.282 52.524 100.578C52.5052 98.8426 52.2967 97.1216 52.3455 95.3835C52.2919 94.588 52.1758 93.7979 51.9983 93.0206C51.8837 92.1586 51.8017 91.2964 51.7339 90.4289C51.6332 88.5873 51.2733 86.769 50.6649 85.0279C49.0201 80.4813 46.8403 76.1466 44.1714 72.1151C42.9617 70.2848 41.6446 68.5279 40.2268 66.8537C40.1164 66.725 40.0013 66.6026 39.8875 66.472C30.3188 55.3979 17.7223 47.5556 7.47326 37.1869C5.56995 35.2619 3.75779 33.2535 2.03678 31.1615C0.377862 29.1493 -1.39104 27.2113 -2.95454 25.1289C-4.43778 23.1161 -5.7492 20.9822 -6.87497 18.7497C-7.44524 17.6437 -8.28183 16.6984 -8.88944 15.6067C-8.9313 15.5299 -8.96436 15.4514 -9.00393 15.3726L-8.74707 14.9277C-8.0483 16.3385 -7.02144 17.5145 -6.29651 18.9091C-5.46071 20.5096 -4.53188 22.0599 -3.51478 23.5518C-2.50204 25.0285 -1.38885 26.4338 -0.183084 27.7576C1.11288 29.1965 2.28965 30.7254 3.55072 32.1956C6.00275 35.0217 8.61023 37.7091 11.3611 40.2453C16.8253 45.3387 22.8318 49.8027 28.4902 54.6702C33.9493 59.1657 38.9107 64.2336 43.2892 69.7869C43.8343 70.5113 44.3586 71.2512 44.8619 72.0067C46.0153 73.7388 47.0398 75.5533 47.9273 77.4356C48.1366 77.8776 48.3563 78.3134 48.5485 78.7635C49.7709 81.6172 51.2812 84.3908 51.9803 87.4372C52.2349 89.0069 52.3952 90.5904 52.4605 92.1793C52.5536 93.0763 52.7096 93.9657 52.9274 94.8409C53.0069 95.7134 53.0087 96.5914 52.9328 97.4643C53.0015 99.09 53.1441 100.695 53.0654 102.324C52.9527 103.878 52.7338 105.423 52.4104 106.948C52.0284 108.986 51.652 111.024 51.1964 113.044C50.9064 114.322 50.5955 115.595 50.2078 116.852C50.1112 117.167 49.9957 117.47 49.8731 117.769L49.8372 117.86C49.4437 118.794 48.954 119.675 48.5319 120.608C48.165 121.416 47.8552 122.251 47.5194 123.071C47.4349 123.278 47.3341 123.487 47.2273 123.697C46.9155 124.24 46.6723 124.818 46.5033 125.421C46.458 125.638 46.3989 125.849 46.3457 126.064C45.5746 129.185 44.0874 132.003 43.1136 135.066C42.7294 136.273 42.3843 137.493 42.0379 138.713C41.4182 141.072 40.6628 143.393 39.7754 145.664C39.7113 145.819 39.6598 145.977 39.6009 146.133C38.5958 149.209 38.0041 152.406 37.8413 155.638C37.4099 159.065 37.2122 162.516 37.2494 165.969C37.3105 167.802 37.4801 169.658 37.7256 171.515C38.1085 174.371 38.6749 177.2 39.4213 179.983C39.9732 182.054 40.6057 184.091 41.3249 186.058C41.5518 186.677 41.801 187.286 42.0545 187.896C42.1118 188.041 42.1641 188.183 42.2222 188.329C44.6347 193.757 47.7135 198.865 51.3876 203.533C51.676 203.91 51.9753 204.277 52.2677 204.651C54.7207 207.781 57.3396 210.78 60.0303 213.706C61.5856 215.398 63.2105 217.013 64.8069 218.664C65.5998 219.484 66.3983 220.295 67.2128 221.089C68.3429 222.057 69.5818 222.891 70.9044 223.574C73.0772 224.828 75.1807 226.199 77.2056 227.681C78.023 228.287 78.7411 229.015 79.553 229.625C80.5752 230.304 81.6957 230.822 82.8752 231.16C82.9398 231.184 83.004 231.206 83.0696 231.229C83.6387 231.427 84.2065 231.642 84.7706 231.867C86.1844 232.427 87.5849 233.037 88.9964 233.599C90.1678 234.248 91.336 234.871 92.4646 235.553Z" fill="#8E3F32"/>
<path d="M95.273 236.117C95.356 236.152 95.4387 236.185 95.5218 236.219C95.7531 236.315 95.986 236.408 96.2141 236.507C96.2582 236.526 96.3048 236.544 96.3455 236.561C96.4997 236.625 96.4696 236.817 96.3651 236.914C96.3428 236.941 96.3127 236.961 96.279 236.97C96.2452 236.979 96.2095 236.977 96.1766 236.966C96.0332 236.91 95.8883 236.856 95.7452 236.802C95.28 236.622 94.814 236.449 94.3487 236.272C93.8773 235.906 93.3844 235.569 92.8727 235.263C92.6394 235.128 92.4035 234.992 92.1684 234.856C93.0266 235.199 93.8823 235.545 94.7356 235.896C94.833 236.003 94.9331 236.107 95.0282 236.215C95.1233 236.324 95.266 236.234 95.273 236.117Z" fill="#8E3F32"/>
<path d="M94.353 236.27C94.9282 236.707 95.4876 237.163 96.0484 237.616C96.2952 237.817 96.5447 238.015 96.7977 238.207C97.1502 238.476 97.5059 238.744 97.8791 238.988C97.9112 239.01 97.9339 239.043 97.9425 239.081C97.9511 239.119 97.945 239.159 97.9255 239.193C97.906 239.227 97.8745 239.252 97.8372 239.264C97.7999 239.275 97.7597 239.272 97.7245 239.256C97.4727 239.11 97.2324 238.945 96.9903 238.782C96.7481 238.62 96.4989 238.453 96.262 238.276C95.3136 237.573 94.4147 236.805 93.4243 236.149C93.1115 235.943 92.7883 235.749 92.4656 235.553C91.337 234.872 90.1646 234.246 89.0085 233.61C88.697 233.438 88.3851 233.267 88.0773 233.09C86.692 232.22 85.3617 231.265 84.0937 230.231C82.6142 229.124 80.9705 228.254 79.468 227.173C78.1031 226.189 76.7672 225.176 75.331 224.294C73.8395 223.227 72.4542 222.018 71.1943 220.686C68.5034 218.189 65.9182 215.585 63.4388 212.873C61.1058 210.311 58.9063 207.631 56.8488 204.844C55.8324 203.465 54.6752 202.211 53.653 200.835C52.597 199.375 51.6676 197.827 50.875 196.209C50.1686 194.809 49.7031 193.26 48.9408 191.895C48.0934 190.378 47.1948 188.888 46.3622 187.362C45.6456 186.064 45.019 184.719 44.4869 183.335C43.9499 181.705 43.5755 180.027 43.3692 178.324C42.2035 171.817 42.2269 165.153 43.4385 158.654C43.6006 157.05 43.6722 155.437 43.6529 153.824C43.7329 153.223 43.912 152.64 44.183 152.097C44.4813 151.271 44.6883 150.415 44.8001 149.544C45.4521 146.282 46.3659 143.079 47.5326 139.964C48.0918 138.266 48.4834 136.518 49.003 134.808C49.5739 133.125 50.3005 131.499 51.1732 129.952C52.8517 126.709 53.7984 123.057 54.9053 119.593C57.0558 112.857 59.4136 106.047 59.3637 98.8986C59.3488 97.0659 59.1117 95.2418 58.6575 93.4663C58.43 92.5671 58.0968 91.7233 57.9378 90.8122C57.7705 89.8515 57.5357 88.901 57.282 87.9621C56.1477 83.9318 54.4763 80.0725 52.3128 76.488C50.404 72.9055 48.1224 69.5344 45.5058 66.4309C44.2638 65.0635 42.9528 63.7593 41.7145 62.3873C40.502 61.244 39.3536 60.0346 38.2744 58.7647C38.2504 58.7307 38.3107 58.7017 38.3306 58.7333C39.1874 59.9052 40.5211 60.6137 41.3747 61.7758C42.5356 63.1737 43.7866 64.4943 45.1198 65.729C47.4213 68.1705 49.4267 70.875 51.0944 73.7865C51.9346 75.2063 52.7477 76.6439 53.6309 78.0358C54.5287 79.5619 55.2917 81.1634 55.9111 82.8221C57.2678 86.1429 57.9213 89.5882 58.9345 92.9961C60.7592 99.1413 59.4553 105.7 57.785 111.706C56.8081 115.219 55.6751 118.684 54.5762 122.159C53.6234 125.473 52.341 128.684 50.7482 131.742C49.9094 133.441 49.2774 135.235 48.8658 137.085C48.3855 138.865 47.8545 140.628 47.3161 142.392C46.8338 143.974 46.3254 145.548 45.843 147.13C45.3656 148.696 45.2733 150.321 44.7987 151.89C44.4925 152.633 44.2704 153.407 44.1367 154.2C44.074 154.94 44.1175 155.693 44.1286 156.434C44.0551 158.058 43.8487 159.674 43.5115 161.265C42.6472 168.223 43.0393 175.279 44.6692 182.098C45.5948 185.38 47.5631 188.33 49.2422 191.265C50.018 192.624 50.5128 194.14 51.1906 195.552C51.9701 197.169 52.878 198.721 53.9056 200.194C54.8838 201.601 56.0948 202.813 57.0999 204.199C58.2578 205.796 59.4812 207.345 60.7371 208.865C63.2483 211.875 65.9096 214.756 68.7109 217.498C70.0896 218.854 71.4987 220.18 72.9269 221.485C74.5693 222.904 76.2938 224.226 78.0914 225.443C79.5792 226.515 81.0334 227.618 82.6155 228.551C84.2685 229.527 85.6879 230.812 87.2511 231.916C88.7988 233.01 90.5072 233.915 92.1589 234.854C92.3939 234.989 92.6332 235.12 92.8632 235.26C93.3797 235.567 93.8771 235.904 94.353 236.27Z" fill="#8E3F32"/>
<path d="M0.517925 12.063C1.26254 13.5831 2.05517 15.0821 2.89583 16.5599C3.44445 17.5251 4.01299 18.479 4.60147 19.4217C4.67596 19.5409 4.75455 19.6568 4.8294 19.7772C6.20228 21.9533 7.66683 24.0636 9.22332 26.0749C10.2577 27.497 11.4206 28.8211 12.6973 30.0304C14.1521 31.3259 15.558 32.6771 16.9622 34.0273C19.5455 36.6194 22.278 39.0584 25.1456 41.332C26.3918 42.2754 27.6012 43.2825 28.8552 44.2125C30.1425 44.9636 31.3752 45.8047 32.5441 46.7295C33.1153 47.3533 33.7377 47.9283 34.4047 48.4485C35.1148 48.9319 35.851 49.3757 36.6101 49.7777C38.2355 50.6713 39.9305 51.4306 41.5573 52.3217C44.8301 54.115 48.0317 56.053 51.2638 57.9168C52.5471 58.6242 53.7548 59.4607 54.8683 60.4132C56.3491 61.583 57.9382 62.6088 59.614 63.4766C62.8366 65.3241 65.9429 67.3673 68.9157 69.5946C71.7271 71.8562 74.3393 74.3549 76.7236 77.063C81.2336 81.9324 85.2293 87.146 87.5061 93.4426C89.7661 99.496 90.5785 105.994 89.8783 112.418C89.6737 114.029 89.3804 115.629 88.9997 117.208C88.5429 119.06 87.8301 120.798 87.2728 122.617C87.0463 123.358 86.9839 124.137 86.768 124.883C86.5351 125.674 86.2191 126.446 85.9601 127.23C85.4561 128.892 84.79 130.501 83.9712 132.032C83.1305 133.543 82.2231 135.008 81.5054 136.582C80.7033 138.34 80.1122 140.199 79.3165 141.967C78.5969 143.567 78.0932 145.403 77.2247 146.907C76.2926 148.521 75.3543 150.133 74.4286 151.75C73.9976 152.492 73.627 153.267 73.3206 154.068C73.1523 154.769 72.9248 155.453 72.6405 156.115C71.7536 157.743 71.0902 159.483 70.6684 161.289C70.2081 162.995 69.5089 164.631 69.0347 166.339C68.5725 168.004 68.2704 169.715 67.9203 171.404C67.5105 173.106 67.2298 174.836 67.0806 176.58C66.9828 178.268 66.9006 179.955 66.8595 181.645C66.8204 183.215 66.8722 184.77 66.7181 186.332C66.5619 188.021 66.529 189.72 66.6197 191.415C66.9212 195.917 67.8417 200.357 69.3551 204.608C70.7043 209.064 72.8007 213.258 75.5547 217.012C78.2191 220.558 81.251 223.812 84.5996 226.721C88.1984 229.762 92.2463 232.317 95.2432 236.009C95.2676 236.039 95.2794 236.077 95.2759 236.115C95.2689 236.232 95.1306 236.328 95.0331 236.216C94.9356 236.104 94.8379 236.003 94.7405 235.897C92.4225 233.479 89.8837 231.283 87.1572 229.338C84.6393 227.43 82.2826 225.319 80.1108 223.025C77.9001 220.74 75.8512 218.305 73.9789 215.736C72.2172 213.129 70.8056 210.302 69.7802 207.328C67.5409 201.362 65.9536 195.102 66.0713 188.693C66.0967 187.098 66.3387 185.533 66.3295 183.941C66.3203 182.294 66.3719 180.646 66.4459 179C66.4826 178.194 66.5279 177.388 66.574 176.583C66.5453 175.815 66.5922 175.045 66.7141 174.286C67.1733 172.633 67.4981 170.948 67.8443 169.269C68.5629 165.783 69.7205 162.436 70.721 159.03C71.1716 157.5 72.2051 156.235 72.5982 154.699C73.0815 153.165 73.7721 151.704 74.6508 150.357C75.6484 148.834 76.5148 147.23 77.2408 145.561C77.8774 143.824 78.6933 142.155 79.4402 140.464C80.1495 138.848 80.6623 137.157 81.4295 135.568C82.2457 133.879 83.2814 132.302 84.1545 130.643C85.8459 127.432 86.2694 123.742 87.5307 120.375C88.7152 116.996 89.4295 113.47 89.6535 109.897C89.8028 106.467 89.4897 103.032 88.7226 99.6855C88.0677 96.3269 87.0068 93.0605 85.5633 89.9581C82.5749 83.5507 77.35 78.2462 72.4558 73.2592C69.6494 70.5509 66.5446 68.1699 63.2012 66.162C60.3563 64.3506 57.1096 62.9327 54.563 60.7114C51.8133 58.3124 48.3282 56.7066 45.1772 54.8863C42.0401 53.075 38.7921 51.4908 35.6471 49.703C34.3754 48.9995 33.2297 48.0892 32.2571 47.0094C31.1675 45.8083 29.5411 45.2811 28.2936 44.2856C25.6496 42.1748 22.95 40.164 20.4457 37.8675C18.5182 36.0976 16.6609 34.2507 14.7617 32.4491C13.7702 31.508 12.7631 30.584 11.7405 29.6772C10.8183 28.7463 9.97728 27.7384 9.22657 26.6644C7.26312 24.1512 5.47114 21.5087 3.86282 18.7547C3.70602 18.4873 3.5519 18.2192 3.39643 17.9514C2.80182 16.9276 2.22222 15.8946 1.65768 14.8523C1.49776 14.5574 1.33557 14.2644 1.17746 13.9683C0.651451 12.993 0.160296 11.9942 -0.319297 10.9909C-1.28132 8.97368 -2.14237 6.90175 -2.90586 4.79654L-2.72168 4.47754C-2.43215 5.26852 -2.13164 6.05275 -1.82017 6.83028C-1.10614 8.59464 -0.326774 10.3389 0.517925 12.063Z" fill="#F2A663"/>
<path d="M88.0793 222.607C87.1492 221.339 86.141 220.127 85.2575 218.826C84.9629 218.28 84.7287 217.704 84.5591 217.107C84.2469 216.31 83.9379 215.517 83.6043 214.73C82.9718 213.228 82.6556 211.608 82.0849 210.082C79.8044 204.005 81.1146 197.009 82.8686 190.991C83.9243 187.373 85.1793 183.866 86.477 180.327C87.0487 178.769 87.5731 177.196 88.2525 175.679C88.9957 174.02 89.7012 172.201 90.6075 170.631C91.4449 169.165 92.1958 167.652 92.8565 166.098C93.6018 164.375 94.8245 162.953 95.7181 161.314C96.4535 159.965 96.8906 158.479 97.6611 157.146C98.5926 155.533 99.5472 153.955 100.601 152.417C102.625 149.465 104.23 146.266 106.284 143.331C107.334 141.831 107.857 140.127 108.841 138.593C109.881 136.971 110.279 135.024 111.073 133.267C111.791 131.678 112.546 130.051 113.102 128.394C113.664 126.881 114.335 125.409 115.108 123.992C115.979 122.065 116.434 119.976 116.445 117.862C116.444 116.071 116.798 114.293 116.798 112.497C116.75 108.583 116.359 104.681 115.629 100.835C114.963 97.1065 114.682 93.1875 112.763 89.8222C111.917 88.3374 111.245 86.7575 110.495 85.2216C109.656 83.5525 108.722 81.9326 107.699 80.3696C105.553 77.1223 103.045 74.1297 100.223 71.4493C97.3888 68.6513 94.5922 65.7753 91.5612 63.187C90.0101 61.7811 88.3719 60.4745 86.6563 59.2749C85.0965 58.2524 83.4272 57.3748 81.8319 56.4079C81.8264 56.4047 81.8223 56.3994 81.8206 56.3932C81.819 56.387 81.8198 56.3804 81.8231 56.3748C81.8263 56.3693 81.8316 56.3652 81.8378 56.3635C81.844 56.3619 81.8506 56.3627 81.8562 56.3659C83.3677 57.1949 84.8666 58.0458 86.364 58.8991C87.8672 59.879 89.2954 60.9692 90.637 62.1609C93.5987 64.6234 96.4319 67.2365 99.1255 69.9898C101.657 72.4373 104.492 74.9483 106.447 77.9029C108.476 80.9263 110.289 84.0885 111.875 87.3659C112.557 88.7961 113.371 90.1505 113.954 91.6264C114.64 93.4603 115.143 95.3574 115.456 97.2902C116.124 100.779 116.595 104.302 116.869 107.844C116.988 109.655 117.211 111.493 117.163 113.309C117.142 114.14 117.042 114.97 116.963 115.796C116.885 116.623 116.944 117.499 116.827 118.315C116.631 120.16 116.237 121.979 115.65 123.739C115.365 124.419 115.024 125.074 114.631 125.698C114.151 126.587 113.77 127.526 113.494 128.498C113.037 129.932 112.362 131.276 111.788 132.662C111.398 133.602 110.95 134.513 110.581 135.462C110.322 136.34 110.014 137.203 109.658 138.046C109.072 138.876 108.571 139.763 108.163 140.692C107.919 141.432 107.581 142.137 107.156 142.789C106.193 144.392 105.057 145.871 104.121 147.495C102.323 150.608 100.263 153.543 98.4679 156.656C97.7036 157.98 97.2038 159.396 96.4888 160.737C95.6114 162.383 94.5248 163.887 93.6348 165.525C92.8249 167.015 92.2789 168.638 91.4445 170.129C90.5455 171.737 89.8404 173.449 89.048 175.11C87.3941 178.578 86.2542 182.34 84.9466 185.95C82.5476 192.569 80.5889 199.965 81.7605 207.044C82.1422 208.69 82.6271 210.311 83.2124 211.896C83.7298 213.631 84.3876 215.289 85.0405 216.973C85.2539 217.544 85.5046 218.1 85.7909 218.637C85.8649 218.829 85.9302 219.022 86.0075 219.21C86.5953 220.402 87.2886 221.539 88.0793 222.607Z" fill="#F2A663"/>
<path d="M88.707 222.742C89.6236 224.063 90.5204 225.386 91.461 226.683C91.5437 226.795 91.4203 226.933 91.3048 226.934C91.2839 226.935 91.2631 226.931 91.2443 226.922C91.2255 226.912 91.2093 226.899 91.1972 226.882C91.0204 226.651 90.8526 226.414 90.6781 226.181C90.4544 225.879 90.2283 225.578 90.0078 225.274C89.5899 224.422 89.1887 223.56 88.707 222.742Z" fill="#F2A663"/>
<path d="M90.8797 227.437C90.6152 227.092 90.3683 226.733 90.1399 226.363C89.6537 225.584 89.2347 224.767 88.818 223.946C88.7043 223.72 88.5897 223.494 88.4734 223.269C88.3571 223.044 88.2152 222.824 88.0793 222.606C87.2915 221.54 86.6005 220.406 86.0145 219.217C85.9386 219.026 85.8734 218.833 85.7979 218.644C84.5973 215.545 83.6324 212.359 82.9112 209.115C82.1171 205.831 81.919 202.431 82.3263 199.078C82.5093 197.35 82.8027 195.635 83.2046 193.945C83.435 193.102 83.5516 192.231 83.7539 191.378C83.9828 190.416 84.3639 189.492 84.5758 188.53C85.3339 185.104 87.2649 181.895 88.6222 178.687C89.2667 177.098 90.0104 175.55 90.8489 174.055C91.731 172.527 92.3064 170.755 93.0917 169.168C93.9085 167.512 94.7814 165.879 95.6006 164.219C96.4599 162.477 97.4452 160.807 98.1544 158.999C98.8266 157.555 99.6045 156.162 100.482 154.832L103.113 150.288L105.599 145.983C106.384 144.623 107.446 143.413 108.252 142.043C109.081 140.632 109.741 139.152 110.455 137.681C111.209 136.127 112.165 134.688 112.881 133.111C113.596 131.534 114.229 129.905 114.962 128.322C115.74 126.455 116.374 124.531 116.857 122.567C117.334 120.916 117.598 119.241 118.014 117.569C118.537 115.715 118.916 113.823 119.148 111.911C119.373 108.51 119.251 105.094 118.782 101.718C118.43 98.4102 117.723 95.15 116.673 91.9937C115.358 88.5768 113.686 85.3084 111.684 82.2429C110.766 80.719 109.777 79.2387 108.728 77.8038C108.182 77.0545 107.62 76.3289 107.018 75.6236C106.54 75.0606 105.827 74.8711 105.51 74.182C105.498 74.1561 105.538 74.1341 105.55 74.1592C105.877 74.8181 106.875 75.3036 107.385 75.8674C107.916 76.4552 108.381 77.0751 108.862 77.7011C109.955 79.1156 110.939 80.6117 111.882 82.131C113.748 84.9771 115.347 87.99 116.657 91.131C117.785 94.1876 118.559 97.3633 118.964 100.596C119.435 103.79 119.647 107.016 119.597 110.244C119.51 113.691 118.454 116.821 117.846 120.177C117.181 123.63 116.073 126.982 114.55 130.151C113.833 131.685 113.302 133.282 112.524 134.787C111.729 136.324 110.854 137.797 110.128 139.373C108.694 142.483 106.608 145.123 104.911 148.07L100.026 156.555C99.1682 158.04 98.5634 159.593 97.7788 161.104C96.9113 162.771 96.048 164.435 95.197 166.116C93.5779 169.308 92.2453 172.656 90.4641 175.749C89.6329 177.188 89.2199 178.889 88.5355 180.392C87.6622 182.31 86.6844 184.18 85.9036 186.139C85.3043 187.766 84.7947 189.426 84.3772 191.109C83.9177 192.772 83.5554 194.46 83.292 196.164C82.5934 199.959 82.5477 203.844 83.1569 207.654C83.8144 211.193 84.7984 214.663 86.0963 218.02C86.7103 219.52 87.4919 220.945 88.4262 222.269C88.5253 222.419 88.6033 222.58 88.6935 222.734C89.1751 223.552 89.5763 224.414 89.9923 225.27C90.0333 225.354 90.0747 225.437 90.1162 225.52C90.4014 226.12 90.7353 226.696 91.1147 227.242C91.1262 227.261 91.1332 227.282 91.1351 227.304C91.137 227.327 91.1338 227.349 91.1257 227.37C91.1176 227.39 91.1048 227.409 91.0884 227.424C91.072 227.439 91.0524 227.45 91.031 227.456C91.0071 227.47 90.9795 227.476 90.9522 227.472C90.9249 227.469 90.8994 227.456 90.8797 227.437Z" fill="#F2A663"/>
<path d="M11.5155 152.076C11.4514 152.484 11.3301 152.88 11.1552 153.253C11.0851 153.402 10.8691 153.274 10.9353 153.126C11.2191 152.196 11.4334 151.246 11.5761 150.285C11.8091 149.383 11.989 148.469 12.1148 147.547C12.3192 145.734 12.6769 143.942 13.1842 142.189L13.1896 142.18C13.431 141.45 13.7107 140.733 13.9793 140.014C14.2339 139.108 14.4315 138.186 14.5709 137.256C15.0065 135.381 15.7263 133.605 16.2023 131.745C16.348 130.88 16.5387 130.022 16.7738 129.177C17.0859 128.34 17.3853 127.497 17.6553 126.646C18.1765 124.821 18.5806 122.966 18.8652 121.09C19.547 117.342 20.2928 113.613 20.9844 109.87C21.784 106.154 22.3104 102.383 22.5595 98.5902C22.6347 96.7493 22.5376 94.9054 22.2695 93.0825C21.9914 91.2262 21.9098 89.3357 21.6117 87.4869C20.9928 83.8004 19.9325 80.2017 18.4538 76.7685C17.0385 73.5817 15.1777 70.6121 12.9271 67.9487C10.6242 65.1249 7.9417 62.6348 5.45508 59.978C4.26537 58.7079 2.99781 57.5049 1.76669 56.2736C0.415153 54.9213 -0.825935 53.4728 -2.22589 52.1675C-3.523 50.9575 -4.9012 49.8395 -6.10071 48.5302C-7.40491 47.1056 -8.63293 45.6131 -9.81778 44.0884C-11.9701 41.2316 -13.9264 38.2324 -15.6733 35.1112C-16.4664 33.7526 -17.2567 32.3924 -18.0441 31.0304L-17.7373 30.499C-16.6574 32.506 -15.3749 34.4373 -14.2595 36.373C-12.3508 39.6755 -10.1701 42.8132 -7.74023 45.7535C-6.62208 47.1514 -5.40829 48.47 -4.10762 49.6999C-2.69226 51.0017 -1.23287 52.2428 0.0703958 53.6612C4.9006 58.9124 10.4704 63.6213 14.7169 69.3929C16.6474 71.9424 18.2195 74.7443 19.3894 77.7206C20.02 79.3283 20.5655 80.9681 21.0236 82.6332C21.5652 84.328 21.9489 86.0692 22.1698 87.8347C22.4201 91.4491 23.147 94.9514 23.0389 98.5916C22.8331 102.121 22.348 105.628 21.5881 109.08C20.8779 112.831 20.0808 116.559 19.4227 120.318C19.1187 122.054 18.7811 123.792 18.3879 125.511C17.9551 127.396 17.1318 129.131 16.7587 131.027C16.4225 132.736 15.762 134.342 15.2744 136.004C14.7318 137.851 14.4568 139.727 13.7889 141.536C13.4374 142.502 13.1589 143.493 12.9556 144.501C12.8383 145.067 12.7323 145.638 12.6471 146.225C12.3489 148.198 11.8599 150.115 11.5155 152.076Z" fill="#8E3F32"/>
<path d="M42.5398 217.286C43.8213 218.113 45.1762 218.837 46.4875 219.615C47.8519 220.507 49.306 221.253 50.8261 221.842C51.05 221.918 50.9639 222.267 50.7317 222.2C49.2754 221.714 47.8794 221.063 46.5709 220.26C44.863 219.302 43.1073 218.388 41.4743 217.304C40.058 216.311 38.7299 215.198 37.5049 213.978C36.1106 212.657 34.5914 211.486 33.1991 210.162C31.5428 208.571 30.01 206.857 28.6139 205.033C25.8282 201.367 23.4386 197.416 21.4852 193.246C18.6282 187.343 16.8129 180.992 16.1195 174.471C15.7052 170.639 15.5578 166.783 15.6783 162.93C15.8301 159.1 16.4461 155.269 16.8466 151.461C17.4317 145.453 18.4002 139.488 19.7465 133.603C20.4968 130.442 21.0605 127.238 21.6323 124.041C22.3143 120.862 22.8187 117.646 23.1433 114.41C23.2409 112.942 23.2564 111.469 23.3017 109.999C23.3521 108.349 23.6176 106.747 23.8124 105.107C24.1629 102.103 24.3009 99.0782 24.2255 96.055C24.153 92.9429 23.2624 89.9025 23.2513 86.8101C23.1589 85.5918 22.8499 84.3998 22.3386 83.2902C21.8979 82.2835 22.1317 81.072 21.4843 80.1442C21.463 80.1151 21.5131 80.0769 21.5352 80.1064C22.1353 80.8894 22.1517 81.9757 22.4327 82.8946C22.9475 84.1532 23.3158 85.467 23.5301 86.8099C23.7953 90.4742 24.5809 94.0473 24.6029 97.747C24.615 99.471 24.5372 101.193 24.4102 102.912C24.2683 104.827 23.8701 106.736 23.7688 108.649C23.7247 112.169 23.4843 115.683 23.0487 119.176C21.8063 126.693 19.8814 134.09 18.7127 141.614C18.111 145.497 17.6188 149.378 17.2064 153.281C16.7994 157.088 16.2615 160.906 16.2139 164.738C16.0856 170.707 16.7474 176.666 18.1823 182.461C19.5956 187.732 21.6947 192.795 24.4258 197.52C26.7719 201.745 29.6718 205.638 33.0486 209.095C33.7563 209.808 34.4875 210.511 35.2501 211.177C37.5282 213.388 39.9646 215.43 42.5398 217.286Z" fill="#8E3F32"/>
<path d="M18.8692 191.624C19.576 193.076 20.1911 194.569 20.9589 195.989C21.8468 197.62 22.8451 199.228 23.7924 200.832C24.7957 202.484 25.8997 204.072 27.0981 205.587C27.2004 205.72 27.0294 205.9 26.9079 205.775C24.3911 203.215 22.8282 199.943 20.9044 196.961C19.2088 194.139 17.7993 191.155 16.6967 188.053C15.8163 185.5 15.2415 182.851 14.9841 180.163C14.8933 179.469 14.8062 178.779 14.7151 178.097C14.4841 176.382 14.298 174.663 14.2249 172.936C14.1425 171.097 13.8948 169.276 13.8742 167.435C13.9593 163.855 14.2727 160.284 14.8125 156.744C15.2305 153.18 15.6091 149.593 16.1669 146.044C16.7351 142.418 17.5894 138.813 18.4026 135.235C18.8245 133.38 19.2733 131.531 19.7239 129.682C20.1529 127.925 20.2423 126.045 20.5075 124.254C20.6629 123.115 20.9015 121.989 21.2213 120.885C21.2469 120.455 21.3014 120.028 21.3845 119.606C21.6451 119.087 21.7444 118.502 21.6694 117.926C21.664 117.887 21.731 117.877 21.7373 117.917C21.7788 118.933 21.67 119.951 21.4145 120.936C21.2852 121.78 21.0103 122.605 20.8926 123.459C20.7333 124.572 20.5959 125.688 20.4642 126.804C20.0349 130.456 19.086 133.986 18.3261 137.58C17.4661 141.253 16.7986 144.968 16.3265 148.711C15.9426 152.4 15.4676 156.083 15.0587 159.769C14.5255 163.291 14.3903 166.862 14.6556 170.414C14.8578 172.197 14.7917 173.992 15.0342 175.768C15.2948 177.657 15.497 179.548 15.8062 181.43C16.0178 182.715 16.1878 184.014 16.4704 185.283C16.5483 185.635 16.6255 185.984 16.7283 186.333C17.2857 188.156 18.0021 189.927 18.8692 191.624Z" fill="#8E3F32"/>
<path d="M12.204 164.193C12.1876 163.96 12.1641 163.737 12.1537 163.505C12.0619 161.785 12.1946 160.058 12.2561 158.339C12.3129 156.75 12.1704 155.166 12.1923 153.577C12.221 152.267 12.3252 150.959 12.5044 149.66C12.5299 149.466 12.583 149.283 12.6225 149.095C12.9127 147.704 13.5295 146.415 13.885 145.043L15.3073 139.58C15.7195 137.994 16.9609 136.716 17.0239 135.023C17.0247 135.014 17.0287 135.006 17.0351 135C17.0415 134.995 17.0499 134.991 17.0586 134.991C17.0673 134.991 17.0757 134.994 17.0821 135C17.0886 135.006 17.0926 135.014 17.0934 135.023C17.0589 136.124 16.7344 137.197 16.1528 138.133C15.2808 139.805 15.0442 141.944 14.6045 143.772C14.2294 145.332 13.6924 146.819 13.256 148.366C12.8777 149.949 12.6921 151.573 12.7031 153.201C12.6606 154.631 12.8257 156.055 12.8178 157.482C12.8169 157.585 12.8116 157.687 12.8087 157.787C12.7342 158.304 12.6632 158.815 12.6125 159.333C12.4606 160.945 12.312 162.567 12.204 164.193Z" fill="#8E3F32"/>
<path d="M13.3753 172.197C12.9842 170.769 13.2114 169.27 12.8288 167.866C12.7138 167.445 12.619 167.028 12.5355 166.61C12.5698 165.438 12.6167 164.265 12.6914 163.093C12.7062 163.802 12.7491 164.505 12.8314 165.204C12.9119 165.922 13.0378 166.634 13.2084 167.337C13.5952 168.91 13.3658 170.525 13.6772 172.116C13.6866 172.156 13.6796 172.198 13.6579 172.233C13.6362 172.268 13.6015 172.294 13.5613 172.303C13.5422 172.31 13.5218 172.312 13.5017 172.31C13.4816 172.308 13.4621 172.302 13.4445 172.292C13.4269 172.282 13.4117 172.268 13.3998 172.252C13.3879 172.235 13.3795 172.217 13.3753 172.197Z" fill="#8E3F32"/>
<path d="M12.5352 166.611C12.5274 166.892 12.5044 167.174 12.4958 167.454C12.4534 168.942 12.5095 170.43 12.6635 171.91C12.9202 173.367 13.0689 174.842 13.1084 176.321C13.1084 176.354 13.0952 176.386 13.0719 176.409C13.0486 176.433 13.017 176.446 12.9841 176.446C12.9512 176.446 12.9196 176.432 12.8963 176.409C12.873 176.386 12.86 176.354 12.86 176.321C12.4522 173.666 12.1833 170.992 12.0541 168.309C12.0493 166.935 12.1122 165.562 12.2023 164.19C12.3093 162.566 12.458 160.944 12.6078 159.324C12.6551 158.803 12.7314 158.291 12.8039 157.778C13.1379 155.433 13.6768 153.133 14.0275 150.785C14.2531 149.277 14.5138 147.79 14.8271 146.298C14.9069 145.744 15.0151 145.195 15.1512 144.653C15.3113 144.156 15.815 143.608 15.39 143.041C15.3694 143.015 15.4162 142.98 15.4373 143.006C15.7047 143.318 15.6142 143.769 15.5611 144.148C15.5057 144.585 15.2496 144.988 15.2304 145.467C15.1438 146.203 15.0031 146.932 14.8095 147.647C14.4745 149.328 14.288 151.039 14.0518 152.74C13.8084 154.493 13.3178 156.184 13.1233 157.956C12.9355 159.659 12.7932 161.371 12.6833 163.086C12.6164 164.266 12.5695 165.439 12.5352 166.611Z" fill="#8E3F32"/>
<path d="M-23.3652 46.8697C-20.8252 50.1047 -18.0089 53.0728 -15.3926 56.2377C-13.0209 59.1091 -10.9978 62.2527 -8.80945 65.2634C-7.74972 66.7236 -6.52084 68.0576 -5.43821 69.5054C-4.21004 71.1547 -3.13226 72.9074 -1.94943 74.5888C-0.998498 75.8784 -0.212634 77.282 0.389868 78.7667C1.05786 80.4732 1.50837 82.2577 2.08484 83.9986C3.11788 87.578 3.7705 91.2563 4.03186 94.9726C4.45374 98.8205 4.65967 102.689 4.64874 106.56C4.75965 114.484 3.82161 122.387 1.85904 130.065C-0.322539 137.991 -3.20728 145.736 -5.96946 153.473C-8.87154 161.602 -11.958 169.662 -15.0716 177.711C-16.5765 181.599 -18.2089 185.454 -19.5668 189.395C-19.9855 191.049 -20.5103 192.673 -21.1382 194.259C-22.0074 196.007 -22.2655 198.079 -22.7983 199.944C-23.9402 203.94 -25.3584 207.831 -26.3928 211.86C-27.2525 215.812 -27.8762 219.812 -28.2605 223.838C-29.4064 231.656 -29.9996 239.544 -30.0358 247.446C-29.9826 253.273 -29.5728 259.092 -28.8086 264.87L-29.6195 264.402C-31.2267 252.399 -31.2395 240.237 -29.6577 228.232C-29.134 224.296 -28.5405 220.37 -27.9898 216.435C-27.4151 212.364 -26.4083 208.365 -24.9865 204.507C-24.3029 202.639 -23.8055 200.705 -23.2538 198.792C-22.8846 197.122 -22.3948 195.482 -21.7883 193.883C-20.9927 192.117 -20.6263 190.145 -19.9765 188.311C-19.2629 186.3 -18.4342 184.33 -17.6599 182.341C-11.5191 166.567 -5.3202 150.745 -0.213521 134.597C1.09089 130.725 2.10754 126.761 2.82815 122.739C3.44532 118.628 3.80324 114.483 3.89976 110.327C4.18977 102.415 3.60055 94.4951 2.14296 86.7129C1.75032 85.043 1.26922 83.3952 0.701691 81.7764C0.194927 79.8964 -0.529375 78.0819 -1.45657 76.3698C-2.38573 74.7745 -3.60462 73.2816 -4.62864 71.7401C-5.80388 69.9759 -7.20266 68.4049 -8.48236 66.7169C-10.8079 63.6629 -12.8503 60.4052 -15.2044 57.3716C-17.7063 54.1441 -20.5844 51.2232 -23.1094 48.0047C-24.0199 46.8455 -24.9257 45.6809 -25.8268 44.5107L-25.5742 44.0732C-24.8364 45.0074 -24.0975 45.9377 -23.3652 46.8697Z" fill="#8E3F32"/>
<path d="M-7.03431 219.473C-7.01382 219.841 -6.98022 220.207 -6.94746 220.573C-7.65947 227.834 -8.08606 235.122 -6.77675 242.365C-6.44558 244.191 -5.98928 245.974 -5.74476 247.819C-5.45159 250.025 -5.30698 252.246 -4.97351 254.447C-4.24385 258.775 -3.14454 263.033 -1.68766 267.173C0.248196 272.957 2.41443 278.679 4.82216 284.286L3.91384 283.762C3.76583 283.413 3.61468 283.066 3.46653 282.72C0.074107 274.94 -2.67497 266.896 -4.75305 258.667C-5.70241 254.616 -5.94067 250.533 -6.57324 246.435C-6.87295 244.482 -7.40638 242.581 -7.6944 240.622C-7.96758 238.645 -8.13638 236.656 -8.20003 234.662C-8.48195 227.579 -7.57952 220.598 -6.88184 213.583C-6.85623 213.8 -6.82762 214.018 -6.79937 214.235C-6.85308 215.984 -7.1302 217.706 -7.03431 219.473Z" fill="#F2A663"/>
<path d="M-2.73183 69.5945C-0.463047 73.4351 1.50549 77.4449 3.52792 81.4175C5.39509 84.9235 6.84921 88.6341 7.86108 92.4752C8.74192 96.3005 9.31936 100.189 9.58803 104.106C9.74851 105.92 9.71371 107.746 9.48428 109.553C9.19757 111.703 9.56973 113.91 9.59272 116.067C9.55656 119.698 9.23587 123.321 8.63359 126.902C8.33975 128.896 7.9606 130.879 7.56899 132.852C7.11392 135.145 6.41914 137.343 5.85286 139.607C4.75309 144.009 3.9822 148.481 2.83641 152.875C1.82114 156.766 0.997341 160.702 0.00442098 164.597C-0.283488 165.412 -0.493053 166.253 -0.621412 167.108C-1.57038 170.907 -2.30242 174.783 -2.996 178.632C-3.78941 183.031 -4.03197 187.419 -4.43012 191.86C-4.74719 195.399 -5.02265 198.939 -5.30125 202.481C-5.35578 202.381 -5.41579 202.285 -5.48103 202.191C-5.50398 202.161 -5.55767 202.202 -5.53472 202.232C-5.45155 202.356 -5.37645 202.485 -5.30992 202.618C-5.6249 206.607 -5.95768 210.595 -6.34706 214.579C-6.37689 214.338 -6.40504 214.098 -6.43958 213.863C-6.47437 213.158 -6.44658 212.45 -6.35658 211.75C-6.27438 211.069 -6.27155 210.381 -6.34817 209.699C-6.32241 209.13 -6.26038 208.563 -6.16244 208.001C-6.21205 206.413 -5.99871 204.827 -5.53109 203.308C-5.51529 203.269 -5.58312 203.241 -5.60108 203.28C-6.27581 204.731 -6.14265 206.261 -6.36747 207.771C-6.07765 204.086 -5.77082 200.414 -5.54083 196.719C-5.41814 194.762 -5.11253 192.825 -4.94462 190.867C-4.75424 188.614 -4.68792 186.351 -4.42878 184.103C-3.43373 175.571 -1.16404 167.278 0.776756 158.936C1.79282 154.568 3.00091 150.25 3.9078 145.857C4.81793 141.438 6.12725 137.119 7.01522 132.708C7.95206 128.702 8.56313 124.626 8.84245 120.521C8.79451 119.78 8.80257 119.036 8.86654 118.296C9.02329 117.26 9.0713 116.211 9.00975 115.165C8.85571 113.121 8.84874 111.068 8.98888 109.023C9.41719 105.288 8.83087 101.439 8.31856 97.7393C7.8496 94.2964 7.02196 90.9119 5.8491 87.6412C4.34033 83.9432 2.6021 80.343 0.644571 76.8617C-1.10233 73.1972 -3.15405 69.686 -5.48894 66.3651C-10.222 60.0093 -15.998 54.5177 -20.8834 48.2843C-22.2811 46.5002 -23.5542 44.628 -24.7972 42.7351L-24.582 42.3623C-22.8092 44.9797 -20.9949 47.5584 -18.9624 50.0034C-13.5804 56.472 -7.04025 62.2996 -2.73183 69.5945Z" fill="#F2A663"/>
<path d="M-22.5075 52.0255C-19.922 55.0869 -17.5248 58.3025 -15.3291 61.6545C-13.2371 64.9812 -11.5833 68.563 -9.57507 71.9398C-7.74332 75.0498 -6.22443 78.3338 -5.0407 81.7436C-4.43907 83.4486 -3.91777 85.1823 -3.42281 86.921C-2.84654 88.9472 -2.53611 91.0248 -2.11052 93.0871C-1.28031 96.8517 -0.809427 100.687 -0.704264 104.54C-0.805222 105.597 -0.796079 106.662 -0.676945 107.717C-0.524212 108.445 -0.460926 109.189 -0.488524 109.932C-0.615999 111.644 -0.862968 113.346 -1.22757 115.024C-1.82538 118.942 -2.20527 122.847 -2.96806 126.743C-3.3103 128.599 -3.79523 130.425 -4.41858 132.206C-4.95734 134.066 -5.39056 135.955 -5.7162 137.864C-7.52807 145.548 -11.8421 152.086 -15.8098 158.788C-17.884 162.291 -20.6611 165.277 -22.7122 168.785C-24.8724 172.24 -27.2367 175.564 -29.7926 178.737C-32.2756 182.018 -34.6738 185.377 -37.3721 188.483C-40.158 191.687 -42.4983 195.238 -45.2418 198.469C-47.9326 201.636 -49.8508 205.399 -52.5772 208.524C-55.0667 211.553 -57.2549 214.818 -59.1107 218.272C-60.05 219.899 -61.3658 221.235 -62.2664 222.914C-63.1548 224.567 -63.8334 226.322 -64.7187 227.975C-66.6608 231.671 -68.2903 235.522 -69.5902 239.49C-69.7628 240.006 -69.9088 240.528 -70.0659 241.048L-70.6905 240.688C-70.2599 239.31 -69.7968 237.94 -69.2749 236.58C-68.6213 234.867 -67.9952 233.146 -67.2927 231.457C-66.5188 229.596 -65.4798 227.886 -64.6106 226.074C-63.8501 224.487 -63.1655 222.879 -62.2643 221.359C-61.8411 220.665 -61.368 220.003 -60.8487 219.378C-60.082 218.379 -59.3961 217.321 -58.7973 216.213C-58.0122 214.638 -57.0777 213.143 -56.0065 211.747C-54.7283 210.284 -53.4741 208.627 -52.3266 207.054C-49.9169 203.751 -47.8057 200.246 -45.1051 197.16C-43.6872 195.539 -42.4933 193.694 -41.1796 191.987C-39.9139 190.342 -38.601 188.735 -37.2283 187.179C-34.4235 184 -32.0758 180.404 -29.4622 177.068C-26.859 173.746 -24.6556 170.261 -22.3343 166.744C-21.2594 165.115 -19.9759 163.629 -18.8001 162.069C-17.6003 160.36 -16.4908 158.59 -15.476 156.765C-13.3825 153.273 -11.2503 149.803 -9.45313 146.139C-7.79953 142.59 -6.57829 138.854 -5.81569 135.014C-5.41552 133.223 -4.88439 131.508 -4.38815 129.746C-3.82826 127.754 -3.5054 125.696 -3.09169 123.673C-2.69485 121.714 -2.5595 119.719 -2.3423 117.736C-2.14496 115.917 -1.78731 114.118 -1.46043 112.319C-1.28576 111.392 -1.18935 110.451 -1.17221 109.507C-1.16224 108.618 -1.47735 107.775 -1.43062 106.896C-1.33729 104.843 -1.38423 102.787 -1.57109 100.741C-1.75605 98.7072 -2.05499 96.6852 -2.46653 94.6847C-2.87332 92.6131 -3.15224 90.4441 -3.69686 88.4115C-4.9541 83.3447 -6.8095 78.4455 -9.22395 73.817C-10.503 71.4746 -11.87 69.1855 -13.1206 66.8248C-14.3835 64.3388 -15.8101 61.9393 -17.391 59.6425C-20.4853 55.3084 -23.8302 51.1118 -27.3019 47.0613L-27.0596 46.6416C-25.5282 48.4268 -23.9915 50.2028 -22.5075 52.0255Z" fill="#8E3F32"/>
<path d="M14.8673 117.396C15.1393 116.15 14.8857 114.703 15.3723 113.526C15.4099 113.436 15.5732 113.5 15.5351 113.594C15.3932 113.982 15.3539 114.401 15.4209 114.809C15.3943 114.991 15.3775 115.177 15.3489 115.356C15.1087 116.841 14.6277 118.298 14.48 119.797C14.4618 119.985 14.4243 120.168 14.398 120.354C14.1888 120.894 13.9459 121.41 13.7183 122.033C13.3414 123.073 13.136 124.317 12.8437 125.395C12.6191 126.223 12.3511 127.069 12.0933 127.92C11.7421 129.01 11.4727 130.125 11.2873 131.255C11.2173 131.764 11.1377 132.272 11.0629 132.78C10.7979 134.582 10.5242 136.386 10.2697 138.188C9.66762 142.445 9.38454 146.72 9.01789 150.998C8.98305 151.397 8.95205 151.798 8.91588 152.198C8.49639 156.843 8.12637 161.473 8.08467 166.14C7.94013 170.578 8.19342 175.02 8.84148 179.412C9.62455 184.006 10.039 188.619 11.117 193.162C11.6195 195.281 12.0962 197.404 12.7779 199.474C13.7146 201.923 14.8763 204.28 16.2483 206.515C18.3452 210.477 20.7819 214.25 23.531 217.791C28.9848 224.311 35.6472 229.716 43.1519 233.708C51.0367 238.058 59.5417 240.562 68.1306 243.093C72.8572 244.485 77.5879 245.867 82.3097 247.281C86.6371 248.476 90.8761 249.971 94.9958 251.756C103.663 255.743 112.347 259.49 120.093 265.152C123.925 267.999 127.518 271.154 130.836 274.587C132.386 276.167 134.05 277.623 135.591 279.209C137.215 281.042 138.725 282.974 140.11 284.994C141.366 286.651 142.641 288.288 143.768 290.037C144.974 292.039 146.041 294.12 146.964 296.266C148.756 300.099 150.875 303.643 152.266 307.673C155.014 315.797 156.506 324.292 156.689 332.866C156.84 337.267 156.741 341.674 156.395 346.064C156.147 348.907 155.918 351.788 155.61 354.653C155.611 354.584 155.617 354.517 155.616 354.448C155.642 351.766 155.731 349.077 155.629 346.396C155.851 343.64 156.013 340.884 156.055 338.097C156.23 329.206 155.145 320.335 152.833 311.748C151.723 307.485 150.072 303.382 147.922 299.537C145.632 295.54 144.05 291.338 141.286 287.599C139.859 285.669 138.459 283.695 136.998 281.792C135.46 279.926 133.778 278.184 131.965 276.582C128.401 272.999 124.649 269.607 120.726 266.421C116.804 263.443 112.623 260.823 108.232 258.592C104.132 256.492 99.8328 254.781 95.6811 252.783C91.3067 250.807 86.7849 249.175 82.1569 247.902C77.4365 246.486 72.7054 245.105 67.9778 243.714C59.6436 241.26 51.4435 238.813 43.7215 234.74C36.4217 230.953 29.8688 225.873 24.3806 219.749C21.7281 216.651 19.39 213.298 17.4007 209.737C15.1575 205.868 12.8163 201.953 11.6131 197.616C9.79188 190.556 8.53189 183.363 7.84494 176.104C7.01758 168.739 7.63926 161.189 8.27835 153.833C8.58902 150.271 8.92401 146.73 9.31115 143.196C9.56826 142.658 9.71538 142.074 9.74393 141.477C9.72239 140.653 9.8101 139.829 10.0048 139.027C10.0333 138.784 9.9101 138.644 10.032 138.429C10.0441 138.408 10.0501 138.383 10.0494 138.359C10.0487 138.334 10.0414 138.31 10.0282 138.289C10.015 138.268 9.99635 138.251 9.97432 138.24C9.95229 138.229 9.92767 138.224 9.90306 138.226C10.1582 136.218 10.4312 134.209 10.7374 132.198C11.0484 130.544 11.4519 128.908 11.946 127.299C12.488 125.709 12.9272 124.086 13.2609 122.439C13.3114 122.106 13.4105 121.781 13.555 121.476C13.6957 121.165 13.8644 120.865 14.0218 120.586C14.4559 119.569 14.7407 118.495 14.8673 117.396Z" fill="#F2A663"/>
<path d="M-77.8847 232.358C-78.0244 232.776 -78.1481 233.202 -78.2799 233.624C-77.7441 229.735 -76.8355 225.907 -75.5669 222.192L-75.5479 222.143C-74.9938 220.588 -74.2568 219.112 -73.736 217.541C-73.1583 215.925 -72.4566 214.357 -71.6369 212.849C-70.0822 209.803 -68.7713 206.682 -67.0614 203.72L-61.5458 194.167C-59.8083 191.157 -57.8005 188.327 -56.0631 185.32C-55.2598 183.953 -54.3799 182.633 -53.4277 181.366C-52.3155 179.854 -51.4041 178.192 -50.2749 176.681C-48.0512 173.703 -46.2286 170.5 -43.9833 167.54C-41.8635 164.571 -39.9319 161.473 -38.1999 158.263C-37.3638 156.815 -36.3841 155.506 -35.4217 154.137C-34.4709 152.562 -33.6022 150.939 -32.819 149.275C-29.1802 142.54 -26.5049 135.328 -24.8715 127.849C-23.971 124.084 -23.405 120.246 -23.1803 116.38C-23.0836 114.718 -23.1007 113.057 -23.0482 111.394C-22.9351 109.74 -22.9575 108.08 -23.1151 106.43C-23.4886 103.617 -23.6086 100.783 -24.0393 97.9732C-24.2979 96.7575 -24.6659 95.5676 -25.1387 94.4182C-25.579 93.1353 -25.9413 91.8203 -26.316 90.5171C-27.0987 87.8132 -27.7174 84.6197 -29.251 82.2355C-30.8357 79.7748 -31.9717 77.1031 -33.4416 74.5833C-35.0352 72.0159 -36.8058 69.5628 -38.7405 67.2416C-38.7804 67.1905 -38.8236 67.1432 -38.8639 67.0909L-38.5498 66.5469C-36.7959 68.6911 -35.1106 70.9077 -33.5779 73.2063C-32.6664 74.6474 -31.8491 76.1459 -31.1311 77.6925C-30.2804 79.4082 -29.0614 80.957 -28.2671 82.6928C-26.9911 85.8393 -25.9311 89.0691 -25.0942 92.3597C-24.6503 93.8338 -24.0485 95.2536 -23.6087 96.7253C-23.2158 98.3062 -22.977 99.9214 -22.8954 101.548C-22.5059 104.938 -22.3281 108.349 -22.3628 111.762C-22.3828 115.242 -22.608 118.719 -23.0373 122.173C-23.6233 125.976 -24.489 129.73 -25.6275 133.404C-26.5947 136.885 -27.7792 140.301 -29.1737 143.634C-29.9025 145.284 -30.6477 146.941 -31.5329 148.513C-32.442 150.128 -33.1577 151.843 -34.0857 153.44C-34.9138 154.865 -36.0154 156.122 -36.9027 157.511C-37.9459 159.147 -38.8532 160.878 -39.8221 162.556C-40.6676 164.043 -41.5873 165.487 -42.5776 166.883C-43.6751 168.409 -44.8994 169.836 -45.8822 171.443C-46.7887 173.013 -47.7759 174.536 -48.8398 176.004C-49.9814 177.506 -51.1032 179.019 -52.1048 180.62C-52.9961 182.047 -54.0567 183.33 -54.8981 184.787C-55.7472 186.258 -56.6037 187.72 -57.5431 189.132C-59.5549 192.153 -61.3365 195.295 -63.1477 198.432L-67.3329 205.681C-67.9915 206.822 -68.3923 208.051 -68.9975 209.212C-69.6886 210.539 -70.33 211.884 -70.9916 213.226C-71.7107 214.553 -72.3418 215.926 -72.8807 217.336C-73.3002 218.564 -73.7365 219.764 -74.257 220.954C-75.3947 223.662 -76.2656 226.474 -76.8573 229.351C-76.8705 229.411 -76.8798 229.471 -76.8921 229.531C-77.2348 230.466 -77.5657 231.408 -77.8847 232.358Z" fill="#8E3F32"/>
<path d="M-33.1626 70.8867C-32.13 72.241 -31.1844 73.6595 -30.3314 75.1336C-29.4065 76.7769 -28.7192 78.5449 -27.832 80.211C-24.3803 86.6117 -21.947 93.5111 -20.6196 100.661C-20.1021 103.623 -19.4552 106.527 -19.1619 109.512C-18.9935 111.229 -18.6169 112.921 -18.4171 114.636C-18.2073 116.436 -18.309 118.347 -18.2596 120.165C-18.3018 121.795 -18.4931 123.418 -18.8312 125.013C-19.115 126.848 -19.334 128.695 -19.6089 130.532C-20.165 134.248 -20.5366 138.023 -21.4315 141.68C-22.4119 145.261 -23.6609 148.763 -25.1679 152.155C-25.8156 153.907 -26.5787 155.613 -27.4523 157.264L-30.2687 162.142C-32.0479 165.224 -34.1935 168.106 -36.1955 171.05C-38.3197 174.171 -40.5216 177.233 -42.8573 180.2C-47.6353 186.272 -52.671 192.129 -57.2326 198.37C-59.1923 201.051 -61.3225 203.62 -63.1933 206.368C-65.0862 209.158 -66.9156 212.076 -68.6182 214.988C-70.4357 218.094 -72.3605 221.133 -73.9684 224.356C-75.4636 227.512 -76.7091 230.779 -77.6936 234.129L-77.7245 234.224C-77.9372 234.902 -78.1369 235.589 -78.3345 236.277L-78.9767 235.906C-78.7569 235.137 -78.5236 234.377 -78.2845 233.619C-78.1527 233.197 -78.0265 232.773 -77.8893 232.353C-77.5706 231.404 -77.2388 230.461 -76.8939 229.524C-76.0078 227.053 -74.9543 224.645 -73.7405 222.317C-71.9537 218.949 -69.9663 215.619 -67.9164 212.406C-65.971 209.357 -64.1084 206.21 -61.8954 203.346C-59.5034 200.25 -57.2387 197.068 -54.8709 193.956C-50.2552 187.89 -45.1506 182.211 -40.6287 176.073C-38.3021 172.915 -36.1224 169.652 -33.939 166.392C-33.0466 165.061 -32.0802 163.822 -31.2766 162.43L-28.5571 157.719C-26.6696 154.221 -25.0859 150.566 -23.8236 146.797C-22.4368 143.086 -21.5118 139.219 -21.0696 135.282C-20.6923 131.796 -20.0353 128.303 -19.5124 124.83C-19.1619 123.013 -18.9842 121.167 -18.9817 119.316C-18.9693 117.351 -19.0626 115.387 -19.2612 113.432C-20.1121 107.494 -20.7715 101.418 -22.3699 95.6121C-23.3278 92.356 -24.4706 89.1572 -25.7928 86.0313C-27.1035 82.7819 -28.7721 79.7377 -30.2756 76.5762C-31.6072 73.7781 -33.7005 71.5141 -35.2077 68.8339C-35.9593 67.5249 -36.7857 66.2604 -37.683 65.0465L-37.3984 64.5537C-36.9067 65.1891 -36.4182 65.8259 -35.9547 66.483C-34.9476 67.9084 -34.2117 69.4817 -33.1626 70.8867Z" fill="#8E3F32"/>
<path d="M17.1304 100.08C17.0898 102.174 17.5269 104.282 17.3876 106.365C17.3879 106.419 17.3668 106.471 17.329 106.509C17.2912 106.547 17.2397 106.569 17.186 106.569C17.1322 106.569 17.0806 106.548 17.0424 106.51C17.0042 106.473 16.9825 106.421 16.9822 106.367C16.9678 104.807 16.5512 103.281 16.5786 101.718C16.5955 100.764 16.6001 99.7533 16.5545 98.7487C16.5213 97.823 16.4215 96.9009 16.2559 95.9895C15.9144 94.2254 15.4572 92.4795 14.9992 90.7409C14.6711 89.0606 14.1837 87.4152 13.5435 85.8273C12.8102 84.3193 12.3835 82.703 11.7415 81.157C10.9957 79.3843 10.1053 77.676 9.07927 76.0494C7.1517 72.9524 4.83875 70.1126 2.1959 67.5981C-0.883577 64.6673 -4.19302 61.9719 -7.35526 59.1321C-8.17771 58.1548 -9.07059 57.2391 -10.0267 56.3922C-10.5273 55.97 -10.7497 55.415 -11.1982 54.9859C-11.5197 54.6761 -12.3726 54.0169 -12.3283 53.4963C-12.3281 53.4925 -12.3289 53.4886 -12.3307 53.4853C-12.3325 53.4819 -12.3351 53.479 -12.3384 53.477L-12.6232 53.3227C-12.6265 53.3208 -12.6305 53.3202 -12.6342 53.3212C-12.6379 53.3222 -12.6411 53.3247 -12.643 53.328C-12.645 53.3314 -12.6455 53.3353 -12.6445 53.339C-12.6435 53.3427 -12.641 53.3459 -12.6377 53.3478C-12.4345 53.4651 -12.2853 53.8871 -12.1457 54.0796C-11.7024 54.5969 -11.299 55.1471 -10.9391 55.7255C-11.9297 54.7271 -12.8994 53.7061 -13.8109 52.6269C-16.1551 49.8553 -18.3408 46.9816 -20.5165 44.079C-21.4981 42.7409 -22.3752 41.3293 -23.1402 39.8566L-22.8125 39.2891C-22.1086 40.7153 -21.2911 42.0826 -20.368 43.3778C-15.8757 49.2454 -11.3727 54.883 -5.72018 59.6889C-2.88284 62.1027 -0.0111018 64.5442 2.67835 67.1211C3.85199 68.2464 4.84651 69.5269 6.01234 70.6522C7.21454 71.9821 8.28012 73.4294 9.193 74.9723C10.1911 76.4479 11.0677 78.0021 11.8142 79.6197C12.6087 81.2951 13.0946 83.0687 13.8201 84.7647C14.3509 85.9862 14.791 87.2451 15.1366 88.5313C15.5039 89.8984 15.8584 91.2676 16.2003 92.6387C16.314 93.1029 16.4349 93.5644 16.5416 94.0289C16.9924 96.0129 17.1902 98.0459 17.1304 100.08Z" fill="#8E3F32"/>
<path d="M-12.645 53.3437C-12.6483 53.3418 -12.6508 53.3386 -12.6518 53.3349C-12.6528 53.3312 -12.6523 53.3272 -12.6503 53.3239C-12.6484 53.3206 -12.6452 53.3181 -12.6415 53.3171C-12.6378 53.3161 -12.6338 53.3166 -12.6305 53.3186L-12.3457 53.4729C-12.3424 53.4749 -12.3398 53.4777 -12.338 53.4811C-12.3362 53.4845 -12.3354 53.4883 -12.3356 53.4922C-12.3799 54.0128 -11.527 54.672 -11.2055 54.9818C-10.758 55.4126 -10.5346 55.9658 -10.034 56.388C-9.07634 57.2356 -8.18205 58.1522 -7.35835 59.1304C-7.02936 59.5028 -6.70109 59.8725 -6.36762 60.2352C-3.78426 63.0385 -1.05769 65.6772 1.43544 68.5728C3.58917 71.0309 5.51082 73.683 7.17583 76.4952C8.01871 77.9433 8.80367 79.4374 9.55799 80.9285C10.3894 82.5748 10.7843 84.3665 11.517 86.052C12.7977 88.9965 14.5257 92.0503 15.1242 95.2187C15.7001 98.0175 16.1311 100.844 16.4155 103.687C16.4566 104.182 16.5073 104.676 16.5275 105.172C16.6252 108.35 16.4568 111.53 16.0242 114.679C15.8147 116.302 15.3997 117.87 15.0988 119.475C15.0194 120.291 14.8985 121.103 14.7365 121.907C14.4755 122.805 14.2337 123.707 13.9514 124.597C13.8906 124.786 13.5669 124.767 13.5924 124.552C13.7622 123.126 14.1886 121.775 14.3961 120.359C14.4224 120.174 14.4598 119.99 14.4781 119.802C14.6244 118.306 15.1068 116.846 15.347 115.362C15.3756 115.182 15.3924 114.996 15.4189 114.814C15.714 112.784 15.8886 110.739 15.9417 108.688C15.976 107.508 15.9877 106.33 15.9549 105.175C15.7374 101.734 15.2586 98.3148 14.5225 94.9464C14.0763 93.2614 13.4682 91.6235 12.7068 90.0555C12.036 88.381 11.2266 86.7663 10.5784 85.0837C10.007 83.3539 9.33111 81.6603 8.55465 80.0122C7.78182 78.5475 7.02429 77.0737 6.176 75.6504C4.2782 72.6235 2.11522 69.7711 -0.28743 67.127C-2.68689 64.3638 -5.338 61.8426 -7.74592 59.0902C-8.33077 58.4224 -8.92492 57.7648 -9.54792 57.132C-9.83972 56.8348 -10.7194 56.3034 -10.8517 55.9316C-10.8814 55.8628 -10.9148 55.7957 -10.9517 55.7306C-11.3116 55.1522 -11.715 54.602 -12.1583 54.0847C-12.2911 53.8805 -12.4443 53.4652 -12.645 53.3437Z" fill="#8E3F32"/>
<path d="M10.0325 138.427C9.90894 138.641 10.0364 138.783 10.0054 139.024C9.81065 139.826 9.72291 140.65 9.74445 141.475C9.7159 142.071 9.56878 142.655 9.31167 143.194C9.29108 143.255 9.27095 143.315 9.25653 143.367C8.95645 144.416 8.65183 145.461 8.40651 146.524C7.48453 150.525 7.27727 154.651 6.70266 158.703C5.72195 166.31 5.77155 174.014 6.85006 181.608C7.2861 185.584 8.02779 189.521 9.06858 193.383C10.1273 197.25 11.407 201.054 12.9014 204.774C15.8273 211.769 20.8459 217.991 26.2291 223.261C32.1509 229.059 39.3833 233.352 46.5181 237.469C49.7333 239.325 52.9924 241.014 56.3415 242.616C57.9533 243.387 59.5018 244.272 61.1063 245.057C62.9838 245.975 64.9674 246.665 66.9152 247.403C74.3886 250.228 81.8093 253.127 89.1938 256.168C90.9885 256.905 92.7529 257.709 94.4868 258.578C96.3696 259.516 98.1414 260.623 100.103 261.388C101.507 262.036 102.862 262.788 104.155 263.637C105.881 264.634 107.608 265.631 109.335 266.628C110.739 267.438 111.958 268.515 113.371 269.331C115.076 270.381 116.714 271.537 118.276 272.791C119.728 273.891 121.184 274.985 122.605 276.124C124.158 277.368 125.496 278.781 126.929 280.149C128.245 281.407 129.624 282.587 130.862 283.926C132.27 285.449 133.6 287.039 134.959 288.605C136.079 289.898 137.421 291.005 138.453 292.372C139.773 294.123 140.86 296.033 142.202 297.771C144.367 300.824 146.249 304.067 147.825 307.462C149.469 310.982 150.897 314.6 152.1 318.294C153.194 321.749 153.903 325.313 154.213 328.923C154.457 330.813 154.791 332.697 155.031 334.582C155.12 335.378 155.169 336.178 155.178 336.978C155.199 337.803 155.484 338.594 155.509 339.4C155.517 340.481 155.462 341.561 155.346 342.635C155.366 343.876 155.457 345.116 155.619 346.347L155.62 346.394C155.721 349.076 155.632 351.766 155.607 354.446C155.606 354.514 155.601 354.581 155.601 354.65C155.541 359.42 155.013 364.152 154.615 368.895C154.565 369.492 154.51 370.087 154.465 370.684L153.845 370.327C153.856 370.197 153.864 370.068 153.874 369.938C153.958 368.934 154.056 367.933 154.18 366.934C154.417 365.02 154.464 363.084 154.56 361.16C154.662 359.081 154.873 357.021 154.907 354.936L154.927 353.78C155.064 350.218 154.988 346.65 154.7 343.097C154.675 342.298 154.717 341.499 154.826 340.707C154.835 339.846 154.737 338.987 154.534 338.151C154.463 337.505 154.438 336.854 154.46 336.205C154.384 335.089 154.237 333.979 154.021 332.882C153.428 329.063 153.091 325.212 152.301 321.424C151.851 319.611 151.269 317.834 150.558 316.106C149.785 314.002 149.074 311.861 148.179 309.807C147.464 308.163 146.587 306.59 145.738 305.012C144.769 303.214 143.894 301.409 142.751 299.706C141.697 298.135 140.512 296.672 139.468 295.091C138.274 293.325 136.92 291.673 135.424 290.155C132.703 287.295 130.327 284.197 127.401 281.525C126.094 280.331 124.909 279.016 123.588 277.838C121.918 276.354 120.105 275.033 118.328 273.682C116.876 272.477 115.351 271.363 113.762 270.346C112.221 269.457 110.857 268.479 109.401 267.47C107.904 266.433 106.208 265.61 104.631 264.699C103.009 263.64 101.31 262.704 99.5494 261.897C97.9976 261.216 96.4841 260.452 95.0157 259.606C93.1546 258.632 91.244 257.752 89.3091 256.937C85.4464 255.313 81.5969 253.671 77.6737 252.192C73.8814 250.761 70.0978 249.31 66.3079 247.875C64.7266 247.275 63.1439 246.686 61.5953 246.005C59.8195 245.223 58.1574 244.205 56.4074 243.37C49.3284 240.022 42.5115 236.147 36.0145 231.775C29.5504 227.532 23.8374 222.243 19.1096 216.124C16.8593 213.298 14.8979 210.253 13.2547 207.036C11.76 203.671 10.4934 200.21 9.46332 196.676C6.32077 187.011 5.57713 176.934 5.37466 166.835C5.42536 165.72 5.53341 164.608 5.69837 163.504C5.78486 162.468 5.80582 161.439 5.93836 160.403C6.28542 157.66 6.59679 154.911 6.97618 152.171C7.29493 149.617 7.79966 147.089 8.48633 144.608C8.93201 143.527 9.2244 142.389 9.35504 141.227C9.35053 140.593 10.0166 139.249 9.62525 138.708C9.61219 138.686 9.60532 138.661 9.60539 138.635C9.60546 138.61 9.61248 138.585 9.62566 138.563L9.78703 138.284C9.79853 138.263 9.81573 138.247 9.8365 138.236C9.85727 138.225 9.88075 138.22 9.90408 138.223C9.92877 138.221 9.95346 138.226 9.97554 138.237C9.99763 138.248 10.0163 138.265 10.0294 138.286C10.0426 138.307 10.0499 138.331 10.0504 138.356C10.051 138.381 10.0448 138.405 10.0325 138.427Z" fill="#F2A663"/>
<path d="M4.73807 239.761C4.64551 239.567 4.54439 239.377 4.45003 239.184C3.14953 236.324 2.00769 233.393 1.02964 230.407C0.0454896 227.045 -0.717538 223.621 -1.25451 220.159C-1.44973 218.568 -1.7263 216.989 -2.08314 215.427C-2.60787 213.914 -3.0315 212.367 -3.35129 210.797C-3.41749 210.145 -3.44499 209.489 -3.43358 208.833C-3.45193 208.068 -3.6261 207.33 -3.65311 206.565C-3.71454 204.781 -3.60837 202.997 -3.7404 201.218C-3.88205 199.33 -4.27502 197.506 -4.30648 195.607C-4.34005 193.749 -4.24978 191.891 -4.11433 190.039C-3.84374 186.298 -3.30392 182.579 -2.80211 178.864C-2.54345 177.033 -2.16748 175.221 -1.6765 173.438C-1.45396 172.603 -1.24056 171.768 -1.05393 170.923C-0.851441 170.003 -0.900828 169.082 -0.77407 168.157C-0.728072 167.817 -0.676134 167.466 -0.617439 167.11C-0.489083 166.255 -0.279541 165.414 0.00836392 164.599C0.144477 164.234 0.310953 163.881 0.50603 163.543C1.06171 162.711 1.44133 161.774 1.62156 160.789C1.69891 160.268 2.835 159.645 2.06745 159.048C2.03807 159.031 2.07628 158.98 2.10372 159C2.5638 159.338 2.53523 159.626 2.19677 160.084C1.86158 160.585 1.67128 161.169 1.64688 161.771C1.38051 162.551 0.9839 163.28 0.473899 163.927C-0.297611 165.624 -0.676701 167.473 -0.635187 169.337C-0.777401 171.04 -1.12227 172.72 -1.66249 174.341C-2.47207 177.947 -3.03433 181.605 -3.34534 185.288C-3.79136 188.848 -3.9921 192.434 -3.94619 196.022C-3.90696 197.77 -3.54339 199.477 -3.36139 201.213C-3.17715 202.983 -3.29601 204.783 -3.25582 206.559C-3.23756 207.318 -3.06752 208.067 -3.03027 208.828C-3.0351 209.699 -2.9641 210.57 -2.81809 211.429C-2.46688 212.994 -1.85676 214.463 -1.48917 216.023C-1.11724 217.604 -0.970056 219.276 -0.687547 220.879C-0.370829 222.674 -0.0100265 224.46 0.39486 226.237C1.1801 229.789 2.36904 233.239 3.93853 236.52C5.56777 239.852 6.54278 243.62 8.62521 246.731C10.8578 250.074 13.4252 253.18 15.9823 256.283C16.327 256.706 16.6944 257.111 17.0648 257.51C17.0113 257.454 16.9522 257.403 16.8974 257.346C11.9376 252.166 7.83317 246.231 4.73807 239.761Z" fill="#F2A663"/>
<path d="M25.8533 265.686L25.8159 265.658C24.1638 264.411 22.549 263.117 20.9717 261.776C22.1874 262.786 23.4317 263.762 24.6762 264.749C25.0692 265.061 25.4616 265.373 25.8533 265.686Z" fill="#F2A663"/>
<path d="M-5.48025 202.187C-5.41502 202.28 -5.35501 202.376 -5.30048 202.476C-4.3118 204.042 -4.60325 206.394 -4.68082 208.128C-4.78057 211.861 -4.31508 215.588 -3.30012 219.182C-2.4883 222.738 -1.45171 226.239 -0.196655 229.665C1.11431 232.974 2.89179 236.006 4.45029 239.184C4.54465 239.378 4.64577 239.567 4.73833 239.761C7.83063 246.23 11.9318 252.165 16.8881 257.346C16.943 257.402 17.002 257.453 17.0555 257.51C19.4224 259.853 21.9458 262.034 24.6081 264.036C24.8752 264.246 25.1414 264.456 25.4085 264.666C28.3801 267.006 31.3091 269.325 34.4517 271.437C37.4526 273.455 40.1566 275.827 43.2954 277.639C43.5187 277.768 43.7296 277.914 43.9453 278.054C45.2347 278.894 46.4147 279.898 47.7087 280.733C49.3199 281.775 51.0477 282.668 52.7128 283.622C53.4373 284.041 54.0688 284.734 54.7585 285.224C55.4308 285.702 56.1372 286.132 56.8436 286.554C58.5487 287.609 60.1933 288.759 61.7697 289.997C64.7485 292.269 67.6707 294.615 70.5672 296.991C76.518 301.871 82.3899 306.829 87.8798 312.23C89.1921 313.52 90.4784 314.838 91.7472 316.173C93.0928 317.437 94.323 318.818 95.4232 320.3C96.3627 321.738 97.1684 323.262 98.0874 324.716C99.0716 326.17 100.144 327.562 101.299 328.884C102.249 330.034 102.945 331.461 103.777 332.703C104.691 334.065 105.659 335.391 106.635 336.709C108.537 339.5 110.122 342.494 111.359 345.636C111.39 345.706 111.426 345.775 111.457 345.845L110.525 345.307C110.321 344.827 110.115 344.348 109.896 343.875C109.17 341.975 108.255 340.152 107.166 338.433C106.1 337.007 105.041 335.575 104.017 334.117C102.86 332.468 101.923 330.583 100.644 329.035C99.6826 327.87 98.8509 326.604 97.863 325.46C96.8416 324.038 95.9315 322.539 95.1407 320.978C94.0153 319.392 92.7344 317.922 91.3169 316.591C89.9469 315.14 88.5434 313.721 87.1217 312.322C84.361 309.609 81.5052 306.988 78.582 304.45C72.6761 299.321 66.5822 294.359 60.3471 289.635C58.887 288.529 57.3975 287.571 55.8414 286.617C54.2401 285.636 52.8527 284.359 51.231 283.42C49.7056 282.54 48.1325 281.711 46.6789 280.714C45.063 279.604 43.5498 278.435 41.8567 277.434C40.3671 276.469 38.9363 275.415 37.572 274.28C36.1354 273.187 34.6201 272.198 33.1252 271.187C30.596 269.479 28.2321 267.584 25.8536 265.686C25.4621 265.374 25.0697 265.062 24.6765 264.749C23.432 263.762 22.1877 262.786 20.972 261.776C19.7562 260.767 18.5814 259.74 17.4582 258.628C15.2918 256.46 13.2882 254.135 11.4636 251.672C9.55367 249.223 7.82709 246.637 6.29792 243.935C4.86341 241.288 3.63972 238.529 2.22185 235.873C0.748301 233.113 -0.485652 230.232 -1.46644 227.262C-2.46863 224.221 -3.13659 221.074 -3.9245 217.972C-4.66726 215.049 -4.99576 212.036 -4.90038 209.022C-4.84609 207.09 -4.29634 204.407 -5.31033 202.612C-5.37686 202.478 -5.45195 202.349 -5.53513 202.225C-5.55688 202.197 -5.5032 202.157 -5.48025 202.187Z" fill="#F2A663"/>
<path d="M-2.39251 233.021C-2.99183 231.068 -3.44434 229.056 -3.95808 227.081C-4.5219 224.905 -4.40426 222.706 -5.56286 220.686C-5.5664 220.68 -5.56828 220.673 -5.56831 220.666C-5.56834 220.659 -5.56652 220.652 -5.56303 220.646L-5.31146 220.232C-5.30747 220.225 -5.30091 220.22 -5.29321 220.218C-5.28552 220.215 -5.27731 220.217 -5.27041 220.221C-5.2635 220.225 -5.25848 220.231 -5.25641 220.239C-5.25435 220.247 -5.25543 220.255 -5.25941 220.262C-5.55869 220.805 -4.9939 221.547 -4.78716 222.045C-4.52099 222.747 -4.29613 223.463 -4.11376 224.19C-3.91957 224.862 -3.99626 225.691 -3.83483 226.402C-3.64047 227.252 -3.38197 228.089 -3.15101 228.93C-2.29755 232.335 -1.13814 235.656 0.313098 238.853C3.23119 244.95 7.52421 250.28 12.0573 255.243C16.922 260.643 22.0944 265.757 27.5486 270.561C33.5127 275.74 39.8768 280.434 46.2355 285.11C52.1349 289.45 57.8984 293.934 63.6459 298.466C64.337 299.051 64.9771 299.693 65.5597 300.386C66.1844 300.943 66.8486 301.454 67.5469 301.915C68.1026 302.394 68.624 302.91 69.1073 303.462C69.8122 304.166 70.5535 304.833 71.3281 305.46C74.0442 307.936 76.6028 310.579 78.9891 313.373C81.381 316.103 83.9256 318.698 86.2678 321.468C88.5913 324.215 90.7959 327.064 92.9304 329.958C94.9242 332.664 96.7618 335.483 98.4872 338.363L97.3556 337.71C93.6856 331.79 89.5477 326.172 84.9814 320.912C82.6423 318.178 80.1232 315.562 77.7254 312.866C75.2971 310.058 72.672 307.427 69.8701 304.993C68.6044 303.926 67.595 302.625 66.2331 301.655C65.6054 301.212 65.0301 300.698 64.5183 300.125C63.7771 299.403 62.9852 298.734 62.1487 298.125C59.2893 295.774 56.4278 293.4 53.4683 291.177C47.349 286.578 41.1168 282.133 35.0758 277.432C28.9811 272.707 23.2194 267.568 17.8316 262.05C12.2309 256.302 6.63782 250.447 2.41622 243.579C0.373012 240.278 -1.2428 236.73 -2.39251 233.021Z" fill="#F2A663"/>
<path d="M-6.79492 214.232C-6.69264 215.025 -6.59085 215.818 -6.50914 216.613C-6.67583 218.21 -6.65961 219.821 -6.46079 221.414C-6.09046 224.65 -5.29925 227.82 -5.1481 231.083C-5.07446 232.663 -5.32293 234.22 -5.20589 235.801C-4.99381 237.787 -4.68119 239.76 -4.26926 241.714C-1.63404 256.496 4.82124 270.365 12.119 283.366C13.5766 285.962 15.0657 288.537 16.6055 291.087L15.5402 290.472C14.7505 289.151 13.9626 287.829 13.1945 286.495C9.40915 280.111 6.01807 273.502 3.04028 266.703C1.66674 263.46 0.416544 260.166 -0.773798 256.852C-2.04382 253.238 -3.10335 249.553 -3.94704 245.817C-4.81503 242.399 -5.40937 238.917 -5.72448 235.404C-5.83267 233.835 -5.5654 232.269 -5.63029 230.695C-5.74314 228.895 -5.96482 227.104 -6.29414 225.331C-6.55353 223.748 -6.80223 222.169 -6.94662 220.573C-6.97938 220.207 -7.01298 219.841 -7.03347 219.473C-7.12936 217.706 -6.85226 215.983 -6.79492 214.232Z" fill="#F2A663"/>
<path d="M-6.50818 213.324C-6.48192 213.502 -6.46395 213.68 -6.43985 213.857C-6.40834 214.099 -6.37895 214.333 -6.34732 214.573C-5.96399 217.593 -5.7653 220.628 -5.42157 223.656C-5.20832 225.53 -4.83222 227.338 -4.4718 229.184C-4.13122 230.948 -3.97002 232.733 -3.62749 234.493C-3.31064 236.131 -2.63767 237.697 -2.19263 239.305C-1.76437 241.218 -1.17374 243.091 -0.427163 244.904C2.80123 251.735 5.56224 258.763 9.21055 265.393C10.8946 268.455 12.2684 271.657 14.4795 274.397C15.4823 275.648 16.2885 277.121 17.1753 278.452C18.257 280.068 19.3572 281.674 20.4761 283.268C25.0025 289.703 30.1585 295.675 35.1144 301.776L33.5035 300.846C33.4186 300.741 33.3354 300.637 33.2505 300.532C28.4164 294.607 23.4995 288.746 19.1323 282.459C17.0536 279.468 15.0767 276.401 12.9587 273.433C11.0082 270.701 9.74307 267.547 8.07068 264.645C6.26452 261.335 4.63546 257.931 3.19037 254.448C1.70498 251.079 -0.0154496 247.733 -1.31633 244.292C-1.96052 242.587 -2.37471 240.798 -2.85119 239.041C-3.32767 237.283 -3.98622 235.615 -4.29996 233.816C-4.91254 230.304 -5.57039 226.758 -5.95558 223.212C-6.16197 221.311 -6.28756 219.402 -6.42804 217.495C-6.44981 217.199 -6.48286 216.904 -6.5139 216.611C-6.59644 215.815 -6.69824 215.022 -6.79968 214.23C-6.82793 214.014 -6.85654 213.796 -6.88215 213.578C-6.9386 213.108 -6.98893 212.637 -7.0265 212.163C-7.07411 211.415 -7.06722 210.664 -7.0059 209.917C-6.95379 209.15 -7.13583 208.254 -7.03926 207.521C-6.92524 206.649 -6.61418 205.836 -6.41789 204.983C-6.24232 204.221 -6.72751 203.557 -6.44699 202.798C-6.4319 202.756 -6.36646 202.773 -6.38023 202.814C-6.64342 203.596 -6.1483 204.246 -6.28663 205.017C-6.57325 205.938 -6.7195 206.896 -6.72045 207.86C-6.62635 208.872 -6.59771 209.888 -6.6347 210.903C-6.63508 211.097 -6.63498 211.291 -6.63117 211.488C-6.63231 212.102 -6.59123 212.716 -6.50818 213.324Z" fill="#F2A663"/>
<path d="M41.3961 302.753C40.9058 302.298 40.4463 301.812 40.0209 301.296C39.4444 300.67 38.7445 300.261 38.1844 299.63C37.2098 298.532 36.0252 297.531 34.9711 296.504C33.6298 295.172 32.3665 293.764 31.1877 292.286C30.5726 291.529 29.8409 290.912 29.175 290.199C28.4449 289.382 27.7568 288.528 27.1132 287.642C26.4284 286.736 25.7378 285.84 24.9946 284.981C24.2801 284.158 23.4103 283.47 22.7053 282.619C19.8119 279.234 17.1205 275.682 14.6451 271.981C13.4688 270.215 12.3914 268.385 11.4178 266.499C10.9238 265.47 10.3286 264.493 9.6412 263.582C9.33796 263.284 9.05324 262.968 8.78864 262.635C8.6088 262.199 8.45133 261.753 8.31679 261.301C7.71962 259.89 6.96849 258.52 6.29193 257.144C5.94281 256.434 5.30545 255.353 5.65699 254.547C5.6759 254.514 5.73364 254.536 5.71977 254.572C5.35132 255.53 6.35584 256.94 6.78766 257.763C7.38441 258.891 7.97047 260.037 8.51709 261.19C8.76098 261.877 9.11558 262.52 9.56682 263.092C10.0113 263.594 10.4116 264.133 10.7634 264.703C11.7091 266.167 12.5079 267.75 13.4003 269.248C15.286 272.483 17.4639 275.539 19.9069 278.377C21.0076 279.638 21.9631 281.019 23.0141 282.322C24.1624 283.74 25.5484 284.892 26.6758 286.332C30.7832 291.47 35.2892 296.275 40.1519 300.704C40.6377 301.156 41.0477 301.691 41.5132 302.162C42.0973 302.756 42.7686 303.155 43.3394 303.776C44.7392 305.285 46.2761 306.661 47.7245 308.121C48.4014 308.804 49.052 309.505 49.7133 310.202L48.1695 309.31C47.2297 308.364 46.2862 307.419 45.3225 306.487C44.0142 305.224 42.7888 303.911 41.3961 302.753Z" fill="#F2A663"/>
<path d="M85.9421 279.408C87.292 280.458 88.7112 281.415 90.1899 282.273C91.9055 283.308 93.5443 284.464 95.0937 285.734C98.6087 288.492 102.119 291.255 105.58 294.081C107.23 295.43 108.864 296.8 110.482 298.191C112.299 299.632 113.997 301.217 115.559 302.931C118.233 306.117 120.737 309.443 123.177 312.806C125.645 316.203 128.163 319.602 130.443 323.127C132.717 326.708 134.757 330.432 136.55 334.276C138.247 337.848 139.746 341.523 141.305 345.157C142.904 348.885 143.815 352.883 145.007 356.755C145.621 358.742 146.224 360.732 146.777 362.737C147.139 364.049 147.396 365.4 147.654 366.75L146.835 366.277C146.286 363.8 145.696 361.335 144.96 358.9C143.738 354.858 142.739 350.667 141.224 346.728C139.773 342.955 138.077 339.19 136.39 335.52C134.623 331.668 132.622 327.928 130.398 324.32C128.188 320.75 125.638 317.377 123.189 313.969C120.598 310.361 117.923 306.814 115.079 303.396C113.642 301.81 112.081 300.341 110.41 299.004C108.668 297.485 106.892 296.006 105.106 294.541C101.651 291.707 98.1398 288.945 94.6258 286.185C93.0081 284.877 91.2983 283.687 89.5096 282.624C87.9566 281.669 86.4572 280.629 85.0179 279.51C83.4255 278.462 81.7671 277.519 80.0529 276.685C78.1321 275.636 76.2069 274.595 74.2998 273.519C72.4886 272.496 70.7066 271.422 68.9538 270.299C67.0692 269.087 65.3218 267.688 63.4229 266.49C61.6734 265.387 59.8509 264.407 58.0934 263.314C56.199 262.136 54.3977 260.816 52.5227 259.611C49.0492 257.356 45.7139 254.895 42.5349 252.24C36.2458 247.042 30.0875 241.54 25.1895 234.98C24.0298 233.427 22.8104 231.927 21.6435 230.379C20.4225 228.762 19.4998 226.929 18.4434 225.203C16.3507 221.887 14.4525 218.452 12.7585 214.916C11.1651 211.472 9.31311 208.249 8.10262 204.627C6.71186 200.944 5.59754 197.162 4.7689 193.313C3.46612 185.845 3.09281 178.311 2.48885 170.784C2.19273 167.107 2.99815 163.442 3.63035 159.848C3.96539 157.942 4.10606 156.054 4.625 154.188C4.72496 153.604 4.78834 153.014 4.81477 152.423C4.89511 151.851 5.41515 150.574 4.9941 150.086C4.98106 150.072 5.00278 150.05 5.01534 150.065C5.36754 150.463 5.04798 151.402 4.97036 151.849C4.85952 152.494 4.86814 153.125 4.80312 153.767C4.69797 154.781 4.30862 155.711 4.25038 156.746C4.03907 160.542 2.95172 164.23 2.76595 168.041C2.7208 168.953 2.7241 169.866 2.77587 170.777C2.93274 171.662 3.04399 172.555 3.10917 173.451C3.05575 175.642 3.20212 177.834 3.54651 179.999C3.72888 180.77 3.84605 181.555 3.89676 182.346C3.85536 183.276 3.86967 184.206 3.93964 185.134C4.09302 187.194 4.56494 189.223 4.88916 191.259C5.52147 195.102 6.53831 198.871 7.92437 202.51C8.66566 204.522 9.2253 206.558 10.0959 208.535C10.9006 210.366 11.8271 212.115 12.7749 213.87C14.6247 217.288 16.2484 220.843 18.3616 224.127C19.3676 225.694 20.2679 227.322 21.2609 228.896C22.3857 230.676 23.8507 232.2 25.0861 233.902C30.0658 240.787 36.454 246.432 42.9619 251.826C46.3773 254.621 49.9483 257.219 53.6577 259.609C55.401 260.75 57.0955 261.96 58.8633 263.062C60.7515 264.235 62.7115 265.284 64.5814 266.487C66.337 267.612 67.9637 268.916 69.7183 270.043C71.6072 271.256 73.5545 272.377 75.5116 273.473C78.9464 275.397 82.8176 277.003 85.9421 279.408Z" fill="#F2A663"/>
<path d="M132.548 337.769C131.682 336.15 130.731 334.579 129.727 333.043C128.679 331.43 127.35 330.005 126.303 328.406C125.291 326.864 124.334 325.293 123.303 323.764C122.256 322.221 121.005 320.84 119.934 319.314C118.883 317.812 117.884 316.283 116.73 314.855C115.424 313.241 113.898 311.785 112.464 310.29C106.809 304.18 100.621 298.585 93.9738 293.571C90.8644 291.312 87.346 289.32 84.5629 286.669C83.2944 285.46 81.6086 284.777 80.242 283.684C78.6465 282.409 76.9171 281.389 75.2268 280.248C73.6488 279.181 72.0848 278.098 70.4547 277.112C68.8064 276.117 67.4146 274.797 65.7504 273.822C64.3236 272.833 62.9524 271.766 61.6428 270.626C60.1096 269.524 58.5181 268.506 56.875 267.576C53.5446 265.58 50.3846 263.313 47.4271 260.798C46.0838 259.678 44.7845 258.51 43.5505 257.271C42.8922 256.61 42.312 255.858 41.5927 255.266C40.7082 254.538 39.8237 253.808 38.939 253.077C37.3793 251.917 35.9077 250.642 34.5362 249.265C33.1824 247.755 31.7774 246.288 30.3858 244.821C27.6204 241.996 25.0043 239.029 22.5482 235.931C17.698 229.761 13.4196 223.163 9.76617 216.218C8.34515 213.433 7.10005 210.56 5.82783 207.706C5.23293 206.578 4.6974 205.42 4.22339 204.236C3.9183 203.455 3.49316 202.726 2.96333 202.076C2.94234 202.064 2.9711 202.034 2.99014 202.049C3.2428 202.314 3.44966 202.619 3.60221 202.951C3.67177 203.073 4.20421 203.818 4.21447 203.864C4.85527 205.528 5.60591 207.148 6.46145 208.712C7.98496 212.025 9.48909 215.342 11.2664 218.53C13.2018 221.998 15.442 225.324 17.6717 228.608C19.9829 232.09 22.4875 235.439 25.1737 238.64C27.7392 241.633 30.5303 244.426 33.2286 247.297C34.5031 248.703 35.8691 250.024 37.3177 251.25C38.9626 252.603 40.6073 253.954 42.2518 255.305C42.9346 255.867 43.5142 256.674 44.1455 257.306C44.7592 257.92 45.3998 258.505 46.047 259.082C47.5532 260.427 49.1282 261.694 50.7112 262.954C53.8839 265.481 57.4718 267.271 60.8272 269.519C62.2806 270.491 63.4658 271.72 64.8704 272.73C65.5823 273.242 66.3587 273.642 67.1012 274.101C67.9705 274.639 68.7245 275.374 69.5366 275.99C71.0302 277.117 72.754 278.005 74.309 279.057C75.9027 280.138 77.5757 281.111 79.1546 282.208C79.8779 282.709 80.5294 283.316 81.2312 283.845C81.9329 284.375 82.7199 284.756 83.458 285.223C84.0967 285.632 84.6933 286.104 85.2391 286.632C86.185 287.473 87.1948 288.241 88.2595 288.926C91.49 291.157 94.7072 293.384 97.7871 295.824C104.097 301.028 110.029 306.674 115.538 312.72C118.041 315.364 119.82 318.5 122.146 321.279C123.191 322.576 124.152 323.938 125.025 325.357C126.093 327.022 127.229 328.588 128.417 330.167C132.926 336.158 135.836 343.102 138.765 349.953C140.857 354.848 142.761 359.825 144.423 364.881L143.675 364.449C141.793 358.792 139.594 353.239 137.202 347.779C135.724 344.415 134.287 341.011 132.548 337.769Z" fill="#F2A663"/>
<path d="M-19.5777 175.579C-18.5737 174.379 -18.4501 173.021 -17.712 171.7C-17.3272 171.012 -17.0004 170.293 -16.6783 169.573C-16.5413 169.266 -16.3988 168.961 -16.2597 168.654C-16.0825 168.263 -15.8931 167.879 -15.697 167.499C-15.5877 167.284 -15.4815 167.064 -15.3636 166.857C-15.3581 166.848 -15.349 166.841 -15.3383 166.838C-15.3276 166.835 -15.3163 166.837 -15.3067 166.842C-15.2971 166.848 -15.2901 166.857 -15.2873 166.867C-15.2844 166.878 -15.2859 166.89 -15.2914 166.899C-15.3297 166.965 -15.3563 167.039 -15.392 167.106C-15.7132 167.732 -15.9933 168.377 -16.2616 169.025C-16.6504 169.968 -17.0198 170.92 -17.4853 171.831C-17.8173 172.593 -18.0896 173.38 -18.2997 174.184C-18.5737 174.814 -18.9588 175.39 -19.4366 175.884C-19.7065 176.206 -19.9506 176.539 -20.1875 176.876C-21.3835 178.67 -22.351 180.606 -23.0675 182.64C-23.5147 183.802 -23.9388 184.979 -24.4019 186.145C-25.0146 187.685 -25.7559 189.169 -26.4355 190.68C-27.2117 192.6 -27.8222 194.583 -28.2605 196.607C-29.2133 200.268 -30.6534 203.749 -31.6716 207.385C-32.7121 211.103 -33.487 214.911 -34.422 218.659C-35.3729 222.476 -36.0169 226.332 -36.6966 230.21C-37.4271 234.08 -37.9419 237.988 -38.2386 241.915C-38.3451 243.602 -38.6333 245.278 -38.7267 246.972C-38.8279 248.781 -38.827 250.596 -38.7724 252.407C-38.7012 254.76 -38.4907 257.105 -38.2018 259.441L-38.8172 259.086C-39.2166 255.763 -39.3935 252.417 -39.3464 249.071C-39.2294 241.788 -37.983 234.495 -36.7021 227.343C-36.3735 225.508 -36.1696 223.609 -35.7155 221.803L-34.191 215.737C-33.2555 212.017 -32.5138 208.241 -31.304 204.597C-30.7462 202.915 -30.0704 201.279 -29.5501 199.585C-28.956 197.653 -28.4608 195.69 -27.9615 193.732C-27.5305 192.203 -26.9548 190.718 -26.2422 189.298C-25.5759 187.87 -24.9644 186.429 -24.3819 184.973C-24.1846 184.48 -23.9777 183.991 -23.7901 183.492C-23.6268 183.058 -23.4609 182.626 -23.2923 182.196C-22.6102 180.324 -21.7046 178.542 -20.5952 176.888C-20.3009 176.464 -19.984 176.056 -19.6459 175.666C-19.6217 175.64 -19.6021 175.61 -19.5777 175.579Z" fill="#8E3F32"/>
</svg>
