<svg width="207" height="221" viewBox="0 0 207 221" fill="none" xmlns="http://www.w3.org/2000/svg">
<path d="M-10.0506 203.796C-8.72358 202.991 -7.44987 202.2 -6.19555 201.29C-4.69403 200.2 -3.09362 199.602 -1.93042 198.063C-0.990154 196.988 0.102615 196.057 1.31301 195.3C2.82034 194.201 4.03298 192.82 5.48118 191.663C6.51934 190.834 7.23666 189.383 8.38921 188.755C9.69104 188.046 10.5528 186.443 11.5958 185.4C12.6747 184.321 13.7865 183.267 14.815 182.14C15.2818 181.532 15.7845 180.953 16.3204 180.405C17.0431 179.853 17.7235 179.247 18.356 178.594C19.5667 177.183 20.7697 175.765 21.9271 174.31C23.0844 172.855 24.0373 171.249 25.2432 169.842C26.3811 168.615 27.3848 167.271 28.2375 165.832C29.2524 163.955 30.1445 162.014 30.908 160.022C31.4819 158.524 32.2951 157.077 32.9436 155.603C33.7521 153.75 34.5308 151.884 35.2798 150.007C36.5758 146.772 37.9832 143.661 38.5581 140.196C38.8489 138.438 39.3626 136.729 39.7542 134.989C40.1652 133.171 40.5016 131.334 40.8777 129.507C41.6054 125.728 41.9532 121.886 41.9159 118.037C41.9256 114.891 42.4568 111.792 42.1873 108.63C41.9178 105.468 41.6551 102.329 41.2179 99.1882C40.2428 92.1808 38.7461 85.3266 37.1467 78.4374C34.166 65.6237 28.0349 53.3004 28.2569 39.9011C28.2569 39.8932 28.26 39.8855 28.2656 39.8799C28.2713 39.8743 28.2789 39.8711 28.2869 39.8711C28.2949 39.8711 28.3026 39.8743 28.3082 39.8799C28.3138 39.8855 28.3169 39.8932 28.3169 39.9011C28.5108 47.3069 30.4107 54.483 32.5908 61.5175C34.7834 68.5986 36.978 75.6079 38.6637 82.8324C40.3135 89.9034 41.5435 97.0658 42.3472 104.282C42.7615 107.54 42.8867 110.828 42.7214 114.108C42.6003 115.888 42.449 117.614 42.4306 119.404C42.4244 121.385 42.3021 123.364 42.0642 125.331C41.6328 128.765 40.9456 132.188 40.1895 135.562C39.8018 137.3 39.3171 139.001 39.0263 140.759C38.7232 142.5 38.2418 144.205 37.5897 145.848C36.3383 149.079 34.9909 152.289 33.6154 155.472C32.1342 158.909 30.6793 162.402 28.9538 165.724C28.674 166.442 28.299 167.118 27.8391 167.736C27.2466 168.315 26.6959 168.934 26.1912 169.591C25.1055 171.037 24.049 172.513 22.9517 173.953C21.9115 175.319 20.8055 176.634 19.6956 177.943C19.1598 178.624 18.573 179.264 17.9402 179.857C17.145 180.463 16.4197 181.156 15.7775 181.923C14.8609 183.031 13.8678 184.075 12.8056 185.045L11.2885 186.563C10.7224 187.129 10.3463 187.83 9.77731 188.396C9.30718 188.864 8.66647 189.171 8.21864 189.647C7.69907 190.197 7.25996 190.826 6.76462 191.397C6.23646 191.893 5.67869 192.357 5.09442 192.786C4.38002 193.43 3.73735 194.143 2.99871 194.765C1.84229 195.748 0.546242 196.553 -0.612122 197.538C-1.6784 198.448 -2.37343 199.607 -3.55506 200.426C-4.20258 200.873 -4.93244 201.192 -5.59935 201.607C-6.21294 201.989 -6.76259 202.512 -7.37037 202.909C-8.67898 203.758 -10.0738 204.46 -11.3447 205.371C-11.5172 205.496 -11.6985 205.604 -11.8759 205.719C-13.1225 206.226 -14.3781 206.726 -15.6427 207.219C-13.7729 206.091 -11.9195 204.929 -10.0506 203.796Z" fill="#F2A663"/>
<path d="M-8.17979 204.166C-7.20269 203.541 -6.25174 202.871 -5.29306 202.215C-2.19632 200.092 0.773338 197.79 3.60067 195.319C8.93206 190.66 13.9416 185.586 18.8019 180.446C21.2255 177.738 23.491 174.894 25.5873 171.926C26.6536 170.497 27.6065 168.981 28.6466 167.531C29.8144 165.971 30.8457 164.314 31.7291 162.578C33.3712 159.192 35.0026 155.805 36.4479 152.331C37.9106 148.817 39.1019 145.185 40.2923 141.571C40.9708 139.524 41.4439 137.413 41.9334 135.317C42.3686 133.447 43.2042 131.646 43.4242 129.725C43.4301 129.676 43.5057 129.674 43.5018 129.725C43.3536 131.135 43.0557 132.527 42.6129 133.874C42.1011 135.729 41.7405 137.618 41.2742 139.487C40.3097 143.207 39.1194 146.865 37.7099 150.44C36.4614 153.692 35.02 156.829 33.5418 159.98C32.8491 161.646 32.0554 163.269 31.165 164.839C30.1317 166.478 28.9626 168.03 27.8585 169.622C25.8801 172.475 23.8842 175.301 21.7158 178.019C19.495 180.807 16.8904 183.234 14.5184 185.886C12.2065 188.47 9.49136 190.733 6.98852 193.129C4.37129 195.635 1.53208 197.764 -1.25091 200.056C-2.37244 200.98 -3.55795 201.821 -4.75703 202.643C-5.55577 203.007 -6.3587 203.368 -7.16584 203.726C-7.50317 203.877 -7.84343 204.02 -8.17979 204.166Z" fill="#8E3F32"/>
<path d="M5.52734 196.967C7.48347 195.214 9.57341 193.574 11.5848 191.884C13.6602 190.139 15.7966 188.436 17.7217 186.524C19.5474 184.613 21.25 182.588 22.8195 180.462C26.2341 176.229 29.3214 171.743 32.0545 167.041C33.3679 164.685 34.4478 162.214 35.5228 159.742C36.0811 158.458 36.6114 157.159 37.1309 155.859C37.6354 154.845 38.0152 153.773 38.2622 152.668C38.2622 152.63 38.3223 152.628 38.3223 152.668C38.1992 153.494 37.9633 154.3 37.6214 155.063C37.2643 156.274 36.8294 157.46 36.3196 158.615C35.3027 161.129 34.2491 163.628 33.0335 166.053C31.7312 168.472 30.2859 170.81 28.7054 173.057C27.2048 175.333 25.6878 177.586 23.9982 179.727C22.3503 181.819 20.7557 183.954 18.9673 185.931C16.9929 187.976 14.8837 189.887 12.654 191.65C10.503 193.466 8.36462 195.285 6.17583 197.053C6.0663 197.141 5.96065 197.239 5.85499 197.344C5.27338 197.667 4.70146 197.988 4.11597 198.302C4.57932 197.848 5.04363 197.4 5.52734 196.967Z" fill="#8E3F32"/>
<path d="M1.96571 198.912C3.53992 197.678 5.30218 196.613 6.74941 195.238C8.07741 193.978 9.31529 192.604 10.6132 191.309C13.4049 188.528 16.3586 185.849 18.9147 182.845C19.6136 182.024 20.2417 181.12 21.0094 180.364C21.8039 179.613 22.5062 178.771 23.1013 177.854C23.5476 177.217 24.0363 176.611 24.5641 176.039C25.073 175.426 26.0723 174.771 26.3089 173.986C26.3109 173.979 26.3156 173.974 26.322 173.97C26.3284 173.967 26.3358 173.966 26.3428 173.968C26.3497 173.97 26.3556 173.975 26.359 173.981C26.3625 173.987 26.3632 173.995 26.3612 174.002C26.2091 174.444 25.9485 174.84 25.6032 175.155C25.0438 175.786 24.5272 176.444 24.0018 177.104C23.4144 177.839 22.9588 178.662 22.3685 179.398C21.7394 180.184 21.0036 180.866 20.3784 181.657C17.6064 184.972 14.6464 188.125 11.5128 191.1C10.2168 192.4 8.92173 193.698 7.66255 195.034C6.11205 196.484 4.45181 197.813 2.69662 199.008L2.5735 199.105C1.72823 199.542 0.875854 199.972 0.0163689 200.394C0.671646 199.903 1.32691 199.413 1.96571 198.912Z" fill="#8E3F32"/>
<path d="M46.0868 94.2742C45.9074 94.4584 45.731 94.6474 45.5497 94.8306C45.4886 94.8936 45.4392 94.9605 45.3849 95.0245C44.7582 95.371 44.194 95.8203 43.7158 96.3535C43.5896 96.4826 43.4831 96.6296 43.3997 96.7897C41.2322 68.5972 32.799 40.2439 40.8155 12.225C46.1953 -6.59285 64.5431 -18.3743 80.5343 -27.5733C84.4224 -29.3947 88.2658 -31.2869 92.2537 -32.8941C93.9443 -33.5726 95.6406 -34.2395 97.334 -34.9113C98.9024 -35.4415 100.479 -35.9494 102.058 -36.4477C102.924 -36.6503 103.791 -36.8412 104.62 -37.0603C105.699 -37.3511 106.879 -37.7912 107.969 -37.9841C108.622 -38.0985 109.19 -38.146 109.763 -38.2352C108.433 -37.7088 107.049 -37.4006 105.73 -36.8344C105.536 -36.7492 105.679 -36.4593 105.87 -36.501C106.782 -36.7017 107.684 -36.943 108.592 -37.166C109.369 -37.4277 110.133 -37.7289 110.88 -38.0684C112.42 -38.6103 113.982 -39.0378 115.496 -39.6649C118.439 -40.8649 121.277 -42.3091 123.98 -43.9824C124.4 -44.248 124.802 -44.5388 125.21 -44.8218C126.686 -45.5534 128.133 -46.3363 129.552 -47.1706C128.705 -46.6287 127.828 -46.1276 126.993 -45.6652C125.625 -44.9072 124.512 -43.7837 123.168 -42.9908C123.122 -42.9636 123.088 -42.9192 123.074 -42.8672C123.061 -42.8152 123.068 -42.7599 123.095 -42.7135C123.122 -42.6671 123.167 -42.6334 123.219 -42.6198C123.271 -42.6061 123.326 -42.6137 123.373 -42.6408C125.246 -43.5617 126.853 -44.9944 128.687 -46.0064C130.478 -46.9727 132.139 -48.1619 133.631 -49.5455C133.98 -49.8702 134.319 -50.2056 134.664 -50.5361C136.736 -52.0502 138.708 -53.6953 140.569 -55.4614C156.175 -70.3011 150.427 -94.5783 162.313 -110.993H166.452C159.468 -101.638 158.178 -89.3167 155.739 -77.8629C153.25 -65.9943 146.67 -55.3776 137.149 -47.8675C126.827 -39.5854 113.642 -36.4865 101.283 -32.547C97.5378 -31.349 93.8579 -29.9551 90.2588 -28.3711H90.2481C88.4769 -27.9343 86.7459 -27.348 85.0737 -26.6185C84.212 -26.2663 83.3303 -25.965 82.4333 -25.7161C81.529 -25.3589 80.5995 -25.0695 79.6522 -24.8504C79.4913 -24.834 79.4884 -24.5829 79.6522 -24.5965C80.063 -24.6317 80.4666 -24.7247 80.8513 -24.8727C82.7183 -25.5513 84.6269 -26.0902 86.4822 -26.8231C87.0386 -27.0431 87.5863 -27.237 88.1301 -27.4182C86.7362 -26.772 85.3542 -26.1015 83.9842 -25.4069C83.801 -25.3468 83.6158 -25.3012 83.4355 -25.2266C82.2212 -24.7323 81.0364 -24.1685 79.8868 -23.538C78.4997 -22.7625 77.1998 -21.8474 75.7952 -21.102C74.2782 -20.2955 72.7136 -19.551 71.2703 -18.6079C71.0764 -18.4809 70.8884 -18.3491 70.6994 -18.2201C69.4664 -17.6124 68.246 -16.9803 67.0585 -16.2892C64.7995 -14.8358 62.6177 -13.2656 60.5222 -11.585C60.4937 -11.5685 60.4729 -11.5414 60.4643 -11.5096C60.4558 -11.4778 60.4602 -11.4439 60.4766 -11.4153C60.4931 -11.3868 60.5202 -11.366 60.552 -11.3574C60.5838 -11.3489 60.6178 -11.3533 60.6463 -11.3698C61.9079 -12.1437 63.1105 -13.0098 64.2445 -13.9608C65.449 -14.8342 66.71 -15.6269 68.0191 -16.3338C68.2663 -16.4695 68.5222 -16.5907 68.7694 -16.7215C68.4495 -16.4404 68.1355 -16.1496 67.8282 -15.8394C66.8036 -14.8061 65.3922 -14.2536 64.3511 -13.2009C64.336 -13.1874 64.324 -13.1709 64.3157 -13.1525C64.3074 -13.134 64.3031 -13.114 64.3031 -13.0938C64.3031 -13.0735 64.3074 -13.0535 64.3157 -13.0351C64.324 -13.0166 64.336 -13.0001 64.3511 -12.9866C64.0836 -12.7831 63.8141 -12.5834 63.5485 -12.3779C61.7067 -10.9518 59.9402 -9.43107 58.2559 -7.82198C56.0563 -6.25487 54.0499 -4.43274 52.2789 -2.39365C50.1438 0.11216 48.2643 2.82493 46.6683 5.70425C45.0476 8.8614 42.9955 11.8509 42.0368 15.3105C41.9894 15.4811 42.2307 15.5363 42.2947 15.3812C43.0081 13.5855 43.8313 11.8355 44.7597 10.1409C45.6757 8.51826 46.5646 6.85001 47.5379 5.26514C48.3831 3.8877 49.3689 2.61108 50.2724 1.27338C51.3068 -0.324753 52.4793 -1.82912 53.7765 -3.22243C54.0276 -3.48125 54.2913 -3.72747 54.5569 -3.97077C49.3754 1.89459 45.6045 8.86756 43.5325 16.4145C42.6515 18.5353 41.9331 20.7201 41.3835 22.9499C40.9328 24.8178 40.6788 26.7187 40.2319 28.5866C39.7873 30.2579 39.4876 31.9645 39.3363 33.6873C39.2141 35.6434 39.3004 37.6209 39.3246 39.5789C39.2834 41.1137 39.4177 42.6481 39.725 44.1523C39.7831 44.385 40.1282 44.2851 40.0817 44.0554C39.8315 42.4446 39.7509 40.812 39.8413 39.1844C39.8597 37.6597 39.8093 36.1242 39.8839 34.6014C40.2025 31.4473 40.7503 28.3207 41.5231 25.2462C41.7169 24.2527 41.9622 23.2717 42.2258 22.2985C42.1938 22.4836 42.1541 22.6629 42.1289 22.849C40.8557 30.1976 40.5513 37.6814 41.2235 45.1091C42.0329 53.3747 42.1551 61.491 43.581 69.7159C44.8282 76.9084 45.7975 84.1365 46.489 91.4001C46.3921 92.2279 46.2467 93.048 46.1284 93.869C46.1051 94.0057 46.1013 94.1395 46.0868 94.2742Z" fill="#8E3F32"/>
<path d="M-36.9939 216.445C-30.2298 212.775 -22.855 210.047 -15.644 207.223C-14.382 206.728 -13.1263 206.228 -11.8772 205.723C-10.628 205.218 -9.3957 204.699 -8.18014 204.166C-7.84378 204.02 -7.50159 203.875 -7.16814 203.728C-6.361 203.369 -5.55801 203.008 -4.75927 202.644C-3.14693 201.911 -1.55464 201.16 0.0176353 200.392C0.877121 199.97 1.7295 199.541 2.57477 199.102C3.09143 198.836 3.60614 198.568 4.11505 198.295C4.69666 197.982 5.27827 197.66 5.85406 197.337C13.3103 193.155 20.0685 188.098 25.5521 180.932C34.4546 169.3 38.5413 156.53 41.6287 142.458C42.4546 138.701 43.6847 135.103 44.1306 131.262C44.5474 127.662 44.2004 123.842 44.2004 120.221C44.2004 112.964 44.0172 105.751 43.5218 98.5135C43.6553 98.7385 43.8385 98.9299 44.0574 99.0731C44.2764 99.2162 44.5251 99.3074 44.7847 99.3395C45.0443 99.3716 45.3078 99.3438 45.555 99.2582C45.8022 99.1727 46.0265 99.0317 46.2108 98.846C46.461 98.602 46.7446 98.3947 47.0532 98.2305C47.3614 102.557 47.574 106.89 47.6909 111.23C47.9546 121.633 48.1136 131.633 45.4469 141.728C42.9916 151.02 41.4106 159.904 37.223 168.681C29.6748 184.506 16.7902 197.605 0.441254 204.282C-12.1282 209.419 -25.291 214.029 -36.99 220.925L-36.9939 216.445Z" fill="#8E3F32"/>
<path d="M46.7161 94.5084L46.6144 94.5433C46.6144 94.5084 46.6221 94.4754 46.625 94.4464C46.6667 94.4056 46.7064 94.3649 46.7471 94.3232C46.753 94.3814 46.7578 94.4386 46.7627 94.4958C46.7472 94.4948 46.7326 94.5016 46.7161 94.5084Z" fill="#8E3F32"/>
<path d="M43.5185 98.5141C43.3388 98.267 43.2324 97.9742 43.2115 97.6694C43.1906 97.3645 43.256 97.06 43.4002 96.7906C43.4836 96.6305 43.5901 96.4835 43.7163 96.3544C44.1945 95.8212 44.7587 95.372 45.3855 95.0254C45.0801 95.4006 44.8765 95.8164 44.5334 96.1886C44.2495 96.4402 44.0471 96.7706 43.9518 97.1376C43.8956 97.412 44.3153 97.5254 44.3725 97.253C44.5053 96.6045 45.1751 96.3612 45.4727 95.83C45.6316 95.5545 45.8191 95.2965 46.032 95.0603C46.0156 95.809 46.1097 96.556 46.3112 97.2772C46.1804 97.4139 46.064 97.5574 45.9292 97.6921C45.8924 97.729 45.8716 97.779 45.8716 97.8312C45.8716 97.8834 45.8924 97.9334 45.9292 97.9703C45.9661 98.0072 46.0162 98.0279 46.0683 98.0279C46.1205 98.0279 46.1705 98.0072 46.2074 97.9703C46.2869 97.8908 46.3664 97.8133 46.4459 97.7347C46.4644 97.7861 46.4731 97.8375 46.4924 97.8889C46.5894 98.1496 47.0082 98.042 46.9151 97.7726C46.8705 97.6436 46.8356 97.5147 46.7997 97.3848C47.2912 96.9001 47.7836 96.4155 48.2538 95.9124C49.5471 94.4832 50.6802 92.9168 51.6329 91.2411C52.5048 90.1904 53.2832 89.0656 53.9593 87.8794C57.0505 82.6731 58.4755 76.857 62.6369 72.2856C66.2971 68.2667 71.612 65.9645 76.5625 64.0171C83.5098 61.2416 90.7058 59.1344 98.0529 57.7241C104.251 56.5609 110.522 56.494 116.766 55.7854C124.133 54.9566 131.682 56.4484 139.044 55.4326C146.055 54.4632 152.958 54.6784 159.94 53.2806C167.786 51.7103 174.466 49.6388 180.577 44.2444C184.988 40.3525 189.484 36.0244 192.57 31.0002C196.591 24.4552 198.986 16.7858 200.724 9.35674C204.317 -6.00834 203.186 -21.7864 200.413 -37.165C197.852 -51.3746 193.96 -65.3894 193.324 -79.8733C192.963 -88.0876 193.591 -96.7264 196.604 -104.398C197.676 -105.989 198.796 -107.535 199.967 -109.035C200.484 -109.694 201.013 -110.347 201.555 -110.993H204.382C199.192 -104.601 197.435 -95.6853 197.033 -86.8516C196.338 -71.568 200.439 -56.6081 203.381 -41.7481C206.212 -27.4347 207.743 -13.1524 205.963 1.40424C204.501 13.3359 200.88 27.5164 193.032 36.9792C185.527 46.0328 176.456 53.8312 164.696 56.1799C158.209 57.6248 151.591 58.4001 144.946 58.4938C141.422 58.4938 137.992 59.4912 134.447 59.4912H123.438C120.082 59.4912 116.622 59.1413 113.454 60.4208C110.584 61.584 105.75 60.2037 102.655 60.7203C95.108 62.0043 87.6898 63.9568 80.4883 66.5548C73.8387 68.9123 67.0396 71.7825 62.9839 77.8622C59.5728 82.9755 58.0858 88.9729 54.252 93.8903C53.2348 95.3027 51.8526 96.4118 50.2535 97.0989C49.1504 97.5835 48.024 97.7018 47.0547 98.2301C46.7462 98.3944 46.4625 98.6016 46.2123 98.8456C46.0281 99.0323 45.8036 99.1742 45.5559 99.2603C45.3083 99.3465 45.0441 99.3746 44.7838 99.3426C44.5236 99.3106 44.2741 99.2192 44.0548 99.0756C43.8354 98.9319 43.6519 98.7399 43.5185 98.5141Z" fill="#8E3F32"/>
<path d="M46.7579 94.4886C47.8458 94.1466 48.8696 93.6271 49.7881 92.9512C48.854 94.3356 47.814 95.6456 46.6774 96.8693C46.5477 96.1006 46.5248 95.3177 46.6095 94.5428L46.7113 94.5079C46.7326 94.5012 46.7472 94.4944 46.7579 94.4886Z" fill="#8E3F32"/>
<path d="M64.0825 63.0674C67.9938 57.7999 73.5181 54.1804 79.5154 51.6504C82.6678 50.2458 86.0529 49.4367 89.4997 49.2639C91.2775 49.2067 92.9951 48.8461 94.7584 48.6648C96.586 48.5585 98.4178 48.5453 100.247 48.6251H122.923C126.785 48.6251 130.557 48.5078 134.403 48.1559C137.949 47.8312 141.529 48.2102 145.044 47.5317C146.433 47.34 147.837 47.2816 149.236 47.3572C151.03 47.3572 152.661 46.3791 154.388 46.0234C157.818 45.3269 161.111 44.0731 164.136 42.3118C165.425 41.5537 166.975 41.0923 168.318 40.408C169.928 39.5845 171.478 38.649 172.957 37.6085C175.858 35.4816 178.402 32.9068 180.494 29.9807C184.863 23.9576 188.406 17.3768 191.029 10.4135C192.338 6.8662 193.29 3.19673 193.869 -0.540047C194.507 -4.23616 194.296 -7.96522 194.816 -11.6613C195.19 -15.3283 195.302 -19.0173 195.151 -22.7002C195.095 -26.4127 194.844 -30.1197 194.4 -33.806C193.586 -41.3029 192.514 -48.7814 191.619 -56.2696C190.753 -63.5203 189.34 -70.6731 189.463 -78.0071C189.518 -82.0007 189.875 -85.9844 190.53 -89.9242C190.952 -91.5721 191.412 -93.2006 191.933 -94.8156C192.049 -95.1723 192.177 -95.5251 192.298 -95.8818C190.864 -90.382 190.081 -84.7327 189.964 -79.0501C189.739 -71.814 190.994 -64.7426 191.942 -57.5976C192.934 -50.1249 193.881 -42.6231 194.753 -35.135C195.185 -31.433 195.529 -27.7185 195.636 -23.9924C195.841 -20.3883 195.805 -16.7746 195.528 -13.1754C195.352 -11.544 195.049 -9.94268 195.025 -8.29576C195.006 -6.2964 194.878 -4.29957 194.644 -2.31395C194.179 1.35234 193.382 4.96873 192.262 8.49037C189.978 15.3375 186.751 21.8329 182.674 27.789C180.866 30.566 178.762 33.138 176.398 35.4595C173.958 37.7098 171.202 39.5924 168.219 41.0477C166.862 41.7389 165.351 42.211 164.044 42.9777C162.575 43.8183 161.037 44.5318 159.447 45.1103C157.96 45.6621 156.438 46.1129 154.891 46.4596C154.071 46.6476 153.294 46.9792 152.48 47.1944C151.672 47.5296 150.825 47.7641 149.96 47.8923C148.368 47.779 146.768 47.8313 145.187 48.0484C143.665 48.3408 142.119 48.4937 140.57 48.5049C138.815 48.5563 137.064 48.5049 135.311 48.6203C133.341 48.7531 131.382 49.0206 129.41 49.1301C125.603 49.3424 121.742 49.167 117.929 49.167H106.463H95.6395C93.8637 49.167 92.1286 49.672 90.3605 49.7922C88.4115 49.8607 86.472 50.0975 84.5638 50.4998C80.9503 51.4733 77.4955 52.9609 74.3052 54.9171C71.2815 56.5973 68.5501 58.7562 66.217 61.31C61.915 66.1286 59.4859 72.0425 57.2651 78.0098C56.762 78.7853 56.2638 79.553 55.8324 80.3634C58.0377 74.3185 60.209 68.2863 64.0825 63.0674Z" fill="#F2A663"/>
<path d="M46.2078 97.9665C46.1709 98.0034 46.1209 98.0241 46.0687 98.0241C46.0165 98.0241 45.9665 98.0034 45.9296 97.9665C45.8927 97.9296 45.872 97.8796 45.872 97.8274C45.872 97.7752 45.8927 97.7252 45.9296 97.6883C46.0643 97.5536 46.1807 97.4101 46.3116 97.2734C46.3533 97.4256 46.393 97.5778 46.4463 97.731C46.3707 97.8095 46.2873 97.887 46.2078 97.9665Z" fill="#F2A663"/>
<path d="M49.7925 92.951C52.0748 89.4316 53.9321 85.6543 55.3255 81.6978C55.3416 81.7132 55.361 81.7247 55.3822 81.7314C55.4035 81.7381 55.4259 81.7398 55.448 81.7365C55.47 81.7331 55.4909 81.7247 55.5092 81.7119C55.5275 81.6992 55.5425 81.6824 55.5533 81.6629C55.8361 81.0616 56.1678 80.4846 56.5449 79.9375C56.4467 80.2044 56.3498 80.4716 56.2541 80.7392C56.1397 81.0067 56.0185 81.2704 55.9071 81.5389C55.8985 81.5579 55.8947 81.5788 55.8962 81.5996C55.8978 81.6204 55.9045 81.6405 55.9158 81.6581C54.7665 84.9684 53.3344 88.1735 51.6352 91.2381C50.6825 92.9138 49.5494 94.4802 48.256 95.9094C47.7878 96.4154 47.2954 96.8991 46.802 97.3818C46.7555 97.2112 46.7167 97.0397 46.6848 96.8691C47.8203 95.6452 48.8593 94.3353 49.7925 92.951Z" fill="#F2A663"/>
<path d="M49.037 91.1073C49.1058 91.0288 49.1795 90.9542 49.2474 90.8747C49.3705 90.7332 49.4771 90.5839 49.5944 90.4404C49.6186 90.5916 49.6448 90.7438 49.668 90.896C49.6741 90.9305 49.6907 90.9622 49.7155 90.9868C49.7403 91.0114 49.7722 91.0278 49.8066 91.0337C49.5158 91.3807 49.2066 91.7122 48.9003 92.0515C48.942 91.7365 48.9876 91.4214 49.037 91.1073Z" fill="#F2A663"/>
<path d="M46.7527 94.3149C46.712 94.3566 46.6723 94.3973 46.6306 94.438C46.6578 94.1627 46.6917 93.8874 46.7275 93.6131C47.3557 92.9585 47.9719 92.2938 48.5762 91.6191C48.5413 91.9099 48.5209 92.2075 48.5015 92.5032C47.9283 93.1171 47.3453 93.721 46.7527 94.3149Z" fill="#F2A663"/>
<path d="M46.0869 94.2734C46.0598 94.5361 46.0375 94.7978 46.0317 95.0557C45.8187 95.2919 45.6312 95.5499 45.4723 95.8254C45.1747 96.3566 44.503 96.6008 44.3721 97.2484C44.3149 97.5236 43.8952 97.4073 43.9514 97.133C44.0467 96.7659 44.2492 96.4355 44.533 96.184C44.8762 95.8157 45.0797 95.3998 45.3851 95.0208C45.4394 94.9559 45.4888 94.889 45.5499 94.8269C45.7311 94.6466 45.9076 94.4576 46.0869 94.2734Z" fill="#F2A663"/>
<path d="M191.933 -94.8166C191.411 -93.2017 190.952 -91.5684 190.529 -89.9253C190.152 -88.4645 189.803 -86.9969 189.47 -85.5264C189.13 -84.0249 188.809 -82.5215 188.491 -81.0132C188.141 -79.1932 187.986 -77.3408 188.031 -75.4879C188.124 -74.8674 188.113 -74.2357 187.997 -73.619C187.655 -72.7776 187.464 -71.8824 187.433 -70.9746C187.308 -69.2182 187.398 -67.4327 187.4 -65.6743C187.45 -64.4359 187.259 -63.1997 186.837 -62.0344C186.534 -61.2143 187.035 -60.0182 187.224 -59.2C187.383 -58.3568 187.442 -57.4979 187.4 -56.641C187.4 -53.002 187.059 -49.1663 187.602 -45.5623C187.998 -42.2635 188.145 -38.9396 188.04 -35.6188C188.04 -34.0446 188.551 -32.5285 188.665 -30.9659C188.812 -28.9381 188.677 -26.8511 188.677 -24.8174C188.677 -23.123 188.677 -21.4282 188.677 -19.7332C188.677 -17.8081 188.089 -15.9382 188.043 -14.014C188.015 -12.3908 187.853 -10.7725 187.558 -9.17605C187.17 -7.1569 186.306 -5.28025 186.046 -3.2485C185.741 -1.75529 185.295 -0.294632 184.712 1.11354C184.419 1.99371 184.126 2.87355 183.833 3.75307C183.65 4.69073 183.345 5.60032 182.925 6.4585C181.839 7.93094 180.879 9.4848 179.907 11.0338C178.867 12.6914 177.677 14.1309 176.494 15.6731C175.572 16.876 174.632 18.0674 173.637 19.2102C173.118 19.8083 172.538 20.356 171.981 20.9172C171.343 21.559 170.834 22.4546 170.176 23.0382C165.617 27.291 160.284 30.6296 154.467 32.8731C147.669 34.9378 140.64 36.1459 133.542 36.4694C125.854 36.5916 118.179 37.0025 110.49 37.1295C106.789 37.1776 103.095 37.4759 99.4339 38.0223C95.887 38.5959 92.3984 39.4848 89.0095 40.6783C85.9805 41.7092 83.123 43.1877 80.5317 45.0646C78.087 46.8094 75.9505 48.942 73.5601 50.7643C71.0952 52.567 68.827 54.6243 66.7931 56.9022C64.7725 59.3133 62.9521 61.8855 61.3503 64.593C59.4984 67.4333 58.0402 70.5115 57.0154 73.7436C56.5821 75.2771 56.2719 76.8455 55.9559 78.4052C55.5226 79.9658 54.9574 81.4866 54.2663 82.9514C53.2795 85.7341 51.8668 88.3469 50.0787 90.6965C50.0468 90.4493 50.0109 90.2011 49.9818 89.953C51.9034 87.1603 53.4159 84.1073 54.4737 80.8867C55.0603 79.3303 55.5222 77.7297 55.855 76.1001C56.2155 74.3159 56.7245 72.5649 57.3769 70.8656C58.7203 67.7401 60.3839 64.7623 62.341 61.9796C64.0584 59.3168 66.0233 56.822 68.2094 54.5283C70.4854 52.2203 73.1637 50.457 75.62 48.3642C78.1126 46.243 80.7292 44.272 83.4561 42.4619C84.7717 41.6543 86.1809 41.0101 87.6525 40.5435C89.4225 39.9106 91.2012 39.2204 93.0217 38.7532C99.9544 36.9744 106.975 36.6051 114.099 36.5295C117.912 36.4898 121.722 36.2581 125.531 36.0943C129.341 35.9305 133.171 36.0371 136.97 35.7346C140.779 35.3744 144.562 34.7712 148.295 33.9288C151.708 33.2632 155.028 32.1861 158.182 30.7212C161.125 29.2675 163.901 27.4977 166.461 25.4431C169.024 23.3637 171.384 21.046 173.509 18.521C175.953 15.7306 178.174 12.7526 180.151 9.61469C181.309 8.02801 182.271 6.30684 183.015 4.4888C183.635 2.62766 184.245 0.762642 184.903 -1.0859C185.211 -1.91201 185.43 -2.76904 185.554 -3.64206C185.646 -4.39777 185.826 -5.13998 186.092 -5.85314C186.769 -7.79101 187.211 -9.80329 187.407 -11.8466C187.571 -13.4809 187.533 -15.0968 187.794 -16.7243C188.072 -18.6942 188.188 -20.6835 188.14 -22.6722C188.14 -26.4527 188.32 -30.2021 187.656 -33.9321C187.065 -37.2696 187.809 -40.7437 187.303 -44.1035C186.897 -47.5595 186.752 -51.0412 186.87 -54.5191C186.972 -56.3238 186.852 -58.1344 186.511 -59.9096C186.314 -60.5491 186.229 -61.2177 186.259 -61.8861C186.4 -62.4446 186.582 -62.9921 186.803 -63.5243C186.914 -64.2357 186.938 -64.958 186.875 -65.6752C186.875 -66.5664 186.875 -67.4575 186.875 -68.3487C186.828 -69.7358 186.903 -71.1243 187.097 -72.4985C187.285 -73.0562 187.425 -73.6294 187.513 -74.2113C187.513 -75.0372 187.513 -75.8624 187.513 -76.687C187.512 -78.1866 187.674 -79.6818 187.998 -81.146C188.982 -86.1722 190.265 -91.1351 191.841 -96.008C191.976 -96.4025 192.121 -96.7931 192.262 -97.1857C192.784 -98.1648 193.326 -99.1341 193.888 -100.094C193.299 -98.7105 192.769 -97.304 192.285 -95.8849C192.176 -95.5262 192.048 -95.1734 191.933 -94.8166Z" fill="#F2A663"/>
<path d="M46.6245 94.438C46.6245 94.4719 46.6168 94.5049 46.6139 94.5349C46.5291 95.3098 46.552 96.0927 46.6817 96.8614C46.7137 97.032 46.7525 97.2035 46.799 97.3741C46.8349 97.5031 46.8698 97.632 46.9144 97.7619C47.0113 98.0314 46.5896 98.1389 46.4917 97.8782C46.4723 97.8268 46.4636 97.7755 46.4452 97.7241C46.3919 97.5709 46.3483 97.4187 46.3105 97.2665C46.1089 96.5453 46.0148 95.7983 46.0313 95.0497C46.0371 94.7918 46.0594 94.5301 46.0865 94.2674C46.1011 94.1327 46.1049 93.9989 46.1243 93.8622C46.2426 93.0392 46.3919 92.2211 46.4849 91.3933C46.4849 91.3632 46.4946 91.3332 46.4975 91.3031C46.5273 90.3617 46.4891 89.4193 46.3831 88.4833C46.324 86.7084 45.7948 84.9859 45.7482 83.2043C45.7101 82.316 45.5943 81.4328 45.4022 80.5647C45.2229 79.6729 45.2393 78.7181 45.0309 77.8409C44.2448 74.5238 44.4658 70.9653 44.4648 67.5852C44.4648 63.7511 44.4648 59.9174 44.4648 56.084C44.3977 54.5568 44.4492 53.0268 44.6189 51.5077C44.8959 49.6764 45.0807 47.8323 45.1724 45.9824C45.4479 42.4048 46.0784 38.8635 47.0549 35.4108C47.8443 31.9333 48.8647 28.5123 50.1093 25.1706C51.2872 22.3622 52.7099 19.6628 54.3609 17.1037C61.4241 6.23283 71.5088 -2.33818 83.3763 -7.55639C90.1506 -10.4409 97.2616 -12.4601 104.541 -13.5663C112.019 -14.7295 119.48 -15.9897 126.817 -17.8595C132.978 -19.4328 139.225 -21.3492 144.482 -25.0327C147.112 -26.8745 149.107 -29.4296 151.664 -31.3606C152.989 -32.5016 154.174 -33.7945 155.197 -35.2127C156.426 -36.6525 157.552 -38.1768 158.566 -39.7745C160.37 -42.9361 161.725 -46.3328 162.594 -49.8673C163.699 -53.511 164.483 -57.2447 164.935 -61.0254C165.71 -68.1443 166.103 -75.3077 167.084 -82.4072C168.023 -88.8386 169.718 -95.1367 172.133 -101.171C173.268 -104.075 174.61 -106.893 176.149 -109.604C176.418 -110.076 176.707 -110.535 176.997 -110.993H177.578C173.882 -104.769 171.113 -98.038 169.361 -91.014C167.402 -83.7711 167.157 -76.3032 166.231 -68.9033C165.795 -65.4136 165.746 -61.892 165.193 -58.4179C164.543 -54.7309 163.658 -51.0891 162.545 -47.5147C161.643 -44.3027 160.265 -41.2443 158.456 -38.4416C157.608 -37.1482 156.665 -35.9193 155.636 -34.7649C154.502 -33.4912 153.713 -32.0769 152.312 -31.0649C149.703 -29.1796 147.685 -26.6185 145.099 -24.6983C142.615 -22.9295 139.916 -21.4842 137.066 -20.3973C130.766 -18.0314 124.256 -16.2693 117.622 -15.1347C113.802 -14.3883 109.958 -13.7612 106.111 -13.1553C104.269 -12.8645 102.387 -12.6706 100.577 -12.2141C98.7074 -11.7459 96.8395 -11.2709 94.9803 -10.7678C81.4549 -7.47359 69.2929 -0.0450439 60.1866 10.4841C58.0204 12.9623 56.0637 15.6161 54.3366 18.4182C52.5245 21.1232 51.096 24.0663 50.0919 27.1636C48.4634 33.0911 46.4801 38.9372 45.9082 45.0964C45.7812 46.4729 45.8626 47.8688 45.6804 49.2365C45.3991 50.7033 45.2151 52.187 45.1298 53.678C45.1298 56.8355 45.1298 59.993 45.1298 63.1505C45.1298 69.0538 44.9476 74.9581 46.0991 80.7702C46.3483 82.0304 46.3434 83.2663 46.4723 84.5342C46.6362 86.1423 46.9192 87.733 47.0762 89.3441C47.1298 90.7773 47.012 92.2117 46.7253 93.617C46.6856 93.8874 46.6517 94.1627 46.6245 94.438Z" fill="#8E3F32"/>
<path d="M48.038 76.4855C48.0874 76.1405 48.1349 75.7944 48.164 75.4454C48.3162 73.6531 48.2609 71.8511 48.289 70.0539C48.3404 66.48 49.5589 62.9448 50.2704 59.4677C50.9819 55.9907 51.6274 52.4885 52.3554 49.0056C53.1848 44.8376 54.2996 40.7314 55.6919 36.7163C55.8693 36.2762 56.0379 35.8332 56.2202 35.395C58.4259 29.8791 61.3095 24.6591 64.8047 19.8555C64.7316 19.9477 64.6649 20.0449 64.605 20.1463C63.7326 21.7651 62.4908 22.9264 61.8802 24.708C60.7383 28.0416 58.7114 30.9486 57.3436 34.1911C53.6514 42.9414 52.4291 52.4972 50.4671 61.7205C49.7783 64.3095 49.2752 66.9444 48.9618 69.6051C48.8047 71.9316 48.9821 74.2483 48.7039 76.5699C48.6274 77.2135 48.4946 77.8455 48.3734 78.4795C48.2861 77.8785 48.1882 77.2794 48.0758 76.6872C48.0622 76.6203 48.0496 76.5534 48.038 76.4855Z" fill="#8E3F32"/>
<path d="M81.6704 3.65111L81.7158 3.62598L81.6298 3.67819C81.6443 3.67046 81.6539 3.65982 81.6704 3.65111Z" fill="#8E3F32"/>
<path d="M70.6282 13.2589C71.757 12.4866 72.8366 11.6449 73.861 10.7386C74.9767 9.71112 76.0401 8.6274 77.1141 7.55724C78.5991 6.41632 80.119 5.34423 81.6787 4.37197C84.6505 2.61321 87.7386 1.05867 90.9214 -0.280885C93.8022 -1.75609 96.8663 -2.84188 100.033 -3.50977C97.9268 -2.96081 95.8552 -2.28623 93.8294 -1.48965C92.2455 -0.859578 90.7566 -0.0356359 89.1824 0.612856C87.3928 1.35606 85.6428 2.19113 83.9392 3.11474C82.2527 3.99116 80.6857 5.08057 79.2767 6.35622C77.8954 7.628 76.6004 8.9909 75.2578 10.3024C74.1726 11.4431 72.9612 12.4568 71.647 13.3239C70.0881 14.2196 68.7063 15.3931 67.5699 16.7864C67.1541 17.3234 66.7053 17.8323 66.2487 18.3373C65.8978 18.7251 65.4577 19.0934 65.0855 19.5005C65.4868 18.9781 65.8901 18.4575 66.3127 17.9496C67.663 16.3385 69.1112 14.7721 70.6282 13.2589Z" fill="#8E3F32"/>
<path d="M48.0674 81.1864C48.0157 82.1131 47.9928 83.0401 47.9986 83.9675C48.0151 86.4713 48.2331 88.9683 48.2147 91.4731C48.2147 91.5366 48.1895 91.5975 48.1446 91.6424C48.0997 91.6873 48.0388 91.7125 47.9753 91.7125C47.9118 91.7125 47.8509 91.6873 47.806 91.6424C47.7611 91.5975 47.7359 91.5366 47.7359 91.4731C47.6661 87.7062 47.2163 83.9626 47.4984 80.1919C47.5333 79.7285 47.5954 79.2691 47.6651 78.8115C47.7362 79.2316 47.8079 79.6516 47.8803 80.0717C47.943 80.4439 48.0054 80.8155 48.0674 81.1864Z" fill="#8E3F32"/>
<path d="M68.0302 15.0528C68.1027 14.955 68.1885 14.8679 68.2852 14.7939C68.1882 14.8909 68.0961 14.9878 68.0021 15.0915C68.0108 15.0789 68.0215 15.0663 68.0302 15.0528Z" fill="#8E3F32"/>
<path d="M49.0322 86.9712C48.7156 85.0422 48.3924 83.1138 48.0629 81.1861C47.9982 80.8145 47.9359 80.4433 47.8758 80.0723C47.8028 79.6503 47.731 79.2303 47.6606 78.8122C47.0727 76.2035 46.9741 73.5083 47.3698 70.8636C48.1094 67.1597 47.7934 63.3919 48.0484 59.6492C48.2171 58.0004 48.5589 56.3739 49.0681 54.7967C49.5528 53.0722 49.9987 51.3332 50.5221 49.6194C54.2144 37.4493 58.8682 24.9438 67.6436 15.4597C67.759 15.3347 67.8811 15.2135 67.9974 15.0885C68.0944 14.9915 68.1914 14.8946 68.2805 14.7909C72.2386 10.5333 76.7249 6.79953 81.6303 3.68026L81.7166 3.62791C82.1809 3.33711 82.6443 3.0463 83.1163 2.77586C86.1213 1.04266 89.3647 -0.219421 92.4996 -1.68313C93.7917 -2.28897 95.1168 -2.78624 96.4526 -3.2903C97.4681 -3.65231 98.5178 -3.90987 99.5855 -4.05899C100.16 -4.15592 100.743 -4.23832 101.347 -4.33428C103.673 -4.70361 105.957 -5.28812 108.243 -5.861C109.678 -6.2216 111.114 -6.57832 112.562 -6.87106C114.192 -7.19966 115.82 -7.25879 117.453 -7.51955C118.243 -7.64459 119.022 -7.83459 119.794 -8.03621C120.516 -8.30946 121.267 -8.49748 122.032 -8.59649C123.564 -8.6246 125.088 -8.96096 126.609 -9.13448C128.322 -9.24004 130.025 -9.46907 131.706 -9.8198C134.978 -10.6689 138.148 -11.8176 141.325 -12.9624C142.932 -13.5286 144.482 -14.2463 145.953 -15.1056C147.447 -15.9897 148.833 -17.0308 150.363 -17.8576C151.025 -18.3018 151.651 -18.7973 152.235 -19.3397C152.925 -19.87 153.63 -20.3721 154.348 -20.8645C155.892 -21.8726 157.287 -23.0933 158.491 -24.4908C161.606 -28.1885 164.27 -32.2437 166.427 -36.5708C167.407 -38.5335 168.27 -40.5526 169.011 -42.6176C169.067 -42.7775 169.116 -42.9384 169.172 -43.1022C173.978 -56.9261 174.471 -71.7561 178.326 -85.8164C179.042 -88.4272 179.875 -91.0008 180.826 -93.5372C181.739 -95.98 182.533 -98.4809 183.555 -100.876C184.556 -103.167 185.749 -105.37 187.119 -107.461C187.792 -108.508 188.192 -109.705 188.834 -110.777C188.88 -110.852 188.931 -110.919 188.979 -110.993H189.493C188.621 -109.683 188.116 -108.205 187.27 -106.88C186.302 -105.356 185.424 -103.777 184.641 -102.15C183.868 -100.534 183.208 -98.8677 182.664 -97.1616C182.066 -95.3198 181.33 -93.5362 180.688 -91.709C179.466 -88.1725 178.443 -84.5706 177.622 -80.9202C175.943 -73.6414 175.08 -66.2075 173.694 -58.8735C172.53 -51.898 170.622 -45.0674 168.002 -38.4988C167.647 -37.6645 167.268 -36.8406 166.866 -36.027C165.942 -34.1621 164.883 -32.3675 163.697 -30.6578C163.419 -30.2555 163.151 -29.8474 162.858 -29.4558C160.997 -26.9704 159.35 -24.2756 157.062 -22.147C155.83 -21.1417 154.538 -20.211 153.195 -19.3601C152.465 -18.8309 151.773 -18.2511 151.124 -17.625C150.408 -17.1198 149.648 -16.6793 148.854 -16.3086C147.481 -15.4362 146.163 -14.5105 144.712 -13.7641C143.31 -13.0844 141.862 -12.5015 140.38 -12.0192C138.424 -11.331 136.471 -10.6379 134.494 -10.0224C133.242 -9.63466 131.984 -9.26727 130.701 -8.97453C130.381 -8.90086 130.061 -8.84949 129.74 -8.80587L129.643 -8.79133C128.638 -8.66531 127.63 -8.64883 126.611 -8.54803C125.728 -8.46175 124.85 -8.31247 123.971 -8.19324C123.75 -8.16319 123.519 -8.14574 123.283 -8.13314C122.658 -8.13208 122.035 -8.05328 121.429 -7.89856C121.217 -7.82877 121.005 -7.77449 120.793 -7.71342C117.704 -6.82066 114.52 -6.69948 111.38 -6.01125C110.144 -5.7408 108.914 -5.42964 107.684 -5.11945C105.332 -4.47682 102.944 -3.97063 100.533 -3.60339C100.367 -3.5811 100.205 -3.54717 100.04 -3.52003C96.8732 -2.85215 93.8091 -1.76635 90.9283 -0.291145C87.7454 1.0484 84.6574 2.60294 81.6856 4.3617C80.1288 5.33105 78.606 6.40605 77.121 7.54697C74.8388 9.30667 72.6723 11.2115 70.635 13.2496C69.118 14.7628 67.6698 16.3292 66.3263 17.9354C65.9037 18.4414 65.5004 18.962 65.0991 19.4864C65.0022 19.6085 64.9053 19.7248 64.8083 19.8479C61.3131 24.6516 58.4295 29.8715 56.2238 35.3875C56.0415 35.8256 55.8729 36.2686 55.6955 36.7087C54.2114 40.398 52.9232 44.1659 51.7348 47.9589C51.0475 50.1516 50.461 52.3665 49.829 54.5747C49.5159 55.671 49.2125 56.7683 48.9324 57.8705C48.6587 59.3335 48.5559 60.8233 48.6261 62.3101C48.626 64.819 48.4904 67.3262 48.2199 69.8205C48.1036 70.8316 47.8322 71.8174 47.7101 72.8255C47.6331 74.0502 47.7448 75.2795 48.0416 76.4702C48.0532 76.5381 48.0658 76.605 48.0794 76.6728C48.1918 77.2651 48.2897 77.8642 48.377 78.4652C48.5989 79.9696 48.7705 81.4876 48.9896 82.991C49.0138 84.3297 49.0584 85.6528 49.0322 86.9712Z" fill="#8E3F32"/>
<path d="M49.9477 89.6862C49.9593 89.7754 49.9719 89.8636 49.9835 89.9528C50.0165 90.2009 50.0524 90.4491 50.0805 90.6962C50.0863 90.7437 50.094 90.7932 50.0998 90.8368C50.1212 91.0026 49.9399 91.0723 49.8033 91.0307C49.7688 91.0248 49.737 91.0084 49.7121 90.9838C49.6873 90.9592 49.6707 90.9274 49.6646 90.893C49.6414 90.7408 49.6152 90.5886 49.591 90.4374C49.5134 89.945 49.431 89.4545 49.3515 88.9631C49.4324 88.3721 49.4777 87.7768 49.4873 87.1805C49.4873 86.911 49.4873 86.6386 49.4873 86.3672C49.6197 87.2816 49.7473 88.196 49.8701 89.1104C49.8265 89.2481 49.7868 89.3867 49.7402 89.5233C49.6937 89.66 49.843 89.7385 49.9477 89.6862Z" fill="#8E3F32"/>
<path d="M49.3549 88.9649C49.2647 89.6813 49.1494 90.3937 49.0369 91.1062C48.9865 91.4203 48.94 91.7353 48.9002 92.0503C48.8431 92.4904 48.7888 92.9324 48.7645 93.3774C48.7614 93.4163 48.7438 93.4526 48.7152 93.479C48.6865 93.5055 48.6489 93.5202 48.6099 93.5202C48.5709 93.5202 48.5333 93.5055 48.5047 93.479C48.476 93.4526 48.4584 93.4163 48.4553 93.3774C48.4553 93.0866 48.4786 92.7958 48.498 92.505C48.5174 92.2142 48.5377 91.9146 48.5726 91.6209C48.7073 90.448 48.9226 89.2858 48.9953 88.1003C49.0176 87.7261 49.0243 87.349 49.0321 86.972C49.0582 85.6536 49.0136 84.3256 48.9865 83.0064C48.9797 82.6506 48.972 82.2949 48.971 81.9401C49.0323 80.3051 49.1941 78.6755 49.4557 77.0604C49.6748 75.2254 49.6059 73.3672 49.7911 71.5254C49.9607 69.8514 50.1701 68.188 50.2156 66.5033C50.3941 64.678 50.748 62.8741 51.2722 61.1166C52.0891 57.5378 53.0519 53.9968 54.1609 50.4936C55.2127 47.1924 56.4337 43.9476 57.8192 40.772C58.5045 39.2027 59.0125 37.5732 59.6929 35.9999C60.4294 34.3554 61.305 32.7767 62.3101 31.2812C63.169 29.9696 64.2779 28.7919 65.0786 27.4494C65.9694 25.9566 66.8099 24.4337 67.7152 22.9497C68.481 21.68 69.3331 20.4645 70.2656 19.3117C71.408 18.0321 72.6743 16.8687 74.046 15.8385C79.0983 11.5755 84.8815 8.26369 91.1152 6.06369C92.586 5.4017 94.0184 4.65736 95.4055 3.83419C95.9659 3.60302 96.5607 3.46642 97.1658 3.42998C98.0305 3.27524 98.8757 3.02625 99.6861 2.68746C102.837 1.62144 106.068 0.811028 109.349 0.264103C111.098 -0.100372 112.808 -0.635448 114.549 -1.04063C116.292 -1.38747 118.063 -1.57115 119.84 -1.58929C123.487 -1.75698 127.123 -2.76316 130.677 -3.53669C137.586 -5.04208 144.662 -6.40498 150.828 -10.0226C152.407 -10.9518 153.869 -12.0692 155.179 -13.3503C155.844 -13.9969 156.408 -14.7074 157.118 -15.3007C157.866 -15.9259 158.572 -16.6044 159.258 -17.2936C162.181 -20.2911 164.688 -23.6682 166.71 -27.3341C168.859 -30.7784 170.637 -34.4399 172.017 -38.2576C172.58 -40.017 173.054 -41.8045 173.623 -43.5629C174.007 -45.1845 174.48 -46.7838 175.04 -48.3534C175.057 -48.3912 175.113 -48.3534 175.095 -48.3204C174.509 -46.9924 174.562 -45.4831 173.982 -44.1629C173.352 -42.4586 172.834 -40.7149 172.431 -38.943C171.468 -35.729 170.128 -32.64 168.441 -29.74C167.631 -28.3025 166.793 -26.8795 166.029 -25.4187C165.156 -23.8781 164.151 -22.4166 163.024 -21.0508C160.827 -18.2155 158.17 -15.9269 155.725 -13.3455C151.315 -8.69264 144.984 -6.54263 138.947 -4.98587C135.416 -4.07565 131.849 -3.32441 128.29 -2.53827C124.943 -1.70639 121.522 -1.21182 118.077 -1.06197C116.186 -0.93882 114.316 -0.589291 112.509 -0.0208855C110.727 0.453125 108.935 0.874786 107.137 1.29063C105.526 1.66383 103.909 2.01086 102.298 2.38406C100.703 2.75338 99.249 3.4862 97.6534 3.8594C96.8571 3.96562 96.0751 4.16071 95.3221 4.44101C94.6494 4.75701 94.0193 5.17093 93.3834 5.55091C91.9397 6.29963 90.437 6.92889 88.8905 7.4324C82.433 10.1626 76.5182 14.0303 71.4278 18.8513C69.048 21.294 67.4777 24.4735 65.7755 27.3951C64.9865 28.7463 63.9212 29.9328 63.0371 31.2259C62.0261 32.7097 61.1357 34.2721 60.3744 35.8982C59.6445 37.4491 59.2005 39.1038 58.5026 40.6673C57.699 42.4684 56.9691 44.3024 56.2808 46.1499C54.9298 49.8296 53.7651 53.5751 52.7912 57.372C52.3065 59.2438 51.8626 61.1273 51.4467 63.0165C51.0385 65.1488 50.7559 67.3031 50.6005 69.4685C50.4163 71.2928 50.1885 73.1035 50.1711 74.9404C50.1527 76.8597 49.7494 78.7316 49.575 80.6373C49.4014 82.5246 49.4722 84.4565 49.4848 86.3564C49.4848 86.6278 49.4916 86.9002 49.4848 87.1697C49.4776 87.7702 49.4342 88.3697 49.3549 88.9649Z" fill="#8E3F32"/>
<path d="M196.605 -104.402C195.661 -102.997 194.759 -101.561 193.9 -100.094C193.338 -99.1362 192.796 -98.1669 192.274 -97.1859C192.208 -97.0618 192.147 -96.9358 192.08 -96.8107C190.882 -94.5337 189.787 -92.2102 188.823 -89.8567C188.109 -88.2498 187.544 -86.5807 187.135 -84.8704C186.74 -82.9627 186.273 -81.0696 185.806 -79.1784C184.853 -75.6451 184.107 -72.0592 183.571 -68.439C183.378 -66.8881 183.11 -65.3371 182.932 -63.7861C182.925 -62.2957 182.813 -60.8076 182.596 -59.333C182.342 -58.5264 182.155 -57.6999 182.038 -56.8621C181.974 -56.0055 181.958 -55.146 181.989 -54.2875C182.028 -52.4332 182.218 -50.5856 182.26 -48.7313C182.343 -45.0003 182.266 -41.2586 182.268 -37.5276C182.297 -36.0625 182.176 -34.5984 181.908 -33.1578C181.635 -31.2905 181.541 -29.4014 181.628 -27.5162C181.639 -23.8016 181.423 -20.0898 180.98 -16.4017C180.427 -12.8361 179.57 -9.32456 178.416 -5.90562C176.454 0.434853 173.937 6.50198 169.623 11.622C165.51 16.606 160.289 20.5587 154.376 23.164C152.878 23.7927 151.346 24.3383 149.788 24.7983C147.956 25.3286 146.094 25.5806 144.24 26.0071C143.485 26.1816 142.779 26.517 142.025 26.7031C141.224 26.897 140.397 27.0094 139.588 27.1771C137.897 27.5717 136.171 27.7989 134.435 27.8557C132.707 27.8828 130.985 27.8295 129.262 27.9953C127.339 28.1794 125.433 28.5972 123.504 28.792C121.759 28.9685 119.918 29.4502 118.18 29.4502C116.316 29.4502 114.451 29.4434 112.588 29.4502C111.73 29.4479 110.874 29.5146 110.026 29.6499C109.336 29.8542 108.629 29.9995 107.914 30.0842C106.061 30.1302 104.222 30.4259 102.447 30.9634C100.739 31.418 98.9729 31.6303 97.2571 32.0733C95.584 32.5056 93.9507 33.0998 92.3135 33.6407C90.6347 34.1368 88.9957 34.759 87.4106 35.5019C85.9003 36.2608 84.3978 37.0334 82.9137 37.8428C81.5344 38.5941 80.2142 39.4161 78.7844 40.0636C77.243 40.7732 75.7552 41.5941 74.3331 42.5199C70.5846 45.0323 67.2002 48.0491 64.2752 51.4854C61.091 54.8818 58.5067 58.7945 56.6329 63.0564C54.8941 67.1369 53.5915 71.3898 52.7468 75.7442C51.9122 80.3815 51.7242 85.1643 50.0249 89.6058C50.0114 89.6418 49.9842 89.6711 49.9493 89.6872C49.8446 89.7396 49.6924 89.6678 49.7409 89.5273C49.7893 89.3867 49.8272 89.252 49.8708 89.1143C50.8055 85.8981 51.4376 82.6016 51.7591 79.2677C52.1523 76.1333 52.8027 73.0364 53.7036 70.0086C54.5765 66.9519 55.6612 63.9597 56.9499 61.0538C58.3265 58.2248 60.0688 55.5889 62.132 53.2137C66.179 48.2914 70.8066 43.7868 76.4162 40.684C77.8101 39.9085 79.2865 39.3356 80.6601 38.532C82.0821 37.7003 83.5351 36.921 84.9978 36.162C85.7142 35.7907 86.4344 35.4272 87.1546 35.0647C87.8059 34.6555 88.4958 34.3113 89.2145 34.0372C90.875 33.6087 92.4967 33.0475 94.1242 32.5075C97.5024 31.387 100.979 30.7162 104.429 29.8797C105.98 29.5045 107.592 29.7672 109.119 29.3397C110.689 28.9912 112.3 28.8588 113.906 28.9462C115.723 29.0489 117.546 28.997 119.354 28.7911C121.177 28.4741 123.03 28.3461 124.868 28.1474C126.622 27.9536 128.343 27.5523 130.102 27.4224C131.973 27.2847 133.857 27.3933 135.73 27.3196C139.357 27.1791 142.764 25.7008 146.311 25.1095C149.829 24.4459 153.24 23.3017 156.446 21.709C159.492 20.1232 162.31 18.1347 164.824 15.797C167.405 13.5506 169.704 10.9987 171.669 8.19736C175.724 2.40553 177.705 -4.7715 179.577 -11.5036C180.519 -15.2881 181.029 -19.1674 181.096 -23.0669C181.242 -26.4363 180.847 -29.957 181.497 -33.2731C182.2 -36.8539 181.848 -40.675 181.849 -44.314C181.849 -47.9364 181.597 -51.5414 181.573 -55.159C181.546 -56.612 181.762 -58.0593 182.21 -59.4415C182.706 -60.9857 182.349 -62.6578 182.588 -64.2359C183.094 -67.5811 183.485 -70.9244 184.222 -74.2415C184.791 -76.7957 185.462 -79.3276 186.072 -81.8731C186.392 -83.2024 186.688 -84.5366 186.962 -85.8756C187.307 -87.1396 187.76 -88.372 188.314 -89.5591C189.509 -92.5161 190.902 -95.3892 192.483 -98.1591C192.636 -98.4286 192.791 -98.6961 192.945 -98.9646C193.534 -99.9915 194.139 -101.01 194.76 -102.02C194.935 -102.306 195.108 -102.593 195.285 -102.878C195.867 -103.821 196.486 -104.746 197.115 -105.663C198.381 -107.505 199.745 -109.286 201.186 -111H201.555C201.014 -110.354 200.486 -109.701 199.968 -109.043C198.797 -107.542 197.676 -105.995 196.605 -104.402Z" fill="#F2A663"/>
<path d="M58.0503 76.7011C58.6833 75.2616 59.229 73.7824 59.9134 72.3671C60.239 71.8389 60.6212 71.3478 61.0533 70.9025C61.5874 70.2336 62.1196 69.5696 62.6343 68.8872C63.6192 67.5883 64.8638 66.5046 65.9001 65.2473C70.0227 60.2339 76.7363 57.8706 82.8248 56.3807C86.486 55.486 90.1511 54.8191 93.8647 54.1735C95.5 53.8895 97.1246 53.557 98.7773 53.3874C100.586 53.2013 102.514 52.9027 104.327 52.9027C106.015 52.8949 107.701 52.7884 109.377 52.5838C111.242 52.3676 113.085 52.7156 114.951 52.6701C116.487 52.6323 117.993 52.2678 119.532 52.2688C121.395 52.2688 123.239 52.3066 125.097 52.45C128.666 52.7273 132.239 52.5179 135.808 52.829C137.632 52.988 139.369 52.5896 141.189 52.674C143.114 52.7641 145 52.135 146.918 51.944C148.653 51.7715 150.439 51.6115 152.152 51.2655C153.744 50.9953 155.354 50.8401 156.968 50.8012C159.072 50.5916 161.108 49.942 162.945 48.8945C164.496 47.9978 166.212 47.4153 167.767 46.5177C171.133 44.519 174.317 42.229 177.283 39.6741C180.179 37.2333 183.432 35.0299 185.387 31.6857C186.25 30.2104 187.282 28.8387 188.237 27.4206C189.263 25.8595 190.199 24.2413 191.041 22.5739C192.781 19.0917 194.118 15.4231 195.028 11.6387C196.035 7.78556 197.127 3.92563 197.853 0.00656796C198.295 -2.03964 198.607 -4.11169 198.788 -6.19724C198.894 -8.05935 198.819 -9.94375 198.859 -11.8088C198.859 -11.8152 198.862 -11.8214 198.866 -11.8259C198.871 -11.8305 198.877 -11.833 198.883 -11.833C198.89 -11.833 198.896 -11.8305 198.901 -11.8259C198.905 -11.8214 198.908 -11.8152 198.908 -11.8088C198.945 -10.0853 198.958 -8.36178 198.968 -6.63829C198.871 -4.84656 198.641 -3.06452 198.28 -1.3069C197.628 2.48928 196.781 6.24948 195.744 9.95882C194.89 13.3748 194.133 17.0854 192.552 20.2562C190.947 23.5245 189.116 26.6761 187.07 29.6879C186.172 30.9936 185.407 32.3759 184.42 33.6186C183.175 35.1297 181.783 36.5142 180.266 37.7519C177.579 40.0744 174.763 42.2446 171.833 44.2523C170.324 45.2604 168.843 46.3732 167.247 47.2388C166.517 47.6363 165.748 47.9649 164.993 48.31C164.238 48.6551 163.508 49.1446 162.743 49.4518C161.047 50.2046 159.275 50.7721 157.458 51.1443C156.726 51.2367 155.989 51.2692 155.252 51.2413C154.242 51.2702 153.238 51.4093 152.258 51.6561C150.788 51.978 149.287 52.0652 147.799 52.261C146.79 52.3928 145.777 52.4607 144.771 52.6158C143.881 52.8303 142.98 52.9947 142.071 53.1082C141.06 53.0162 140.042 53.0256 139.032 53.1363C138.27 53.2953 137.49 53.3546 136.713 53.3127C134.844 53.2808 132.994 53.0365 131.119 53.0375C127.525 53.0375 123.953 52.7205 120.36 52.7224C118.831 52.7224 117.355 52.9977 115.836 53.0491C113.972 53.1121 112.126 52.9231 110.262 52.9715C108.567 53.0152 106.889 53.3535 105.18 53.3767C103.338 53.4019 101.503 53.6472 99.6681 53.7916C95.8383 54.0931 92.0103 54.9868 88.2299 55.6595C81.2981 56.8916 73.9136 58.8933 68.369 63.4472C67.1342 64.6009 65.9732 65.8312 64.8929 67.1308C63.6492 68.4462 62.5422 69.8449 61.41 71.2524C61.0226 71.7226 60.6664 72.2177 60.3438 72.7345C60.2149 72.8945 60.0801 73.0476 59.956 73.2085C59.2178 74.3135 58.58 75.4823 58.0503 76.7011Z" fill="#F2A663"/>
<path d="M58.2471 77.3115C57.5617 78.7655 56.8638 80.204 56.2114 81.6668C56.1552 81.7947 55.9739 81.7569 55.9158 81.6571C55.9045 81.6395 55.8978 81.6194 55.8963 81.5986C55.8947 81.5778 55.8985 81.5569 55.9071 81.5379C56.0186 81.2694 56.1397 81.0057 56.2541 80.7382C56.4043 80.3931 56.5517 80.047 56.7049 79.7039C57.2341 78.9158 57.7799 78.1374 58.2471 77.3115Z" fill="#F2A663"/>
<path d="M55.2671 81.5412C55.434 81.1395 55.621 80.7464 55.8273 80.3634C56.2587 79.5531 56.757 78.7815 57.2601 78.0099C57.3987 77.7986 57.5373 77.5863 57.674 77.373C57.8107 77.1598 57.9299 76.9271 58.051 76.7003C58.5803 75.485 59.2171 74.3194 59.9539 73.2174C60.0808 73.0565 60.2156 72.9034 60.3416 72.7434C62.4252 70.1542 64.7012 67.7259 67.1503 65.4792C69.5972 63.1495 72.4424 61.2781 75.5506 59.9539C77.1386 59.2484 78.7701 58.6452 80.4352 58.148C81.2804 57.926 82.0927 57.5916 82.9322 57.3405C83.8802 57.0575 84.8709 56.9257 85.8102 56.6281C89.1563 55.5715 92.9009 55.6393 96.3576 55.2109C98.0561 54.9744 99.7677 54.8449 101.482 54.8232C103.247 54.8232 105.069 54.4354 106.836 54.322C108.678 54.2018 110.529 54.1407 112.376 54.0205C114.315 53.8936 116.253 53.912 118.174 53.6221C119.76 53.4822 121.356 53.4595 122.946 53.5543L128.197 53.5611H133.168C134.739 53.5611 136.318 53.8761 137.907 53.8887C139.544 53.9013 141.155 53.7326 142.786 53.6154C144.509 53.4922 146.233 53.5998 147.957 53.4312C149.68 53.2625 151.408 52.9959 153.145 52.8399C155.151 52.5799 157.133 52.1664 159.076 51.603C160.744 51.191 162.327 50.5813 163.983 50.1063C165.85 49.6318 167.678 49.0141 169.45 48.2588C172.508 46.7532 175.405 44.9396 178.095 42.8459C180.783 40.8872 183.253 38.6448 185.462 36.1575C187.763 33.3102 189.758 30.2277 191.411 26.9613C192.272 25.4045 193.059 23.807 193.778 22.1815C194.154 21.3342 194.501 20.4841 194.811 19.6108C195.059 18.9148 194.867 18.2033 195.305 17.5839C195.322 17.5606 195.361 17.5839 195.345 17.6071C194.938 18.2197 195.016 19.3267 194.783 20.0499C194.54 20.804 194.235 21.5165 193.934 22.2464C193.255 23.9001 192.452 25.5005 191.607 27.0766C190.076 30.1158 188.265 33.0064 186.2 35.7116C184.117 38.217 181.754 40.4754 179.157 42.4427C176.627 44.4474 173.938 46.244 171.118 47.8148C168.089 49.4627 164.85 50.1131 161.64 51.2647C158.317 52.4149 154.86 53.1316 151.354 53.3972C149.668 53.5436 148.02 53.8819 146.327 53.9604C144.598 54.0409 142.885 54.0196 141.158 54.1785C137.747 54.4916 134.418 54.005 131.016 54.0089L121.226 54.0205C119.511 54.0205 117.863 54.2735 116.163 54.3492C114.286 54.4315 112.413 54.5159 110.531 54.6196C106.957 54.8135 103.392 55.333 99.823 55.3369C98.1606 55.3369 96.4817 55.8293 94.8376 55.9883C92.74 56.1909 90.6317 56.2791 88.5447 56.5825C86.8354 56.8773 85.1437 57.2656 83.477 57.7457C81.8074 58.1791 80.1645 58.7093 78.5565 59.3335C74.9212 60.6257 71.5331 62.529 68.5384 64.9615C65.8025 67.3003 63.2893 69.8876 61.0308 72.6901C60.0392 73.9716 59.1957 75.3611 58.5164 76.8321C58.4359 76.993 58.3351 77.1413 58.2469 77.2964C57.7796 78.1223 57.2339 78.9007 56.7007 79.6888C56.6484 79.7663 56.597 79.8439 56.5457 79.9214C56.1685 80.4685 55.8368 81.0456 55.554 81.6469C55.5433 81.6663 55.5282 81.6831 55.5099 81.6959C55.4917 81.7086 55.4707 81.717 55.4487 81.7204C55.4267 81.7237 55.4042 81.722 55.383 81.7153C55.3617 81.7086 55.3423 81.6971 55.3262 81.6817C55.3025 81.6679 55.2839 81.6467 55.2732 81.6213C55.2625 81.596 55.2604 81.5679 55.2671 81.5412Z" fill="#F2A663"/>
<path d="M39.888 34.6017C39.8134 36.1245 39.8638 37.66 39.8454 39.1847C39.755 40.8123 39.8356 42.4449 40.0858 44.0557C40.1323 44.2874 39.7872 44.3872 39.729 44.1526C39.4218 42.6484 39.2875 41.114 39.3287 39.5793C39.3045 37.6212 39.2182 35.6437 39.3403 33.6876C39.4917 31.9648 39.7913 30.2582 40.236 28.5869C40.6829 26.719 40.9368 24.8181 41.3876 22.9501C41.9372 20.7204 42.6556 18.5356 43.5367 16.4148C45.3191 12.1691 47.5462 8.12411 50.1806 4.34747C53.8636 -1.07795 58.4568 -5.8259 63.7572 -9.68669C66.8687 -11.9615 70.1345 -14.0173 73.5311 -15.8391C76.9238 -17.6227 80.5501 -19.005 84.0475 -20.5618C89.5437 -23.0594 95.1939 -25.2031 100.964 -26.9798C104.076 -27.9104 107.132 -29.0241 110.187 -30.1273C113.282 -31.1266 116.319 -32.2974 119.283 -33.6343C120.603 -34.2838 121.887 -35.0069 123.183 -35.7029C124.637 -36.4842 126.157 -37.0552 127.675 -37.7066C130.451 -38.905 133.14 -40.2978 135.72 -41.8747C138.379 -43.4935 140.567 -45.7851 143.24 -47.3409C144.248 -48.03 145.126 -48.8936 145.832 -49.8912C146.483 -50.7762 147.649 -51.1795 148.129 -52.2041C148.144 -52.237 148.202 -52.2128 148.187 -52.1789C147.809 -51.2677 146.877 -50.7103 146.221 -50.0075C145.389 -48.9323 144.435 -47.9566 143.379 -47.0995C140.338 -45.0377 137.637 -42.5707 134.444 -40.7018C132.957 -39.8294 131.426 -39.0355 129.874 -38.2862C128.145 -37.4516 126.293 -36.8419 124.586 -35.9734C121.515 -34.2516 118.351 -32.7025 115.108 -31.3331C107.978 -28.6509 100.609 -26.6192 93.5084 -23.8692C89.8452 -22.4491 86.2383 -20.935 82.6517 -19.3404C79.1514 -17.7894 75.5755 -16.3461 72.2332 -14.4714C67.0002 -11.5983 62.1704 -8.04551 57.8694 -3.90553C54.0108 -0.0458565 50.6756 4.30358 47.9491 9.03134C45.4633 13.1756 43.5422 17.6333 42.2368 22.2861C41.9731 23.2555 41.7298 24.2403 41.534 25.2339C40.7583 28.3123 40.2082 31.4432 39.888 34.6017Z" fill="#8E3F32"/>
<path d="M50.2769 1.27228C49.3734 2.60998 48.3876 3.88951 47.5423 5.26404C46.573 6.84892 45.6802 8.51715 44.7642 10.1398C43.8358 11.8344 43.0125 13.5844 42.2991 15.3801C42.2351 15.5352 41.9938 15.477 42.0413 15.3093C43 11.8498 45.0521 8.86031 46.6728 5.70315C48.2688 2.82383 50.1483 0.111065 52.2834 -2.39475C54.0544 -4.43383 56.0607 -6.25597 58.2603 -7.82308C58.8158 -8.24862 59.3703 -8.66931 59.915 -9.08904C61.2847 -10.1466 62.6806 -11.1673 64.1394 -12.094C65.6904 -13.0847 67.1444 -14.2101 68.7283 -15.1484C71.8711 -16.8646 75.1201 -18.3786 78.4556 -19.6811C81.7514 -21.1012 85.0472 -22.5668 88.3992 -23.858C91.8239 -25.1792 95.3727 -26.2416 98.8778 -27.3263C100.695 -27.8885 102.522 -28.4245 104.348 -28.9587C106.084 -29.4656 107.757 -30.3283 109.441 -30.9943C110.505 -31.4291 111.599 -31.7855 112.715 -32.0606C113.1 -32.2532 113.497 -32.4196 113.905 -32.5588C114.484 -32.5926 115.041 -32.7992 115.502 -33.152C115.533 -33.1763 115.575 -33.123 115.544 -33.0978C114.684 -32.5534 113.748 -32.139 112.768 -31.8677C111.972 -31.5575 111.12 -31.383 110.322 -31.0583C109.278 -30.6395 108.243 -30.2004 107.21 -29.7564C103.833 -28.3024 100.302 -27.3592 96.8092 -26.2203C93.1983 -25.1286 89.647 -23.8489 86.1697 -22.3865C82.7828 -20.8743 79.3562 -19.4445 75.9596 -17.9556C72.6427 -16.6563 69.4825 -14.9879 66.5386 -12.9819C65.0962 -11.9156 63.5084 -11.0752 62.0912 -9.97696C60.5858 -8.80696 59.0494 -7.6864 57.574 -6.47762C56.5669 -5.65174 55.5268 -4.85494 54.5691 -3.97575C54.3035 -3.73244 54.0398 -3.49107 53.7888 -3.22741C52.4887 -1.83318 51.3136 -0.327503 50.2769 1.27228Z" fill="#8E3F32"/>
<path d="M13.2075 -7.23677C12.8992 -7.03514 12.5988 -6.82286 12.2983 -6.61154C5.65439 -3.59785 -0.870306 -0.323409 -6.48862 4.43219C-7.90483 5.63224 -9.2202 6.91856 -10.6955 8.0527C-12.4597 9.40978 -14.3112 10.6457 -16.0502 12.0348C-19.4337 14.8308 -22.5713 17.9116 -25.4286 21.2435C-29.4698 25.8121 -33.3423 30.5492 -36.9938 35.4376V34.3888C-36.766 34.0864 -36.5411 33.782 -36.3153 33.4805C-31.2743 26.6529 -25.6822 20.2499 -19.5951 14.336C-16.5611 11.4881 -13.1441 9.24015 -9.91132 6.64327C-8.37006 5.40736 -6.9907 3.99503 -5.43781 2.7659C-3.86277 1.5411 -2.22428 0.400213 -0.529087 -0.652012C5.4634 -4.4373 11.9609 -7.14662 18.3848 -10.0498C18.2093 -9.91894 18.0349 -9.78518 17.8613 -9.65238C16.3201 -8.82456 14.6896 -8.2032 13.2075 -7.23677Z" fill="#F2A663"/>
<path d="M112.559 -39.3083C113.775 -39.6961 114.901 -40.6393 116.163 -40.806C116.26 -40.8186 116.287 -40.6451 116.187 -40.6315C115.779 -40.56 115.397 -40.3847 115.077 -40.1226C114.906 -40.0547 114.737 -39.9762 114.567 -39.9113C113.161 -39.3772 111.659 -39.065 110.287 -38.4437C110.115 -38.3652 109.937 -38.306 109.764 -38.2363C109.191 -38.1471 108.623 -38.0996 107.97 -37.9852C106.88 -37.7913 105.7 -37.3474 104.62 -37.0614C103.792 -36.8423 102.925 -36.6514 102.058 -36.4488C100.939 -36.208 99.8389 -35.8839 98.7676 -35.4794C98.2916 -35.2856 97.8118 -35.1004 97.3349 -34.9114C95.6414 -34.2396 93.9422 -33.5747 92.2546 -32.8942C88.2667 -31.287 84.4232 -29.3949 80.5352 -27.5735C80.1717 -27.4038 79.8091 -27.2303 79.4447 -27.0617C75.2125 -25.1026 71.0172 -23.1077 66.9547 -20.8103C63.0392 -18.7167 59.3192 -16.2764 55.8392 -13.5189C52.2526 -10.544 48.4644 -7.87833 45.0698 -4.67368C43.4859 -3.17895 41.8855 -1.70458 40.4334 -0.0789909C38.7808 1.9567 37.3205 4.14126 36.0714 6.44664C33.6883 10.2438 31.6392 14.2405 29.947 18.3919C27.0272 26.3751 25.6777 34.8474 25.9727 43.3428C26.1481 52.3461 28.2322 60.9635 30.3347 69.6673C31.4921 74.4568 32.6612 79.2444 33.7973 84.0407C34.9259 88.386 35.7506 92.8046 36.2652 97.2645C37.1454 106.764 38.2427 116.158 37.2123 125.697C36.6628 130.44 35.7265 135.129 34.4128 139.719C33.8196 141.851 33.3902 144.02 32.7872 146.148C32.0123 148.471 31.0939 150.744 30.0372 152.953C29.2297 154.87 28.4494 156.793 27.4985 158.643C26.3681 160.688 25.0995 162.653 23.7016 164.525C21.2782 167.994 19.2688 171.602 16.4741 174.821C10.8134 181.263 4.20178 186.802 -3.13183 191.247C-6.86806 193.579 -10.7332 195.697 -14.7087 197.592C-17.2949 198.798 -19.9044 200.041 -22.5391 201.206C-22.479 201.173 -22.4179 201.144 -22.3588 201.109C-20.0237 199.791 -17.6497 198.523 -15.3795 197.094C-12.8815 195.909 -10.4135 194.671 -7.97951 193.314C-0.192139 189.02 6.94811 183.645 13.2288 177.35C16.3653 174.257 19.0938 170.775 21.348 166.99C23.6647 163.009 26.5127 159.538 28.369 155.275C29.3267 153.074 30.3367 150.874 31.2537 148.658C32.1014 146.393 32.7687 144.065 33.2496 141.694C34.5709 136.816 35.6325 131.871 36.43 126.88C37.0478 121.994 37.2262 117.063 36.9631 112.146C36.7315 107.545 36.0636 102.966 35.7185 98.3715C35.2423 93.5953 34.3945 88.8635 33.1827 84.2191C32.0496 79.4227 30.8795 74.6352 29.7202 69.8456C27.6788 61.4007 25.6974 53.076 25.364 44.3519C24.9941 36.1364 26.1163 27.9219 28.6762 20.1066C30.0327 16.2606 31.768 12.559 33.8564 9.05611C36.0859 5.17874 38.3057 1.19376 41.46 -2.0167C46.6638 -7.12409 52.2634 -11.8119 58.2064 -16.0363C64.1707 -20.4352 71.0201 -23.6719 77.7096 -26.7961C80.9501 -28.3082 84.1838 -29.7884 87.4379 -31.2201C88.0328 -31.2667 88.6125 -31.4315 89.143 -31.7048C89.8465 -32.1359 90.604 -32.4719 91.3957 -32.7042C91.6206 -32.8011 91.6797 -32.9776 91.9269 -32.9795C91.9516 -32.9798 91.9757 -32.9868 91.9967 -32.9997C92.0178 -33.0126 92.0349 -33.031 92.0463 -33.0528C92.0577 -33.0747 92.063 -33.0993 92.0616 -33.1239C92.0602 -33.1485 92.0522 -33.1723 92.0384 -33.1928C93.9053 -33.976 95.781 -34.7437 97.6761 -35.4843C99.2642 -36.042 100.882 -36.5103 102.523 -36.8869C104.171 -37.2126 105.796 -37.6439 107.389 -38.1781C107.703 -38.3012 108.034 -38.3776 108.37 -38.4049C108.71 -38.4388 109.054 -38.4427 109.374 -38.4456C110.472 -38.5782 111.545 -38.8688 112.559 -39.3083Z" fill="#F2A663"/>
<path d="M91.9295 -32.9806C91.6823 -32.9806 91.6232 -32.7993 91.3983 -32.7053C90.6066 -32.473 89.8491 -32.137 89.1455 -31.7059C88.615 -31.4326 88.0354 -31.2678 87.4405 -31.2212C87.3775 -31.2086 87.3154 -31.196 87.2631 -31.1825C86.2045 -30.9178 85.147 -30.659 84.104 -30.3401C80.1781 -29.1381 76.5014 -27.2547 72.7045 -25.726C65.6265 -22.772 58.9793 -18.877 52.9425 -14.1462C49.7169 -11.7805 46.6784 -9.16972 43.8539 -6.33719C41.0341 -3.48672 38.3802 -0.47681 35.9052 2.6777C31.3105 8.70897 28.4316 16.1661 26.5588 23.4634C24.499 31.4905 24.3972 39.9005 24.3991 48.138C24.3991 51.8506 24.5658 55.5176 24.8537 59.2186C24.9914 61.0002 24.9992 62.7838 25.1223 64.5655C25.2657 66.6505 25.6602 68.7133 25.9947 70.7693C27.2849 78.6539 28.4849 86.5299 29.5434 94.4455C29.8019 96.3687 29.9884 98.2984 30.1028 100.234C30.2317 102.334 30.159 104.422 30.4769 106.503C30.618 108.044 30.6443 109.592 30.5554 111.137C30.5554 113.13 30.5554 115.124 30.5554 117.118C30.5554 118.739 30.2326 120.334 30.2326 121.965C30.1755 123.967 29.9936 125.964 29.6879 127.943C29.462 129.751 29.242 131.559 28.9667 133.359C28.6652 135.326 28.1107 137.191 27.6425 139.116C27.2112 140.885 26.8787 142.668 26.3378 144.41C25.7232 146.391 25.0108 148.338 24.3342 150.298C23.7749 151.914 23.487 153.631 22.8191 155.207C21.9632 157.226 20.8523 159.122 20.0177 161.154C18.4566 164.555 16.5887 167.807 14.4372 170.869C12.2103 174.053 9.7911 177.098 7.19324 179.987C4.74902 182.662 2.01627 185.058 -0.95507 187.131C-2.46918 188.288 -3.93384 189.519 -5.44699 190.669C-6.09145 191.145 -6.75954 191.587 -7.44868 191.995C-8.15244 192.426 -8.69524 193.068 -9.38057 193.492C-10.3123 194.039 -11.2748 194.532 -12.2634 194.968C-13.3285 195.607 -14.3561 196.305 -15.3411 197.061L-15.3818 197.086C-17.654 198.514 -20.0279 199.782 -22.3611 201.101C-22.4202 201.133 -22.4813 201.163 -22.5414 201.197C-26.7018 203.53 -31.0639 205.438 -35.3707 207.465C-35.9125 207.72 -36.4554 207.97 -36.9953 208.23V207.515C-36.878 207.459 -36.7617 207.401 -36.6444 207.345C-35.7332 206.917 -34.8171 206.501 -33.8895 206.108C-32.1136 205.357 -30.4134 204.429 -28.6996 203.55C-26.8482 202.599 -24.9589 201.752 -23.1356 200.739L-22.1246 200.179C-18.9713 198.515 -15.9199 196.666 -12.9866 194.64C-12.3073 194.219 -11.5939 193.856 -10.854 193.554C-10.1038 193.132 -9.40895 192.617 -8.78544 192.024C-8.2617 191.639 -7.71098 191.292 -7.13754 190.986C-6.20947 190.363 -5.32171 189.681 -4.4796 188.945C-1.46881 186.522 1.69807 184.304 4.58381 181.726C5.92869 180.43 7.17667 179.037 8.31772 177.558C9.75332 175.837 11.2519 174.15 12.5828 172.348C13.6491 170.906 14.5729 169.361 15.5151 167.837C16.5882 166.098 17.7136 164.438 18.617 162.596C19.4506 160.898 20.1253 159.141 20.9725 157.446C21.9042 155.529 22.6582 153.531 23.2252 151.476C24.341 147.69 25.8357 144.083 26.6868 140.213C27.0677 138.484 27.6144 136.8 27.9731 135.067C28.4238 132.879 28.6613 130.648 28.9424 128.434C29.2599 126.574 29.4622 124.696 29.5483 122.811C29.5483 121.032 29.7131 119.363 29.8585 117.596C30.0087 115.782 29.873 113.901 29.874 112.08C29.9795 110.146 29.9413 108.207 29.7596 106.278C29.5731 104.594 29.4786 102.901 29.4766 101.207C29.3893 99.1081 29.1964 97.0133 28.9347 94.9302C28.4103 90.7727 27.9072 86.6181 27.2267 82.4809C26.5695 78.4814 25.9346 74.479 25.2822 70.4795C25.0108 68.8103 24.7297 67.1449 24.5455 65.4631C24.3351 63.5341 24.3856 61.5857 24.2334 59.6529C23.593 51.8484 23.5411 44.0069 24.0783 36.1947C24.5208 28.4751 26.2449 20.8829 29.1799 13.7292C30.5026 10.3672 32.1588 7.1461 34.1236 4.11428C36.2899 1.13768 38.654 -1.68983 41.1998 -4.34907C47.9988 -11.9032 56.3536 -17.5855 64.9982 -22.8102C65.9893 -23.3239 67.0062 -23.7863 68.0448 -24.1954C68.9851 -24.6384 69.8866 -25.1347 70.8502 -25.538C73.3995 -26.6091 75.9363 -27.7141 78.4982 -28.7552C80.8698 -29.7564 83.3113 -30.5832 85.8032 -31.229C86.9624 -31.3836 88.0942 -31.6994 89.1659 -32.1673C89.7126 -32.4882 91.2093 -32.5832 91.4826 -33.1929C91.495 -33.2151 91.5131 -33.2335 91.5352 -33.2461C91.5572 -33.2588 91.5823 -33.2652 91.6077 -33.2646H91.9304C91.9539 -33.2649 91.9769 -33.2583 91.9967 -33.2457C92.0165 -33.2332 92.0322 -33.2152 92.042 -33.1938C92.0558 -33.1733 92.0639 -33.1495 92.0652 -33.1248C92.0666 -33.1 92.0612 -33.0754 92.0497 -33.0535C92.0381 -33.0316 92.0208 -33.0133 91.9997 -33.0004C91.9785 -32.9876 91.9543 -32.9807 91.9295 -32.9806Z" fill="#F2A663"/>
<path d="M1.52352 13.1026C1.64566 12.9252 1.75908 12.743 1.87928 12.5646C3.70633 10.0081 5.6729 7.55419 7.77001 5.21408C10.1901 2.68044 12.7734 0.307901 15.5034 -1.88831C16.7831 -2.85255 18.0125 -3.88173 19.1869 -4.97179C20.2352 -6.18294 21.3628 -7.32314 22.5622 -8.38486C23.0944 -8.76857 23.6488 -9.12041 24.2226 -9.43853C24.876 -9.83693 25.4276 -10.3565 26.077 -10.7627C27.5911 -11.7078 29.1886 -12.5075 30.664 -13.5117C32.2275 -14.578 33.6108 -15.8304 35.2402 -16.8075C36.8319 -17.7652 38.4866 -18.6163 40.1577 -19.4247C43.533 -21.061 47.0236 -22.4529 50.4919 -23.8759C52.2068 -24.5673 53.9642 -25.1479 55.7535 -25.614C56.5881 -25.8389 57.4179 -26.0715 58.2428 -26.3323C59.1413 -26.6173 59.9139 -27.1203 60.7786 -27.4732C61.0956 -27.6031 61.4261 -27.7339 61.7634 -27.8609C62.568 -28.1772 63.4009 -28.4161 64.2508 -28.5744C64.6351 -28.6391 65.0242 -28.6715 65.414 -28.6713C66.4127 -28.6063 67.4142 -28.7461 68.3569 -29.0823C68.8474 -29.2762 69.9544 -28.6034 70.0882 -29.567C70.0882 -29.6009 70.1512 -29.5931 70.1473 -29.5592C70.0853 -28.9921 69.8216 -28.8729 69.2555 -28.9369C68.654 -28.9767 68.0532 -28.8495 67.5194 -28.5695C66.711 -28.4103 65.8814 -28.3894 65.066 -28.5075C63.2103 -28.327 61.4192 -27.7306 59.8257 -26.7627C58.28 -26.0345 56.6529 -25.4933 54.979 -25.1506C51.451 -24.0486 48.0024 -22.7068 44.6574 -21.1346C41.3513 -19.7409 38.1449 -18.1215 35.0609 -16.2879C33.5662 -15.3796 32.2702 -14.2116 30.8578 -13.186C29.4164 -12.1411 27.7986 -11.3443 26.2806 -10.4214C25.6321 -10.026 25.0689 -9.50445 24.4282 -9.09151C23.6711 -8.65999 22.9531 -8.16343 22.2821 -7.60744C21.1024 -6.52081 20.135 -5.25775 18.9679 -4.15948C17.7843 -3.04668 16.4098 -2.08315 15.1632 -1.03722C13.7673 0.13439 12.4009 1.33993 11.0638 2.5794C8.38073 5.03521 5.98737 7.7899 3.93044 10.7897C1.85992 13.8664 -0.916306 16.5951 -2.56903 19.9539C-4.34778 23.5589 -5.75431 27.3355 -7.16277 31.1014C-7.35664 31.6113 -7.52333 32.1318 -7.68424 32.6524C-7.66195 32.5777 -7.64741 32.5011 -7.62608 32.4255C-5.61998 25.5402 -2.53156 19.0177 1.52352 13.1026Z" fill="#F2A663"/>
<path d="M28.9548 -14.5349C28.9068 -14.4318 28.8531 -14.3315 28.7939 -14.2344C27.9322 -12.5952 25.7492 -11.6714 24.2089 -10.8717C20.9262 -9.09163 17.9316 -6.82519 15.3268 -4.14934C12.6527 -1.66804 10.1387 0.980356 7.79989 3.7799C5.58978 6.56967 3.85269 9.62504 1.8791 12.5641C1.7589 12.7425 1.64548 12.9247 1.52335 13.1021C-2.53226 19.0143 -5.62201 25.5337 -7.63017 32.4163C-7.65149 32.4919 -7.66603 32.5685 -7.68832 32.6431C-8.53476 35.8648 -9.16142 39.1404 -9.564 42.447C-9.61247 42.7834 -9.66096 43.1188 -9.70943 43.4552C-10.2503 47.1988 -10.7941 50.8949 -11.0519 54.6724C-11.2991 58.2803 -12.0009 61.8078 -12.0009 65.4321C-12.0009 65.69 -12.0222 65.9459 -12.0358 66.2028C-12.1182 67.7392 -12.3974 69.263 -12.474 70.8013C-12.5709 72.7177 -12.4798 74.6603 -12.474 76.5796C-12.474 77.4161 -12.759 78.3099 -12.8384 79.1522C-12.916 79.9733 -12.9354 80.8001 -12.948 81.6231C-13.0089 83.6271 -13.182 85.6261 -13.4666 87.6107C-13.9445 91.3262 -14.5154 95.0301 -15.1242 98.7262C-16.3756 106.32 -17.7327 113.884 -19.6656 121.339C-20.127 123.121 -20.6252 124.894 -21.1467 126.66C-21.5683 128.457 -22.1493 130.213 -22.8828 131.907C-23.6583 133.439 -24.5752 134.899 -25.375 136.422C-26.1418 138.001 -26.8109 139.626 -27.3786 141.287C-27.9001 142.685 -28.7871 144.001 -29.4472 145.343C-30.1694 146.815 -30.8334 148.317 -31.4877 149.821C-32.9531 152.864 -34.7536 155.733 -36.8559 158.376C-36.9014 158.438 -36.9431 158.503 -36.9887 158.565V157.489C-36.6746 157.072 -36.3625 156.654 -36.0629 156.229C-34.7804 154.649 -33.6588 152.945 -32.7149 151.143C-32.0131 149.506 -31.3025 147.874 -30.5513 146.258C-29.7021 144.432 -28.538 142.677 -27.8371 140.796C-27.3088 139.38 -26.6283 138.027 -26.1311 136.599C-25.4105 135.004 -24.5678 133.467 -23.6107 132.001C-22.7999 130.233 -22.1677 128.389 -21.7235 126.496C-21.1525 124.584 -20.6252 122.659 -20.124 120.728C-19.1547 116.981 -18.3133 113.198 -17.5766 109.397C-16.0877 101.718 -14.8372 93.959 -13.864 86.1974C-13.6362 84.3799 -13.5509 82.6109 -13.5034 80.7865C-13.454 78.9089 -13.042 77.0691 -13.0401 75.1954C-13.0401 73.4341 -13.1089 71.6573 -12.9722 69.8998C-12.8191 67.9456 -12.5632 66.0506 -12.5428 64.0838C-12.4515 62.311 -12.2547 60.5453 -11.9535 58.796C-11.7257 57.0056 -11.6267 55.1988 -11.4988 53.3987C-11.2836 50.354 -10.8251 47.3597 -10.3705 44.3508C-10.2962 43.8558 -10.2219 43.3598 -10.1475 42.8629C-9.9149 41.2916 -9.69195 39.7261 -9.42538 38.1684C-9.15881 36.6106 -8.85735 35.08 -8.45604 33.5514C-7.66133 30.591 -6.64951 27.6932 -5.42879 24.8815C-4.26332 22.0033 -2.887 19.215 -1.31103 16.5394C0.264158 13.9735 2.041 11.5347 3.63267 8.97849C5.2858 6.32255 7.16387 3.8134 9.24615 1.47868C11.3787 -0.909788 13.7701 -3.06173 16.0626 -5.2951C18.2223 -7.39968 20.667 -9.19043 23.3249 -10.6149C25.0251 -11.5338 27.6239 -12.3994 28.6718 -14.1753C28.7541 -14.2996 28.8282 -14.4291 28.8938 -14.563C28.9074 -14.596 28.9694 -14.5698 28.9548 -14.5349Z" fill="#F2A663"/>
<path d="M3.79545 3.5575C5.18742 2.06181 6.70348 0.664007 8.15749 -0.768684C9.75982 -2.34484 11.7228 -3.3423 12.8927 -5.35562C12.8963 -5.36176 12.9014 -5.36686 12.9075 -5.37043C12.9136 -5.374 12.9206 -5.37591 12.9277 -5.37598L13.4123 -5.36531C13.4203 -5.36531 13.4279 -5.36215 13.4336 -5.35651C13.4392 -5.35088 13.4424 -5.34323 13.4424 -5.33526C13.4424 -5.32729 13.4392 -5.31965 13.4336 -5.31402C13.4279 -5.30838 13.4203 -5.30522 13.4123 -5.30522C12.7919 -5.29261 12.4323 -4.4328 12.1037 -4.00435C11.6295 -3.42324 11.1217 -2.87041 10.5828 -2.34871C10.0981 -1.84465 9.34202 -1.49666 8.80694 -1.00132C8.16814 -0.408086 7.57199 0.234591 6.95936 0.854971C4.43722 3.29663 2.14087 5.9612 0.0983419 8.81619C-3.72281 14.3919 -6.1927 20.775 -8.22444 27.1824C-10.4682 34.0952 -12.3111 41.1317 -13.7439 48.2569C-15.2473 56.0116 -16.1304 63.8701 -17.0008 71.715C-17.8093 78.9938 -18.8106 86.2271 -19.8624 93.471C-20.0232 94.3618 -20.2593 95.2373 -20.5681 96.0882C-20.7379 96.9076 -20.8483 97.7383 -20.8986 98.5736C-21.035 99.2941 -21.2219 100.004 -21.4579 100.698C-21.7155 101.661 -21.9226 102.637 -22.0783 103.621C-22.8641 107.211 -23.8735 110.748 -25.1007 114.212C-26.2688 117.648 -27.2439 121.15 -28.4711 124.563C-29.6886 127.949 -31.0534 131.282 -32.4929 134.578C-33.8393 137.658 -35.3622 140.659 -36.9936 143.593V142.286C-33.7012 136.148 -30.9054 129.755 -28.633 123.171C-27.4349 119.778 -26.4287 116.288 -25.2926 112.864C-24.0755 109.357 -23.1095 105.768 -22.402 102.124C-22.1112 100.495 -21.4889 98.9701 -21.3299 97.3057C-21.26 96.5405 -21.1032 95.7857 -20.8627 95.0559C-20.6076 94.0527 -20.4246 93.0326 -20.315 92.0034C-19.7092 88.3519 -19.084 84.6868 -18.6381 81.012C-17.7153 73.4133 -16.9815 65.7933 -15.9307 58.2111C-14.8863 50.5706 -13.3165 43.0112 -11.2323 35.5866C-9.05417 27.8619 -6.78012 20.0906 -2.94346 13.0009C-1.10581 9.5806 1.15861 6.40745 3.79545 3.5575Z" fill="#F2A663"/>
<path d="M17.8652 -9.65039C17.2303 -9.16572 16.5944 -8.68104 15.9469 -8.21285C14.4803 -7.5586 13.0933 -6.73904 11.8126 -5.7701C9.1954 -3.83141 6.84571 -1.56121 4.09568 0.201057C2.76379 1.05505 1.29136 1.61824 -0.0191898 2.51004C-1.63281 3.68656 -3.18574 4.94412 -4.67203 6.27788C-16.1559 15.951 -24.9391 28.4759 -32.5494 41.2964C-34.0684 43.8564 -35.5544 46.4339 -36.9929 49.0424V47.8123C-36.2436 46.4679 -35.4924 45.1243 -34.7217 43.7925C-31.0856 37.3222 -27.0569 31.0806 -22.6582 25.1025C-20.5363 22.2914 -18.3088 19.5618 -16.0337 16.8738C-13.539 13.9669 -10.8779 11.2071 -8.06379 8.60818C-5.53753 6.14739 -2.81925 3.8917 0.0651798 1.86252C1.36992 0.984291 2.85978 0.432734 4.19069 -0.410596C5.69296 -1.40823 7.13346 -2.49588 8.50429 -3.66759C9.74505 -4.68347 10.9887 -5.68868 12.2983 -6.61149C12.5988 -6.82281 12.8993 -7.03509 13.2075 -7.23672C14.6897 -8.20315 16.3201 -8.82451 17.8652 -9.65039Z" fill="#F2A663"/>
<path d="M18.796 -9.85554C18.6555 -9.74407 18.5101 -9.63938 18.3686 -9.52984C18.1747 -9.38153 17.9867 -9.23904 17.7947 -9.09169C15.3714 -7.24994 12.8423 -5.56037 10.3918 -3.74867C8.8758 -2.62714 7.49741 -1.39704 6.07926 -0.162099C4.72218 1.01468 3.25649 2.04704 1.90329 3.22382C0.643143 4.31724 -0.376568 5.68305 -1.54657 6.87243C-2.98907 8.19978 -4.31574 9.64773 -5.51215 11.2006C-9.8141 17.4121 -14.5202 23.3173 -18.4374 29.7916C-20.2471 32.7811 -22.3332 35.5718 -23.6011 38.8569C-24.1827 40.3507 -25.0551 41.7853 -25.7647 43.219C-26.6235 44.9638 -27.4636 46.7193 -28.285 48.4854C-31.5943 55.6227 -34.1883 63.074 -36.9945 70.4168V68.5567C-36.9461 68.4306 -36.8976 68.3066 -36.8491 68.1805C-34.1349 61.0316 -31.5177 53.843 -28.2559 46.917C-26.7049 43.6212 -25.0376 40.3759 -23.5264 37.0578C-22.1354 34.0024 -20.0368 31.33 -18.3599 28.4306C-16.3962 25.2113 -14.2628 22.0986 -11.969 19.1056C-9.79375 16.1345 -7.75617 12.9715 -5.42684 10.1246C-4.27235 8.71419 -2.92985 7.46082 -1.64643 6.16965C-0.363024 4.87849 0.752674 3.47391 2.15338 2.30294C4.88886 0.0162601 7.63119 -2.32664 10.5092 -4.43303C12.0524 -5.56231 13.643 -6.62569 15.224 -7.70069C15.4693 -7.86742 15.7087 -8.04383 15.9472 -8.21735C16.5947 -8.68651 17.2306 -9.17118 17.8655 -9.65488C18.039 -9.78768 18.2135 -9.92145 18.3889 -10.0523C18.7679 -10.3363 19.1508 -10.6155 19.5425 -10.885C20.1665 -11.3003 20.82 -11.6696 21.4976 -11.99C22.1878 -12.3283 22.8731 -12.9342 23.5565 -13.2172C24.3688 -13.5546 25.2277 -13.6912 26.0652 -13.9481C26.8125 -14.1769 27.145 -14.9291 27.9428 -15.0658C27.9864 -15.0735 28.0048 -15.0086 27.9621 -14.9998C27.1537 -14.837 26.8377 -14.0828 26.101 -13.8172C25.1605 -13.6052 24.2573 -13.2526 23.4218 -12.7713C22.593 -12.1842 21.7272 -11.6512 20.8297 -11.1758C20.6611 -11.0789 20.4934 -10.9819 20.3247 -10.8801C19.7923 -10.5741 19.2815 -10.2317 18.796 -9.85554Z" fill="#F2A663"/>
<path d="M7.7906 103.25C7.55662 104.944 7.4371 106.652 7.43289 108.362C7.39513 110.364 7.21305 112.362 6.88811 114.339C6.25706 118.762 5.61922 123.183 4.90191 127.593C4.55876 129.697 4.18949 131.798 3.794 133.894C3.45447 136.188 2.9306 138.45 2.22751 140.66C0.805481 144.569 -0.823021 148.401 -2.5155 152.195C-4.22348 156.032 -5.90823 159.911 -7.82075 163.648C-9.78484 167.408 -11.9902 171.037 -14.4229 174.512C-16.667 177.768 -19.1 180.903 -21.4681 184.07C-23.8973 187.319 -26.9042 190.107 -29.661 193.075C-31.0753 194.6 -32.4973 196.118 -33.9571 197.599C-34.9119 198.569 -35.954 199.467 -36.9941 200.365V199.42C-35.1233 197.706 -33.2835 195.962 -31.5425 194.107C-28.6529 191.028 -25.5229 188.067 -22.8698 184.786C-20.3272 181.642 -17.9145 178.291 -15.5803 174.995C-13.1274 171.539 -10.8885 167.936 -8.87635 164.206C-6.89016 160.507 -5.24326 156.613 -3.51685 152.788C-1.6877 148.74 0.046463 144.65 1.58482 140.477C2.23985 138.44 2.7313 136.354 3.05439 134.238C3.49835 131.97 3.89091 129.692 4.26702 127.413C4.99403 123.003 5.62994 118.582 6.26292 114.159C6.58728 112.104 6.76315 110.028 6.78925 107.948C6.8399 106.125 6.9904 104.307 7.24001 102.501C7.35115 100.598 7.33913 98.6899 7.2041 96.7885C7.15176 94.6007 7.09071 92.4129 7.06938 90.2232C7.05 88.1429 7.08847 86.0631 7.18475 83.9835C7.29235 81.7453 7.63064 79.5323 7.71788 77.2892C7.79834 75.2226 7.73629 73.154 7.80415 71.0854C7.87685 68.8559 8.11918 66.6361 8.22581 64.4095C8.44189 60.2738 8.90573 56.1548 9.61486 52.0746C10.9719 44.0291 12.6577 35.9447 15.8905 28.4226C16.6553 26.6419 17.3444 24.836 18.1015 23.0515C18.8915 21.1855 20.0179 19.4698 20.9843 17.692C22.8095 14.2217 24.835 10.8605 27.0505 7.62534C29.2363 4.52343 31.1014 1.30812 33.6333 -1.55145C36.1276 -4.59742 38.8454 -7.45327 41.7642 -10.0953C47.5802 -14.9575 53.9188 -19.0481 60.1352 -23.3346C63.1712 -25.4293 66.7481 -26.5644 70.1767 -27.8139C71.9952 -28.4769 73.7002 -29.2989 75.5759 -29.7826C76.1316 -29.988 76.6738 -30.2279 77.1996 -30.5009C77.7346 -30.7171 79.1004 -30.9051 79.3127 -31.5139C79.3185 -31.5323 79.3486 -31.5245 79.3418 -31.5061C79.1731 -31.0021 78.1999 -30.8092 77.7743 -30.6531C77.1598 -30.4263 76.6179 -30.1035 76.0295 -29.8389C75.099 -29.423 74.0986 -29.2951 73.1729 -28.8278C69.7802 -27.1131 66.0424 -26.2106 62.6487 -24.4658C61.8368 -24.0492 61.0476 -23.5897 60.2845 -23.0893C59.5965 -22.511 58.8792 -21.9684 58.1355 -21.4637C56.2111 -20.4144 54.3863 -19.1918 52.6839 -17.8112C52.107 -17.2676 51.4854 -16.7734 50.8256 -16.3339C50.0003 -15.9053 49.2014 -15.4275 48.4333 -14.9032C46.7253 -13.74 45.2044 -12.317 43.603 -11.0181C40.5915 -8.54924 37.8357 -5.78402 35.3772 -2.7641C34.0055 -1.11621 32.5224 0.386269 31.2448 2.12915C30.0622 3.74117 29.0105 5.41814 27.9646 7.11643C25.929 10.4277 23.6626 13.611 21.8751 17.0832C21.0212 18.7379 20.0615 20.3315 19.195 21.9784C18.2159 23.8425 17.6285 25.8732 16.7716 27.7945C13.2994 35.5492 11.6049 43.904 10.1868 52.2375C9.47476 56.5923 9.01005 60.984 8.79485 65.3915C8.67853 67.4717 8.47784 69.5441 8.40709 71.6263C8.33536 73.848 8.4071 76.0698 8.30047 78.2905C8.20354 80.3737 7.88752 82.4345 7.78864 84.5176C7.68298 86.7597 7.68591 89.0066 7.71498 91.2497C7.76636 95.1862 8.31113 99.3418 7.7906 103.25Z" fill="#F2A663"/>
<path d="M-19.4483 172.793C-18.4789 171.234 -17.5948 169.624 -16.766 167.987C-15.8936 166.272 -15.3237 164.409 -14.4629 162.703C-13.6332 161.055 -12.751 159.442 -11.9426 157.784C-11.1293 156.106 -10.5593 154.332 -9.77321 152.642C-8.99773 150.98 -8.17283 149.351 -7.51367 147.638C-6.76825 145.699 -6.27098 143.65 -5.69325 141.661C-3.22929 133.708 -1.47755 125.551 -0.458771 117.288C-0.0574608 113.466 -0.0913773 109.422 0.813023 105.687C1.22596 103.983 0.973923 102.182 1.23758 100.452C1.5439 98.4329 1.56228 96.4254 1.70575 94.3907C1.84049 92.4908 1.99658 90.5948 2.03535 88.69C2.07316 86.7649 2.52002 84.8999 2.53262 82.9709C2.67575 81.2408 2.91394 79.5199 3.24608 77.8159C3.43381 75.9372 3.51987 74.0498 3.50392 72.1618C3.56689 68.2798 3.95012 64.4096 4.64969 60.5907C4.94825 58.8672 5.30979 57.1582 5.76636 55.4696C6.00966 54.5691 6.37026 53.6909 6.52342 52.772C6.71212 51.6417 6.90176 50.5108 7.0924 49.3793C7.31736 47.4483 7.68511 45.5367 8.19262 43.6601C8.82269 41.7331 9.39071 39.7828 9.96553 37.8441C11.0294 34.0366 12.2913 30.2872 13.746 26.6113C16.6638 19.3261 20.239 12.3218 24.4272 5.68509C26.1284 3.06204 27.9934 0.547568 29.8293 -1.98145C30.5085 -3.06051 31.2437 -4.10333 32.0317 -5.10565C32.5557 -5.76047 32.9743 -6.49306 33.2725 -7.27698C33.2725 -7.30121 33.3132 -7.29152 33.3093 -7.26729C33.2065 -6.9162 33.046 -6.58468 32.8343 -6.28631C32.7636 -6.16514 32.3846 -5.3315 32.3497 -5.29951C31.2291 -3.91262 30.2019 -2.45281 29.2749 -0.929714C27.1676 2.04617 25.0466 5.00752 23.1748 8.14044C21.1392 11.5506 19.3788 15.1537 17.6495 18.7267C15.79 22.469 14.1418 26.3127 12.7127 30.2396C11.4031 33.958 10.3804 37.7714 9.24242 41.544C8.662 43.3509 8.20153 45.194 7.86402 47.0615C7.51505 49.1624 7.16673 51.2627 6.81906 53.3623C6.67366 54.2347 6.26462 55.1401 6.03295 56.0028C5.80806 56.8413 5.62193 57.6885 5.44551 58.5376C5.03451 60.5141 4.72434 62.5119 4.42481 64.5127C3.82285 68.5238 4.06612 72.5262 3.79761 76.5558C3.68226 78.3006 3.21019 79.9417 3.03765 81.6633C2.95041 82.5357 2.99211 83.4081 2.96594 84.2805C2.93492 85.3022 2.67511 86.3229 2.54812 87.3339C2.31839 89.1912 2.41146 91.1279 2.27769 93.0007C2.13907 94.921 2.13228 96.8568 1.97234 98.7722C1.89964 99.6494 1.69999 100.517 1.59239 101.389C1.48479 102.262 1.54777 103.134 1.51287 104.007C1.47741 104.765 1.36699 105.517 1.18327 106.254C0.927139 107.494 0.767742 108.752 0.706409 110.017C0.389431 113.93 0.0695038 117.829 -0.50338 121.717C-1.85486 129.783 -3.77866 137.744 -6.26028 145.537C-7.29845 149.027 -9.12473 152.136 -10.3684 155.54C-10.9696 157.093 -11.6686 158.607 -12.4612 160.072C-13.3685 161.829 -14.1566 163.596 -14.9301 165.415C-17.8643 172.315 -22.4231 178.307 -26.8918 184.269C-30.0848 188.529 -33.4436 192.666 -36.9905 196.633V195.77C-33.0326 191.311 -29.3229 186.63 -25.7906 181.829C-23.6164 178.866 -21.3869 175.92 -19.4483 172.793Z" fill="#F2A663"/>
</svg>
