<svg width="288" height="263" viewBox="0 0 288 263" fill="none" xmlns="http://www.w3.org/2000/svg">
<path d="M164.096 345.79C164.063 344.238 164.015 342.74 163.854 341.198C163.66 339.353 163.943 337.668 163.192 335.891C162.731 334.54 162.471 333.128 162.42 331.701C162.223 329.846 161.633 328.105 161.355 326.272C161.156 324.959 160.258 323.612 160.29 322.3C160.327 320.818 159.37 319.27 158.988 317.845C158.593 316.372 158.237 314.882 157.775 313.428C157.482 312.719 157.231 311.994 157.025 311.256C156.908 310.354 156.724 309.463 156.474 308.588C155.857 306.834 155.231 305.084 154.55 303.354C153.869 301.624 152.954 299.996 152.338 298.247C151.845 296.649 151.183 295.107 150.362 293.649C149.245 291.832 148.01 290.089 146.667 288.432C145.656 287.186 144.81 285.758 143.857 284.459C142.656 282.833 141.43 281.225 140.179 279.638C138.026 276.898 136.035 274.124 133.322 271.894C131.944 270.763 130.721 269.463 129.41 268.254C128.042 266.989 126.618 265.779 125.225 264.54C122.316 262.021 119.162 259.798 115.81 257.906C113.09 256.325 110.672 254.315 107.799 252.967C104.926 251.62 102.076 250.278 99.1378 249.086C92.5816 246.427 85.8973 244.296 79.1315 242.237C66.5441 238.411 52.8063 237.559 41.3132 230.667C41.3063 230.663 41.3012 230.657 41.2991 230.649C41.2971 230.641 41.2982 230.633 41.3021 230.626C41.3061 230.619 41.3127 230.614 41.3204 230.612C41.3281 230.61 41.3363 230.611 41.3432 230.615C47.8537 234.15 55.0183 236.093 62.2004 237.722C69.4292 239.364 76.5967 240.968 83.6962 243.12C90.6447 245.227 97.4625 247.743 104.114 250.655C107.142 251.925 110.053 253.461 112.811 255.244C114.291 256.239 115.711 257.233 117.251 258.144C118.964 259.14 120.617 260.235 122.202 261.425C124.959 263.515 127.58 265.822 130.124 268.164C131.435 269.368 132.666 270.639 134.044 271.77C135.4 272.903 136.636 274.172 137.732 275.558C139.905 278.258 142.011 281.029 144.08 283.812C146.315 286.813 148.613 289.82 150.627 292.975C151.109 293.576 151.508 294.239 151.813 294.947C152.017 295.749 152.279 296.536 152.595 297.301C153.304 298.964 154.055 300.617 154.753 302.288C155.415 303.871 156.002 305.487 156.58 307.102C156.902 307.907 157.163 308.735 157.36 309.58C157.488 310.572 157.725 311.546 158.068 312.485C158.57 313.834 158.977 315.215 159.286 316.62L159.842 318.693C160.049 319.466 160.468 320.143 160.674 320.918C160.844 321.56 160.79 322.268 160.978 322.894C161.194 323.619 161.52 324.314 161.766 325.028C161.932 325.734 162.055 326.449 162.134 327.169C162.334 328.11 162.631 329.023 162.8 329.973C163.074 331.467 163.122 332.991 163.396 334.487C163.651 335.865 164.308 337.047 164.425 338.479C164.489 339.264 164.401 340.056 164.427 340.841C164.451 341.563 164.628 342.3 164.668 343.025C164.75 344.583 164.66 346.142 164.814 347.698C164.836 347.91 164.838 348.121 164.849 348.332C164.665 349.665 164.47 351.002 164.265 352.344C164.223 350.161 164.143 347.975 164.096 345.79Z" fill="#F2A663"/>
<path d="M165.353 344.355C165.3 343.196 165.196 342.037 165.107 340.879C164.816 337.136 164.307 333.413 163.581 329.729C162.213 322.782 160.323 315.907 158.301 309.127C157.168 305.675 155.838 302.291 154.316 298.991C153.611 297.353 152.775 295.77 152.039 294.144C151.272 292.353 150.353 290.631 149.291 288.998C147.179 285.883 145.062 282.777 142.776 279.788C140.464 276.764 137.914 273.917 135.38 271.079C133.946 269.468 132.355 268.003 130.784 266.53C129.382 265.219 128.24 263.594 126.687 262.443C126.648 262.414 126.684 262.348 126.725 262.376C127.873 263.21 128.929 264.163 129.875 265.221C131.225 266.591 132.681 267.848 134.066 269.186C136.805 271.882 139.378 274.742 141.77 277.75C143.961 280.457 145.958 283.274 147.947 286.129C149.044 287.562 150.053 289.061 150.967 290.617C151.87 292.332 152.629 294.12 153.456 295.872C154.937 299.012 156.387 302.154 157.657 305.391C158.961 308.708 159.76 312.177 160.871 315.557C161.953 318.851 162.555 322.334 163.379 325.7C164.24 329.219 164.664 332.743 165.258 336.299C165.497 337.732 165.633 339.179 165.745 340.628C165.661 341.502 165.572 342.378 165.479 343.256C165.44 343.624 165.394 343.99 165.353 344.355Z" fill="#8E3F32"/>
<path d="M97.3165 242.412C97.3863 242.66 97.4618 242.907 97.5298 243.156C97.5539 243.24 97.5871 243.316 97.6154 243.395C97.6021 244.111 97.709 244.824 97.9317 245.505C97.9804 245.679 98.0545 245.845 98.1514 245.997C72.6523 233.778 43.881 226.905 23.6242 205.953C10.0174 191.885 8.98821 170.104 9.01721 151.656C9.38385 147.378 9.66693 143.104 10.269 138.846C10.5267 137.043 10.7973 135.241 11.0622 133.438C11.3872 131.815 11.7354 130.196 12.0934 128.579C12.3513 127.727 12.6192 126.881 12.8439 126.054C13.132 124.973 13.3407 123.732 13.7184 122.692C13.946 122.069 14.1889 121.553 14.3981 121.012C14.189 122.427 13.7638 123.78 13.5944 125.206C13.5714 125.416 13.8941 125.437 13.9535 125.251C14.2358 124.36 14.4775 123.459 14.7386 122.561C14.9006 121.757 15.0215 120.945 15.1009 120.129C15.4017 118.524 15.8123 116.958 16.0262 115.333C16.4589 112.183 16.6272 109.003 16.5295 105.826C16.5094 105.33 16.4587 104.836 16.4176 104.341C16.5217 102.698 16.5674 101.053 16.5544 99.4067C16.6001 100.411 16.5954 101.422 16.5786 102.376C16.5512 103.939 16.9677 105.465 16.9822 107.025C16.9825 107.079 17.0041 107.131 17.0423 107.168C17.0805 107.206 17.1322 107.227 17.1859 107.227C17.2397 107.227 17.2911 107.205 17.3289 107.167C17.3667 107.129 17.3878 107.077 17.3875 107.023C17.5269 104.94 17.0897 102.832 17.1303 100.738C17.1887 98.7037 16.9894 96.6706 16.5372 94.6868C16.4304 94.2222 16.3096 93.7607 16.1959 93.2966C15.9202 90.7458 15.4816 88.2154 14.8826 85.7207C9.83431 64.7853 -14.0645 57.6247 -22.3371 39.1236L-20.2676 35.5391C-15.6578 46.2651 -5.63236 53.5431 3.06747 61.3821C12.1015 69.4718 18.006 80.4785 19.7492 92.4792C21.7609 105.559 17.8522 118.527 15.0843 131.2C14.2492 135.043 13.6164 138.927 13.1885 142.835L13.1832 142.845C12.6759 144.597 12.3181 146.389 12.1138 148.202C11.9879 149.125 11.8081 150.039 11.5751 150.94C11.4323 151.902 11.2181 152.851 10.9343 153.781C10.8681 153.929 11.084 154.057 11.1542 153.908C11.3291 153.535 11.4504 153.139 11.5145 152.732C11.8603 150.776 12.3479 148.853 12.6409 146.88C12.7285 146.288 12.8345 145.717 12.9494 145.155C12.8121 146.686 12.7018 148.218 12.6184 149.752C12.5788 149.94 12.5257 150.123 12.5002 150.317C12.3211 151.616 12.2169 152.924 12.1882 154.234C12.1662 155.823 12.3087 157.407 12.252 158.996C12.1919 160.713 12.0544 162.44 12.1495 164.162C12.1626 164.393 12.1827 164.622 12.1998 164.85C12.1097 166.222 12.0468 167.595 12.0517 168.968C12.1808 171.652 12.4498 174.326 12.8575 176.981C12.8575 177.014 12.8706 177.046 12.8938 177.069C12.9171 177.092 12.9487 177.105 12.9816 177.105C13.0145 177.105 13.0461 177.092 13.0695 177.069C13.0928 177.046 13.1059 177.014 13.1059 176.981C13.0664 175.502 12.9177 174.027 12.6611 172.57C12.507 171.09 12.451 169.601 12.4933 168.114C12.4994 167.832 12.5224 167.55 12.5327 167.271C12.6162 167.688 12.711 168.106 12.826 168.527C13.2086 169.931 12.9814 171.429 13.3725 172.857C13.3766 172.877 13.3849 172.896 13.3967 172.912C13.4086 172.929 13.4237 172.942 13.4413 172.952C13.4588 172.963 13.4783 172.969 13.4984 172.971C13.5185 172.973 13.5388 172.971 13.5581 172.964C13.6006 173.298 13.6388 173.631 13.6839 173.964C13.9981 176.272 14.4318 178.562 14.9832 180.825C15.2405 183.514 15.8154 186.162 16.6958 188.716C17.7983 191.818 19.2079 194.802 20.9035 197.624C22.8273 200.606 24.3902 203.878 26.9069 206.438C27.0309 206.564 27.1995 206.383 27.0971 206.25C25.8987 204.734 24.7947 203.146 23.7914 201.495C22.8442 199.89 21.8439 198.286 20.9579 196.651C20.1877 195.23 19.575 193.738 18.8682 192.287C18.0014 190.592 17.2849 188.824 16.7268 187.004C16.6282 186.658 16.5468 186.306 16.4689 185.954C18.9577 193.374 23.111 200.127 28.6109 205.694C30.0071 207.518 31.5399 209.232 33.1962 210.823C34.5885 212.148 36.1077 213.318 37.5019 214.639C38.727 215.86 40.0551 216.972 41.4714 217.965C43.1044 219.049 44.8601 219.963 46.5679 220.921C47.8764 221.724 49.2725 222.375 50.7288 222.861C50.9593 222.927 51.0454 222.578 50.8232 222.503C49.3031 221.915 47.849 221.168 46.4846 220.276C45.1733 219.498 43.8184 218.774 42.5369 217.948C39.9647 216.095 37.5308 214.057 35.2547 211.851C34.4912 211.186 33.7642 210.483 33.0532 209.768C33.1976 209.888 33.333 210.012 33.4816 210.127C39.209 214.904 45.5379 218.91 52.3066 222.041C59.8695 225.473 66.9596 229.426 74.7955 232.303C81.648 234.819 88.3924 237.594 95.0286 240.627C95.697 241.125 96.3345 241.661 96.9864 242.174C97.0932 242.262 97.2071 242.332 97.3165 242.412Z" fill="#8E3F32"/>
<path d="M15.5358 114.253C15.5725 114.162 15.4121 114.093 15.3731 114.186C14.8874 115.36 15.1375 116.808 14.868 118.056C14.7411 119.153 14.4564 120.226 14.0228 121.241C13.8629 121.518 13.6967 121.82 13.5559 122.131L13.9711 120.294C14.8063 116.567 15.4892 112.938 15.9434 109.344C15.8902 111.394 15.7157 113.44 15.4206 115.47C15.3537 115.061 15.3933 114.642 15.5358 114.253Z" fill="#8E3F32"/>
<path d="M12.6904 163.748C12.7315 164.452 12.7769 165.159 12.8306 165.863C12.7484 165.164 12.7054 164.461 12.6907 163.752L12.6904 163.748Z" fill="#8E3F32"/>
<path d="M161.579 375.448C161.783 367.755 163.108 360.005 164.267 352.347C164.47 351.007 164.665 349.67 164.852 348.335C165.039 347.001 165.206 345.674 165.352 344.355C165.394 343.991 165.44 343.622 165.479 343.26C165.572 342.381 165.66 341.505 165.745 340.632C165.916 338.869 166.061 337.114 166.182 335.368C166.247 334.413 166.301 333.46 166.344 332.509C166.372 331.929 166.397 331.349 166.415 330.772C166.435 330.111 166.447 329.447 166.455 328.787C166.562 320.239 165.561 311.857 162.097 303.525C156.474 289.999 147.459 280.075 136.816 270.365C133.975 267.772 131.474 264.908 128.371 262.601C125.461 260.44 121.98 258.831 118.844 257.02C112.559 253.391 106.22 249.943 99.7053 246.754C99.9668 246.751 100.224 246.688 100.458 246.57C100.691 246.452 100.894 246.282 101.052 246.073C101.21 245.864 101.317 245.622 101.367 245.365C101.416 245.108 101.406 244.844 101.338 244.591C101.251 244.253 101.214 243.903 101.226 243.554C105.127 245.45 108.986 247.433 112.803 249.502C121.944 254.475 130.684 259.337 138.093 266.694C144.912 273.466 151.815 279.277 157.323 287.293C167.253 301.742 172.155 319.45 169.763 336.947C167.927 350.401 165.338 364.105 165.461 377.685L161.579 375.448Z" fill="#8E3F32"/>
<path d="M97.8334 241.984L97.8127 242.09C97.7825 242.073 97.7578 242.049 97.7341 242.032C97.7197 241.976 97.7043 241.921 97.6885 241.865C97.7418 241.889 97.7938 241.913 97.8457 241.938C97.8371 241.951 97.8357 241.967 97.8334 241.984Z" fill="#8E3F32"/>
<path d="M99.7042 246.757C99.4004 246.789 99.0936 246.735 98.8192 246.601C98.5447 246.466 98.3137 246.258 98.1525 245.998C98.0556 245.846 97.9815 245.68 97.9328 245.506C97.7101 244.825 97.6032 244.112 97.6164 243.396C97.7887 243.848 98.047 244.232 98.1978 244.716C98.2737 245.087 98.4586 245.428 98.7288 245.694C98.9383 245.88 99.2464 245.573 99.0391 245.387C98.5439 244.948 98.6681 244.246 98.3568 243.723C98.1977 243.447 98.068 243.156 97.9699 242.854C98.6101 243.242 99.3041 243.534 100.029 243.72C100.082 243.902 100.148 244.074 100.198 244.258C100.211 244.309 100.244 244.352 100.289 244.378C100.335 244.404 100.388 244.411 100.439 244.398C100.489 244.384 100.532 244.351 100.558 244.306C100.584 244.261 100.591 244.207 100.578 244.157C100.549 244.048 100.521 243.94 100.493 243.832C100.547 243.842 100.596 243.86 100.65 243.869C100.924 243.916 101.04 243.499 100.76 243.445C100.626 243.419 100.497 243.385 100.367 243.351C100.193 242.683 100.019 242.014 99.8187 241.356C99.2276 239.521 98.4377 237.756 97.4628 236.093C96.9888 234.813 96.4039 233.577 95.7147 232.398C92.7515 227.118 88.4271 222.976 86.5489 217.086C84.8985 211.907 85.5622 206.153 86.3509 200.892C87.4209 193.487 89.194 186.202 91.6462 179.134C93.7379 173.185 96.8153 167.721 99.3239 161.959C102.29 155.164 107.356 149.372 110.158 142.489C112.823 135.933 116.461 130.062 118.741 123.317C121.304 115.737 122.851 108.915 121.235 100.926C120.069 95.1606 118.569 89.1022 115.761 83.9181C112.103 77.1635 106.659 71.2544 101.094 66.0347C89.5845 55.2402 75.3547 48.3309 60.6498 43.0433C47.0634 38.1564 32.9803 34.5195 20.1189 27.8282C12.8248 24.0334 5.65748 19.17 0.520219 12.7252C-0.322477 11.0015 -1.10072 9.25791 -1.81451 7.49444C-2.12687 6.71714 -2.42748 5.93244 -2.71636 5.14033L-1.30258 2.69159C1.638 10.3821 8.48081 16.362 15.9298 21.1272C28.8183 29.371 43.8246 33.2991 58.1648 38.1813C71.9762 42.8858 85.1104 48.7015 96.827 57.5211C106.429 64.7528 116.899 74.9794 121.17 86.5072C125.259 97.5332 127.477 109.288 123.631 120.647C121.638 126.987 119.001 133.107 115.759 138.908C113.997 141.96 113.146 145.43 111.374 148.499L105.869 158.033C104.191 160.94 102.158 163.762 101.682 167.145C101.254 170.212 97.6424 173.708 96.5423 176.646C93.8805 183.825 91.8624 191.225 90.5116 198.761C89.2284 205.698 88.3146 213.022 91.5519 219.574C94.2746 225.085 98.7249 229.371 101.067 235.15C101.781 236.737 102.051 238.488 101.846 240.217C101.714 241.415 101.254 242.449 101.226 243.553C101.214 243.902 101.252 244.251 101.338 244.59C101.408 244.843 101.418 245.108 101.369 245.366C101.32 245.623 101.212 245.866 101.054 246.076C100.897 246.285 100.693 246.455 100.459 246.574C100.225 246.692 99.9665 246.755 99.7042 246.757Z" fill="#8E3F32"/>
<path d="M97.8378 241.939C98.0856 240.826 98.1476 239.679 98.0215 238.546C98.7534 240.047 99.3678 241.603 99.8593 243.199C99.1288 242.927 98.4394 242.555 97.8106 242.094L97.8313 241.989C97.8361 241.967 97.8375 241.951 97.8378 241.939Z" fill="#8E3F32"/>
<path d="M79.2886 211.224C76.6825 205.203 76.31 198.609 77.1177 192.151C77.4775 188.718 78.4693 185.382 80.043 182.311C80.8824 180.743 81.4289 179.075 82.1536 177.457C82.9753 175.821 83.8797 174.228 84.8634 172.684L96.2013 153.046C98.1322 149.702 99.917 146.376 101.535 142.87C103.027 139.636 105.145 136.725 106.315 133.342C106.843 132.043 107.495 130.798 108.26 129.624C109.157 128.071 109.125 126.169 109.681 124.496C110.793 121.177 111.353 117.698 111.341 114.197C111.328 112.703 111.704 111.13 111.783 109.624C111.875 107.818 111.84 106.008 111.678 104.207C111.286 100.631 110.329 97.1404 108.84 93.8657C105.809 87.0705 101.881 80.7117 97.1622 74.9587C94.7449 72.0509 92.0428 69.3921 89.0962 67.0223C86.2142 64.6218 82.8795 62.9395 79.9384 60.6415C76.9497 58.484 73.811 56.5425 70.5461 54.8316C67.3028 53.0242 63.967 51.3879 60.5526 49.9293C53.653 46.886 46.6404 44.0752 39.7081 41.1059C32.9955 38.2311 26.0948 35.8778 19.8049 32.1041C16.3739 30.0596 13.1022 27.7591 10.0175 25.2222C8.80169 24.0322 7.62111 22.8201 6.48329 21.561C6.23204 21.2827 5.99046 20.9954 5.74212 20.7121C9.78818 24.7039 14.289 28.2068 19.1522 31.1487C25.3059 34.9623 32.0576 37.4109 38.7194 40.1624C45.6867 43.0399 52.6569 45.9707 59.5781 48.9592C63.0002 50.4358 66.3887 51.9958 69.6694 53.7657C72.893 55.3904 76.0044 57.2287 78.9829 59.2682C80.308 60.2359 81.5431 61.2993 82.9577 62.1429C84.6794 63.1596 86.345 64.2684 87.9472 65.4646C90.8902 67.6997 93.6235 70.1983 96.1132 72.9293C100.901 78.3307 104.913 84.373 108.032 90.8819C109.534 93.8359 110.709 96.9445 111.537 100.153C112.266 103.391 112.519 106.718 112.287 110.03C112.207 111.55 111.861 113.095 111.871 114.61C111.865 116.303 111.714 117.991 111.419 119.658C111.154 121.221 110.783 122.765 110.31 124.278C110.063 125.083 109.962 125.921 109.741 126.733C109.627 127.601 109.407 128.451 109.085 129.265C108.191 130.587 107.437 131.999 106.834 133.477C106.326 134.941 105.686 136.356 104.921 137.703C104.088 139.249 103.168 140.739 102.391 142.315C101.521 144.087 100.774 145.918 99.8826 147.68C98.1626 151.084 96.0802 154.34 94.1735 157.642L88.4408 167.571L83.029 176.945C82.1411 178.483 81.7109 180.238 80.9309 181.829C80.0158 183.552 79.2511 185.35 78.6454 187.203C77.6817 190.819 77.2426 194.555 77.3416 198.296C77.2848 201.755 77.7888 205.2 78.8339 208.497C80.8559 214.632 84.763 219.693 88.8204 224.6C89.2404 225.423 89.6562 226.238 90.1423 227.017C86.01 222.085 81.8716 217.188 79.2886 211.224Z" fill="#F2A663"/>
<path d="M100.575 244.155C100.588 244.205 100.581 244.259 100.555 244.304C100.529 244.349 100.486 244.382 100.436 244.396C100.385 244.409 100.332 244.402 100.286 244.376C100.241 244.35 100.208 244.307 100.195 244.256C100.145 244.072 100.079 243.9 100.026 243.718C100.179 243.758 100.331 243.8 100.49 243.83C100.52 243.935 100.546 244.046 100.575 244.155Z" fill="#F2A663"/>
<path d="M98.0236 238.542C96.117 234.806 93.7743 231.309 91.0447 228.124C91.066 228.117 91.0857 228.106 91.1021 228.091C91.1185 228.076 91.1313 228.058 91.1393 228.037C91.1474 228.016 91.1506 227.994 91.1487 227.972C91.1468 227.95 91.1398 227.928 91.1283 227.909C90.749 227.363 90.4151 226.788 90.1299 226.188C90.3119 226.406 90.4949 226.624 90.6787 226.84C90.8532 227.073 91.021 227.31 91.1978 227.541C91.2099 227.558 91.2262 227.571 91.245 227.58C91.2637 227.589 91.2846 227.594 91.3054 227.593C93.5975 230.243 95.6572 233.086 97.4616 236.09C98.4364 237.753 99.2264 239.517 99.8175 241.352C100.022 242.01 100.194 242.679 100.366 243.347C100.195 243.302 100.027 243.25 99.863 243.192C99.3709 241.597 98.7559 240.042 98.0236 238.542Z" fill="#F2A663"/>
<path d="M96.0492 238.273C96.0156 238.175 95.9878 238.073 95.9529 237.975C95.8919 237.798 95.8159 237.631 95.7503 237.457C95.8934 237.512 96.0383 237.565 96.1817 237.621C96.2146 237.633 96.2503 237.635 96.2841 237.626C96.3178 237.616 96.3479 237.597 96.3702 237.57C96.5253 237.995 96.6578 238.429 96.7985 238.864C96.5465 238.67 96.2965 238.473 96.0492 238.273Z" fill="#F2A663"/>
<path d="M97.6846 241.857C97.7003 241.913 97.7157 241.968 97.7301 242.024C97.5053 241.863 97.2838 241.696 97.0642 241.528C96.8114 240.656 96.5439 239.79 96.2617 238.93C96.4961 239.105 96.7436 239.272 96.99 239.436C97.235 240.24 97.4666 241.047 97.6846 241.857Z" fill="#F2A663"/>
<path d="M97.3164 242.412C97.5303 242.567 97.7458 242.717 97.9662 242.851C98.0643 243.154 98.194 243.445 98.3531 243.72C98.6643 244.244 98.54 244.948 99.0354 245.385C99.2452 245.572 98.9346 245.877 98.7251 245.691C98.4548 245.425 98.2699 245.085 98.1941 244.713C98.0466 244.232 97.7883 243.848 97.6127 243.394C97.5836 243.314 97.5504 243.238 97.5272 243.154C97.4617 242.907 97.3862 242.66 97.3164 242.412Z" fill="#F2A663"/>
<path d="M6.48219 21.5612C7.62001 22.8203 8.80479 24.0349 10.0164 25.2225C11.0929 26.2794 12.1894 27.3155 13.2967 28.3386C14.4269 29.3841 15.5685 30.4136 16.7158 31.4431C18.1166 32.6567 19.6436 33.7166 21.2705 34.6045C21.8546 34.8339 22.396 35.1597 22.8721 35.5683C23.4297 36.2853 24.1095 36.8984 24.8801 37.3791C26.3387 38.3656 27.9301 39.1803 29.4539 40.0578C30.5513 40.6337 31.5263 41.4174 32.3245 42.3655C32.8835 43.0375 34.17 43.2015 34.973 43.4469C35.7826 43.731 36.5559 44.1095 37.277 44.5745C40.4284 46.394 43.5796 48.6073 46.9726 49.9384C50.0274 51.2449 52.9791 52.7803 55.8026 54.5315C57.1659 55.3186 58.7347 55.6334 60.1447 56.3165C61.9745 57.2028 63.7141 58.3639 65.4758 59.3799C66.9432 60.2271 68.4109 61.0744 69.8788 61.922C71.546 62.8845 72.8712 64.329 74.5143 65.3314C75.9064 66.1668 77.2267 67.1163 78.4618 68.1701C80.0166 69.5155 81.2099 71.2018 82.8391 72.4434C83.98 73.4538 85.0216 74.5709 85.9498 75.7796C86.5657 76.4732 87.1812 77.1669 87.7961 77.8608C88.5169 78.4878 89.1521 79.2067 89.6855 79.9992C90.4173 81.6765 91.2832 83.2845 92.1385 84.901C93.054 86.6306 93.7059 88.3803 94.4497 90.1764C95.0306 91.5763 95.5922 92.9862 96.0847 94.419C96.3428 95.168 96.5273 95.9438 96.7347 96.7071C96.9715 97.5804 97.4927 98.4689 97.669 99.3307C99.0726 105.405 99.2977 111.693 98.3322 117.852C96.7211 124.772 94.2527 131.463 90.9841 137.772C87.2459 144.491 83.7642 151.343 80.0298 158.065C78.2208 161.295 76.6321 164.643 75.2748 168.087C73.9981 171.445 73.0236 174.911 72.3627 178.443C71.7411 181.581 71.5927 184.795 71.9224 187.978C72.2112 190.967 72.9898 193.884 73.3728 196.865C73.7015 199.901 74.349 202.894 75.3049 205.795C76.3826 208.75 77.7 211.613 79.2439 214.354C80.7777 217.378 82.7144 220.18 85.0011 222.683C86.1125 223.825 87.3156 224.878 88.5084 225.931C89.6432 227.087 90.6778 228.337 91.6007 229.668C93.5172 231.914 95.0736 234.444 96.2144 237.167C95.9843 237.071 95.7515 236.978 95.522 236.879C94.0643 233.819 92.1766 230.982 89.9163 228.456C88.8617 227.17 87.7065 225.969 86.4617 224.866C85.0967 223.662 83.8349 222.346 82.6894 220.931C80.6544 218.205 78.9072 215.275 77.476 212.189C76.0286 209.37 74.8505 206.421 73.9571 203.381C73.0963 200.256 72.9085 197.055 72.3242 193.881C71.7334 190.662 71.3349 187.41 71.1307 184.144C71.0891 182.601 71.2358 181.058 71.5675 179.551C71.9044 177.701 72.196 175.816 72.7016 174.005C74.6275 167.112 77.8182 160.847 81.3146 154.64C83.1868 151.318 84.891 147.903 86.6538 144.522C88.4167 141.141 90.424 137.877 92.0615 134.436C93.6543 130.957 95.0233 127.379 96.16 123.725C97.2903 120.437 98.0175 117.023 98.3258 113.559C98.5385 110.283 98.3938 106.994 97.8945 103.75C97.3751 100.491 96.5478 97.2882 95.4238 94.1852C94.2289 90.6738 92.7604 87.2615 91.0317 83.9799C90.2366 82.1836 89.2268 80.4904 88.0242 78.9371C86.7226 77.4693 85.4123 76.0088 84.1406 74.5145C83.5794 73.8342 82.9464 73.2166 82.2526 72.6723C81.6437 72.2154 81.0912 71.6879 80.6067 71.1009C79.2669 69.5457 77.7449 68.1573 76.0734 66.9658C74.74 66.0068 73.3217 65.2316 72.043 64.1912C70.4759 62.9659 68.811 61.8709 67.0651 60.9175C63.7911 59.0272 60.6337 56.9972 57.0714 55.7073C53.8854 54.5506 51.2489 52.1688 48.0863 50.9272C44.8902 49.551 41.8025 47.9356 38.8495 46.0946C37.3379 45.1032 35.7097 44.3023 34.0018 43.71C33.3497 43.5604 32.7281 43.2999 32.1641 42.94C31.7511 42.5384 31.3678 42.1072 31.0173 41.6499C30.4566 41.1982 29.8431 40.8163 29.1904 40.5123C28.4186 40.0668 27.6468 39.6212 26.8751 39.1756C25.6508 38.522 24.4856 37.7632 23.3927 36.9077C23.0037 36.4659 22.577 36.0588 22.1173 35.6911C21.4021 35.2782 20.6874 34.8656 19.9733 34.4533C18.6739 33.7048 17.4602 32.8164 16.354 31.804C12.493 28.4391 8.83679 24.8461 5.40492 21.0445C5.13062 20.7305 4.86451 20.4102 4.59528 20.0913C4.00849 19.1496 3.43994 18.1957 2.88965 17.2295C3.79339 18.4307 4.74637 19.5931 5.73352 20.7216C5.98935 20.9957 6.23094 21.283 6.48219 21.5612Z" fill="#F2A663"/>
<path d="M97.7277 242.029C97.7571 242.046 97.7818 242.069 97.8063 242.087C98.4351 242.548 99.1245 242.919 99.855 243.191C100.019 243.249 100.187 243.301 100.358 243.346C100.487 243.379 100.616 243.414 100.751 243.44C101.033 243.491 100.915 243.91 100.641 243.864C100.586 243.855 100.538 243.837 100.484 243.827C100.325 243.797 100.171 243.759 100.02 243.715C99.2949 243.529 98.6009 243.237 97.9608 242.849C97.7404 242.715 97.5249 242.564 97.311 242.41C97.2016 242.33 97.0877 242.259 96.979 242.174C96.3254 241.66 95.6915 241.122 95.0211 240.628C94.9951 240.613 94.9739 240.589 94.9494 240.572C94.1489 240.075 93.3136 239.637 92.4501 239.261C90.8835 238.424 89.1271 238.022 87.5609 237.171C86.7726 236.76 85.9498 236.419 85.102 236.151C84.24 235.86 83.4213 235.369 82.5574 235.111C79.2916 234.133 76.3204 232.162 73.3927 230.473C70.0723 228.556 66.7521 226.639 63.4323 224.722C62.0762 224.017 60.777 223.207 59.5462 222.301C58.0987 221.145 56.5941 220.063 55.0379 219.059C52.0774 217.031 49.3258 214.715 46.8238 212.143C44.207 209.72 41.7545 207.126 39.4828 204.377C37.6396 201.953 36.0132 199.371 34.6224 196.662C28.7396 185.11 26.3592 172.09 27.7738 159.204C28.663 151.895 30.4697 144.727 33.1514 137.87C35.8833 130.812 38.5225 123.72 40.5716 116.431C42.2893 110.31 43.7533 103.941 43.1917 97.5468C42.9116 94.3484 41.6962 91.3431 41.3025 88.1631C40.9768 86.4453 40.45 84.7719 39.7331 83.1772C39.1005 81.3933 38.3434 79.656 37.4672 77.9783C35.6307 74.8359 33.3669 71.9636 30.7404 69.4438C28.1376 66.6647 25.2957 64.1195 22.2477 61.8374C16.4703 57.6064 10.4628 53.6847 4.80501 49.2854C-0.295243 45.2565 -4.90212 40.6397 -8.92006 35.5308C-10.8677 33.0964 -12.6375 30.5249 -14.2155 27.8362C-14.4901 27.3677 -14.7427 26.8882 -14.9949 26.408L-14.7041 25.9043C-11.1617 32.2178 -6.71694 37.9804 -1.51021 43.0101C3.78284 48.3282 10.1275 52.2745 16.0732 56.7762C18.8773 58.8987 21.9029 60.7015 24.6348 62.9179C27.5029 65.3243 30.2145 67.9112 32.7531 70.663C35.0842 73.0493 37.0437 75.7722 38.5662 78.7404C39.2624 80.1215 39.8554 81.5522 40.3405 83.0208C40.8765 84.6399 41.7068 86.0303 41.8828 87.7493C42.2109 90.9519 43.4197 93.9802 43.79 97.1792C44.0797 100.215 43.9817 103.275 43.4983 106.286C42.3972 112.925 40.6679 119.445 38.3338 125.757C37.0701 129.438 35.691 133.081 34.2925 136.715C33.6235 138.456 32.8502 140.183 32.3407 141.979C31.8112 143.832 31.2886 145.687 30.7947 147.549C26.8849 160.909 27.2372 175.156 31.8025 188.307C32.8657 191.422 34.1856 194.444 35.7486 197.34C37.1852 200.262 39.0198 202.971 41.2 205.389C45.5192 209.763 49.5904 214.404 54.6385 217.979C55.7671 218.777 57.0166 219.404 58.11 220.246C59.2396 221.223 60.4326 222.124 61.6812 222.944C64.4157 224.522 67.1501 226.101 69.8846 227.68C74.997 230.631 80.0191 233.741 85.6284 235.65C86.8443 236.064 87.9122 236.687 89.0747 237.209C90.5493 237.871 92.0684 238.421 93.5421 239.091C94.8101 239.761 95.9935 240.58 97.0671 241.531C97.2814 241.701 97.5029 241.868 97.7277 242.029Z" fill="#8E3F32"/>
<path d="M46.3483 126.725C46.6522 125.94 46.9461 125.151 47.2299 124.358C47.3368 124.148 47.4375 123.939 47.522 123.732C47.8578 122.912 48.1677 122.077 48.5345 121.269C48.9599 120.338 49.4464 119.455 49.8398 118.521C49.2043 120.204 48.7573 121.963 48.1658 123.664C46.3173 128.977 44.0183 134.112 42.0381 139.378C42.3845 138.158 42.7296 136.938 43.1138 135.731C44.0911 132.668 45.5773 129.846 46.3483 126.725Z" fill="#8E3F32"/>
<path d="M82.8863 231.828C82.6122 231.612 82.3362 231.398 82.0485 231.198C80.5724 230.17 78.9842 229.317 77.4419 228.394C74.3724 226.563 71.9201 223.74 69.2646 221.385C66.6092 219.031 63.8989 216.721 61.2467 214.349C58.0517 211.546 55.0531 208.528 52.272 205.314C51.9796 204.941 51.6803 204.573 51.392 204.196C47.7178 199.528 44.639 194.421 42.2266 188.992C42.2699 189.102 42.3207 189.208 42.3786 189.311C43.3443 190.875 43.7291 192.531 44.9667 193.951C47.2827 196.607 48.7869 199.816 50.9111 202.621C56.6429 210.194 64.3073 216.031 71.314 222.341C73.2117 224.232 75.2421 225.986 77.3896 227.587C79.3258 228.887 81.4209 229.891 83.2923 231.293C83.8114 231.681 84.2924 232.112 84.7808 232.534C84.2167 232.309 83.649 232.094 83.0798 231.896C83.0151 231.874 82.9509 231.851 82.8863 231.828Z" fill="#8E3F32"/>
<path d="M36.627 166.284L36.6279 166.232L36.6301 166.333C36.6307 166.317 36.6263 166.303 36.627 166.284Z" fill="#8E3F32"/>
<path d="M39.4261 180.652C39.3216 179.288 39.1325 177.932 38.8598 176.592C38.5278 175.112 38.121 173.649 37.7312 172.184C37.4856 170.327 37.3171 168.475 37.255 166.638C37.2178 163.185 37.4155 159.733 37.8468 156.307C38.0097 153.075 38.6014 149.878 39.6064 146.802C39.0287 148.9 38.5771 151.032 38.254 153.184C38.0077 154.871 37.9768 156.573 37.7513 158.26C37.5002 160.182 37.3483 162.115 37.2965 164.052C37.2122 165.951 37.3721 167.852 37.7724 169.71C38.1831 171.543 38.7159 173.346 39.1805 175.164C39.6257 176.674 39.8979 178.23 39.9917 179.802C39.988 181.6 40.3134 183.383 40.9518 185.064C41.2089 185.692 41.4253 186.336 41.6343 186.984C41.7947 187.481 41.8936 188.047 42.0601 188.572C41.8083 187.964 41.5591 187.354 41.3305 186.734C40.6105 184.759 39.978 182.722 39.4261 180.652Z" fill="#8E3F32"/>
<path d="M51.1995 113.705C51.5175 112.908 51.83 112.107 52.1237 111.296C53.1873 108.005 53.6855 104.558 53.5972 101.101C53.71 97.8131 53.5116 94.5217 53.0047 91.2709C52.4038 88.006 51.3785 84.8338 49.9548 81.8349C49.3466 80.5524 48.671 79.303 47.9307 78.0919C47.0432 76.2097 46.0186 74.3952 44.8652 72.6631C47.9841 76.5087 50.4391 80.8481 52.1289 85.5022C54.2623 91.547 54.511 97.9889 54.1191 104.336C53.9127 107.513 53.1716 110.632 51.9269 113.562C51.2559 115.189 50.5134 116.785 49.8863 118.428C50.009 118.128 50.1228 117.825 50.2211 117.511C50.5987 116.256 50.9113 114.984 51.1995 113.705Z" fill="#8E3F32"/>
<path d="M44.1657 72.77C42.1626 70.3226 39.9781 68.0295 37.6307 65.91C32.0887 60.9903 26.2222 56.4489 20.0708 52.3165C16.949 50.1627 13.8187 48.0062 10.8221 45.6762C9.23549 44.4423 7.75793 43.0117 6.12555 41.8453C4.70024 40.8322 3.30845 39.7745 1.95015 38.6724C-1.95091 35.5091 -5.42181 31.8496 -8.37431 27.7867C-9.76195 25.5929 -10.8968 23.2492 -11.7571 20.8001L-11.5303 20.4072C-10.6442 22.4533 -9.65806 24.4733 -8.64598 26.4019C-7.65034 28.095 -6.46949 29.6721 -5.1252 31.1042C-3.88666 32.5356 -2.57559 33.9026 -1.19713 35.1999C0.0398853 36.3763 1.34335 37.4803 2.67089 38.5524C4.13719 39.7291 5.76933 40.733 7.18368 41.9649C13.2181 47.2162 20.0561 51.4462 26.5392 56.1048C31.2724 59.4218 35.7347 63.1094 39.8842 67.1327C39.9938 67.2609 40.1089 67.3833 40.2235 67.5144C41.6403 69.1869 42.9567 70.9418 44.1657 72.77Z" fill="#8E3F32"/>
<path d="M86.9727 234.154C87.7494 234.662 88.5408 235.145 89.3468 235.604C91.5234 236.842 93.7949 237.901 95.9549 239.17C96.0099 239.201 96.0501 239.254 96.0665 239.315C96.0829 239.376 96.0743 239.442 96.0426 239.497C96.0108 239.552 95.9585 239.592 95.8972 239.608C95.8359 239.625 95.7705 239.616 95.7155 239.584C92.4184 237.761 88.9515 236.279 85.8269 234.149C85.4431 233.887 85.0762 233.604 84.7149 233.315C85.1142 233.463 85.5138 233.611 85.9138 233.759C86.2675 233.89 86.6205 234.022 86.9727 234.154Z" fill="#8E3F32"/>
<path d="M38.9019 146.91C39.4777 144.763 40.1629 142.644 40.912 140.553C41.1572 139.869 41.4125 139.19 41.6699 138.512C41.0232 140.778 40.3875 143.048 39.5441 145.247C39.3243 145.82 39.1078 146.367 38.9019 146.91Z" fill="#8E3F32"/>
<path d="M39.6797 183.798C39.6313 183.687 39.5987 183.569 39.583 183.448C39.6185 183.581 39.6564 183.709 39.6992 183.842C39.6927 183.828 39.6871 183.813 39.6797 183.798Z" fill="#8E3F32"/>
<path d="M92.4646 236.211C90.6357 235.521 88.8042 234.836 86.9699 234.158C86.6158 234.028 86.2631 233.896 85.9118 233.763C85.5099 233.615 85.1102 233.467 84.7129 233.319C82.1597 232.524 79.7763 231.262 77.6838 229.597C74.846 227.104 71.4249 225.494 68.3112 223.402C66.9677 222.431 65.73 221.322 64.6187 220.093C63.3676 218.811 62.0845 217.555 60.862 216.245C52.1685 206.962 43.6653 196.679 39.8396 184.337C39.789 184.175 39.7451 184.008 39.695 183.845C39.6595 183.713 39.624 183.58 39.5788 183.451C37.8707 177.895 36.8803 172.142 36.6316 166.335L36.6294 166.234C36.6097 165.686 36.5896 165.14 36.5914 164.595C36.5929 161.126 37.1216 157.687 37.4214 154.24C37.5428 152.818 37.7747 151.422 38.0061 150.013C38.2003 148.952 38.5021 147.915 38.9068 146.915C39.1103 146.369 39.3302 145.823 39.5491 145.252C40.3924 143.053 41.0281 140.783 41.6748 138.517C42.0803 137.093 42.4892 135.672 42.9598 134.271C43.4899 132.696 44.253 131.256 44.8438 129.711C45.1306 128.964 45.3552 128.195 45.5669 127.425C45.6909 126.664 45.9035 125.92 46.2003 125.208C46.9422 123.866 47.4128 122.379 48.023 120.975C48.7882 119.438 49.4415 117.849 49.9779 116.218C50.8788 112.959 51.4689 109.64 52.0662 106.316C52.3793 104.641 52.5326 102.94 52.524 101.236C52.5052 99.5008 52.2967 97.7798 52.3455 96.0417C52.2919 95.2462 52.1758 94.4561 51.9983 93.6788C51.8837 92.8168 51.8017 91.9546 51.7339 91.0871C51.6332 89.2455 51.2733 87.4272 50.6649 85.6861C49.0201 81.1395 46.8403 76.8048 44.1714 72.7733C42.9617 70.943 41.6446 69.1861 40.2268 67.5119C40.1164 67.3832 40.0013 67.2608 39.8875 67.1302C30.3188 56.0561 17.7223 48.2138 7.47326 37.8451C5.56995 35.9201 3.75779 33.9117 2.03678 31.8197C0.377862 29.8075 -1.39104 27.8695 -2.95454 25.7871C-4.43778 23.7743 -5.7492 21.6404 -6.87497 19.4079C-7.44524 18.3019 -8.28183 17.3566 -8.88944 16.2649C-8.9313 16.1881 -8.96436 16.1096 -9.00393 16.0308L-8.74707 15.5859C-8.0483 16.9967 -7.02144 18.1727 -6.29651 19.5673C-5.46071 21.1679 -4.53188 22.7181 -3.51478 24.21C-2.50204 25.6867 -1.38885 27.092 -0.183084 28.4158C1.11288 29.8547 2.28965 31.3836 3.55072 32.8538C6.00275 35.6799 8.61023 38.3673 11.3611 40.9035C16.8253 45.9969 22.8318 50.4609 28.4902 55.3284C33.9493 59.8239 38.9107 64.8918 43.2892 70.4451C43.8343 71.1695 44.3586 71.9094 44.8619 72.6649C46.0153 74.397 47.0398 76.2115 47.9273 78.0938C48.1366 78.5358 48.3563 78.9716 48.5485 79.4217C49.7709 82.2754 51.2812 85.049 51.9803 88.0954C52.2349 89.6651 52.3952 91.2486 52.4605 92.8375C52.5536 93.7345 52.7096 94.6239 52.9274 95.4991C53.0069 96.3716 53.0087 97.2496 52.9328 98.1225C53.0015 99.7482 53.1441 101.353 53.0654 102.982C52.9527 104.536 52.7338 106.081 52.4104 107.606C52.0284 109.644 51.652 111.682 51.1964 113.702C50.9064 114.98 50.5955 116.253 50.2078 117.51C50.1112 117.825 49.9957 118.128 49.8731 118.427L49.8372 118.519C49.4437 119.452 48.954 120.333 48.5319 121.266C48.165 122.074 47.8552 122.909 47.5194 123.73C47.4349 123.936 47.3341 124.145 47.2273 124.356C46.9155 124.898 46.6723 125.477 46.5033 126.079C46.458 126.297 46.3989 126.508 46.3457 126.722C45.5746 129.843 44.0874 132.661 43.1136 135.724C42.7294 136.931 42.3843 138.151 42.0379 139.371C41.4182 141.73 40.6628 144.051 39.7754 146.322C39.7113 146.478 39.6598 146.635 39.6009 146.791C38.5958 149.868 38.0041 153.064 37.8413 156.297C37.4099 159.723 37.2122 163.174 37.2494 166.627C37.3105 168.46 37.4801 170.317 37.7256 172.173C38.1085 175.029 38.6749 177.858 39.4213 180.641C39.9732 182.712 40.6057 184.749 41.3249 186.716C41.5518 187.335 41.801 187.944 42.0545 188.554C42.1118 188.699 42.1641 188.841 42.2222 188.987C44.6347 194.415 47.7135 199.523 51.3876 204.191C51.676 204.568 51.9753 204.935 52.2677 205.309C54.7207 208.439 57.3396 211.439 60.0303 214.364C61.5856 216.056 63.2105 217.671 64.8069 219.323C65.5998 220.142 66.3983 220.953 67.2128 221.747C68.3429 222.715 69.5818 223.549 70.9044 224.232C73.0772 225.487 75.1807 226.858 77.2056 228.339C78.023 228.945 78.7411 229.673 79.553 230.283C80.5752 230.962 81.6957 231.48 82.8752 231.818C82.9398 231.842 83.004 231.865 83.0696 231.887C83.6387 232.086 84.2065 232.3 84.7706 232.525C86.1844 233.085 87.5849 233.696 88.9964 234.258C90.1678 234.906 91.336 235.529 92.4646 236.211Z" fill="#8E3F32"/>
<path d="M95.273 236.775C95.356 236.81 95.4387 236.843 95.5218 236.877C95.7531 236.973 95.986 237.066 96.2141 237.165C96.2582 237.184 96.3048 237.202 96.3455 237.219C96.4997 237.283 96.4696 237.475 96.3651 237.572C96.3428 237.599 96.3127 237.619 96.279 237.628C96.2452 237.637 96.2095 237.636 96.1766 237.624C96.0332 237.568 95.8883 237.514 95.7452 237.46C95.28 237.281 94.814 237.107 94.3487 236.93C93.8773 236.564 93.3844 236.228 92.8727 235.921C92.6394 235.786 92.4035 235.65 92.1684 235.514C93.0266 235.857 93.8823 236.204 94.7356 236.554C94.833 236.661 94.9331 236.765 95.0282 236.873C95.1233 236.982 95.266 236.892 95.273 236.775Z" fill="#8E3F32"/>
<path d="M94.353 236.929C94.9282 237.365 95.4876 237.821 96.0484 238.275C96.2952 238.475 96.5447 238.673 96.7977 238.865C97.1502 239.135 97.5059 239.403 97.8791 239.646C97.9112 239.668 97.9339 239.702 97.9425 239.74C97.9511 239.778 97.945 239.818 97.9255 239.851C97.906 239.885 97.8745 239.91 97.8372 239.922C97.7999 239.933 97.7597 239.931 97.7245 239.914C97.4727 239.768 97.2324 239.603 96.9903 239.441C96.7481 239.278 96.4989 239.111 96.262 238.934C95.3136 238.231 94.4147 237.463 93.4243 236.808C93.1115 236.601 92.7883 236.407 92.4656 236.212C91.337 235.53 90.1646 234.904 89.0085 234.268C88.697 234.096 88.3851 233.925 88.0773 233.749C86.692 232.878 85.3617 231.923 84.0937 230.889C82.6142 229.782 80.9705 228.912 79.468 227.831C78.1031 226.847 76.7672 225.834 75.331 224.952C73.8395 223.885 72.4542 222.677 71.1943 221.344C68.5034 218.847 65.9182 216.243 63.4388 213.531C61.1058 210.969 58.9063 208.289 56.8488 205.502C55.8324 204.124 54.6752 202.869 53.653 201.493C52.597 200.033 51.6676 198.485 50.875 196.867C50.1686 195.468 49.7031 193.918 48.9408 192.554C48.0934 191.036 47.1948 189.547 46.3622 188.02C45.6456 186.722 45.019 185.377 44.4869 183.993C43.9499 182.364 43.5755 180.685 43.3692 178.982C42.2035 172.475 42.2269 165.811 43.4385 159.313C43.6006 157.708 43.6722 156.095 43.6529 154.482C43.7329 153.881 43.912 153.298 44.183 152.756C44.4813 151.929 44.6883 151.073 44.8001 150.202C45.4521 146.94 46.3659 143.737 47.5326 140.622C48.0918 138.925 48.4834 137.176 49.003 135.466C49.5739 133.783 50.3005 132.158 51.1732 130.61C52.8517 127.367 53.7984 123.715 54.9053 120.251C57.0558 113.515 59.4136 106.705 59.3637 99.5568C59.3488 97.7241 59.1117 95.9 58.6575 94.1245C58.43 93.2253 58.0968 92.3815 57.9378 91.4704C57.7705 90.5097 57.5357 89.5593 57.282 88.6203C56.1477 84.59 54.4763 80.7307 52.3128 77.1462C50.404 73.5637 48.1224 70.1926 45.5058 67.0891C44.2638 65.7217 42.9528 64.4175 41.7145 63.0455C40.502 61.9022 39.3536 60.6928 38.2744 59.4229C38.2504 59.3889 38.3107 59.36 38.3306 59.3915C39.1874 60.5634 40.5211 61.2719 41.3747 62.434C42.5356 63.8319 43.7866 65.1525 45.1198 66.3872C47.4213 68.8287 49.4267 71.5332 51.0944 74.4447C51.9346 75.8645 52.7477 77.3021 53.6309 78.694C54.5287 80.2201 55.2917 81.8216 55.9111 83.4803C57.2678 86.8011 57.9213 90.2464 58.9345 93.6543C60.7592 99.7995 59.4553 106.358 57.785 112.365C56.8081 115.877 55.6751 119.342 54.5762 122.818C53.6234 126.132 52.341 129.342 50.7482 132.4C49.9094 134.1 49.2774 135.893 48.8658 137.743C48.3855 139.523 47.8545 141.286 47.3161 143.05C46.8338 144.632 46.3254 146.207 45.843 147.788C45.3656 149.354 45.2733 150.98 44.7987 152.548C44.4925 153.291 44.2704 154.066 44.1367 154.858C44.074 155.598 44.1175 156.351 44.1286 157.092C44.0551 158.716 43.8487 160.332 43.5115 161.923C42.6472 168.881 43.0393 175.937 44.6692 182.756C45.5948 186.038 47.5631 188.988 49.2422 191.923C50.018 193.282 50.5128 194.798 51.1906 196.21C51.9701 197.827 52.878 199.38 53.9056 200.852C54.8838 202.26 56.0948 203.471 57.0999 204.858C58.2578 206.454 59.4812 208.003 60.7371 209.523C63.2483 212.533 65.9096 215.414 68.7109 218.156C70.0896 219.512 71.4987 220.838 72.9269 222.143C74.5693 223.562 76.2938 224.884 78.0914 226.102C79.5792 227.173 81.0334 228.276 82.6155 229.209C84.2685 230.185 85.6879 231.47 87.2511 232.574C88.7988 233.668 90.5072 234.573 92.1589 235.512C92.3939 235.648 92.6332 235.778 92.8632 235.918C93.3797 236.225 93.8771 236.562 94.353 236.929Z" fill="#8E3F32"/>
<path d="M0.517925 12.7212C1.26254 14.2413 2.05517 15.7403 2.89583 17.2181C3.44445 18.1833 4.01299 19.1372 4.60147 20.0799C4.67596 20.1991 4.75455 20.315 4.8294 20.4354C6.20228 22.6115 7.66683 24.7219 9.22332 26.7331C10.2577 28.1552 11.4206 29.4793 12.6973 30.6886C14.1521 31.9841 15.558 33.3353 16.9622 34.6855C19.5455 37.2776 22.278 39.7166 25.1456 41.9902C26.3918 42.9336 27.6012 43.9407 28.8552 44.8707C30.1425 45.6218 31.3752 46.4629 32.5441 47.3877C33.1153 48.0116 33.7377 48.5865 34.4047 49.1067C35.1148 49.5901 35.851 50.0339 36.6101 50.4359C38.2355 51.3295 39.9305 52.0888 41.5573 52.9799C44.8301 54.7732 48.0317 56.7112 51.2638 58.575C52.5471 59.2824 53.7548 60.1189 54.8683 61.0714C56.3491 62.2412 57.9382 63.267 59.614 64.1348C62.8366 65.9823 65.9429 68.0255 68.9157 70.2528C71.7271 72.5144 74.3393 75.0131 76.7236 77.7212C81.2336 82.5906 85.2293 87.8042 87.5061 94.1008C89.7661 100.154 90.5785 106.652 89.8783 113.076C89.6737 114.688 89.3804 116.287 88.9997 117.866C88.5429 119.718 87.8301 121.457 87.2728 123.275C87.0463 124.016 86.9839 124.795 86.768 125.541C86.5351 126.332 86.2191 127.105 85.9601 127.889C85.4561 129.551 84.79 131.159 83.9712 132.691C83.1305 134.201 82.2231 135.666 81.5054 137.241C80.7033 138.998 80.1122 140.858 79.3165 142.626C78.5969 144.225 78.0932 146.061 77.2247 147.565C76.2926 149.179 75.3543 150.791 74.4286 152.408C73.9976 153.15 73.627 153.925 73.3206 154.727C73.1523 155.427 72.9248 156.111 72.6405 156.773C71.7536 158.401 71.0902 160.142 70.6684 161.947C70.2081 163.654 69.5089 165.289 69.0347 166.997C68.5725 168.662 68.2704 170.373 67.9203 172.062C67.5105 173.764 67.2298 175.494 67.0806 177.238C66.9828 178.926 66.9006 180.613 66.8595 182.303C66.8204 183.873 66.8722 185.428 66.7181 186.99C66.5619 188.679 66.529 190.378 66.6197 192.073C66.9212 196.575 67.8417 201.015 69.3551 205.266C70.7043 209.722 72.8007 213.916 75.5547 217.67C78.2191 221.216 81.251 224.471 84.5996 227.379C88.1984 230.421 92.2463 232.975 95.2432 236.667C95.2676 236.697 95.2794 236.735 95.2759 236.773C95.2689 236.89 95.1306 236.986 95.0331 236.874C94.9356 236.762 94.8379 236.662 94.7405 236.555C92.4225 234.137 89.8837 231.942 87.1572 229.996C84.6393 228.089 82.2826 225.977 80.1108 223.683C77.9001 221.399 75.8512 218.963 73.9789 216.394C72.2172 213.787 70.8056 210.961 69.7802 207.986C67.5409 202.02 65.9536 195.76 66.0713 189.351C66.0967 187.756 66.3387 186.191 66.3295 184.6C66.3203 182.952 66.3719 181.304 66.4459 179.658C66.4826 178.852 66.5279 178.046 66.574 177.241C66.5453 176.473 66.5922 175.703 66.7141 174.944C67.1733 173.292 67.4981 171.606 67.8443 169.927C68.5629 166.441 69.7205 163.095 70.721 159.689C71.1716 158.158 72.2051 156.893 72.5982 155.357C73.0815 153.823 73.7721 152.362 74.6508 151.015C75.6484 149.493 76.5148 147.888 77.2408 146.219C77.8774 144.482 78.6933 142.813 79.4402 141.122C80.1495 139.506 80.6623 137.815 81.4295 136.226C82.2457 134.537 83.2814 132.961 84.1545 131.301C85.8459 128.09 86.2694 124.4 87.5307 121.033C88.7152 117.654 89.4295 114.129 89.6535 110.555C89.8028 107.125 89.4897 103.69 88.7226 100.344C88.0677 96.9851 87.0068 93.7187 85.5633 90.6163C82.5749 84.2089 77.35 78.9044 72.4558 73.9174C69.6494 71.2091 66.5446 68.8281 63.2012 66.8202C60.3563 65.0088 57.1096 63.5909 54.563 61.3696C51.8133 58.9706 48.3282 57.3648 45.1772 55.5445C42.0401 53.7332 38.7921 52.149 35.6471 50.3612C34.3754 49.6578 33.2297 48.7474 32.2571 47.6676C31.1675 46.4665 29.5411 45.9393 28.2936 44.9438C25.6496 42.833 22.95 40.8222 20.4457 38.5257C18.5182 36.7558 16.6609 34.9089 14.7617 33.1073C13.7702 32.1662 12.7631 31.2422 11.7405 30.3354C10.8183 29.4045 9.97728 28.3966 9.22657 27.3226C7.26312 24.8094 5.47114 22.1669 3.86282 19.4129C3.70602 19.1455 3.5519 18.8774 3.39643 18.6096C2.80182 17.5858 2.22222 16.5528 1.65768 15.5105C1.49776 15.2156 1.33557 14.9226 1.17746 14.6265C0.651451 13.6512 0.160296 12.6524 -0.319297 11.6491C-1.28132 9.63188 -2.14237 7.55995 -2.90586 5.45475L-2.72168 5.13574C-2.43215 5.92673 -2.13164 6.71095 -1.82017 7.48849C-1.10614 9.25285 -0.326774 10.9971 0.517925 12.7212Z" fill="#F2A663"/>
<path d="M88.0793 223.265C87.1492 221.997 86.141 220.785 85.2575 219.485C84.9629 218.939 84.7287 218.362 84.5591 217.765C84.2469 216.968 83.9379 216.175 83.6043 215.388C82.9718 213.886 82.6556 212.266 82.0849 210.74C79.8044 204.663 81.1146 197.667 82.8686 191.65C83.9243 188.032 85.1793 184.524 86.477 180.985C87.0487 179.427 87.5731 177.854 88.2525 176.338C88.9957 174.678 89.7012 172.859 90.6075 171.289C91.4449 169.823 92.1958 168.31 92.8565 166.756C93.6018 165.033 94.8245 163.611 95.7181 161.972C96.4535 160.623 96.8906 159.137 97.6611 157.804C98.5926 156.191 99.5472 154.613 100.601 153.076C102.625 150.123 104.23 146.924 106.284 143.989C107.334 142.489 107.857 140.786 108.841 139.251C109.881 137.629 110.279 135.682 111.073 133.925C111.791 132.336 112.546 130.709 113.102 129.053C113.664 127.539 114.335 126.067 115.108 124.65C115.979 122.723 116.434 120.635 116.445 118.52C116.444 116.729 116.798 114.952 116.798 113.156C116.75 109.241 116.359 105.339 115.629 101.493C114.963 97.7647 114.682 93.8457 112.763 90.4804C111.917 88.9956 111.245 87.4157 110.495 85.8798C109.656 84.2107 108.722 82.5908 107.699 81.0278C105.553 77.7805 103.045 74.7879 100.223 72.1075C97.3888 69.3095 94.5922 66.4335 91.5612 63.8452C90.0101 62.4393 88.3719 61.1327 86.6563 59.9331C85.0965 58.9106 83.4272 58.033 81.8319 57.0661C81.8264 57.0629 81.8223 57.0576 81.8206 57.0514C81.819 57.0452 81.8198 57.0386 81.8231 57.033C81.8263 57.0275 81.8316 57.0234 81.8378 57.0217C81.844 57.0201 81.8506 57.0209 81.8562 57.0241C83.3677 57.8531 84.8666 58.704 86.364 59.5573C87.8672 60.5372 89.2954 61.6274 90.637 62.8191C93.5987 65.2816 96.4319 67.8947 99.1255 70.648C101.657 73.0955 104.492 75.6065 106.447 78.5611C108.476 81.5845 110.289 84.7467 111.875 88.0241C112.557 89.4543 113.371 90.8087 113.954 92.2846C114.64 94.1185 115.143 96.0156 115.456 97.9484C116.124 101.437 116.595 104.961 116.869 108.502C116.988 110.313 117.211 112.151 117.163 113.967C117.142 114.798 117.042 115.628 116.963 116.454C116.885 117.281 116.944 118.158 116.827 118.974C116.631 120.819 116.237 122.637 115.65 124.398C115.365 125.077 115.024 125.732 114.631 126.356C114.151 127.245 113.77 128.184 113.494 129.156C113.037 130.59 112.362 131.934 111.788 133.32C111.398 134.26 110.95 135.171 110.581 136.12C110.322 136.998 110.014 137.861 109.658 138.704C109.072 139.534 108.571 140.421 108.163 141.35C107.919 142.09 107.581 142.795 107.156 143.447C106.193 145.05 105.057 146.53 104.121 148.154C102.323 151.266 100.263 154.201 98.4679 157.314C97.7036 158.638 97.2038 160.054 96.4888 161.395C95.6114 163.041 94.5248 164.545 93.6348 166.184C92.8249 167.674 92.2789 169.296 91.4445 170.788C90.5455 172.395 89.8404 174.107 89.048 175.768C87.3941 179.236 86.2542 182.998 84.9466 186.608C82.5476 193.227 80.5889 200.623 81.7605 207.702C82.1422 209.348 82.6271 210.969 83.2124 212.554C83.7298 214.289 84.3876 215.947 85.0405 217.631C85.2539 218.202 85.5046 218.758 85.7909 219.296C85.8649 219.487 85.9302 219.681 86.0075 219.868C86.5953 221.06 87.2886 222.197 88.0793 223.265Z" fill="#F2A663"/>
<path d="M88.707 223.4C89.6236 224.721 90.5204 226.045 91.461 227.341C91.5437 227.454 91.4203 227.592 91.3048 227.592C91.2839 227.593 91.2631 227.589 91.2443 227.58C91.2255 227.571 91.2093 227.557 91.1972 227.54C91.0204 227.309 90.8526 227.073 90.6781 226.84C90.4544 226.537 90.2283 226.236 90.0078 225.932C89.5899 225.08 89.1887 224.218 88.707 223.4Z" fill="#F2A663"/>
<path d="M90.8797 228.096C90.6152 227.75 90.3683 227.392 90.1399 227.021C89.6537 226.243 89.2347 225.425 88.818 224.604C88.7043 224.378 88.5897 224.152 88.4734 223.927C88.3571 223.702 88.2152 223.482 88.0793 223.264C87.2915 222.198 86.6005 221.064 86.0145 219.875C85.9386 219.684 85.8734 219.491 85.7979 219.302C84.5973 216.203 83.6324 213.018 82.9112 209.773C82.1171 206.489 81.919 203.09 82.3263 199.736C82.5093 198.008 82.8027 196.293 83.2046 194.603C83.435 193.76 83.5516 192.889 83.7539 192.037C83.9828 191.074 84.3639 190.15 84.5758 189.188C85.3339 185.762 87.2649 182.553 88.6222 179.345C89.2667 177.756 90.0104 176.209 90.8489 174.713C91.731 173.185 92.3064 171.413 93.0917 169.826C93.9085 168.171 94.7814 166.537 95.6006 164.877C96.4599 163.135 97.4452 161.465 98.1544 159.657C98.8266 158.213 99.6045 156.82 100.482 155.491L103.113 150.947L105.599 146.641C106.384 145.281 107.446 144.071 108.252 142.701C109.081 141.29 109.741 139.81 110.455 138.339C111.209 136.785 112.165 135.346 112.881 133.769C113.596 132.192 114.229 130.563 114.962 128.98C115.74 127.113 116.374 125.189 116.857 123.225C117.334 121.574 117.598 119.899 118.014 118.227C118.537 116.373 118.916 114.481 119.148 112.569C119.373 109.168 119.251 105.752 118.782 102.376C118.43 99.0684 117.723 95.8083 116.673 92.6519C115.358 89.235 113.686 85.9666 111.684 82.9011C110.766 81.3772 109.777 79.8969 108.728 78.462C108.182 77.7127 107.62 76.9871 107.018 76.2818C106.54 75.7189 105.827 75.5293 105.51 74.8402C105.498 74.8143 105.538 74.7924 105.55 74.8174C105.877 75.4763 106.875 75.9618 107.385 76.5256C107.916 77.1134 108.381 77.7333 108.862 78.3593C109.955 79.7738 110.939 81.2699 111.882 82.7892C113.748 85.6353 115.347 88.6482 116.657 91.7892C117.785 94.8458 118.559 98.0215 118.964 101.254C119.435 104.448 119.647 107.675 119.597 110.902C119.51 114.35 118.454 117.48 117.846 120.836C117.181 124.288 116.073 127.64 114.55 130.81C113.833 132.343 113.302 133.94 112.524 135.445C111.729 136.983 110.854 138.455 110.128 140.031C108.694 143.141 106.608 145.781 104.911 148.728L100.026 157.213C99.1682 158.698 98.5634 160.252 97.7788 161.762C96.9113 163.429 96.048 165.093 95.197 166.774C93.5779 169.967 92.2453 173.314 90.4641 176.407C89.6329 177.847 89.2199 179.547 88.5355 181.05C87.6622 182.968 86.6844 184.838 85.9036 186.797C85.3043 188.425 84.7947 190.084 84.3772 191.767C83.9177 193.43 83.5554 195.118 83.292 196.822C82.5934 200.617 82.5477 204.503 83.1569 208.312C83.8144 211.851 84.7984 215.321 86.0963 218.678C86.7103 220.178 87.4919 221.603 88.4262 222.927C88.5253 223.077 88.6033 223.239 88.6935 223.393C89.1751 224.21 89.5763 225.072 89.9923 225.928C90.0333 226.012 90.0747 226.095 90.1162 226.178C90.4014 226.779 90.7353 227.354 91.1147 227.9C91.1262 227.919 91.1332 227.94 91.1351 227.963C91.137 227.985 91.1338 228.007 91.1257 228.028C91.1176 228.049 91.1048 228.067 91.0884 228.082C91.072 228.097 91.0524 228.108 91.031 228.115C91.0071 228.128 90.9795 228.134 90.9522 228.13C90.9249 228.127 90.8994 228.115 90.8797 228.096Z" fill="#F2A663"/>
<path d="M11.5155 152.735C11.4514 153.142 11.3301 153.538 11.1552 153.911C11.0851 154.06 10.8691 153.932 10.9353 153.784C11.2191 152.854 11.4334 151.905 11.5761 150.943C11.8091 150.042 11.989 149.127 12.1148 148.205C12.3192 146.392 12.6769 144.6 13.1842 142.848L13.1896 142.838C13.431 142.108 13.7107 141.391 13.9793 140.672C14.2339 139.766 14.4315 138.845 14.5709 137.914C15.0065 136.039 15.7263 134.263 16.2023 132.403C16.348 131.538 16.5387 130.681 16.7738 129.835C17.0859 128.998 17.3853 128.156 17.6553 127.304C18.1765 125.48 18.5806 123.624 18.8652 121.748C19.547 118 20.2928 114.271 20.9844 110.528C21.784 106.812 22.3104 103.042 22.5595 99.2484C22.6347 97.4075 22.5376 95.5636 22.2695 93.7407C21.9914 91.8844 21.9098 89.9939 21.6117 88.1451C20.9928 84.4586 19.9325 80.8599 18.4538 77.4267C17.0385 74.2399 15.1777 71.2703 12.9271 68.6069C10.6242 65.7831 7.9417 63.293 5.45508 60.6362C4.26537 59.3661 2.99781 58.1631 1.76669 56.9318C0.415153 55.5796 -0.825935 54.131 -2.22589 52.8257C-3.523 51.6157 -4.9012 50.4977 -6.10071 49.1884C-7.40491 47.7638 -8.63293 46.2713 -9.81778 44.7466C-11.9701 41.8898 -13.9264 38.8906 -15.6733 35.7694C-16.4664 34.4108 -17.2567 33.0506 -18.0441 31.6886L-17.7373 31.1572C-16.6574 33.1642 -15.3749 35.0955 -14.2595 37.0312C-12.3508 40.3337 -10.1701 43.4714 -7.74023 46.4117C-6.62208 47.8096 -5.40829 49.1282 -4.10762 50.3581C-2.69226 51.6599 -1.23287 52.901 0.0703958 54.3194C4.9006 59.5706 10.4704 64.2795 14.7169 70.0511C16.6474 72.6006 18.2195 75.4025 19.3894 78.3788C20.02 79.9865 20.5655 81.6263 21.0236 83.2914C21.5652 84.9862 21.9489 86.7274 22.1698 88.4929C22.4201 92.1073 23.147 95.6096 23.0389 99.2498C22.8331 102.779 22.348 106.286 21.5881 109.738C20.8779 113.489 20.0808 117.217 19.4227 120.976C19.1187 122.713 18.7811 124.451 18.3879 126.169C17.9551 128.055 17.1318 129.789 16.7587 131.686C16.4225 133.394 15.762 135 15.2744 136.662C14.7318 138.509 14.4568 140.386 13.7889 142.194C13.4374 143.16 13.1589 144.151 12.9556 145.159C12.8383 145.725 12.7323 146.296 12.6471 146.884C12.3489 148.856 11.8599 150.773 11.5155 152.735Z" fill="#8E3F32"/>
<path d="M42.5398 217.945C43.8213 218.771 45.1762 219.495 46.4875 220.273C47.8519 221.165 49.306 221.912 50.8261 222.5C51.05 222.576 50.9639 222.925 50.7317 222.858C49.2754 222.372 47.8794 221.721 46.5709 220.918C44.863 219.96 43.1073 219.046 41.4743 217.962C40.058 216.969 38.7299 215.857 37.5049 214.636C36.1106 213.315 34.5914 212.145 33.1991 210.82C31.5428 209.229 30.01 207.515 28.6139 205.691C25.8282 202.025 23.4386 198.074 21.4852 193.904C18.6282 188.002 16.8129 181.65 16.1195 175.129C15.7052 171.297 15.5578 167.441 15.6783 163.589C15.8301 159.759 16.4461 155.927 16.8466 152.12C17.4317 146.111 18.4002 140.146 19.7465 134.261C20.4968 131.1 21.0605 127.896 21.6323 124.7C22.3143 121.52 22.8187 118.304 23.1433 115.068C23.2409 113.6 23.2564 112.127 23.3017 110.657C23.3521 109.007 23.6176 107.405 23.8124 105.765C24.1629 102.761 24.3009 99.7364 24.2255 96.7132C24.153 93.6011 23.2624 90.5607 23.2513 87.4683C23.1589 86.25 22.8499 85.058 22.3386 83.9484C21.8979 82.9417 22.1317 81.7302 21.4843 80.8024C21.463 80.7733 21.5131 80.7351 21.5352 80.7646C22.1353 81.5476 22.1517 82.6339 22.4327 83.5528C22.9475 84.8115 23.3158 86.1252 23.5301 87.4681C23.7953 91.1324 24.5809 94.7055 24.6029 98.4052C24.615 100.129 24.5372 101.852 24.4102 103.57C24.2683 105.485 23.8701 107.394 23.7688 109.307C23.7247 112.827 23.4843 116.342 23.0487 119.835C21.8063 127.351 19.8814 134.748 18.7127 142.273C18.111 146.155 17.6188 150.036 17.2064 153.939C16.7994 157.746 16.2615 161.565 16.2139 165.396C16.0856 171.365 16.7474 177.324 18.1823 183.119C19.5956 188.39 21.6947 193.453 24.4258 198.178C26.7719 202.403 29.6718 206.296 33.0486 209.753C33.7563 210.466 34.4875 211.169 35.2501 211.835C37.5282 214.046 39.9646 216.088 42.5398 217.945Z" fill="#8E3F32"/>
<path d="M18.8692 192.283C19.576 193.734 20.1911 195.227 20.9589 196.647C21.8468 198.279 22.8451 199.886 23.7924 201.491C24.7957 203.142 25.8997 204.73 27.0981 206.245C27.2004 206.378 27.0294 206.558 26.9079 206.433C24.3911 203.873 22.8282 200.601 20.9044 197.619C19.2088 194.797 17.7993 191.813 16.6967 188.711C15.8163 186.158 15.2415 183.51 14.9841 180.821C14.8933 180.127 14.8062 179.437 14.7151 178.755C14.4841 177.04 14.298 175.321 14.2249 173.594C14.1425 171.756 13.8948 169.934 13.8742 168.093C13.9593 164.513 14.2727 160.942 14.8125 157.402C15.2305 153.838 15.6091 150.251 16.1669 146.703C16.7351 143.076 17.5894 139.472 18.4026 135.894C18.8245 134.039 19.2733 132.189 19.7239 130.34C20.1529 128.583 20.2423 126.703 20.5075 124.912C20.6629 123.773 20.9015 122.647 21.2213 121.543C21.2469 121.113 21.3014 120.686 21.3845 120.264C21.6451 119.745 21.7444 119.16 21.6694 118.584C21.664 118.545 21.731 118.535 21.7373 118.575C21.7788 119.592 21.67 120.609 21.4145 121.594C21.2852 122.438 21.0103 123.264 20.8926 124.117C20.7333 125.23 20.5959 126.347 20.4642 127.463C20.0349 131.114 19.086 134.644 18.3261 138.238C17.4661 141.911 16.7986 145.627 16.3265 149.369C15.9426 153.058 15.4676 156.741 15.0587 160.427C14.5255 163.949 14.3903 167.52 14.6556 171.072C14.8578 172.855 14.7917 174.65 15.0342 176.427C15.2948 178.315 15.497 180.206 15.8062 182.088C16.0178 183.373 16.1878 184.672 16.4704 185.941C16.5483 186.293 16.6255 186.642 16.7283 186.991C17.2857 188.814 18.0021 190.585 18.8692 192.283Z" fill="#8E3F32"/>
<path d="M12.204 164.851C12.1876 164.618 12.1641 164.395 12.1537 164.163C12.0619 162.443 12.1946 160.717 12.2561 158.997C12.3129 157.408 12.1704 155.825 12.1923 154.236C12.221 152.925 12.3252 151.617 12.5044 150.318C12.5299 150.125 12.583 149.941 12.6225 149.753C12.9127 148.362 13.5295 147.073 13.885 145.701L15.3073 140.239C15.7195 138.652 16.9609 137.374 17.0239 135.681C17.0247 135.673 17.0287 135.665 17.0351 135.659C17.0415 135.653 17.0499 135.65 17.0586 135.65C17.0673 135.649 17.0757 135.653 17.0821 135.659C17.0886 135.664 17.0926 135.672 17.0934 135.681C17.0589 136.783 16.7344 137.855 16.1528 138.791C15.2808 140.463 15.0442 142.602 14.6045 144.43C14.2294 145.991 13.6924 147.477 13.256 149.024C12.8777 150.607 12.6921 152.231 12.7031 153.859C12.6606 155.29 12.8257 156.714 12.8178 158.141C12.8169 158.243 12.8116 158.345 12.8087 158.445C12.7342 158.962 12.6632 159.473 12.6125 159.991C12.4606 161.603 12.312 163.226 12.204 164.851Z" fill="#8E3F32"/>
<path d="M13.3753 172.855C12.9842 171.427 13.2114 169.929 12.8288 168.525C12.7138 168.103 12.619 167.686 12.5355 167.268C12.5698 166.096 12.6167 164.923 12.6914 163.751C12.7062 164.46 12.7491 165.163 12.8314 165.862C12.9119 166.58 13.0378 167.293 13.2084 167.995C13.5952 169.568 13.3658 171.183 13.6772 172.774C13.6866 172.814 13.6796 172.857 13.6579 172.892C13.6362 172.927 13.6015 172.952 13.5613 172.961C13.5422 172.968 13.5218 172.97 13.5017 172.968C13.4816 172.966 13.4621 172.96 13.4445 172.95C13.4269 172.94 13.4117 172.926 13.3998 172.91C13.3879 172.893 13.3795 172.875 13.3753 172.855Z" fill="#8E3F32"/>
<path d="M12.5352 167.269C12.5274 167.55 12.5044 167.832 12.4958 168.113C12.4534 169.6 12.5095 171.088 12.6635 172.568C12.9202 174.026 13.0689 175.5 13.1084 176.98C13.1084 177.013 13.0952 177.044 13.0719 177.067C13.0486 177.091 13.017 177.104 12.9841 177.104C12.9512 177.104 12.9196 177.091 12.8963 177.067C12.873 177.044 12.86 177.012 12.86 176.98C12.4522 174.324 12.1833 171.65 12.0541 168.967C12.0493 167.593 12.1122 166.22 12.2023 164.848C12.3093 163.224 12.458 161.602 12.6078 159.982C12.6551 159.462 12.7314 158.949 12.8039 158.436C13.1379 156.092 13.6768 153.791 14.0275 151.443C14.2531 149.936 14.5138 148.449 14.8271 146.956C14.9069 146.403 15.0151 145.853 15.1512 145.311C15.3113 144.815 15.815 144.266 15.39 143.699C15.3694 143.673 15.4162 143.638 15.4373 143.664C15.7047 143.976 15.6142 144.428 15.5611 144.807C15.5057 145.244 15.2496 145.646 15.2304 146.126C15.1438 146.861 15.0031 147.59 14.8095 148.305C14.4745 149.986 14.288 151.697 14.0518 153.398C13.8084 155.151 13.3178 156.842 13.1233 158.614C12.9355 160.318 12.7932 162.03 12.6833 163.744C12.6164 164.924 12.5695 166.097 12.5352 167.269Z" fill="#8E3F32"/>
<path d="M-23.3652 47.5279C-20.8252 50.763 -18.0089 53.731 -15.3926 56.8959C-13.0209 59.7673 -10.9978 62.9109 -8.80945 65.9216C-7.74972 67.3818 -6.52084 68.7158 -5.43821 70.1636C-4.21004 71.8129 -3.13226 73.5656 -1.94943 75.247C-0.998498 76.5366 -0.212634 77.9402 0.389868 79.4249C1.05786 81.1314 1.50837 82.9159 2.08484 84.6568C3.11788 88.2362 3.7705 91.9145 4.03186 95.6308C4.45374 99.4787 4.65967 103.347 4.64874 107.218C4.75965 115.142 3.82161 123.046 1.85904 130.723C-0.322539 138.649 -3.20728 146.394 -5.96946 154.131C-8.87154 162.26 -11.958 170.32 -15.0716 178.369C-16.5765 182.257 -18.2089 186.112 -19.5668 190.053C-19.9855 191.707 -20.5103 193.332 -21.1382 194.917C-22.0074 196.665 -22.2655 198.737 -22.7983 200.602C-23.9402 204.598 -25.3584 208.489 -26.3928 212.518C-27.2525 216.47 -27.8762 220.47 -28.2605 224.496C-29.4064 232.314 -29.9996 240.203 -30.0358 248.104C-29.9826 253.931 -29.5728 259.75 -28.8086 265.528L-29.6195 265.06C-31.2267 253.058 -31.2395 240.896 -29.6577 228.89C-29.134 224.955 -28.5405 221.028 -27.9898 217.093C-27.4151 213.022 -26.4083 209.023 -24.9865 205.166C-24.3029 203.297 -23.8055 201.364 -23.2538 199.45C-22.8846 197.781 -22.3948 196.14 -21.7883 194.541C-20.9927 192.775 -20.6263 190.803 -19.9765 188.97C-19.2629 186.958 -18.4342 184.988 -17.6599 182.999C-11.5191 167.225 -5.3202 151.403 -0.213521 135.255C1.09089 131.383 2.10754 127.42 2.82815 123.397C3.44532 119.287 3.80324 115.141 3.89976 110.985C4.18977 103.073 3.60055 95.1533 2.14296 87.3712C1.75032 85.7013 1.26922 84.0534 0.701691 82.4346C0.194927 80.5546 -0.529375 78.7401 -1.45657 77.028C-2.38573 75.4327 -3.60462 73.9399 -4.62864 72.3983C-5.80388 70.6341 -7.20266 69.0632 -8.48236 67.3751C-10.8079 64.3211 -12.8503 61.0634 -15.2044 58.0298C-17.7063 54.8023 -20.5844 51.8814 -23.1094 48.6629C-24.0199 47.5037 -24.9257 46.3391 -25.8268 45.1689L-25.5742 44.7314C-24.8364 45.6656 -24.0975 46.5959 -23.3652 47.5279Z" fill="#8E3F32"/>
<path d="M-7.03431 220.131C-7.01382 220.499 -6.98022 220.866 -6.94746 221.231C-7.65947 228.492 -8.08606 235.78 -6.77675 243.023C-6.44558 244.85 -5.98928 246.632 -5.74476 248.477C-5.45159 250.683 -5.30698 252.904 -4.97351 255.105C-4.24385 259.433 -3.14454 263.691 -1.68766 267.831C0.248196 273.615 2.41443 279.338 4.82216 284.944L3.91384 284.42C3.76583 284.071 3.61468 283.724 3.46653 283.378C0.074107 275.599 -2.67497 267.554 -4.75305 259.326C-5.70241 255.274 -5.94067 251.191 -6.57324 247.093C-6.87295 245.14 -7.40638 243.239 -7.6944 241.28C-7.96758 239.304 -8.13638 237.314 -8.20003 235.32C-8.48195 228.238 -7.57952 221.256 -6.88184 214.241C-6.85623 214.459 -6.82762 214.677 -6.79937 214.893C-6.85308 216.642 -7.1302 218.365 -7.03431 220.131Z" fill="#F2A663"/>
<path d="M-2.73183 70.2527C-0.463047 74.0933 1.50549 78.1031 3.52792 82.0757C5.39509 85.5817 6.84921 89.2923 7.86108 93.1334C8.74192 96.9587 9.31936 100.848 9.58803 104.764C9.74851 106.578 9.71371 108.404 9.48428 110.211C9.19757 112.361 9.56973 114.568 9.59272 116.725C9.55656 120.356 9.23587 123.979 8.63359 127.56C8.33975 129.554 7.9606 131.537 7.56899 133.51C7.11392 135.803 6.41914 138.001 5.85286 140.265C4.75309 144.667 3.9822 149.139 2.83641 153.533C1.82114 157.425 0.997341 161.36 0.00442098 165.255C-0.283488 166.07 -0.493053 166.911 -0.621412 167.766C-1.57038 171.565 -2.30242 175.441 -2.996 179.29C-3.78941 183.689 -4.03197 188.078 -4.43012 192.519C-4.74719 196.057 -5.02265 199.597 -5.30125 203.139C-5.35578 203.04 -5.41579 202.943 -5.48103 202.85C-5.50398 202.82 -5.55767 202.86 -5.53472 202.89C-5.45155 203.014 -5.37645 203.143 -5.30992 203.276C-5.6249 207.265 -5.95768 211.254 -6.34706 215.237C-6.37689 214.996 -6.40504 214.756 -6.43958 214.521C-6.47437 213.816 -6.44658 213.109 -6.35658 212.408C-6.27438 211.727 -6.27155 211.039 -6.34817 210.358C-6.32241 209.788 -6.26038 209.221 -6.16244 208.66C-6.21205 207.071 -5.99871 205.485 -5.53109 203.966C-5.51529 203.927 -5.58312 203.899 -5.60108 203.938C-6.27581 205.389 -6.14265 206.919 -6.36747 208.429C-6.07765 204.744 -5.77082 201.072 -5.54083 197.378C-5.41814 195.42 -5.11253 193.483 -4.94462 191.525C-4.75424 189.272 -4.68792 187.009 -4.42878 184.762C-3.43373 176.229 -1.16404 167.936 0.776756 159.594C1.79282 155.227 3.00091 150.909 3.9078 146.515C4.81793 142.097 6.12725 137.778 7.01522 133.366C7.95206 129.36 8.56313 125.284 8.84245 121.179C8.79451 120.438 8.80257 119.694 8.86654 118.954C9.02329 117.918 9.0713 116.869 9.00975 115.823C8.85571 113.779 8.84874 111.726 8.98888 109.681C9.41719 105.946 8.83087 102.097 8.31856 98.3975C7.8496 94.9546 7.02196 91.5701 5.8491 88.2994C4.34033 84.6014 2.6021 81.0012 0.644571 77.5199C-1.10233 73.8554 -3.15405 70.3442 -5.48894 67.0234C-10.222 60.6675 -15.998 55.1759 -20.8834 48.9425C-22.2811 47.1584 -23.5542 45.2862 -24.7972 43.3933L-24.582 43.0205C-22.8092 45.638 -20.9949 48.2166 -18.9624 50.6616C-13.5804 57.1302 -7.04025 62.9578 -2.73183 70.2527Z" fill="#F2A663"/>
<path d="M-22.5075 52.6837C-19.922 55.7451 -17.5248 58.9607 -15.3291 62.3127C-13.2371 65.6394 -11.5833 69.2212 -9.57507 72.598C-7.74332 75.708 -6.22443 78.992 -5.0407 82.4018C-4.43907 84.1069 -3.91777 85.8405 -3.42281 87.5792C-2.84654 89.6054 -2.53611 91.683 -2.11052 93.7453C-1.28031 97.5099 -0.809427 101.345 -0.704264 105.198C-0.805222 106.255 -0.796079 107.32 -0.676945 108.375C-0.524212 109.103 -0.460926 109.847 -0.488524 110.59C-0.615999 112.303 -0.862968 114.004 -1.22757 115.682C-1.82538 119.6 -2.20527 123.505 -2.96806 127.401C-3.3103 129.257 -3.79523 131.083 -4.41858 132.864C-4.95734 134.724 -5.39056 136.613 -5.7162 138.522C-7.52807 146.206 -11.8421 152.744 -15.8098 159.446C-17.884 162.949 -20.6611 165.935 -22.7122 169.443C-24.8724 172.898 -27.2367 176.222 -29.7926 179.396C-32.2756 182.677 -34.6738 186.036 -37.3721 189.141C-40.158 192.345 -42.4983 195.897 -45.2418 199.127C-47.9326 202.295 -49.8508 206.057 -52.5772 209.182C-55.0667 212.211 -57.2549 215.476 -59.1107 218.93C-60.05 220.557 -61.3658 221.894 -62.2664 223.572C-63.1548 225.225 -63.8334 226.98 -64.7187 228.633C-66.6608 232.329 -68.2903 236.181 -69.5902 240.148C-69.7628 240.664 -69.9088 241.186 -70.0659 241.707L-70.6905 241.346C-70.2599 239.968 -69.7968 238.598 -69.2749 237.238C-68.6213 235.525 -67.9952 233.804 -67.2927 232.115C-66.5188 230.255 -65.4798 228.544 -64.6106 226.732C-63.8501 225.146 -63.1655 223.537 -62.2643 222.017C-61.8411 221.323 -61.368 220.661 -60.8487 220.036C-60.082 219.037 -59.3961 217.979 -58.7973 216.871C-58.0122 215.297 -57.0777 213.801 -56.0065 212.406C-54.7283 210.942 -53.4741 209.285 -52.3266 207.713C-49.9169 204.409 -47.8057 200.904 -45.1051 197.818C-43.6872 196.198 -42.4933 194.353 -41.1796 192.645C-39.9139 191 -38.601 189.393 -37.2283 187.837C-34.4235 184.658 -32.0758 181.063 -29.4622 177.726C-26.859 174.404 -24.6556 170.919 -22.3343 167.402C-21.2594 165.773 -19.9759 164.287 -18.8001 162.727C-17.6003 161.018 -16.4908 159.248 -15.476 157.423C-13.3825 153.931 -11.2503 150.461 -9.45313 146.798C-7.79953 143.248 -6.57829 139.513 -5.81569 135.672C-5.41552 133.881 -4.88439 132.167 -4.38815 130.404C-3.82826 128.412 -3.5054 126.354 -3.09169 124.331C-2.69485 122.372 -2.5595 120.377 -2.3423 118.394C-2.14496 116.575 -1.78731 114.777 -1.46043 112.978C-1.28576 112.05 -1.18935 111.109 -1.17221 110.165C-1.16224 109.276 -1.47735 108.433 -1.43062 107.554C-1.33729 105.501 -1.38423 103.445 -1.57109 101.399C-1.75605 99.3654 -2.05499 97.3434 -2.46653 95.3429C-2.87332 93.2713 -3.15224 91.1023 -3.69686 89.0697C-4.9541 84.0029 -6.8095 79.1037 -9.22395 74.4752C-10.503 72.1328 -11.87 69.8437 -13.1206 67.483C-14.3835 64.997 -15.8101 62.5975 -17.391 60.3007C-20.4853 55.9666 -23.8302 51.77 -27.3019 47.7195L-27.0596 47.2998C-25.5282 49.085 -23.9915 50.861 -22.5075 52.6837Z" fill="#8E3F32"/>
<path d="M14.8673 118.055C15.1393 116.808 14.8857 115.361 15.3723 114.185C15.4099 114.094 15.5732 114.159 15.5351 114.252C15.3932 114.64 15.3539 115.059 15.4209 115.467C15.3943 115.649 15.3775 115.835 15.3489 116.015C15.1087 117.499 14.6277 118.956 14.48 120.455C14.4618 120.643 14.4243 120.827 14.398 121.012C14.1888 121.552 13.9459 122.068 13.7183 122.691C13.3414 123.732 13.136 124.975 12.8437 126.053C12.6191 126.881 12.3511 127.727 12.0933 128.579C11.7421 129.668 11.4727 130.783 11.2873 131.913C11.2173 132.422 11.1377 132.93 11.0629 133.438C10.7979 135.24 10.5242 137.044 10.2697 138.846C9.66762 143.103 9.38454 147.378 9.01789 151.656C8.98305 152.056 8.95205 152.456 8.91588 152.856C8.49639 157.501 8.12637 162.132 8.08467 166.799C7.94013 171.236 8.19342 175.678 8.84148 180.071C9.62455 184.664 10.039 189.278 11.117 193.82C11.6195 195.939 12.0962 198.062 12.7779 200.132C13.7146 202.581 14.8763 204.938 16.2483 207.173C18.3452 211.135 20.7819 214.908 23.531 218.449C28.9848 224.969 35.6472 230.374 43.1519 234.367C51.0367 238.716 59.5417 241.22 68.1306 243.751C72.8572 245.144 77.5879 246.525 82.3097 247.939C86.6371 249.134 90.8761 250.63 94.9958 252.414C103.663 256.401 112.347 260.148 120.093 265.81C123.925 268.657 127.518 271.813 130.836 275.245C132.386 276.825 134.05 278.281 135.591 279.867C137.215 281.7 138.725 283.632 140.11 285.652C141.366 287.309 142.641 288.947 143.768 290.695C144.974 292.697 146.041 294.778 146.964 296.925C148.756 300.758 150.875 304.302 152.266 308.331C155.014 316.455 156.506 324.95 156.689 333.524C156.84 337.925 156.741 342.332 156.395 346.722C156.147 349.565 155.918 352.446 155.61 355.311C155.611 355.242 155.617 355.175 155.616 355.106C155.642 352.425 155.731 349.735 155.629 347.054C155.851 344.298 156.013 341.542 156.055 338.756C156.23 329.865 155.145 320.994 152.833 312.407C151.723 308.144 150.072 304.04 147.922 300.195C145.632 296.199 144.05 291.997 141.286 288.257C139.859 286.327 138.459 284.353 136.998 282.451C135.46 280.584 133.778 278.842 131.965 277.24C128.401 273.657 124.649 270.265 120.726 267.079C116.804 264.101 112.623 261.481 108.232 259.25C104.132 257.15 99.8328 255.439 95.6811 253.441C91.3067 251.465 86.7849 249.833 82.1569 248.561C77.4365 247.144 72.7054 245.763 67.9778 244.373C59.6436 241.918 51.4435 239.472 43.7215 235.398C36.4217 231.611 29.8688 226.532 24.3806 220.407C21.7281 217.309 19.39 213.956 17.4007 210.396C15.1575 206.526 12.8163 202.611 11.6131 198.274C9.79188 191.214 8.53189 184.021 7.84494 176.762C7.01758 169.397 7.63926 161.847 8.27835 154.492C8.58902 150.929 8.92401 147.389 9.31115 143.855C9.56826 143.316 9.71538 142.732 9.74393 142.136C9.72239 141.311 9.8101 140.487 10.0048 139.685C10.0333 139.442 9.9101 139.302 10.032 139.087C10.0441 139.066 10.0501 139.041 10.0494 139.017C10.0487 138.992 10.0414 138.968 10.0282 138.947C10.015 138.926 9.99635 138.91 9.97432 138.898C9.95229 138.887 9.92767 138.882 9.90306 138.884C10.1582 136.876 10.4312 134.868 10.7374 132.856C11.0484 131.202 11.4519 129.566 11.946 127.957C12.488 126.367 12.9272 124.744 13.2609 123.098C13.3114 122.764 13.4105 122.44 13.555 122.135C13.6957 121.823 13.8644 121.523 14.0218 121.245C14.4559 120.228 14.7407 119.153 14.8673 118.055Z" fill="#F2A663"/>
<path d="M-77.8847 233.016C-78.0244 233.434 -78.1481 233.86 -78.2799 234.282C-77.7441 230.393 -76.8355 226.565 -75.5669 222.85L-75.5479 222.802C-74.9938 221.247 -74.2568 219.77 -73.736 218.2C-73.1583 216.584 -72.4566 215.015 -71.6369 213.507C-70.0822 210.462 -68.7713 207.34 -67.0614 204.378L-61.5458 194.825C-59.8083 191.815 -57.8005 188.985 -56.0631 185.978C-55.2598 184.612 -54.3799 183.291 -53.4277 182.024C-52.3155 180.513 -51.4041 178.851 -50.2749 177.339C-48.0512 174.362 -46.2286 171.158 -43.9833 168.198C-41.8635 165.23 -39.9319 162.131 -38.1999 158.921C-37.3638 157.473 -36.3841 156.164 -35.4217 154.796C-34.4709 153.221 -33.6022 151.597 -32.819 149.933C-29.1802 143.198 -26.5049 135.986 -24.8715 128.508C-23.971 124.742 -23.405 120.904 -23.1803 117.038C-23.0836 115.376 -23.1007 113.715 -23.0482 112.052C-22.9351 110.399 -22.9575 108.738 -23.1151 107.089C-23.4886 104.275 -23.6086 101.441 -24.0393 98.6314C-24.2979 97.4157 -24.6659 96.2258 -25.1387 95.0764C-25.579 93.7935 -25.9413 92.4785 -26.316 91.1753C-27.0987 88.4714 -27.7174 85.2779 -29.251 82.8937C-30.8357 80.433 -31.9717 77.7613 -33.4416 75.2415C-35.0352 72.6742 -36.8058 70.221 -38.7405 67.8998C-38.7804 67.8487 -38.8236 67.8014 -38.8639 67.7491L-38.5498 67.2051C-36.7959 69.3493 -35.1106 71.5659 -33.5779 73.8645C-32.6664 75.3056 -31.8491 76.8041 -31.1311 78.3507C-30.2804 80.0664 -29.0614 81.6152 -28.2671 83.351C-26.9911 86.4975 -25.9311 89.7273 -25.0942 93.0179C-24.6503 94.492 -24.0485 95.9118 -23.6087 97.3835C-23.2158 98.9644 -22.977 100.58 -22.8954 102.206C-22.5059 105.597 -22.3281 109.008 -22.3628 112.42C-22.3828 115.901 -22.608 119.377 -23.0373 122.832C-23.6233 126.634 -24.489 130.388 -25.6275 134.063C-26.5947 137.543 -27.7792 140.96 -29.1737 144.292C-29.9025 145.942 -30.6477 147.599 -31.5329 149.171C-32.442 150.786 -33.1577 152.501 -34.0857 154.098C-34.9138 155.523 -36.0154 156.78 -36.9027 158.169C-37.9459 159.806 -38.8532 161.536 -39.8221 163.214C-40.6676 164.702 -41.5873 166.146 -42.5776 167.541C-43.6751 169.068 -44.8994 170.494 -45.8822 172.101C-46.7887 173.672 -47.7759 175.194 -48.8398 176.662C-49.9814 178.164 -51.1032 179.677 -52.1048 181.278C-52.9961 182.705 -54.0567 183.988 -54.8981 185.445C-55.7472 186.916 -56.6037 188.378 -57.5431 189.79C-59.5549 192.811 -61.3365 195.953 -63.1477 199.09L-67.3329 206.339C-67.9915 207.48 -68.3923 208.709 -68.9975 209.87C-69.6886 211.197 -70.33 212.542 -70.9916 213.884C-71.7107 215.211 -72.3418 216.584 -72.8807 217.994C-73.3002 219.222 -73.7365 220.422 -74.257 221.613C-75.3947 224.32 -76.2656 227.133 -76.8573 230.009C-76.8705 230.069 -76.8798 230.13 -76.8921 230.19C-77.2348 231.125 -77.5657 232.067 -77.8847 233.016Z" fill="#8E3F32"/>
<path d="M-33.1626 71.5449C-32.13 72.8992 -31.1844 74.3177 -30.3314 75.7918C-29.4065 77.4351 -28.7192 79.2031 -27.832 80.8693C-24.3803 87.2699 -21.947 94.1693 -20.6196 101.319C-20.1021 104.281 -19.4552 107.185 -19.1619 110.171C-18.9935 111.887 -18.6169 113.579 -18.4171 115.294C-18.2073 117.094 -18.309 119.005 -18.2596 120.823C-18.3018 122.453 -18.4931 124.076 -18.8312 125.671C-19.115 127.507 -19.334 129.353 -19.6089 131.19C-20.165 134.907 -20.5366 138.681 -21.4315 142.339C-22.4119 145.919 -23.6609 149.421 -25.1679 152.814C-25.8156 154.565 -26.5787 156.272 -27.4523 157.922L-30.2687 162.8C-32.0479 165.882 -34.1935 168.764 -36.1955 171.708C-38.3197 174.829 -40.5216 177.891 -42.8573 180.859C-47.6353 186.93 -52.671 192.787 -57.2326 199.028C-59.1923 201.709 -61.3225 204.278 -63.1933 207.026C-65.0862 209.816 -66.9156 212.735 -68.6182 215.647C-70.4357 218.752 -72.3605 221.791 -73.9684 225.014C-75.4636 228.17 -76.7091 231.438 -77.6936 234.788L-77.7245 234.882C-77.9372 235.56 -78.1369 236.248 -78.3345 236.935L-78.9767 236.564C-78.7569 235.796 -78.5236 235.035 -78.2845 234.277C-78.1527 233.855 -78.0265 233.431 -77.8893 233.011C-77.5706 232.063 -77.2388 231.12 -76.8939 230.182C-76.0078 227.711 -74.9543 225.303 -73.7405 222.976C-71.9537 219.607 -69.9663 216.278 -67.9164 213.064C-65.971 210.015 -64.1084 206.868 -61.8954 204.004C-59.5034 200.908 -57.2387 197.726 -54.8709 194.614C-50.2552 188.548 -45.1506 182.869 -40.6287 176.731C-38.3021 173.574 -36.1224 170.31 -33.939 167.05C-33.0466 165.719 -32.0802 164.48 -31.2766 163.088L-28.5571 158.378C-26.6696 154.879 -25.0859 151.225 -23.8236 147.455C-22.4368 143.744 -21.5118 139.877 -21.0696 135.94C-20.6923 132.454 -20.0353 128.961 -19.5124 125.488C-19.1619 123.671 -18.9842 121.825 -18.9817 119.974C-18.9693 118.009 -19.0626 116.045 -19.2612 114.09C-20.1121 108.152 -20.7715 102.077 -22.3699 96.2703C-23.3278 93.0142 -24.4706 89.8154 -25.7928 86.6895C-27.1035 83.4401 -28.7721 80.3959 -30.2756 77.2344C-31.6072 74.4363 -33.7005 72.1723 -35.2077 69.4921C-35.9593 68.1831 -36.7857 66.9186 -37.683 65.7047L-37.3984 65.2119C-36.9067 65.8473 -36.4182 66.4841 -35.9547 67.1412C-34.9476 68.5666 -34.2117 70.1399 -33.1626 71.5449Z" fill="#8E3F32"/>
<path d="M17.1304 100.738C17.0898 102.832 17.5269 104.94 17.3876 107.023C17.3879 107.077 17.3668 107.129 17.329 107.167C17.2912 107.205 17.2397 107.227 17.186 107.227C17.1322 107.227 17.0806 107.206 17.0424 107.169C17.0042 107.131 16.9825 107.079 16.9822 107.026C16.9678 105.465 16.5512 103.939 16.5786 102.376C16.5955 101.422 16.6001 100.412 16.5545 99.4069C16.5213 98.4812 16.4215 97.5591 16.2559 96.6477C15.9144 94.8836 15.4572 93.1377 14.9992 91.3991C14.6711 89.7188 14.1837 88.0734 13.5435 86.4855C12.8102 84.9775 12.3835 83.3612 11.7415 81.8152C10.9957 80.0426 10.1053 78.3343 9.07927 76.7076C7.1517 73.6106 4.83875 70.7708 2.1959 68.2563C-0.883577 65.3255 -4.19302 62.6301 -7.35526 59.7903C-8.17771 58.813 -9.07059 57.8973 -10.0267 57.0504C-10.5273 56.6282 -10.7497 56.0732 -11.1982 55.6441C-11.5197 55.3343 -12.3726 54.6751 -12.3283 54.1545C-12.3281 54.1507 -12.3289 54.1468 -12.3307 54.1435C-12.3325 54.1401 -12.3351 54.1372 -12.3384 54.1352L-12.6232 53.9809C-12.6265 53.979 -12.6305 53.9784 -12.6342 53.9794C-12.6379 53.9804 -12.6411 53.9829 -12.643 53.9862C-12.645 53.9896 -12.6455 53.9935 -12.6445 53.9972C-12.6435 54.0009 -12.641 54.0041 -12.6377 54.006C-12.4345 54.1233 -12.2853 54.5453 -12.1457 54.7378C-11.7024 55.2551 -11.299 55.8053 -10.9391 56.3837C-11.9297 55.3853 -12.8994 54.3643 -13.8109 53.2851C-16.1551 50.5135 -18.3408 47.6398 -20.5165 44.7372C-21.4981 43.3991 -22.3752 41.9875 -23.1402 40.5148L-22.8125 39.9473C-22.1086 41.3735 -21.2911 42.7409 -20.368 44.036C-15.8757 49.9036 -11.3727 55.5412 -5.72018 60.3471C-2.88284 62.7609 -0.0111018 65.2024 2.67835 67.7793C3.85199 68.9046 4.84651 70.1851 6.01234 71.3104C7.21454 72.6403 8.28012 74.0876 9.193 75.6305C10.1911 77.1061 11.0677 78.6603 11.8142 80.2779C12.6087 81.9533 13.0946 83.7269 13.8201 85.4229C14.3509 86.6444 14.791 87.9033 15.1366 89.1895C15.5039 90.5566 15.8584 91.9258 16.2003 93.2969C16.314 93.7611 16.4349 94.2226 16.5416 94.6871C16.9924 96.6711 17.1902 98.7041 17.1304 100.738Z" fill="#8E3F32"/>
<path d="M-12.645 54.0019C-12.6483 54 -12.6508 53.9968 -12.6518 53.9931C-12.6528 53.9894 -12.6523 53.9854 -12.6503 53.9821C-12.6484 53.9788 -12.6452 53.9763 -12.6415 53.9753C-12.6378 53.9743 -12.6338 53.9748 -12.6305 53.9768L-12.3457 54.1311C-12.3424 54.1331 -12.3398 54.1359 -12.338 54.1393C-12.3362 54.1427 -12.3354 54.1465 -12.3356 54.1504C-12.3799 54.671 -11.527 55.3302 -11.2055 55.64C-10.758 56.0708 -10.5346 56.624 -10.034 57.0462C-9.07634 57.8938 -8.18205 58.8104 -7.35835 59.7886C-7.02936 60.161 -6.70109 60.5307 -6.36762 60.8934C-3.78426 63.6967 -1.05769 66.3354 1.43544 69.231C3.58917 71.6891 5.51082 74.3412 7.17583 77.1534C8.01871 78.6015 8.80367 80.0957 9.55799 81.5867C10.3894 83.233 10.7843 85.0247 11.517 86.7103C12.7977 89.6547 14.5257 92.7085 15.1242 95.8769C15.7001 98.6757 16.1311 101.502 16.4155 104.346C16.4566 104.841 16.5073 105.334 16.5275 105.831C16.6252 109.008 16.4568 112.188 16.0242 115.337C15.8147 116.96 15.3997 118.528 15.0988 120.133C15.0194 120.95 14.8985 121.761 14.7365 122.566C14.4755 123.464 14.2337 124.365 13.9514 125.255C13.8906 125.444 13.5669 125.425 13.5924 125.21C13.7622 123.784 14.1886 122.433 14.3961 121.017C14.4224 120.832 14.4598 120.649 14.4781 120.46C14.6244 118.964 15.1068 117.504 15.347 116.02C15.3756 115.84 15.3924 115.654 15.4189 115.473C15.714 113.443 15.8886 111.397 15.9417 109.346C15.976 108.166 15.9877 106.989 15.9549 105.834C15.7374 102.393 15.2586 98.973 14.5225 95.6046C14.0763 93.9196 13.4682 92.2817 12.7068 90.7137C12.036 89.0392 11.2266 87.4246 10.5784 85.7419C10.007 84.0121 9.33111 82.3185 8.55465 80.6704C7.78182 79.2057 7.02429 77.7319 6.176 76.3086C4.2782 73.2817 2.11522 70.4293 -0.28743 67.7852C-2.68689 65.022 -5.338 62.5008 -7.74592 59.7484C-8.33077 59.0806 -8.92492 58.423 -9.54792 57.7902C-9.83972 57.493 -10.7194 56.9617 -10.8517 56.5898C-10.8814 56.521 -10.9148 56.4539 -10.9517 56.3888C-11.3116 55.8104 -11.715 55.2602 -12.1583 54.7429C-12.2911 54.5387 -12.4443 54.1234 -12.645 54.0019Z" fill="#8E3F32"/>
<path d="M10.0325 139.085C9.90894 139.299 10.0364 139.441 10.0054 139.683C9.81065 140.484 9.72291 141.308 9.74445 142.133C9.7159 142.729 9.56878 143.314 9.31167 143.852C9.29108 143.913 9.27095 143.973 9.25653 144.025C8.95645 145.074 8.65183 146.12 8.40651 147.182C7.48453 151.183 7.27727 155.309 6.70266 159.362C5.72195 166.968 5.77155 174.672 6.85006 182.266C7.2861 186.242 8.02779 190.179 9.06858 194.041C10.1273 197.909 11.407 201.712 12.9014 205.433C15.8273 212.427 20.8459 218.649 26.2291 223.92C32.1509 229.717 39.3833 234.01 46.5181 238.127C49.7333 239.984 52.9924 241.673 56.3415 243.274C57.9533 244.045 59.5018 244.931 61.1063 245.715C62.9838 246.633 64.9674 247.323 66.9152 248.061C74.3886 250.886 81.8093 253.785 89.1938 256.826C90.9885 257.564 92.7529 258.367 94.4868 259.236C96.3696 260.174 98.1414 261.281 100.103 262.046C101.507 262.694 102.862 263.446 104.155 264.295C105.881 265.292 107.608 266.289 109.335 267.286C110.739 268.096 111.958 269.173 113.371 269.989C115.076 271.039 116.714 272.195 118.276 273.45C119.728 274.549 121.184 275.644 122.605 276.782C124.158 278.027 125.496 279.439 126.929 280.807C128.245 282.065 129.624 283.245 130.862 284.584C132.27 286.107 133.6 287.698 134.959 289.264C136.079 290.556 137.421 291.664 138.453 293.03C139.773 294.781 140.86 296.691 142.202 298.43C144.367 301.482 146.249 304.726 147.825 308.12C149.469 311.64 150.897 315.258 152.1 318.953C153.194 322.407 153.903 325.971 154.213 329.581C154.457 331.471 154.791 333.355 155.031 335.24C155.12 336.036 155.169 336.836 155.178 337.637C155.199 338.462 155.484 339.253 155.509 340.058C155.517 341.139 155.462 342.219 155.346 343.293C155.366 344.535 155.457 345.774 155.619 347.005L155.62 347.052C155.721 349.734 155.632 352.424 155.607 355.104C155.606 355.172 155.601 355.239 155.601 355.309C155.541 360.078 155.013 364.81 154.615 369.553C154.565 370.15 154.51 370.745 154.465 371.342L153.845 370.985C153.856 370.856 153.864 370.726 153.874 370.596C153.958 369.593 154.056 368.591 154.18 367.592C154.417 365.678 154.464 363.742 154.56 361.818C154.662 359.739 154.873 357.68 154.907 355.594L154.927 354.438C155.064 350.876 154.988 347.309 154.7 343.755C154.675 342.956 154.717 342.157 154.826 341.365C154.835 340.504 154.737 339.646 154.534 338.809C154.463 338.163 154.438 337.513 154.46 336.863C154.384 335.747 154.237 334.638 154.021 333.54C153.428 329.721 153.091 325.87 152.301 322.082C151.851 320.269 151.269 318.492 150.558 316.764C149.785 314.66 149.074 312.519 148.179 310.465C147.464 308.821 146.587 307.249 145.738 305.67C144.769 303.872 143.894 302.067 142.751 300.364C141.697 298.793 140.512 297.33 139.468 295.749C138.274 293.983 136.92 292.331 135.424 290.813C132.703 287.953 130.327 284.856 127.401 282.184C126.094 280.989 124.909 279.674 123.588 278.497C121.918 277.012 120.105 275.691 118.328 274.34C116.876 273.136 115.351 272.022 113.762 271.005C112.221 270.115 110.857 269.137 109.401 268.128C107.904 267.091 106.208 266.268 104.631 265.357C103.009 264.298 101.31 263.362 99.5494 262.555C97.9976 261.875 96.4841 261.11 95.0157 260.264C93.1546 259.291 91.244 258.41 89.3091 257.595C85.4464 255.971 81.5969 254.329 77.6737 252.85C73.8814 251.419 70.0978 249.968 66.3079 248.533C64.7266 247.934 63.1439 247.344 61.5953 246.663C59.8195 245.881 58.1574 244.863 56.4074 244.028C49.3284 240.681 42.5115 236.805 36.0145 232.433C29.5504 228.19 23.8374 222.901 19.1096 216.783C16.8593 213.956 14.8979 210.911 13.2547 207.694C11.76 204.329 10.4934 200.868 9.46332 197.334C6.32077 187.669 5.57713 177.592 5.37466 167.493C5.42536 166.378 5.53341 165.266 5.69837 164.162C5.78486 163.126 5.80582 162.098 5.93836 161.061C6.28542 158.318 6.59679 155.569 6.97618 152.829C7.29493 150.275 7.79966 147.747 8.48633 145.266C8.93201 144.185 9.2244 143.047 9.35504 141.885C9.35053 141.251 10.0166 139.907 9.62525 139.366C9.61219 139.344 9.60532 139.319 9.60539 139.294C9.60546 139.268 9.61248 139.243 9.62566 139.222L9.78703 138.942C9.79853 138.922 9.81573 138.905 9.8365 138.894C9.85727 138.883 9.88075 138.879 9.90408 138.881C9.92877 138.879 9.95346 138.884 9.97554 138.895C9.99763 138.907 10.0163 138.923 10.0294 138.944C10.0426 138.965 10.0499 138.99 10.0504 139.014C10.051 139.039 10.0448 139.063 10.0325 139.085Z" fill="#F2A663"/>
<path d="M4.73807 240.419C4.64551 240.225 4.54439 240.036 4.45003 239.842C3.14953 236.982 2.00769 234.052 1.02964 231.065C0.0454896 227.703 -0.717538 224.279 -1.25451 220.817C-1.44973 219.227 -1.7263 217.647 -2.08314 216.085C-2.60787 214.572 -3.0315 213.025 -3.35129 211.456C-3.41749 210.803 -3.44499 210.147 -3.43358 209.491C-3.45193 208.726 -3.6261 207.988 -3.65311 207.223C-3.71454 205.439 -3.60837 203.656 -3.7404 201.876C-3.88205 199.989 -4.27502 198.164 -4.30648 196.265C-4.34005 194.408 -4.24978 192.549 -4.11433 190.697C-3.84374 186.956 -3.30392 183.237 -2.80211 179.522C-2.54345 177.691 -2.16748 175.879 -1.6765 174.097C-1.45396 173.261 -1.24056 172.426 -1.05393 171.582C-0.851441 170.661 -0.900828 169.74 -0.77407 168.815C-0.728072 168.476 -0.676134 168.124 -0.617439 167.768C-0.489083 166.913 -0.279541 166.073 0.00836392 165.258C0.144477 164.892 0.310953 164.539 0.50603 164.202C1.06171 163.369 1.44133 162.432 1.62156 161.447C1.69891 160.926 2.835 160.303 2.06745 159.706C2.03807 159.689 2.07628 159.638 2.10372 159.659C2.5638 159.996 2.53523 160.284 2.19677 160.742C1.86158 161.243 1.67128 161.827 1.64688 162.429C1.38051 163.209 0.9839 163.938 0.473899 164.585C-0.297611 166.282 -0.676701 168.132 -0.635187 169.996C-0.777401 171.698 -1.12227 173.378 -1.66249 174.999C-2.47207 178.605 -3.03433 182.263 -3.34534 185.946C-3.79136 189.506 -3.9921 193.092 -3.94619 196.68C-3.90696 198.428 -3.54339 200.135 -3.36139 201.871C-3.17715 203.642 -3.29601 205.441 -3.25582 207.217C-3.23756 207.976 -3.06752 208.725 -3.03027 209.486C-3.0351 210.358 -2.9641 211.228 -2.81809 212.087C-2.46688 213.652 -1.85676 215.121 -1.48917 216.681C-1.11724 218.262 -0.970056 219.935 -0.687547 221.537C-0.370829 223.332 -0.0100265 225.118 0.39486 226.896C1.1801 230.447 2.36904 233.897 3.93853 237.178C5.56777 240.51 6.54278 244.279 8.62521 247.389C10.8578 250.732 13.4252 253.839 15.9823 256.941C16.327 257.364 16.6944 257.769 17.0648 258.168C17.0113 258.112 16.9522 258.061 16.8974 258.005C11.9376 252.825 7.83317 246.889 4.73807 240.419Z" fill="#F2A663"/>
<path d="M25.8533 266.344L25.8159 266.316C24.1638 265.069 22.549 263.775 20.9717 262.435C22.1874 263.444 23.4317 264.42 24.6762 265.407C25.0692 265.719 25.4616 266.032 25.8533 266.344Z" fill="#F2A663"/>
<path d="M-5.48025 202.845C-5.41502 202.938 -5.35501 203.035 -5.30048 203.134C-4.3118 204.7 -4.60325 207.053 -4.68082 208.786C-4.78057 212.519 -4.31508 216.246 -3.30012 219.84C-2.4883 223.396 -1.45171 226.898 -0.196655 230.323C1.11431 233.632 2.89179 236.664 4.45029 239.843C4.54465 240.036 4.64577 240.225 4.73833 240.42C7.83063 246.888 11.9318 252.824 16.8881 258.004C16.943 258.06 17.002 258.111 17.0555 258.168C19.4224 260.512 21.9458 262.692 24.6081 264.694C24.8752 264.904 25.1414 265.114 25.4085 265.324C28.3801 267.664 31.3091 269.983 34.4517 272.095C37.4526 274.113 40.1566 276.485 43.2954 278.297C43.5187 278.426 43.7296 278.572 43.9453 278.713C45.2347 279.552 46.4147 280.556 47.7087 281.391C49.3199 282.433 51.0477 283.326 52.7128 284.28C53.4373 284.699 54.0688 285.392 54.7585 285.882C55.4308 286.36 56.1372 286.79 56.8436 287.213C58.5487 288.267 60.1933 289.417 61.7697 290.656C64.7485 292.927 67.6707 295.274 70.5672 297.649C76.518 302.53 82.3899 307.487 87.8798 312.888C89.1921 314.179 90.4784 315.497 91.7472 316.831C93.0928 318.095 94.323 319.476 95.4232 320.958C96.3627 322.396 97.1684 323.92 98.0874 325.374C99.0716 326.828 100.144 328.22 101.299 329.542C102.249 330.693 102.945 332.119 103.777 333.361C104.691 334.723 105.659 336.049 106.635 337.368C108.537 340.158 110.122 343.152 111.359 346.294C111.39 346.364 111.426 346.433 111.457 346.503L110.525 345.965C110.321 345.485 110.115 345.006 109.896 344.534C109.17 342.633 108.255 340.81 107.166 339.091C106.1 337.665 105.041 336.234 104.017 334.775C102.86 333.127 101.923 331.241 100.644 329.693C99.6826 328.528 98.8509 327.262 97.863 326.118C96.8416 324.696 95.9315 323.198 95.1407 321.636C94.0153 320.05 92.7344 318.58 91.3169 317.249C89.9469 315.799 88.5434 314.379 87.1217 312.98C84.361 310.267 81.5052 307.646 78.582 305.108C72.6761 299.979 66.5822 295.017 60.3471 290.293C58.887 289.187 57.3975 288.229 55.8414 287.275C54.2401 286.294 52.8527 285.017 51.231 284.079C49.7056 283.198 48.1325 282.369 46.6789 281.372C45.063 280.262 43.5498 279.093 41.8567 278.092C40.3671 277.127 38.9363 276.073 37.572 274.938C36.1354 273.845 34.6201 272.856 33.1252 271.845C30.596 270.137 28.2321 268.243 25.8536 266.344C25.4621 266.033 25.0697 265.72 24.6765 265.407C23.432 264.42 22.1877 263.444 20.972 262.435C19.7562 261.425 18.5814 260.399 17.4582 259.287C15.2918 257.118 13.2882 254.793 11.4636 252.33C9.55367 249.882 7.82709 247.296 6.29792 244.593C4.86341 241.946 3.63972 239.188 2.22185 236.531C0.748301 233.772 -0.485652 230.89 -1.46644 227.92C-2.46863 224.879 -3.13659 221.732 -3.9245 218.63C-4.66726 215.707 -4.99576 212.695 -4.90038 209.68C-4.84609 207.749 -4.29634 205.065 -5.31033 203.27C-5.37686 203.136 -5.45195 203.007 -5.53513 202.884C-5.55688 202.855 -5.5032 202.815 -5.48025 202.845Z" fill="#F2A663"/>
<path d="M-2.39251 233.68C-2.99183 231.726 -3.44434 229.714 -3.95808 227.739C-4.5219 225.563 -4.40426 223.364 -5.56286 221.345C-5.5664 221.338 -5.56828 221.331 -5.56831 221.324C-5.56834 221.317 -5.56652 221.31 -5.56303 221.304L-5.31146 220.89C-5.30747 220.883 -5.30091 220.878 -5.29321 220.876C-5.28552 220.874 -5.27731 220.875 -5.27041 220.879C-5.2635 220.883 -5.25848 220.889 -5.25641 220.897C-5.25435 220.905 -5.25543 220.913 -5.25941 220.92C-5.55869 221.463 -4.9939 222.205 -4.78716 222.704C-4.52099 223.405 -4.29613 224.121 -4.11376 224.848C-3.91957 225.52 -3.99626 226.349 -3.83483 227.06C-3.64047 227.91 -3.38197 228.748 -3.15101 229.588C-2.29755 232.993 -1.13814 236.314 0.313098 239.511C3.23119 245.608 7.52421 250.938 12.0573 255.902C16.922 261.301 22.0944 266.415 27.5486 271.219C33.5127 276.398 39.8768 281.092 46.2355 285.768C52.1349 290.108 57.8984 294.592 63.6459 299.125C64.337 299.709 64.9771 300.352 65.5597 301.044C66.1844 301.601 66.8486 302.112 67.5469 302.573C68.1026 303.052 68.624 303.569 69.1073 304.12C69.8122 304.825 70.5535 305.492 71.3281 306.119C74.0442 308.594 76.6028 311.237 78.9891 314.032C81.381 316.761 83.9256 319.357 86.2678 322.126C88.5913 324.873 90.7959 327.722 92.9304 330.616C94.9242 333.322 96.7618 336.142 98.4872 339.022L97.3556 338.368C93.6856 332.448 89.5477 326.83 84.9814 321.57C82.6423 318.836 80.1232 316.22 77.7254 313.524C75.2971 310.716 72.672 308.085 69.8701 305.651C68.6044 304.584 67.595 303.283 66.2331 302.313C65.6054 301.87 65.0301 301.357 64.5183 300.783C63.7771 300.061 62.9852 299.392 62.1487 298.783C59.2893 296.432 56.4278 294.058 53.4683 291.835C47.349 287.236 41.1168 282.791 35.0758 278.09C28.9811 273.365 23.2194 268.226 17.8316 262.709C12.2309 256.96 6.63782 251.105 2.41622 244.237C0.373012 240.936 -1.2428 237.388 -2.39251 233.68Z" fill="#F2A663"/>
<path d="M-6.79492 214.891C-6.69264 215.683 -6.59085 216.476 -6.50914 217.271C-6.67583 218.868 -6.65961 220.479 -6.46079 222.072C-6.09046 225.308 -5.29925 228.478 -5.1481 231.741C-5.07446 233.322 -5.32293 234.878 -5.20589 236.459C-4.99381 238.445 -4.68119 240.419 -4.26926 242.373C-1.63404 257.154 4.82124 271.023 12.119 284.024C13.5766 286.62 15.0657 289.196 16.6055 291.746L15.5402 291.131C14.7505 289.809 13.9626 288.487 13.1945 287.154C9.40915 280.77 6.01807 274.16 3.04028 267.361C1.66674 264.118 0.416544 260.824 -0.773798 257.51C-2.04382 253.896 -3.10335 250.212 -3.94704 246.475C-4.81503 243.057 -5.40937 239.575 -5.72448 236.062C-5.83267 234.493 -5.5654 232.927 -5.63029 231.353C-5.74314 229.553 -5.96482 227.762 -6.29414 225.989C-6.55353 224.406 -6.80223 222.827 -6.94662 221.231C-6.97938 220.865 -7.01298 220.499 -7.03347 220.131C-7.12936 218.364 -6.85226 216.642 -6.79492 214.891Z" fill="#F2A663"/>
<path d="M-6.50818 213.982C-6.48192 214.16 -6.46395 214.338 -6.43985 214.515C-6.40834 214.758 -6.37895 214.992 -6.34732 215.231C-5.96399 218.251 -5.7653 221.286 -5.42157 224.314C-5.20832 226.188 -4.83222 227.997 -4.4718 229.842C-4.13122 231.606 -3.97002 233.391 -3.62749 235.152C-3.31064 236.79 -2.63767 238.356 -2.19263 239.964C-1.76437 241.877 -1.17374 243.749 -0.427163 245.562C2.80123 252.393 5.56224 259.422 9.21055 266.051C10.8946 269.113 12.2684 272.315 14.4795 275.056C15.4823 276.306 16.2885 277.779 17.1753 279.11C18.257 280.727 19.3572 282.332 20.4761 283.926C25.0025 290.361 30.1585 296.333 35.1144 302.435L33.5035 301.505C33.4186 301.4 33.3354 301.296 33.2505 301.191C28.4164 295.266 23.4995 289.405 19.1323 283.117C17.0536 280.126 15.0767 277.059 12.9587 274.091C11.0082 271.359 9.74307 268.205 8.07068 265.303C6.26452 261.993 4.63546 258.589 3.19037 255.106C1.70498 251.737 -0.0154496 248.391 -1.31633 244.95C-1.96052 243.245 -2.37471 241.456 -2.85119 239.699C-3.32767 237.942 -3.98622 236.273 -4.29996 234.475C-4.91254 230.962 -5.57039 227.416 -5.95558 223.87C-6.16197 221.969 -6.28756 220.06 -6.42804 218.153C-6.44981 217.858 -6.48286 217.562 -6.5139 217.269C-6.59644 216.473 -6.69824 215.68 -6.79968 214.889C-6.82793 214.672 -6.85654 214.454 -6.88215 214.237C-6.9386 213.766 -6.98893 213.295 -7.0265 212.821C-7.07411 212.073 -7.06722 211.323 -7.0059 210.576C-6.95379 209.809 -7.13583 208.912 -7.03926 208.179C-6.92524 207.307 -6.61418 206.495 -6.41789 205.641C-6.24232 204.879 -6.72751 204.215 -6.44699 203.456C-6.4319 203.414 -6.36646 203.431 -6.38023 203.472C-6.64342 204.254 -6.1483 204.904 -6.28663 205.675C-6.57325 206.596 -6.7195 207.554 -6.72045 208.519C-6.62635 209.53 -6.59771 210.546 -6.6347 211.561C-6.63508 211.756 -6.63498 211.949 -6.63117 212.146C-6.63231 212.76 -6.59123 213.374 -6.50818 213.982Z" fill="#F2A663"/>
<path d="M41.3961 303.411C40.9058 302.956 40.4463 302.47 40.0209 301.954C39.4444 301.328 38.7445 300.919 38.1844 300.288C37.2098 299.191 36.0252 298.189 34.9711 297.163C33.6298 295.831 32.3665 294.422 31.1877 292.945C30.5726 292.188 29.8409 291.57 29.175 290.857C28.4449 290.04 27.7568 289.186 27.1132 288.3C26.4284 287.394 25.7378 286.498 24.9946 285.639C24.2801 284.816 23.4103 284.128 22.7053 283.277C19.8119 279.892 17.1205 276.34 14.6451 272.639C13.4688 270.873 12.3914 269.043 11.4178 267.157C10.9238 266.128 10.3286 265.151 9.6412 264.24C9.33796 263.942 9.05324 263.626 8.78864 263.293C8.6088 262.857 8.45133 262.411 8.31679 261.959C7.71962 260.548 6.96849 259.178 6.29193 257.802C5.94281 257.093 5.30545 256.012 5.65699 255.205C5.6759 255.172 5.73364 255.194 5.71977 255.23C5.35132 256.188 6.35584 257.599 6.78766 258.421C7.38441 259.549 7.97047 260.696 8.51709 261.848C8.76098 262.535 9.11558 263.178 9.56682 263.751C10.0113 264.252 10.4116 264.791 10.7634 265.361C11.7091 266.825 12.5079 268.408 13.4003 269.906C15.286 273.141 17.4639 276.197 19.9069 279.035C21.0076 280.296 21.9631 281.677 23.0141 282.98C24.1624 284.398 25.5484 285.551 26.6758 286.991C30.7832 292.128 35.2892 296.934 40.1519 301.363C40.6377 301.814 41.0477 302.349 41.5132 302.82C42.0973 303.414 42.7686 303.814 43.3394 304.434C44.7392 305.943 46.2761 307.319 47.7245 308.779C48.4014 309.462 49.052 310.163 49.7133 310.86L48.1695 309.969C47.2297 309.022 46.2862 308.077 45.3225 307.145C44.0142 305.883 42.7888 304.57 41.3961 303.411Z" fill="#F2A663"/>
<path d="M85.9421 280.066C87.292 281.116 88.7112 282.073 90.1899 282.932C91.9055 283.966 93.5443 285.122 95.0937 286.392C98.6087 289.15 102.119 291.913 105.58 294.739C107.23 296.089 108.864 297.459 110.482 298.849C112.299 300.29 113.997 301.875 115.559 303.589C118.233 306.775 120.737 310.101 123.177 313.464C125.645 316.862 128.163 320.26 130.443 323.785C132.717 327.366 134.757 331.09 136.55 334.934C138.247 338.506 139.746 342.181 141.305 345.815C142.904 349.543 143.815 353.541 145.007 357.413C145.621 359.4 146.224 361.391 146.777 363.395C147.139 364.707 147.396 366.059 147.654 367.408L146.835 366.936C146.286 364.459 145.696 361.993 144.96 359.558C143.738 355.516 142.739 351.325 141.224 347.387C139.773 343.613 138.077 339.848 136.39 336.178C134.623 332.326 132.622 328.586 130.398 324.978C128.188 321.409 125.638 318.035 123.189 314.627C120.598 311.019 117.923 307.473 115.079 304.054C113.642 302.468 112.081 300.999 110.41 299.662C108.668 298.143 106.892 296.664 105.106 295.199C101.651 292.365 98.1398 289.603 94.6258 286.844C93.0081 285.535 91.2983 284.345 89.5096 283.282C87.9566 282.327 86.4572 281.288 85.0179 280.168C83.4255 279.121 81.7671 278.177 80.0529 277.343C78.1321 276.295 76.2069 275.254 74.2998 274.177C72.4886 273.154 70.7066 272.081 68.9538 270.958C67.0692 269.745 65.3218 268.346 63.4229 267.149C61.6734 266.046 59.8509 265.065 58.0934 263.972C56.199 262.794 54.3977 261.475 52.5227 260.269C49.0492 258.014 45.7139 255.553 42.5349 252.899C36.2458 247.7 30.0875 242.198 25.1895 235.638C24.0298 234.085 22.8104 232.585 21.6435 231.037C20.4225 229.42 19.4998 227.587 18.4434 225.861C16.3507 222.545 14.4525 219.11 12.7585 215.574C11.1651 212.13 9.31311 208.907 8.10262 205.285C6.71186 201.602 5.59754 197.82 4.7689 193.971C3.46612 186.504 3.09281 178.969 2.48885 171.442C2.19273 167.765 2.99815 164.1 3.63035 160.506C3.96539 158.6 4.10606 156.712 4.625 154.846C4.72496 154.262 4.78834 153.673 4.81477 153.081C4.89511 152.509 5.41515 151.232 4.9941 150.744C4.98106 150.73 5.00278 150.708 5.01534 150.723C5.36754 151.121 5.04798 152.06 4.97036 152.507C4.85952 153.152 4.86814 153.783 4.80312 154.425C4.69797 155.439 4.30862 156.369 4.25038 157.404C4.03907 161.2 2.95172 164.888 2.76595 168.7C2.7208 169.611 2.7241 170.524 2.77587 171.435C2.93274 172.32 3.04399 173.213 3.10917 174.109C3.05575 176.301 3.20212 178.492 3.54651 180.657C3.72888 181.428 3.84605 182.214 3.89676 183.005C3.85536 183.934 3.86967 184.865 3.93964 185.792C4.09302 187.853 4.56494 189.881 4.88916 191.918C5.52147 195.76 6.53831 199.529 7.92437 203.168C8.66566 205.18 9.2253 207.216 10.0959 209.194C10.9006 211.024 11.8271 212.773 12.7749 214.528C14.6247 217.947 16.2484 221.501 18.3616 224.785C19.3676 226.352 20.2679 227.98 21.2609 229.554C22.3857 231.334 23.8507 232.858 25.0861 234.561C30.0658 241.445 36.454 247.09 42.9619 252.485C46.3773 255.279 49.9483 257.877 53.6577 260.267C55.401 261.408 57.0955 262.618 58.8633 263.72C60.7515 264.893 62.7115 265.942 64.5814 267.145C66.337 268.27 67.9637 269.574 69.7183 270.702C71.6072 271.914 73.5545 273.035 75.5116 274.131C78.9464 276.055 82.8176 277.661 85.9421 280.066Z" fill="#F2A663"/>
<path d="M132.548 338.427C131.682 336.808 130.731 335.238 129.727 333.701C128.679 332.088 127.35 330.663 126.303 329.065C125.291 327.522 124.334 325.951 123.303 324.422C122.256 322.879 121.005 321.498 119.934 319.972C118.883 318.47 117.884 316.941 116.73 315.514C115.424 313.899 113.898 312.444 112.464 310.949C106.809 304.838 100.621 299.243 93.9738 294.229C90.8644 291.97 87.346 289.978 84.5629 287.327C83.2944 286.118 81.6086 285.435 80.242 284.342C78.6465 283.067 76.9171 282.047 75.2268 280.906C73.6488 279.839 72.0848 278.756 70.4547 277.77C68.8064 276.775 67.4146 275.455 65.7504 274.48C64.3236 273.491 62.9524 272.424 61.6428 271.285C60.1096 270.183 58.5181 269.164 56.875 268.234C53.5446 266.239 50.3846 263.972 47.4271 261.456C46.0838 260.336 44.7845 259.168 43.5505 257.929C42.8922 257.268 42.312 256.516 41.5927 255.924C40.7082 255.196 39.8237 254.466 38.939 253.735C37.3793 252.575 35.9077 251.301 34.5362 249.923C33.1824 248.414 31.7774 246.947 30.3858 245.479C27.6204 242.654 25.0043 239.687 22.5482 236.589C17.698 230.42 13.4196 223.821 9.76617 216.876C8.34515 214.091 7.10005 211.219 5.82783 208.364C5.23293 207.236 4.6974 206.078 4.22339 204.895C3.9183 204.113 3.49316 203.385 2.96333 202.734C2.94234 202.722 2.9711 202.692 2.99014 202.707C3.2428 202.972 3.44966 203.277 3.60221 203.609C3.67177 203.731 4.20421 204.476 4.21447 204.522C4.85527 206.186 5.60591 207.806 6.46145 209.37C7.98496 212.683 9.48909 216.001 11.2664 219.188C13.2018 222.656 15.442 225.982 17.6717 229.266C19.9829 232.748 22.4875 236.097 25.1737 239.298C27.7392 242.291 30.5303 245.084 33.2286 247.956C34.5031 249.362 35.8691 250.682 37.3177 251.908C38.9626 253.261 40.6073 254.613 42.2518 255.963C42.9346 256.526 43.5142 257.332 44.1455 257.964C44.7592 258.578 45.3998 259.163 46.047 259.741C47.5532 261.085 49.1282 262.352 50.7112 263.612C53.8839 266.139 57.4718 267.929 60.8272 270.177C62.2806 271.149 63.4658 272.378 64.8704 273.389C65.5823 273.9 66.3587 274.301 67.1012 274.759C67.9705 275.297 68.7245 276.032 69.5366 276.648C71.0302 277.776 72.754 278.663 74.309 279.716C75.9027 280.796 77.5757 281.77 79.1546 282.866C79.8779 283.367 80.5294 283.974 81.2312 284.503C81.9329 285.033 82.7199 285.414 83.458 285.881C84.0967 286.291 84.6933 286.763 85.2391 287.29C86.185 288.132 87.1948 288.899 88.2595 289.584C91.49 291.815 94.7072 294.042 97.7871 296.482C104.097 301.686 110.029 307.332 115.538 313.378C118.041 316.022 119.82 319.158 122.146 321.937C123.191 323.234 124.152 324.596 125.025 326.015C126.093 327.68 127.229 329.246 128.417 330.825C132.926 336.816 135.836 343.76 138.765 350.611C140.857 355.506 142.761 360.484 144.423 365.539L143.675 365.107C141.793 359.45 139.594 353.897 137.202 348.437C135.724 345.073 134.287 341.67 132.548 338.427Z" fill="#F2A663"/>
<path d="M-19.5777 176.238C-18.5737 175.038 -18.4501 173.68 -17.712 172.359C-17.3272 171.671 -17.0004 170.952 -16.6783 170.231C-16.5413 169.924 -16.3988 169.619 -16.2597 169.312C-16.0825 168.922 -15.8931 168.537 -15.697 168.157C-15.5877 167.943 -15.4815 167.722 -15.3636 167.516C-15.3581 167.506 -15.349 167.499 -15.3383 167.496C-15.3276 167.493 -15.3163 167.495 -15.3067 167.5C-15.2971 167.506 -15.2901 167.515 -15.2873 167.526C-15.2844 167.536 -15.2859 167.548 -15.2914 167.557C-15.3297 167.624 -15.3563 167.697 -15.392 167.764C-15.7132 168.391 -15.9933 169.035 -16.2616 169.684C-16.6504 170.626 -17.0198 171.578 -17.4853 172.489C-17.8173 173.251 -18.0896 174.038 -18.2997 174.842C-18.5737 175.472 -18.9588 176.048 -19.4366 176.542C-19.7065 176.864 -19.9506 177.198 -20.1875 177.534C-21.3835 179.328 -22.351 181.264 -23.0675 183.298C-23.5147 184.46 -23.9388 185.637 -24.4019 186.803C-25.0146 188.343 -25.7559 189.827 -26.4355 191.338C-27.2117 193.258 -27.8222 195.241 -28.2605 197.265C-29.2133 200.926 -30.6534 204.407 -31.6716 208.043C-32.7121 211.761 -33.487 215.569 -34.422 219.317C-35.3729 223.134 -36.0169 226.991 -36.6966 230.868C-37.4271 234.739 -37.9419 238.646 -38.2386 242.574C-38.3451 244.26 -38.6333 245.936 -38.7267 247.63C-38.8279 249.439 -38.827 251.254 -38.7724 253.065C-38.7012 255.418 -38.4907 257.764 -38.2018 260.1L-38.8172 259.744C-39.2166 256.421 -39.3935 253.075 -39.3464 249.729C-39.2294 242.446 -37.983 235.154 -36.7021 228.001C-36.3735 226.166 -36.1696 224.268 -35.7155 222.461L-34.191 216.395C-33.2555 212.675 -32.5138 208.899 -31.304 205.255C-30.7462 203.573 -30.0704 201.938 -29.5501 200.243C-28.956 198.311 -28.4608 196.348 -27.9615 194.39C-27.5305 192.861 -26.9548 191.376 -26.2422 189.956C-25.5759 188.529 -24.9644 187.088 -24.3819 185.631C-24.1846 185.138 -23.9777 184.65 -23.7901 184.15C-23.6268 183.716 -23.4609 183.284 -23.2923 182.854C-22.6102 180.982 -21.7046 179.2 -20.5952 177.546C-20.3009 177.122 -19.984 176.715 -19.6459 176.325C-19.6217 176.298 -19.6021 176.268 -19.5777 176.238Z" fill="#8E3F32"/>
</svg>
